<?xml version="1.0" encoding="utf-8"?>
<!-- Generator: Adobe Illustrator 15.1.0, SVG Export Plug-In . SVG Version: 6.00 Build 0)  -->
<!DOCTYPE svg PUBLIC "-//W3C//DTD SVG 1.1//EN" "http://www.w3.org/Graphics/SVG/1.1/DTD/svg11.dtd">
<svg version="1.1" id="Layer_1" xmlns="http://www.w3.org/2000/svg" xmlns:xlink="http://www.w3.org/1999/xlink" x="0px" y="0px"
	 width="311.81px" height="207px" viewBox="0 0 311.81 207" enable-background="new 0 0 311.81 207" xml:space="preserve">
<g>
	<path fill-rule="evenodd" clip-rule="evenodd" fill="#001E39" d="M289.373,31.229c0.944-0.121,0.885,0.73,1.75,0.689
		c-0.057,0.688,0.118,1.618-0.256,1.979c-1.043,0.142-1.439-0.339-1.968-0.695C288.844,32.324,289.425,32.104,289.373,31.229z"/>
	<path fill-rule="evenodd" clip-rule="evenodd" fill="#001E39" d="M286.477,33.16c3.265-1.115,0.771,4.862-0.915,1.967
		C285.461,34.954,285.418,33.522,286.477,33.16z"/>
	<path fill-rule="evenodd" clip-rule="evenodd" fill="#001E39" d="M292.124,37.881c0.931-0.034,1.415,0.364,2.193,0.477
		c0.116,1.316-0.256,2.126-0.927,2.628c-0.852,0.029-0.572-1.033-1.524-0.908C291.753,39.14,292.048,38.625,292.124,37.881z"/>
	<path fill-rule="evenodd" clip-rule="evenodd" fill="#001E39" d="M290.778,39.18c-0.528,2.401-2.768,2.345-3.087,0.389
		C288.274,38.301,289.975,37.949,290.778,39.18z"/>
	<path fill-rule="evenodd" clip-rule="evenodd" fill="#001E39" d="M285.237,41.288C291.116,40.626,284.253,47.092,285.237,41.288
		L285.237,41.288z"/>
	<path fill-rule="evenodd" clip-rule="evenodd" fill="#001E39" d="M290.94,55.698c-1.136,0.202-1.772,0.205-2.413-0.481
		C288.053,51.86,292.205,53.103,290.94,55.698z"/>
	<path fill-rule="evenodd" clip-rule="evenodd" fill="#001E39" d="M286.754,55.848c-0.217,0.749-0.539,1.385-0.915,1.966
		c-0.533,0.082-0.473-0.409-1.097-0.238c0.062-0.708-0.374-0.938-0.189-1.765C285.216,55.093,286.115,55.108,286.754,55.848z"/>
	<path fill-rule="evenodd" clip-rule="evenodd" fill="#001E39" d="M103.408,63.096c-1.95,0.082-1.257-2.394-1.922-3.555
		c-2.738-3.62-7.751-0.886-7.548,3.616c3.479,4.04,13.493,3.617,14.586,9.936c0.575,3.324-1.744,6.839-3.428,7.43
		c-5.312,1.864-12.794-3.774-6.049-6.929c0.477,0.923-0.207,1.631-0.048,2.862c2.724,2.42,7.493,0.968,6.862-2.086
		c-1.164-5.618-12.777-3.755-14.382-9.052c-1.18-5.337,2.435-11.053,8.325-10.43c2.517,1.37,4.566,2.899,4.743,6.025
		C104.037,61.875,104.293,62.395,103.408,63.096z"/>
	<path fill-rule="evenodd" clip-rule="evenodd" fill="#001E39" d="M120.692,56.783c0.935,3.708-4.874,2.036-6.02,4.302
		c1.444,1.458,0.825,4.107,0.979,7.284c0.185,3.868,2.536,8.819-1.27,9.889c-2.155-3.429-0.285-8.433-1.556-12.138
		c1.529-2.604-0.758-7.624-5.414-5.376C102.862,55.146,116.166,56.015,120.692,56.783z"/>
	<path fill-rule="evenodd" clip-rule="evenodd" fill="#001E39" d="M289.015,65.356c-0.555-0.907-1.526-1.411-1.268-3.104
		C290.288,59.991,291.702,64.771,289.015,65.356z"/>
	<path fill-rule="evenodd" clip-rule="evenodd" fill="#001E39" d="M132.103,59.178c2.178,5.368,2.435,14.364-1.861,18.907
		c-9.641,3.357-12.051-9.467-9.4-17.115c1.226-0.246,1.328,0.593,1.966,0.914c-0.858,5.127,0.02,14.551,5.281,13.302
		c1.543-0.367,2.89-3.263,3.167-5.012C131.964,65.696,127.914,60.352,132.103,59.178z"/>
	<path fill-rule="evenodd" clip-rule="evenodd" fill="#001E39" d="M286.429,62.008c0.452,0.973,0.462,1.441,0.179,2.426
		c-0.52,0.208-1.086,0.368-1.768,0.411C283.703,63.662,283.711,61.379,286.429,62.008z"/>
	<path fill-rule="evenodd" clip-rule="evenodd" fill="#001E39" d="M196.904,68.862c2.098,4.647-0.161,10.426-5.479,11.359
		c-10.219-1.641-7.379-20.906,2.965-18.888c1.553,1.096,1.53,3.715,3.222,4.679C196.99,67.062,197.693,68.171,196.904,68.862z
		 M191.69,64.59c-3.672-0.816-4.405,6.968-3.254,10.076C195.973,81.259,196.416,65.642,191.69,64.59z"/>
	<path fill-rule="evenodd" clip-rule="evenodd" fill="#001E39" d="M175.612,64.759c-1.353-0.182-4.151-0.29-5.07,0.354
		c-0.896-0.217-1.235-0.973-1.961-1.353c0.135-1.059,0.533-1.839,0.928-2.627c4.387,1.12,12.062-1.631,14.936,2.234
		c-1.554,1.153-3.759,0.715-5.31,1.452c-0.005,4.557-0.102,8.861,0.652,13.445c-4.646,1.195-2.671-5.095-2.747-6.873
		C176.952,69.258,176.6,66.688,175.612,64.759z"/>
	<path fill-rule="evenodd" clip-rule="evenodd" fill="#001E39" d="M286.962,69.506c-0.12,0.547-0.599,0.724-0.681,1.309
		c-0.995,0.307-0.982-0.139-1.755-0.471C284.103,68.061,286.523,68.063,286.962,69.506z"/>
	<path fill-rule="evenodd" clip-rule="evenodd" fill="#001E39" d="M242.134,102.882c8.94,6.919,7.309,24.542,0.785,31.725
		c-3.57,1.875-7.383,5.976-11.964,4.201c-0.907-0.269-0.866,0.45-1.548,0.415c-2.932-1.797-1.915-7.33-1.801-10.601
		c0.07-2.081-0.756-4.414-0.984-7.064c-0.345-4.025,0.531-8.351,0.189-11.229c-0.222-1.898-1.529-3.868-1.67-5.312
		c-0.396-4.064,2.248-6.992,4.757-7.848C233.885,95.81,239.095,101.702,242.134,102.882z M234.816,131.826
		c10.214-3.347,8.635-21.907-1.111-25.345C233.294,114.442,232.657,125.793,234.816,131.826z"/>
	<path fill-rule="evenodd" clip-rule="evenodd" fill="#001E39" d="M96.024,96.005c4.841-0.844,9.792,2.114,9.15,5.88
		c5.421,9.114,8.7,33.755-6.504,32.924c-0.392-0.069-0.455,0.199-0.224,0.214c-1.408,0.039-3.198-1.523-5.25-2.07
		c-1.832-1.693-1.167-5.802-3.181-7.32c-1.125-9.097-1.12-20.373,3.344-28.352C94.454,97.069,95.015,96.304,96.024,96.005z
		 M98.585,126.88c0.755-0.369,1.288,0.189,2.421,0.04c1.488-1.845,2.123-6.734,1.724-10.762c-0.376-3.809-1.259-10.483-4.646-11.749
		C97.043,110.808,94.858,120.945,98.585,126.88z"/>
	<path fill-rule="evenodd" clip-rule="evenodd" fill="#001E39" d="M64.05,137.526c-2.2-6.135-0.15-12.911-0.769-19.613
		c-0.602-6.515-1.534-14.427,0.134-20.918c9.516-3.792,20.759,4.864,22.244,12.929c-0.427,2.147,0.396,3.264,0.794,5.078
		c0.093,0.695-0.329,0.855-0.463,1.315c1.58,6.169-1.176,15.28-7.562,17.488C75.654,138.321,68.822,137.919,64.05,137.526z
		 M70.562,104.162c-2.042,7.073-0.184,18.648-0.462,27.301C82.806,129.388,80.436,107.371,70.562,104.162z"/>
	<path fill-rule="evenodd" clip-rule="evenodd" fill="#001E39" d="M119.579,122.61c3.18-6.763,9.634-5.246,11.871,1.301
		c0.362-5.175,2.737-12.59,1.854-18.468c-0.353-2.33-2.349-4.696,0.111-6.604c3.492-2.078,7.107,0.254,6.966,4.742
		c-0.062,1.991-0.68,4.596-0.556,6.818c0.19,3.381-1.666,7.272-1.728,10.981c-0.079,4.846,2.261,9.178-0.209,12.327
		c-1.907,0.882-4.497,0.881-5.54,2.109c-0.963-0.657-2.75-0.517-3.724-1.165c-0.426-2.035-1.767-4.69-3.195-6.438
		c-0.541-0.04-1.059-0.052-1.324,0.197c-0.515,3.584-2.956,5.01-5.828,6.066c-8.236,0.918-6.129-8.316-6.367-14.199
		c-0.294-7.303-1.894-15.121-2.284-21.182c2.941-2.911,7.024-2.128,7.896,1.896c0.64,2.951-0.08,8.761,0.65,13.665
		C118.67,118.017,118.049,120.127,119.579,122.61z"/>
	<path fill-rule="evenodd" clip-rule="evenodd" fill="#001E39" d="M103.078,147.655c0.286,0.672,0.268,1.763-0.041,2.424
		c-13.213,2.728-12.375,24.887,0.879,26.22c-1.502,6.726-9.995-0.057-12.04-4.389c-0.613-1.301-0.529-3.333-0.801-4.637
		c-0.389-1.861-1.677-3.665-1.221-5.967C91.229,154.364,97.646,147.315,103.078,147.655z"/>
	<path fill-rule="evenodd" clip-rule="evenodd" fill="#001E39" d="M205.106,169.862c-0.474,0.209-0.98-0.082-1.551,0.414
		c0.053,0.935,0.931-0.127,1.093,0.46c-0.978,3.169-3.387,4.856-5.402,6.954c-1.794-0.222-2.597-0.993-2.375-2.683
		c2.897-2.08,5.381-4.588,6.312-8.701c-0.47-2.548-0.787-3.953-0.995-6.183c-1.607-0.564-1.231-2.741-2.788-4.453
		c-1.636-1.794-4.67-2.549-2.336-5.104c5.146,1.049,6.585,7.469,8.823,12.039C206.288,165.382,205.812,167.679,205.106,169.862z"/>
	<path fill-rule="evenodd" clip-rule="evenodd" fill="#001E39" d="M191.918,155.325c0.594,2.431,1.212,7.132,0.729,9.041
		c-0.967-0.147-1.764-0.462-2.631-0.705C190.625,160.274,188.312,156.294,191.918,155.325z"/>
	<path fill-rule="evenodd" clip-rule="evenodd" fill="#001E39" d="M163.069,155.278c1.604,2.533,1.616,5.097,3.413,6.663
		c1.745-0.766,2.704-7.421,5.368-4.973c0.838,0.771,2.425,8.075,2.908,10.4c0.299,1.451-0.4,1.819-0.702,2.408
		c-4.03,1.289-1.838-7.833-3.826-8.212c-1.074-0.205-1.745,4.721-3.602,4.562c-2.014-0.579-2.925-2.223-3.675-4.025
		c-1.615,1.519,0.336,5.193-0.783,7.255c-0.761,0.083-1.233-0.108-1.758-0.25C159.989,164.044,159.378,156.996,163.069,155.278z"/>
	<path fill-rule="evenodd" clip-rule="evenodd" fill="#001E39" d="M141.924,155.581c0.163,1.74,0.56,3.588,0.578,4.855
		c3.641-0.269,4.859-3.041,7.776-4.054c2.03,3.692-2.305,3.981-3.626,6.104c2.272,2.279,4.966,4.149,6.708,6.94
		c-0.675,0.272-1.021,0.886-1.778,1.072c-3.304-1.572-4.996-4.702-8.935-5.656c0.183,1.344,1.01,2.326,0.609,3.094
		c-0.385,0.496-1.25,0.499-1.993,0.626C140.262,165.551,137.951,155.844,141.924,155.581z"/>
	<path fill-rule="evenodd" clip-rule="evenodd" fill="#001E39" d="M185.285,156.975c-0.967,2.064-4.551,1.417-5.782,3.205
		c1.292,1.224,3.474,0.85,5.265,1.191c0.646,3.422-4.359,1.431-5.566,3.649c0.503,2.154,2.863,1.189,5.038,1.625
		c0.355,0.381,0.461,0.998,0.858,1.336c-0.868,1.794-3.736,1.513-5.763,2.105c-5.235-2.058-2.713-8.261-2.861-13.04
		C178.366,155.611,183.15,155.8,185.285,156.975z"/>
	<path fill-rule="evenodd" clip-rule="evenodd" fill="#001E39" d="M111.072,156.819c-0.372,0.588,0.281,1.134-0.25,1.76
		c-0.891,0.601-1.232,0.192-2.201-0.037c-2.909,0.736-3.336,5.208-2.104,7.23c2.225,2.104,7.075-0.665,8.113,2.117
		c-1.718,1.122-3.587,2.407-5.986,2.322C99.865,169.899,101.941,152.425,111.072,156.819z"/>
	<path fill-rule="evenodd" clip-rule="evenodd" fill="#001E39" d="M135.957,156.801c-0.211,0.976-0.103,2.284-0.708,2.852
		c-0.495,0.414-0.886-0.585-1.979-0.255c-4.074,4.293,1.912,6.636,5.628,5.821c-1.282,1.547-2.667,3.643-5.34,3.213
		c-3.29-0.528-6.587-5.901-3.571-10.188C131.037,156.747,134.005,155.932,135.957,156.801z"/>
	<path fill-rule="evenodd" clip-rule="evenodd" fill="#001E39" d="M116.138,156.687c2.666,1.76-0.293,8.38,2.916,9.958
		c2.083,0.114,6.026-0.76,5.701,1.418c-0.295,1.992-6.506,1.962-8.391,1.399C114.918,166.37,114.143,159.976,116.138,156.687z"/>
	<path fill-rule="evenodd" clip-rule="evenodd" fill="#001E39" d="M126.263,157.076c0.611,2.861,1.305,8.479,1.56,11.918
		c-0.587-0.009-1.174-0.02-1.761-0.028c-1.286-3.097-1.257-7.058-1.792-11.262C124.943,157.505,125.17,156.845,126.263,157.076z"/>
	<path fill-rule="evenodd" clip-rule="evenodd" fill="#001E39" d="M194.35,167.7c-0.406,1.593-0.592,3.416-2.048,3.926
		C188.11,171.001,190.986,164.709,194.35,167.7z"/>
	<path fill-rule="evenodd" clip-rule="evenodd" fill="#001E39" d="M276.786,20.224c1.083-0.387,2.183,1.013,2.866-0.172
		c0.259,0.471,0.817,0.653,0.855,1.337c6.176-0.82,14.496-0.064,20.519-2.076c1.151,1.374,3.06,1.206,4.357,2.716
		c1.298,5.358-2.41,12.88-3.392,18.221c-0.226,1.227,0.172,2.713-0.067,3.963c-3.156,16.678-7.041,34.361-7.479,51.625
		c-3.389,8.491-2.855,17.83-3.981,27.239c-0.249,2.07-1.361,3.893-1.645,5.918c-0.265,1.896,0.011,3.856-0.101,5.944
		c-0.132,2.453-1.194,4.719-1.663,7.241c-0.53,2.843-0.322,5.916-0.59,8.798c-0.328,3.529-1.185,6.83-1.276,10.327
		c-0.098,3.688-1.081,6.815-1.495,10.327c-0.915,7.771-0.709,15.095-3.675,21.959c-2.196,0.12-2.73,1.955-3.799,3.239
		c-3.721,1.451-7.157-1.682-11.237,0.25c-2.101-1.007-5.469-0.086-7.48-0.346c-1.087-0.142-2.063-0.979-3.064-1.153
		c-6.632-1.17-13.387,0.648-19.825,0.324c-24.223-1.212-49.09-1.604-73.973-1.03c-21.803,0.503-45.379,0.582-66.508-0.023
		c-17.56-0.504-35.615,0.97-54.379-0.92c-0.868-0.075-0.689,0.93-1.556,0.853c-1.527-0.616-3.671-0.638-4.594-1.837
		c0.917-37.579-2.022-72.979,0.511-108.34c-3.297-19.794,2.792-37.213-2.827-54.223c6.117-6.913,15.255-0.007,25.135-1.777
		c-0.268-0.8,0.09-3.333-0.153-3.967c3.733-3.747,3.669-12.293,9.458-12.393c3.27-0.056,7.445,1.708,10.576-0.26
		c8.669,1.691,19.924-0.253,29.485,1.378c2.422-0.848,5.423,0.269,7.717-0.529c8.9,2.389,17.312,0.821,27.071,0.898
		c5.307,0.043,10.729,1.82,16.047,1.813c5.737-0.007,12.298-0.744,17.596,1.179c3.219-0.298,9.185-0.05,12.123-0.676
		c0.903-2.126,1.572-5.787,3.634-6.325c2.021-0.53,5.222,0.889,7.907,1.013c5.225,0.244,12.444,0.221,18.934,0.32
		c6.414,0.098,12.305-1.492,18.506-0.347c4.422,0.816,10.828-0.479,16.296,0.056c2.699,0.264,5.785,1.198,7.689,1.01
		c0.953-0.094,1.775-0.731,2.652-0.616c0.718,0.095,1.327,1.202,2.397,1.583c1.479,0.526,3.134-0.154,4.842,0.081
		C273.076,13.36,276.638,16.183,276.786,20.224z M268.461,160.805c-0.183-22.062,2.026-40.725,2.352-60.962
		c0.088-5.259-1.071-10.699-1.486-16.101c-0.53-6.855-0.113-14.972-0.077-21.584c0.062-11.44,1-22.587,0.573-33.904
		c-0.154-4.059-0.39-6.944-2.729-7.753c-0.983,0.293-3.115-0.34-4.634,0.362c-20.6-4.433-46.354-1.996-67.789-2.249
		c-0.795,1.825-1.543,4.045-1.428,6.363c0.223,4.479-0.249,7.181-0.849,10.997c-0.23,1.475,0.053,2.896-0.281,3.74
		c-1.495,3.785-5.054,3.222-9.318,4.026c-3.691-1.611-7.685-1.105-11.653-1.08c-11.781,0.079-23.935-2.54-36.083-1.931
		c-9.025-1.097-22.351-1.763-31.691-1.197C83.229,39.11,63.409,36.8,41.973,36.733c0.271,25.929-0.392,50.172-0.155,74.211
		c0.203,20.611-0.589,40.437,1.449,57.502c-0.29,4.382-0.72,11.862-0.306,18.052c30.082,0.055,58.38-0.267,88.097-0.491
		c18.767-0.139,38.255-0.895,57.707-0.564c16.571,0.279,32.325,1.005,48.428,1.258c2.844,0.046,5.762-1.211,8.608-1.175
		c8.267,0.104,15.205,2.72,23.525,2.16C268.708,180.704,268.536,169.727,268.461,160.805z M69.995,20.47
		c-2.381,2.867-4.908,4.59-6.747,8.254c3.705-1.769,5.459-6.748,10.243-6.654c-1.149,3.013-5.564,3.771-5.626,7.172
		c3.896-0.137,6.472-4.61,9.563-5.564c0.046,0.173,0.181,0.26,0.437,0.228c-1.196,2.477-3.367,2.739-4.28,5.653
		c5.075,1.314,7.375-7.501,12.433-5.955c-2.008,2.198-5.835,3.642-6.279,6.721c3.946,0.766,4.527-3.807,7.782-4.493
		c1.417-2.074,5.106-4.776,7.333-3.841c-3.226,2.916-6.625,4.731-9.164,7.994c5.438,2.374,7.657-7.762,14.213-7.027
		c-2.181,2.523-5.409,3.961-6.732,7.373c6.456,0.117,8.266-5.949,14.22-7.467c-0.003,0.221,0.174,0.266,0.214,0.444
		c-1.673,3.198-6.083,3.564-7.389,7.142c0.65,0.454,2.074,0.16,3.079,0.273c3.03-3.736,7.297-6.192,11.165-9.061
		C101.163,19.501,82.852,20.804,69.995,20.47z M106.813,31.002c1.402,0.358,2.731,0.023,4.187-0.148
		c2.271-3.625,6.204-5.532,9.172-8.435C113.891,20.869,110.238,27.405,106.813,31.002z M121.496,22.222
		c-0.812,4.388-5.536,4.727-6.969,8.471c6.838,1.514,7.486-7.164,14-7.472c0.056,0.451,0.588,0.443,0.645,0.893
		c-2.334,2.259-6.172,3.203-7.604,6.919c4.574,2.015,5.451-4.13,9.765-4.46c0.064-1.673,2.221-2.129,2.877-0.833
		c-1.422,2.485-3.928,3.852-5.825,5.847c1.095-0.048,2.02,0.069,2.858,0.27c3.495-3.404,7.343-6.442,12.253-8.383
		c0.141,0.516,0.722,0.603,0.863,1.118c-3.429,1.526-6.686,3.981-9.149,7.11c1.131,0.996,2.792,0.286,4.836,0.523
		c2.303-4.187,7.254-5.639,10.934-8.403c0.653,0.162,0.723,0.888,0.629,1.772c-3.193,1.625-6.083,3.565-8.037,6.471
		c0.516,0.367,1.264,0.509,1.97,0.694c3.223-3.685,7.467-6.312,11.822-8.829C146.108,21.185,133.493,22.938,121.496,22.222z
		 M184.872,25.056c-7.942,0.758-16.558-1.567-25.965-1.321c-1.725,4.489-7.627,4.655-9.402,9.091
		c1.228-0.174,1.625,0.451,2.636,0.486c1.577-2.177,3.511-3.984,5.601-5.631c1.43,0.077,3.297-2.425,3.969-0.374
		c-2.136,1.822-4.106,3.816-6.045,5.845c5.925,1.53,7.673-9.058,13.988-6.812c-1.782,3.158-6.428,3.355-7.388,7.363
		c1.043,0.146,2.022,0.353,3.296,0.276c2.226-3.746,6.042-5.847,10.042-7.758c0.436,0.229,0.933,0.396,1.085,0.898
		c-2.023,2.162-4.779,3.571-6.703,5.833c4.887,2.972,8.018-4.032,12.611-3.53c-0.017,0.302,0.095,0.484,0.207,0.664
		c-0.768,2.191-3.314,2.542-4.692,4.105c4.33,0.322,5.125-1.571,7.552-3.838C185.099,27.991,185.591,26.811,184.872,25.056z
		 M284.511,58.232c0.756,2.023-10.812,6.421-7.245,11.77c1.869-1.707,3.703-4.606,6.455-4.075c-0.893,2.853-4.86,6.235-7.382,6.702
		c0.202,0.883,0.194,1.325-0.037,2.201c2.829-0.808,4.234-3.087,6.897-4.067c-0.003,0.292,0.381,0.208,0.432,0.448
		c-2.059,2.724-4.413,5.144-6.951,7.369c-0.014,0.808-0.026,1.616-0.04,2.423c3.044-1.779,5.243-4.432,8.686-5.799
		c-0.951,5.086-9.51,6.307-7.699,12.642c2.307-2.522,4.419-4.04,7.8-5.594c-0.099,0.529,0.393,0.485,0.202,1.104
		c-2.289,3.778-9.492,6.157-7.464,11.546c1.356-1.509,3.351-2.357,4.692-3.884c0.697-0.025,0.725,0.598,1.532,0.466
		c0.177-0.676-0.754-0.281-0.421-1.108c0.547-0.023,1.07-0.023,1.094,0.459c-2.252,3.069-5.429,4.809-7.195,8.686
		c-0.192,0.62,0.303,0.575,0.202,1.105c2.584-1.136,4.735-2.717,7.549-3.617c-0.068,0.646,0.486,0.686,0.418,1.33
		c-0.929,0.307-1.963,0.506-2.012,1.727c0.895,0.002,1.051,0.716,1.971,0.694c0.71-1.531,0.872-4.29,0.543-6.157
		c-0.447,0.432-0.661,1.107-1.342,1.299c-0.365-0.369-0.981-0.495-1.306-0.902c-0.062-1.109,0.427-1.65,1.351-1.74
		c0.985-0.499,1.37,1.335,1.538,0.247c0.065-1.121,0.358-1.803,0.712-3.071c-0.605-0.497-0.963-1.237-1.288-2.004
		c-0.583,0.218-1.354,0.24-2.204,0.183c-0.191-0.465-0.326-0.984-0.639-1.332c0.424-0.383,0.697-0.92,1.122-1.303
		c0.959,0.229,1.791,0.581,1.955,1.574c0.598-0.204,1.14-0.466,1.774-0.63c-0.787-2.382,0.905-4.809-0.339-6.173
		c-1.082,0.845-1.939-0.382-2.398-1.361c0.506-0.746,0.713-1.803,1.797-1.952c0.821-0.018,0.932,1.373,1.525,0.907
		c0.655-0.294,0.53-1.393,0.697-2.191c-1.714-1.086-1.949-2.73,0.496-3.294c-0.392-1.104,0.257-1.608,0.268-2.858
		c-0.596-0.125-2.223,0.167-2.183-1.138c0.16-0.809,0.831-1.083,1.348-1.519c0.047,0.387,0.369,0.508,0.872,0.454
		c2.018-6.699,1.933-15.159,4.131-22.832c-0.786-0.144-1.069,0.237-1.546,0.413c-0.151-0.578-0.783-0.687-0.859-1.335
		c0.146-0.595,0.454-1.024,0.902-1.307c0.759-0.083,1.232,0.11,1.757,0.251c0.637-3.195,0.268-4.293,1.233-7.907
		c-0.938,0.042-1.309-0.466-1.97-0.695c-0.208-0.521-0.366-1.087-0.408-1.768c0.705-0.658,1.399-0.091,2.207-0.404
		c0.289-0.745,0.337-1.745,0.702-2.409c-5.364-0.55-10.315-0.494-16.08,0.167c0.479,0.69,1.394,4.511-1.391,4.161
		c-0.404-1.575-0.927-2.622,0.059-3.521c-0.658-0.271-1.303-0.559-1.977-0.254c-0.102,2.462-0.653,5.021,0.101,7.049
		c1.999-1.667,4.719-4.527,7.591-6.038c0.783-0.037,1.314,0.17,1.529,0.686c-3.957,2.919-9.002,5.681-9.661,11.289
		c2.825-1.035,4.431-3.333,6.909-4.728c-0.247-1.673,0.503-2.317,1.368-2.84c0.478,0.621,1.479,0.735,1.287,2.003
		c-2.492,4.289-9.993,6.87-9.471,13.053c2.606-2.495,5.001-4.666,8.25-6.026c0.298,0.36,1.043,0.29,0.862,1.115
		c0.654-0.145,0.969-0.639,1.989-0.407c0.084,0.714-0.321,1.9,0.406,1.989c0.61-2.75,3.995,0.278,1.731,1.791
		c-1.313,0.115-1.826-0.545-1.955-1.575c-0.814-0.246-0.443,0.735-0.896,0.867c-1.254,0.201-1.638-0.437-2.186-0.919
		c0.264-0.327,0.646-0.527,0.68-1.09c-4.366,1.46-5.79,5.96-9.172,8.433c-0.015,0.519,0.368,0.656,0.197,1.325
		c3.142-1.528,4.263-5.149,8.679-5.359c-0.005,0.438,0.596,0.291,0.427,0.889c-3.345,1.917-5.845,4.706-7.846,8.016
		c-0.661,0.303-0.744-0.193-1.323,0.197c0.004,1.006-0.258,2.272,0.62,2.433C277.803,60.628,283.718,56.104,284.511,58.232z
		 M283.809,99.842c-2.331,1.519-6.492,4.318-5.407,7.175c1.554-0.826,3.294-3.695,5.544-2.328c-1.646,3.538-6.673,4.728-6.113,9.806
		c1.627-0.753,3.211-3.783,5.548-2.329c-1.339,3.626-6.225,4.756-5.886,9.371c1.93-1.03,3.337-3.665,6.001-3.201
		c0.442-2.888,1.718-6.646,0.153-9.026c1.592-1.456,1.4-4.13,1.871-6.576c-1.163,0.115-1.737-0.34-1.962-1.133
		C283.823,101.174,284.301,100.379,283.809,99.842z M283.461,120.317c-0.191-0.604-0.693,0.295-1.32-0.021
		c-1.104,2.099-3.008,4.213-5.142,4.535c-0.019,1.102-0.037,2.201-0.056,3.303c1.611-0.572,2.739-1.645,4.224-2.351
		c1.276,4.092-5.604,4.148-4.577,10.054c2.518,0.359,2.244-2.16,4.875-1.681C282.343,129.485,282.986,124.249,283.461,120.317z
		 M276.493,141.56c1.131,0.361,1.704-1.628,2.896-1.934c0.276,0.312,1.078,0.116,1.091,0.679c-0.452,2.745-2.45,3.891-4.058,5.438
		c0.085,1.074-0.274,2.574,0.167,3.307c1.502-0.16,1.96-1.409,3.331-1.706c-0.213-5.202,2.523-7.954,1.298-11.647
		C279.96,137.838,276.131,138.481,276.493,141.56z M276.229,157.192c2.646-0.212,3.878-3.4,2.976-6.559
		C276.097,150.969,275.827,155.016,276.229,157.192z M276.175,160.492c-0.171,2.497,0.42,3.939-0.109,6.387
		c0.735,0.479,1.979-0.104,2.436-0.618c-0.542-2.098,0.44-4.842,0.118-7.047C277.257,159.076,277.764,160.868,276.175,160.492z
		 M276.768,177.462c0.291-2.773,0.415-4.981,0.785-7.255C274.372,170.628,276.671,175.299,276.768,177.462z"/>
	<path fill-rule="evenodd" clip-rule="evenodd" fill="#001E39" d="M142.208,60.671c-0.328,0.089,0.082,0.281-0.011,0.66
		c-1.449,0.267-2.268-0.186-3.309,0.384c0.423,1.823-0.199,3.707,0.787,5.519c2.368,0.994,5.103,0.488,7.468,1.228
		c-1.485,1.974-5.833,0.984-7.318,2.959c0.106,1.164,0.598,2.208,1.481,3.549c-0.114,1.525-1.068,2.18-1.381,3.5
		c-2.174-0.274-2.682-2.492-1.91-4.217c-1.004-4.861-2.302-11.646-1.491-16.102c3.859-0.557,8.846-0.783,12.311,1.31
		c-0.258,0.256-0.262,0.774-0.243,1.318C146.456,59.708,144.09,62.223,142.208,60.671z"/>
	<path fill-rule="evenodd" clip-rule="evenodd" fill="#001E39" d="M191.562,98.282c0.047-0.25,0.223-0.118,0.22,0.003
		c1.68-0.35,4.086-1.208,5.281,0.31c4.729,5.066,5.329,12.442,6.718,19.492c1.721-3.747,1.097-6.196,1.498-10.545
		c1.931-3.933,3.071-12.993,9.457-12.171c6.357,0.818,7.088,10.925,7.417,17.083c0.515,9.575,0.15,18.319,0.902,24.679
		c-8.458,5.937-6.577-6.307-6.6-13.324c-1.434-0.524-3.617,0.502-5.736,0.563c-1.1,4.576,1.625,11.816-5.265,11.803
		c-3.934-2.318-0.252-8.888-2.208-12.589c-0.571,2.928-2.504,6.206-2.359,9.209c-3.455,3.587-10.075,6.907-13.906,1.969
		c-2.583,3.354-9.504,2.081-11.957,3.759c-2.134,0.196-5.36,0.261-6.343-2.528c0.608-8.707,1.404-18.281,0.278-29.505
		c-0.174-1.734-1.107-3.563-1.018-4.861c0.247-3.553,4.733-4.743,7.317-2.961c1.592,10.526-1.232,22.938,1.885,31.746
		c2.802-0.051,4.811-0.102,7.915,0.793C182.319,120.358,183.142,103.383,191.562,98.282z M203.691,123.371
		c-0.258-0.041-0.235-0.352-0.212-0.664c-0.301-0.015-0.484,0.096-0.662,0.21c-0.002,0.146-0.005,0.293-0.007,0.439
		C203.222,123.152,203.533,124.028,203.691,123.371z M211.28,117.334c1.139,0.626,3.712,0.94,4.838,0.302
		c0.056-5.668,0.33-10.947-2.638-13.257C212.243,108.705,211.238,113.56,211.28,117.334z M191.29,127.346
		c3.221,7.237,5.609-5.182,5.43-8.495c-0.266-4.871-1.009-7.534-2.008-11.487c-0.684-0.277-1.366-0.557-1.968-0.914
		C189.421,110.29,189.854,124.121,191.29,127.346z M203.052,122.039c0.579,0.077,0.726-0.291,0.676-0.869
		c-0.297-0.074-0.417-0.32-0.877-0.235C202.749,121.464,203.244,121.42,203.052,122.039z"/>
	<path fill-rule="evenodd" clip-rule="evenodd" fill="#001E39" d="M149.986,121.584c-0.842,6.01,0.919,10.86-0.243,14.309
		c-3.215,2.723-6.968,1.692-6.787-2.316c0.158-3.471,0.597-8.272,0.443-13.205c-0.215-6.975-0.396-13.343-1.896-18.092
		c0.499-1.118,0.451-1.562,0.704-2.63c4.855-5.426,8.464,1.725,9.808,6.11c1.604,5.238,4.013,11.586,6.124,15.521
		c2.918-7.353-1.694-17.363,2.153-23.086c3.384-2.112,6.028,0.139,6.771,3.198c-3.863,8.735,1.903,26.369-3.9,35.388
		c-1.505,0.093-4.188,1.725-5.953,0.341C155.068,131.214,152.597,126.538,149.986,121.584z"/>
	<path fill-rule="evenodd" clip-rule="evenodd" fill="#001E39" d="M153.548,80.242c-0.912,0.156-1.125-0.358-1.978-0.255
		c-1.215-6.418-0.588-11.881-1.453-18.303c1.28-4.187,10.91-5.181,12.117-0.235c-0.303,0.212-0.449,0.581-0.676,0.87
		c-2.965-1.62-5.873-0.226-9.033,0.288c0.076,1.285,0.424,2.503,0.16,3.526c3.909,0.414,6.931,0.793,9.418,3.022
		c-1.717,0.928-5.586,0.525-8.597,0.514C151.293,73.612,155.552,76.273,153.548,80.242z"/>
</g>
</svg>
