<?xml version="1.0" encoding="utf-8"?>
<!-- Generator: Adobe Illustrator 15.1.0, SVG Export Plug-In . SVG Version: 6.00 Build 0)  -->
<!DOCTYPE svg PUBLIC "-//W3C//DTD SVG 1.1//EN" "http://www.w3.org/Graphics/SVG/1.1/DTD/svg11.dtd">
<svg version="1.1" id="Layer_1" xmlns="http://www.w3.org/2000/svg" xmlns:xlink="http://www.w3.org/1999/xlink" x="0px" y="0px"
	 width="234px" height="236.5px" viewBox="133.5 0 234 236.5" enable-background="new 133.5 0 234 236.5" xml:space="preserve">
<path d="M357.76,73.2c-0.96-15.12-3.119-19.2-3.84-20.4C344.8,34.56,319.12,12.96,250,12.96s-94.8,21.6-104.16,39.84
	c-0.72,1.44-2.88,5.52-3.84,20.4c0,0.96,0,1.68,0,2.64c0,0.24,0,0.24,0,0.48v0.24c0,0.96,0,1.92,0.48,2.88
	c0.72,4.08,2.88,8.16,6.72,11.76c-4.8,4.56-7.2,9.84-7.2,15.36v20.4c0,6,2.88,11.76,8.4,16.56c0,0.48,0,0.72,0,1.2v5.76
	c-5.52,5.04-8.4,10.56-8.4,16.799v20.4c0,27.12,55.92,39.6,108,39.6s108-12.479,108-39.6v-20.4c0-6-2.88-11.76-8.4-16.559v-5.761
	c0-0.48,0-0.72,0-1.2c5.521-5.04,8.4-10.56,8.4-16.56v-20.4c0-5.52-2.4-10.8-7.2-15.36c3.601-3.6,5.761-7.44,6.72-11.76
	c0.24-0.96,0.48-1.92,0.48-2.88v-0.24c0-0.24,0-0.48,0-0.48C358,74.88,358,74.16,357.76,73.2z M346,187.439
	c0,12.961-39.359,27.601-96,27.601c-56.64,0-96-14.64-96-27.601v-8.399c15.12,14.16,56.64,21.601,96,21.601
	c39.359,0,80.88-7.44,96-21.601V187.439z M250,194.641c-56.64,0-96-14.641-96-27.601c0-2.399,1.2-4.8,3.84-7.2
	c3.36,6.48,11.76,11.52,23.28,15.6c6,6,12.72,8.641,18.48,10.561c3.84,1.2,10.32,1.92,17.04,1.92c6.96,0,14.4-0.96,19.68-3.359
	c4.56,0.239,9.12,0.239,13.68,0.239c6.721,0,13.2-0.239,19.92-0.72c0.48,0.48,1.2,0.72,1.68,1.199c2.641,1.681,6.721,2.4,11.041,2.4
	c7.92,0,17.52-2.4,25.199-5.52c3.84-1.68,9.12-4.32,13.439-7.92c10.32-3.84,17.761-8.881,20.881-14.641c2.4,2.4,3.84,4.801,3.84,7.2
	C346,180.24,306.641,194.641,250,194.641z M215.92,158.641c11.04,1.199,22.8,1.92,34.08,1.92c7.2,0,14.4-0.24,21.6-0.721
	c-10.56,3.84-20.879,7.92-30.24,13.68C235.84,169.2,226.48,163.92,215.92,158.641z M221.68,168.48
	c-36-3.601-59.28-14.16-59.28-23.521l0,0l0,0c8.4,4.56,20.16,8.16,33.6,10.8C204.64,159.84,213.76,164.16,221.68,168.48z
	 M285.76,161.279c4.561-1.439,9.12-3.119,13.44-4.559c15.36-2.641,28.8-6.48,38.399-11.761l0,0l0,0c0,10.8-30,22.8-74.64,24.72
	C270.641,166.561,278.32,163.92,285.76,161.279z M250,154.561c-55.2,0-94.08-13.92-96-26.641c15.12,14.16,56.64,21.6,96,21.6
	c39.359,0,80.641-7.44,96-21.6C344.08,140.64,305.2,154.561,250,154.561z M346,115.92c0,12.96-39.359,27.6-96,27.6
	c-56.64,0-96-14.64-96-27.6v-9.36c0-1.92,0.72-3.6,2.4-5.52v1.92c0,9.12,9.84,16.32,24.72,21.36c6,6,12.72,8.64,18.48,10.56
	c3.84,1.2,10.32,1.92,17.04,1.92c6.96,0,14.4-0.96,19.68-3.36c4.56,0.24,9.12,0.24,13.68,0.24c6.721,0,13.2-0.24,19.92-0.72
	c0.48,0.48,1.2,0.72,1.68,1.2c2.641,1.68,6.721,2.4,11.041,2.4c7.92,0,17.52-2.4,25.199-5.52c3.84-1.68,9.12-4.32,13.439-7.92
	c13.681-5.04,22.32-12,22.32-20.64v-1.92c1.44,1.92,2.4,3.84,2.4,5.52V115.92z M162.4,93.6h0.24c3.36,1.68,6.96,3.36,11.28,4.8
	c-0.96,1.92-1.68,3.84-2.16,5.76C165.52,100.8,162.4,97.2,162.4,93.6z M312.16,110.88c-15.36,4.56-36.96,7.68-62.16,7.68
	c-25.68,0-47.76-3.36-63.12-7.92c5.52-2.16,11.04-3.84,16.32-4.8c14.64,2.4,30.96,3.6,46.56,3.6c14.641,0,29.76-0.96,43.92-3.12
	C300.641,107.28,306.641,108.72,312.16,110.88z M308.8,103.44c5.521-1.2,10.8-2.64,15.601-4.32c0.479,3.84,0.72,7.44,0.959,10.56
	C320.32,107.28,314.8,105.12,308.8,103.44z M176.56,108.72c0.96-2.88,1.92-5.76,3.12-8.4c3.36,0.96,6.72,1.92,10.32,2.64
	C185.44,104.64,180.88,106.32,176.56,108.72z M330.16,96.96c2.64-0.96,5.04-2.16,7.199-3.36h0.24c0,3.12-2.399,6.24-6.959,9.36
	C330.4,101.04,330.4,98.88,330.16,96.96z M346,76.08L346,76.08c0,0.24,0,0.48,0,0.48c-1.439,12.96-40.32,26.64-96,26.64
	c-55.68,0-94.56-13.92-96-26.88v-0.24v-0.24c0-0.24,0-0.24,0-0.24l0,0c0-0.48,0-0.72,0-1.2v-0.24c0.48-7.92,1.44-14.16,2.4-16.08
	c11.04-21.6,44.16-33.36,93.36-33.36c49.2,0,82.32,11.76,93.36,33.36c0.96,1.92,1.92,8.16,2.399,16.08v0.24c0,0.48,0,0.72,0,0.96
	C346,75.6,346,75.84,346,76.08z"/>
<path d="M185.68,49.68c-0.72-1.44-2.64-2.16-4.08-1.44c-1.44,0.72-2.16,2.64-1.44,4.08l2.88,5.76c0.48,0.96,1.68,1.68,2.64,1.68
	c0.48,0,0.96,0,1.44-0.24c1.44-0.72,2.16-2.64,1.44-4.08L185.68,49.68z"/>
<path d="M213.52,42.48c-1.44-0.72-3.36-0.24-4.08,1.44l-2.88,5.76c-0.72,1.44-0.24,3.36,1.44,4.08c0.48,0.24,0.96,0.24,1.44,0.24
	c1.2,0,2.16-0.72,2.64-1.68l2.88-5.76C215.68,45.12,214.96,43.2,213.52,42.48z"/>
<path d="M229.6,74.16h-5.76c-1.68,0-3.12,1.44-3.12,3.12c0,1.68,1.44,3.12,3.12,3.12h5.76c1.68,0,3.12-1.44,3.12-3.12
	C232.72,75.6,231.28,74.16,229.6,74.16z"/>
<path d="M261.52,55.44c-0.72-1.44-2.64-2.16-4.08-1.44c-1.439,0.72-2.16,2.64-1.439,4.08l2.88,5.76c0.479,0.96,1.681,1.68,2.64,1.68
	c0.48,0,0.961,0,1.44-0.24c1.44-0.72,2.16-2.64,1.44-4.08L261.52,55.44z"/>
<path d="M293.92,49.68l-2.88,5.76c-0.72,1.44-0.24,3.36,1.44,4.08c0.479,0.24,0.959,0.24,1.439,0.24c1.2,0,2.16-0.72,2.641-1.68
	l2.879-5.76c0.721-1.44,0.24-3.36-1.439-4.08C296.561,47.52,294.641,48.24,293.92,49.68z"/>
<path d="M276.16,45.12h-5.76c-1.68,0-3.121,1.44-3.121,3.12c0,1.68,1.441,3.12,3.121,3.12h5.76c1.68,0,3.119-1.44,3.119-3.12
	C279.279,46.56,277.84,45.12,276.16,45.12z"/>
<path d="M319.6,70.08c-0.72-1.44-2.64-2.16-4.08-1.44c-1.439,0.72-2.16,2.64-1.439,4.08l2.88,5.76c0.479,0.96,1.681,1.68,2.64,1.68
	c0.48,0,0.961,0,1.44-0.24c1.44-0.72,2.16-2.64,1.44-4.08L319.6,70.08z"/>
<path d="M299.439,83.04h-5.76c-1.68,0-3.119,1.44-3.119,3.12c0,1.68,1.439,3.12,3.119,3.12h5.76c1.681,0,3.121-1.44,3.121-3.12
	C302.561,84.48,301.12,83.04,299.439,83.04z"/>
<path d="M257.2,83.28c-1.44-0.72-3.36-0.24-4.08,1.44l-2.88,5.76c-0.72,1.44-0.24,3.36,1.439,4.08c0.48,0.24,0.961,0.24,1.44,0.24
	c1.2,0,2.159-0.72,2.64-1.68l2.881-5.76C259.359,85.68,258.641,84,257.2,83.28z"/>
<path d="M206.08,78.72c-0.72-1.44-2.64-2.16-4.08-1.44c-1.44,0.72-2.16,2.64-1.44,4.08l2.88,5.76c0.48,0.96,1.68,1.68,2.64,1.68
	c0.48,0,0.96,0,1.44-0.24c1.44-0.72,2.16-2.64,1.44-4.08L206.08,78.72z"/>
<path d="M241.36,39.36h-5.76c-1.68,0-3.12,1.44-3.12,3.12s1.44,3.12,3.12,3.12h5.76c1.68,0,3.12-1.44,3.12-3.12
	S243.04,39.36,241.36,39.36z"/>
<path d="M184.48,68.64c-1.44-0.72-3.36-0.24-4.08,1.44l-2.88,5.76c-0.72,1.44-0.24,3.36,1.44,4.08c0.48,0.24,0.96,0.24,1.44,0.24
	c1.2,0,2.16-0.72,2.64-1.68l2.88-5.76C186.4,71.28,185.92,69.36,184.48,68.64z"/>
<path d="M315.52,59.52c1.44-0.72,2.16-2.64,1.44-4.08l-2.88-5.76c-0.721-1.44-2.641-2.16-4.08-1.44
	c-1.439,0.72-2.16,2.64-1.439,4.08l2.879,5.76c0.48,0.96,1.681,1.68,2.641,1.68C314.561,59.76,315.04,59.76,315.52,59.52z"/>
<path d="M290.8,42.24h5.761c1.68,0,3.119-1.44,3.119-3.12c0-1.68-1.439-3.12-3.119-3.12H290.8c-1.68,0-3.12,1.44-3.12,3.12
	C287.68,40.8,289.12,42.24,290.8,42.24z"/>
<path d="M287.92,68.4h-5.76c-1.68,0-3.12,1.44-3.12,3.12s1.44,3.12,3.12,3.12h5.76c1.68,0,3.12-1.44,3.12-3.12
	S289.6,68.4,287.92,68.4z"/>
<path d="M225.28,65.28c0.48,0.24,0.96,0.24,1.44,0.24c1.2,0,2.16-0.72,2.64-1.68l2.88-5.76c0.72-1.44,0.24-3.36-1.44-4.08
	c-1.44-0.72-3.36-0.24-4.08,1.44l-2.88,5.76C223.36,62.88,223.84,64.56,225.28,65.28z"/>
<path d="M261.76,30.48H256c-1.68,0-3.12,1.44-3.12,3.12c0,1.68,1.44,3.12,3.12,3.12h5.76c1.68,0,3.12-1.44,3.12-3.12
	C264.88,31.92,263.2,30.48,261.76,30.48z"/>
</svg>
