<?xml version="1.0" encoding="utf-8"?>
<!-- Generator: Adobe Illustrator 15.1.0, SVG Export Plug-In . SVG Version: 6.00 Build 0)  -->
<!DOCTYPE svg PUBLIC "-//W3C//DTD SVG 1.1//EN" "http://www.w3.org/Graphics/SVG/1.1/DTD/svg11.dtd">
<svg version="1.1" id="Layer_1" xmlns="http://www.w3.org/2000/svg" xmlns:xlink="http://www.w3.org/1999/xlink" x="0px" y="0px"
	 width="611px" height="449px" viewBox="0 0 611 449" enable-background="new 0 0 611 449" xml:space="preserve">
<g>
	<g>
		<path fill="#001E39" d="M49.117,173.149h7.243v1.289h-5.745v3.963h5.347v1.29h-5.347v5.385h-1.498V173.149z"/>
		<path fill="#001E39" d="M59.185,173.87c-0.304,0-0.541-0.084-0.711-0.256c-0.17-0.17-0.256-0.398-0.256-0.682
			c0-0.285,0.085-0.513,0.256-0.684c0.171-0.17,0.408-0.255,0.711-0.255c0.303,0,0.546,0.085,0.73,0.255
			c0.183,0.171,0.274,0.398,0.274,0.684c0,0.283-0.092,0.512-0.274,0.682C59.731,173.786,59.488,173.87,59.185,173.87z
			 M58.446,175.994h1.497v9.083h-1.497V175.994z"/>
		<path fill="#001E39" d="M67.015,177.284c-1.429,0-2.168,1.125-2.219,3.375v4.418h-1.498v-9.083h1.498v1.745
			c0.456-1.265,1.258-1.896,2.408-1.896c0.367,0,0.715,0.057,1.044,0.17l-0.076,1.461C67.792,177.348,67.407,177.284,67.015,177.284
			z"/>
		<path fill="#001E39" d="M70.324,176.449c0.638-0.442,1.5-0.663,2.588-0.663c1.087,0,1.937,0.227,2.551,0.682
			c0.612,0.456,0.932,1.031,0.957,1.727h-1.46c-0.114-0.822-0.81-1.232-2.086-1.232c-0.62,0-1.097,0.139-1.431,0.416
			c-0.335,0.279-0.503,0.578-0.503,0.9c0,0.323,0.126,0.596,0.379,0.816c0.253,0.221,0.658,0.414,1.214,0.578l1.82,0.606
			c0.771,0.241,1.362,0.547,1.773,0.92c0.41,0.373,0.616,0.885,0.616,1.536c0,0.65-0.335,1.238-1.005,1.763
			c-0.67,0.525-1.605,0.786-2.806,0.786c-1.201,0-2.136-0.268-2.806-0.805s-1.024-1.229-1.062-2.076h1.441
			c0.025,0.568,0.256,0.996,0.692,1.279c0.436,0.285,0.982,0.428,1.64,0.428s1.201-0.141,1.631-0.418
			c0.429-0.277,0.645-0.609,0.645-0.996c0-0.385-0.127-0.678-0.379-0.881c-0.253-0.203-0.663-0.379-1.232-0.531l-1.763-0.588
			c-1.581-0.467-2.37-1.289-2.37-2.465C69.366,177.485,69.685,176.892,70.324,176.449z"/>
		<path fill="#001E39" d="M83.853,184.812c-1.087,0.505-2.08,0.612-2.977,0.322c-0.645-0.202-1.101-0.626-1.366-1.271
			c-0.139-0.314-0.208-0.694-0.208-1.137v-5.574h-1.46v-1.139h1.46v-2.521h1.479v2.521h2.844v1.139h-2.844v5.555
			c0,0.923,0.43,1.385,1.29,1.385c0.467,0,0.992-0.113,1.574-0.342L83.853,184.812z"/>
		<path fill="#001E39" d="M91.095,173.149l5.916,9.575v-9.575h1.498v11.927h-1.668l-6.011-9.709v9.709h-1.517v-11.927H91.095z"/>
		<path fill="#001E39" d="M107.25,179.197c0-0.821-0.17-1.408-0.512-1.763c-0.342-0.354-0.838-0.53-1.489-0.53
			s-1.175,0.129-1.574,0.389c-0.398,0.258-0.597,0.666-0.597,1.223h-1.649c0-1.391,0.746-2.25,2.237-2.579
			c0.455-0.101,0.948-0.151,1.479-0.151c1.125,0,2.003,0.284,2.636,0.853c0.632,0.569,0.948,1.435,0.948,2.599v5.84h-1.29
			l-0.152-1.518c-0.556,1.15-1.561,1.725-3.014,1.725c-0.973,0-1.754-0.271-2.342-0.814c-0.587-0.543-0.881-1.22-0.881-2.029
			s0.325-1.441,0.977-1.896c0.651-0.455,1.463-0.683,2.437-0.683c0.973,0,1.902,0.164,2.787,0.493L107.25,179.197L107.25,179.197z
			 M107.25,181.304c-0.897-0.254-1.681-0.38-2.351-0.38s-1.213,0.12-1.631,0.36c-0.417,0.24-0.625,0.619-0.625,1.138
			c0,1.138,0.645,1.706,1.934,1.706c0.733,0,1.361-0.262,1.886-0.786C106.987,182.816,107.25,182.138,107.25,181.304z"/>
		<path fill="#001E39" d="M112.994,177.757c0.595-1.314,1.612-1.972,3.053-1.972c0.783,0,1.441,0.193,1.972,0.578
			c0.531,0.386,0.917,0.92,1.156,1.602c0.569-1.453,1.624-2.18,3.166-2.18c1.087,0,1.928,0.354,2.522,1.062
			c0.594,0.707,0.892,1.674,0.892,2.9v5.328h-1.479v-5.328c0-0.873-0.206-1.529-0.617-1.973c-0.411-0.441-1.002-0.663-1.773-0.663
			s-1.368,0.315-1.792,0.948c-0.424,0.631-0.635,1.504-0.635,2.616v4.399h-1.479v-5.328c0-0.873-0.206-1.529-0.616-1.973
			c-0.411-0.441-0.996-0.663-1.754-0.663c-0.759,0-1.372,0.31-1.839,0.929c-0.468,0.619-0.714,1.479-0.74,2.578v4.457h-1.498v-9.064
			h1.289L112.994,177.757z"/>
		<path fill="#001E39" d="M131.708,184.07c1.252,0,1.965-0.55,2.143-1.649h1.536c-0.14,0.91-0.541,1.615-1.204,2.114
			c-0.665,0.5-1.489,0.748-2.475,0.748c-1.213,0-2.2-0.432-2.958-1.298c-0.758-0.866-1.138-2.019-1.138-3.46
			s0.382-2.592,1.147-3.451c0.765-0.859,1.782-1.289,3.053-1.289c1.27,0,2.218,0.492,2.844,1.479
			c0.626,0.987,0.843,2.188,0.654,3.603h-6.201c0,0.936,0.228,1.704,0.683,2.304C130.248,183.771,130.886,184.07,131.708,184.07z
			 M132.808,177.208c-0.291-0.152-0.645-0.229-1.062-0.229c-0.771,0-1.381,0.264-1.83,0.787c-0.449,0.525-0.711,1.18-0.787,1.963
			h4.834C133.964,178.465,133.579,177.625,132.808,177.208z"/>
	</g>
</g>
<g>
	<g>
		<path fill="#001E39" d="M50.615,226.203h5.309v1.309h-6.807v-11.926h1.498V226.203z"/>
		<path fill="#001E39" d="M62.901,221.634c0-0.821-0.171-1.409-0.512-1.764c-0.341-0.354-0.838-0.53-1.489-0.53
			s-1.176,0.129-1.574,0.389c-0.398,0.258-0.598,0.666-0.598,1.224h-1.649c0-1.392,0.745-2.25,2.237-2.579
			c0.455-0.102,0.948-0.15,1.479-0.15c1.125,0,2.003,0.283,2.636,0.853c0.632,0.569,0.948,1.435,0.948,2.599v5.839H63.09
			l-0.152-1.518c-0.557,1.15-1.562,1.727-3.015,1.727c-0.973,0-1.753-0.271-2.342-0.814c-0.588-0.543-0.881-1.221-0.881-2.029
			c0-0.809,0.325-1.441,0.976-1.896c0.651-0.453,1.463-0.683,2.437-0.683c0.973,0,1.902,0.164,2.787,0.493L62.901,221.634
			L62.901,221.634z M62.901,223.739c-0.898-0.254-1.681-0.379-2.351-0.379c-0.67,0-1.213,0.119-1.631,0.358
			c-0.417,0.24-0.626,0.619-0.626,1.14c0,1.136,0.645,1.705,1.935,1.705c0.733,0,1.362-0.262,1.886-0.785
			C62.639,225.252,62.901,224.573,62.901,223.739z"/>
		<path fill="#001E39" d="M67.688,218.884c0.638-0.442,1.501-0.663,2.588-0.663s1.937,0.229,2.551,0.682
			c0.612,0.457,0.932,1.031,0.957,1.728h-1.46c-0.114-0.821-0.809-1.231-2.085-1.231c-0.62,0-1.097,0.139-1.432,0.416
			s-0.502,0.578-0.502,0.9c0,0.323,0.126,0.596,0.379,0.815c0.253,0.221,0.657,0.413,1.213,0.577l1.82,0.607
			c0.771,0.239,1.362,0.545,1.773,0.919c0.411,0.373,0.616,0.886,0.616,1.536c0,0.65-0.335,1.24-1.005,1.764
			s-1.605,0.787-2.807,0.787c-1.201,0-2.136-0.27-2.806-0.807c-0.67-0.537-1.024-1.229-1.062-2.076h1.441
			c0.025,0.568,0.256,0.996,0.692,1.279c0.436,0.285,0.982,0.428,1.64,0.428c0.658,0,1.201-0.141,1.631-0.418
			c0.429-0.277,0.645-0.609,0.645-0.994c0-0.385-0.127-0.679-0.38-0.882c-0.252-0.202-0.664-0.379-1.232-0.531l-1.763-0.588
			c-1.581-0.467-2.37-1.289-2.37-2.465C66.73,219.921,67.049,219.327,67.688,218.884z"/>
		<path fill="#001E39" d="M81.216,227.246c-1.087,0.506-2.079,0.613-2.977,0.322c-0.645-0.201-1.1-0.627-1.366-1.271
			c-0.139-0.316-0.208-0.693-0.208-1.137v-5.575h-1.46v-1.138h1.46v-2.522h1.479v2.522h2.843v1.138h-2.843v5.555
			c0,0.922,0.429,1.385,1.289,1.385c0.468,0,0.992-0.113,1.574-0.342L81.216,227.246z"/>
		<path fill="#001E39" d="M88.459,215.585l5.916,9.575v-9.575h1.498v11.926h-1.668l-6.011-9.707v9.707h-1.517v-11.926H88.459
			L88.459,215.585z"/>
		<path fill="#001E39" d="M104.614,221.634c0-0.821-0.171-1.409-0.512-1.764s-0.837-0.53-1.488-0.53
			c-0.651,0-1.176,0.129-1.575,0.389c-0.398,0.258-0.597,0.666-0.597,1.224h-1.649c0-1.392,0.745-2.25,2.237-2.579
			c0.456-0.102,0.948-0.15,1.479-0.15c1.125,0,2.002,0.283,2.635,0.853c0.632,0.569,0.948,1.435,0.948,2.599v5.839h-1.289
			l-0.152-1.518c-0.557,1.15-1.561,1.727-3.015,1.727c-0.973,0-1.754-0.271-2.342-0.814c-0.587-0.543-0.881-1.221-0.881-2.029
			c0-0.809,0.325-1.441,0.976-1.896c0.651-0.453,1.463-0.683,2.437-0.683c0.973,0,1.902,0.164,2.787,0.493L104.614,221.634
			L104.614,221.634z M104.614,223.739c-0.897-0.254-1.682-0.379-2.352-0.379c-0.67,0-1.213,0.119-1.631,0.358
			c-0.417,0.24-0.625,0.619-0.625,1.14c0,1.136,0.645,1.705,1.934,1.705c0.733,0,1.362-0.262,1.887-0.785
			C104.352,225.252,104.614,224.573,104.614,223.739z"/>
		<path fill="#001E39" d="M110.358,220.192c0.594-1.313,1.612-1.971,3.053-1.971c0.783,0,1.441,0.192,1.972,0.577
			c0.531,0.386,0.917,0.92,1.157,1.603c0.568-1.452,1.624-2.18,3.166-2.18c1.087,0,1.927,0.354,2.522,1.062
			c0.594,0.707,0.891,1.674,0.891,2.899v5.328h-1.479v-5.328c0-0.873-0.206-1.529-0.616-1.973c-0.411-0.441-1.001-0.662-1.772-0.662
			s-1.369,0.314-1.792,0.947s-0.635,1.504-0.635,2.615v4.4h-1.479v-5.328c0-0.873-0.206-1.529-0.616-1.974
			c-0.411-0.44-0.996-0.662-1.754-0.662c-0.758,0-1.372,0.31-1.839,0.929c-0.468,0.619-0.714,1.479-0.74,2.58v4.455h-1.498v-9.064
			h1.289L110.358,220.192z"/>
		<path fill="#001E39" d="M129.073,226.508c1.251,0,1.965-0.551,2.143-1.65h1.536c-0.14,0.91-0.541,1.615-1.204,2.113
			c-0.664,0.5-1.488,0.75-2.475,0.75c-1.213,0-2.2-0.434-2.958-1.299c-0.758-0.867-1.138-2.019-1.138-3.46s0.382-2.592,1.147-3.451
			s1.783-1.289,3.053-1.289c1.27,0,2.219,0.493,2.844,1.479c0.625,0.985,0.844,2.188,0.654,3.603h-6.201
			c0,0.938,0.228,1.705,0.683,2.304C127.613,226.207,128.25,226.508,129.073,226.508z M130.173,219.643
			c-0.291-0.151-0.646-0.228-1.062-0.228c-0.771,0-1.381,0.263-1.829,0.787c-0.449,0.524-0.711,1.179-0.787,1.962h4.835
			C131.329,220.901,130.944,220.061,130.173,219.643z"/>
	</g>
</g>
<g>
	<g>
		<path fill="#001E39" d="M51.259,257.119l4.02,8.076l3.981-8.076h2.105v11.926h-1.498v-9.805l-4.095,8.307h-1.005l-4.152-8.439
			v9.938h-1.498v-11.926H51.259L51.259,257.119z"/>
		<path fill="#001E39" d="M67.755,259.754c1.264,0,2.285,0.41,3.062,1.232c0.778,0.82,1.167,1.996,1.167,3.525
			c0,1.518-0.389,2.688-1.167,3.51c-0.777,0.82-1.798,1.23-3.062,1.23c-1.264,0-2.285-0.41-3.062-1.23
			c-0.777-0.822-1.166-1.992-1.166-3.51c0-1.529,0.389-2.705,1.166-3.525C65.47,260.164,66.491,259.754,67.755,259.754z
			 M70.466,264.504c0-1.082-0.227-1.928-0.683-2.541c-0.455-0.613-1.122-0.92-2-0.92c-0.878,0-1.552,0.307-2.02,0.92
			c-0.467,0.613-0.701,1.459-0.701,2.541c0,1.08,0.221,1.928,0.664,2.541c0.442,0.613,1.103,0.918,1.981,0.918
			s1.558-0.305,2.038-0.918C70.226,266.432,70.466,265.584,70.466,264.504z"/>
		<path fill="#001E39" d="M75.642,261.328c0.607-1.049,1.492-1.574,2.655-1.574s2.13,0.434,2.901,1.299
			c0.771,0.865,1.156,2.01,1.156,3.432c0,1.424-0.392,2.572-1.175,3.451c-0.784,0.879-1.738,1.316-2.863,1.316
			c-0.607,0-1.154-0.15-1.641-0.455c-0.486-0.303-0.869-0.75-1.147-1.346l-0.341,1.594h-1.042v-12.912h1.497V261.328L75.642,261.328
			z M78.202,261.08c-0.721,0-1.321,0.23-1.801,0.691s-0.733,1.104-0.759,1.926v1.479c0,0.836,0.25,1.502,0.749,2
			c0.5,0.5,1.103,0.75,1.811,0.75s1.32-0.311,1.839-0.938c0.518-0.627,0.777-1.457,0.777-2.492c0-1.037-0.256-1.865-0.768-2.484
			C79.538,261.393,78.922,261.08,78.202,261.08z"/>
		<path fill="#001E39" d="M85.35,257.838c-0.304,0-0.541-0.084-0.711-0.256c-0.17-0.17-0.255-0.398-0.255-0.684
			s0.085-0.512,0.255-0.682c0.171-0.17,0.408-0.256,0.711-0.256c0.303,0,0.546,0.086,0.729,0.256s0.276,0.396,0.276,0.682
			s-0.093,0.514-0.276,0.684C85.896,257.754,85.653,257.838,85.35,257.838z M84.61,259.963h1.498v9.082H84.61V259.963z"/>
		<path fill="#001E39" d="M89.483,256.133h1.498v12.912h-1.498V256.133z"/>
		<path fill="#001E39" d="M97.219,268.039c1.252,0,1.966-0.551,2.143-1.648h1.536c-0.139,0.908-0.541,1.613-1.204,2.113
			c-0.663,0.5-1.488,0.748-2.475,0.748c-1.213,0-2.199-0.432-2.958-1.297c-0.758-0.867-1.138-2.02-1.138-3.461
			s0.382-2.592,1.147-3.451s1.782-1.289,3.053-1.289c1.271,0,2.219,0.492,2.844,1.479c0.626,0.984,0.844,2.188,0.654,3.602h-6.2
			c0,0.936,0.228,1.705,0.683,2.305C95.76,267.74,96.397,268.039,97.219,268.039z M98.319,261.176
			c-0.292-0.152-0.645-0.227-1.062-0.227c-0.771,0-1.381,0.262-1.83,0.785c-0.449,0.525-0.711,1.18-0.787,1.963h4.835
			C99.476,262.434,99.09,261.594,98.319,261.176z"/>
	</g>
</g>
<rect x="355" y="121" fill="none" width="193" height="22"/>
<text transform="matrix(1 0 0 1 355 137.4644)" font-family="'Karla-Bold'" font-size="24">All Members</text>
<rect x="45" y="121" fill="none" width="193" height="22"/>
<text transform="matrix(1 0 0 1 45 137.4644)" font-family="'Karla-Bold'" font-size="24">New Member</text>
<path fill="#001E39" fill-opacity="0.2" stroke="#001E39" stroke-width="8" stroke-miterlimit="10" d="M23.841,21.768v406.314
	H587.32V21.768H23.841z M187,404H57v-45h130V404z M331.267,207.112v27.765H150.617v-27.765H331.267L331.267,207.112z
	 M150.616,193.344v-27.766h180.649v27.766H150.616z M331.267,248.645v27.768H150.617v-27.768H331.267z M332,404H203v-45h129V404z
	 M564,404H357V165h207V404z M564,99H49.117V47H564V99z"/>
<rect x="78.395" y="372" fill="none" width="86.5" height="23"/>
<g enable-background="new    ">
	<path d="M93.23,372.576c0.96,0,1.792,0.117,2.496,0.348c0.704,0.232,1.312,0.557,1.824,0.973c1.008,0.816,1.664,1.961,1.968,3.432
		l-3.024,0.553c-0.256-0.816-0.652-1.477-1.188-1.98s-1.204-0.756-2.004-0.756c-1.088,0-1.968,0.455-2.64,1.367
		c-0.72,0.992-1.08,2.365-1.08,4.117s0.32,3.119,0.96,4.104c0.64,0.984,1.512,1.477,2.616,1.477s1.936-0.268,2.496-0.805
		c0.56-0.535,0.84-1.229,0.84-2.076h3.048c0,1.744-0.556,3.092-1.668,4.045c-1.112,0.951-2.636,1.428-4.572,1.428
		c-2.064,0-3.704-0.721-4.92-2.16c-1.232-1.473-1.848-3.473-1.848-6c0-2.561,0.632-4.561,1.896-6
		C89.646,373.264,91.246,372.576,93.23,372.576z"/>
	<path d="M106.693,381.648c0.928,0,2,0.152,3.216,0.455v-1.15c0-0.816-0.165-1.42-0.492-1.812c-0.328-0.393-0.864-0.588-1.608-0.588
		s-1.316,0.148-1.716,0.443c-0.4,0.297-0.6,0.717-0.6,1.26h-3.096c0-1.328,0.468-2.287,1.404-2.879s2.244-0.889,3.924-0.889
		c2.4,0,3.952,0.84,4.656,2.52c0.24,0.576,0.36,1.256,0.36,2.041v7.416h-2.472l-0.216-1.561c-0.752,1.264-1.904,1.896-3.456,1.896
		c-1.504,0-2.672-0.369-3.504-1.104c-0.768-0.705-1.152-1.598-1.152-2.678s0.424-1.91,1.272-2.496
		C104.062,381.941,105.221,381.648,106.693,381.648z M109.91,383.904c-0.944-0.256-1.824-0.385-2.64-0.385
		c-1.536,0-2.304,0.514-2.304,1.537c0,0.432,0.176,0.805,0.528,1.115c0.352,0.312,0.916,0.469,1.692,0.469
		c0.776,0,1.416-0.26,1.92-0.779C109.609,385.34,109.877,384.689,109.91,383.904z"/>
	<path d="M119.653,378.816c0.768-1.553,2-2.328,3.696-2.328c1.44,0,2.524,0.473,3.252,1.416s1.092,2.191,1.092,3.744v6.816h-2.832
		v-6.816c0-0.863-0.208-1.516-0.624-1.957c-0.417-0.439-1-0.658-1.752-0.658c-0.752,0-1.396,0.336-1.932,1.008
		c-0.536,0.672-0.82,1.68-0.852,3.023v5.4h-2.832v-11.664h2.472L119.653,378.816z"/>
	<path d="M136.261,376.488c0.736,0,1.396,0.125,1.98,0.373s1.076,0.57,1.476,0.971c0.8,0.768,1.272,1.736,1.416,2.904l-2.856,0.072
		c-0.128-0.512-0.364-0.936-0.708-1.271c-0.344-0.336-0.74-0.504-1.188-0.504c-0.448,0-0.832,0.068-1.152,0.203
		c-0.32,0.137-0.6,0.348-0.84,0.637c-0.544,0.672-0.816,1.6-0.816,2.783s0.256,2.076,0.768,2.676c0.512,0.6,1.132,0.9,1.86,0.9
		s1.256-0.172,1.584-0.516s0.492-0.812,0.492-1.404h2.856c0,1.279-0.424,2.344-1.272,3.191c-0.864,0.865-2.072,1.297-3.624,1.297
		c-1.536,0-2.824-0.561-3.864-1.68c-1.104-1.201-1.656-2.697-1.656-4.488c0-1.889,0.552-3.4,1.656-4.537
		C133.413,377.025,134.709,376.488,136.261,376.488z"/>
	<path d="M153.577,379.969c0.2,0.672,0.3,1.287,0.3,1.848s-0.032,1.064-0.096,1.512h-7.536c0.032,0.945,0.264,1.713,0.696,2.305
		c0.432,0.592,1.088,0.887,1.968,0.887c1.167,0,1.864-0.512,2.088-1.535h2.856c-0.192,1.168-0.728,2.088-1.608,2.76
		c-0.912,0.705-2.024,1.057-3.336,1.057c-1.536,0-2.824-0.561-3.864-1.68c-1.072-1.168-1.608-2.664-1.608-4.488
		c0-1.873,0.536-3.377,1.608-4.512c1.024-1.088,2.312-1.633,3.864-1.633c1.616,0,2.872,0.568,3.768,1.703
		C153.077,378.705,153.377,379.297,153.577,379.969z M148.933,378.744c-0.8,0-1.424,0.26-1.872,0.779
		c-0.448,0.521-0.712,1.189-0.792,2.006h4.968c0-1.266-0.4-2.113-1.2-2.545C149.733,378.824,149.365,378.744,148.933,378.744z"/>
	<path d="M157.261,372h2.832v16.465h-2.832V372z"/>
</g>
<rect x="223.395" y="372" fill="none" width="86.5" height="23"/>
<g enable-background="new    ">
	<path d="M251.141,377.184c-0.256-1.359-1.216-2.039-2.88-2.039c-0.816,0-1.452,0.164-1.908,0.492s-0.684,0.725-0.684,1.188
		c0,0.465,0.148,0.828,0.444,1.092c0.296,0.264,0.756,0.508,1.38,0.732l3.384,1.32c1.152,0.447,2.04,1.012,2.664,1.691
		s0.936,1.533,0.936,2.557c0,1.408-0.528,2.523-1.584,3.348s-2.56,1.236-4.512,1.236c-1.728,0-3.128-0.424-4.2-1.271
		c-1.2-0.928-1.833-2.24-1.896-3.938h2.808c0,1.281,0.664,2.088,1.992,2.424c0.4,0.113,0.928,0.168,1.584,0.168
		s1.264-0.164,1.824-0.492c0.56-0.326,0.84-0.768,0.84-1.318c0-0.553-0.152-0.977-0.456-1.273c-0.304-0.295-0.8-0.57-1.488-0.828
		l-3.096-1.223c-1.2-0.465-2.12-1.008-2.76-1.633c-0.64-0.623-0.96-1.488-0.96-2.592c0-1.295,0.504-2.32,1.512-3.072
		c1.024-0.783,2.412-1.176,4.164-1.176s3.104,0.404,4.056,1.213c0.952,0.807,1.5,1.939,1.644,3.395H251.141z"/>
	<path d="M262.108,381.648c0.928,0,2,0.152,3.216,0.455v-1.15c0-0.816-0.165-1.42-0.492-1.812c-0.328-0.393-0.864-0.588-1.608-0.588
		s-1.316,0.148-1.716,0.443c-0.4,0.297-0.6,0.717-0.6,1.26h-3.096c0-1.328,0.468-2.287,1.404-2.879s2.244-0.889,3.924-0.889
		c2.4,0,3.952,0.84,4.656,2.52c0.24,0.576,0.36,1.256,0.36,2.041v7.416h-2.472l-0.216-1.561c-0.752,1.264-1.904,1.896-3.456,1.896
		c-1.504,0-2.672-0.369-3.504-1.104c-0.768-0.705-1.152-1.598-1.152-2.678s0.424-1.91,1.272-2.496
		C259.477,381.941,260.636,381.648,262.108,381.648z M265.325,383.904c-0.944-0.256-1.824-0.385-2.64-0.385
		c-1.536,0-2.304,0.514-2.304,1.537c0,0.432,0.176,0.805,0.528,1.115c0.352,0.312,0.916,0.469,1.692,0.469
		c0.776,0,1.416-0.26,1.92-0.779C265.024,385.34,265.292,384.689,265.325,383.904z"/>
	<path d="M273.604,376.801l2.664,8.855l2.688-8.855h3.264l-4.344,11.664h-3.192l-4.344-11.664H273.604z"/>
	<path d="M293.777,379.969c0.2,0.672,0.3,1.287,0.3,1.848s-0.032,1.064-0.096,1.512h-7.536c0.032,0.945,0.264,1.713,0.696,2.305
		c0.432,0.592,1.088,0.887,1.968,0.887c1.167,0,1.864-0.512,2.088-1.535h2.856c-0.192,1.168-0.728,2.088-1.608,2.76
		c-0.912,0.705-2.024,1.057-3.336,1.057c-1.536,0-2.824-0.561-3.864-1.68c-1.072-1.168-1.608-2.664-1.608-4.488
		c0-1.873,0.536-3.377,1.608-4.512c1.024-1.088,2.312-1.633,3.864-1.633c1.616,0,2.872,0.568,3.768,1.703
		C293.276,378.705,293.577,379.297,293.777,379.969z M289.133,378.744c-0.8,0-1.424,0.26-1.872,0.779
		c-0.448,0.521-0.712,1.189-0.792,2.006h4.968c0-1.266-0.4-2.113-1.2-2.545C289.933,378.824,289.565,378.744,289.133,378.744z"/>
</g>
<rect x="60" y="59" fill="none" width="543" height="32"/>
<g enable-background="new    ">
	<path d="M78.19,67.246c-0.374-1.982-1.773-2.975-4.2-2.975c-1.19,0-2.118,0.239-2.783,0.718s-0.998,1.056-0.998,1.732
		s0.215,1.207,0.647,1.592c0.432,0.386,1.103,0.741,2.013,1.067l4.935,1.926c1.68,0.653,2.975,1.476,3.885,2.467
		c0.91,0.992,1.365,2.235,1.365,3.728c0,2.054-0.77,3.682-2.31,4.883c-1.54,1.202-3.733,1.803-6.58,1.803
		c-2.52,0-4.562-0.618-6.125-1.855c-1.75-1.353-2.672-3.267-2.765-5.74h4.095c0,1.867,0.968,3.046,2.905,3.535
		c0.583,0.164,1.353,0.245,2.31,0.245c0.957,0,1.843-0.239,2.66-0.718c0.816-0.478,1.225-1.119,1.225-1.925
		c0-0.805-0.222-1.423-0.665-1.854c-0.444-0.432-1.167-0.834-2.17-1.208L71.12,72.88c-1.75-0.676-3.092-1.47-4.025-2.38
		c-0.934-0.91-1.4-2.17-1.4-3.779c0-1.891,0.735-3.384,2.205-4.48c1.493-1.143,3.518-1.715,6.073-1.715
		c2.555,0,4.526,0.59,5.915,1.768c1.388,1.179,2.188,2.829,2.397,4.952H78.19z"/>
	<path d="M98.944,80.616c-1.074,2.264-2.8,3.396-5.18,3.396c-3.01,0-4.993-1.179-5.95-3.535c-0.35-0.816-0.525-1.809-0.525-2.976
		v-10.85h4.13v10.43c0,1.12,0.268,1.955,0.805,2.503c0.537,0.548,1.196,0.822,1.978,0.822s1.44-0.11,1.978-0.332
		c0.537-0.222,1.003-0.555,1.4-0.998c0.863-1.003,1.318-2.345,1.365-4.024v-8.4h4.13v17.045h-4.13V80.616z"/>
	<path d="M112.419,68.996c1.073-1.843,2.707-2.765,4.9-2.765c2.1,0,3.896,0.793,5.39,2.38c1.586,1.68,2.38,3.873,2.38,6.58
		c0,2.729-0.805,4.935-2.415,6.615c-1.494,1.587-3.278,2.38-5.355,2.38c-2.077,0-3.594-0.618-4.55-1.855v9.66h-4.13V66.686h3.395
		L112.419,68.996z M116.584,80.441c0.49,0,0.997-0.105,1.522-0.315c0.525-0.21,0.998-0.536,1.417-0.979
		c0.933-0.98,1.4-2.293,1.4-3.938c0-1.646-0.402-2.935-1.208-3.868c-0.805-0.933-1.785-1.399-2.94-1.399
		c-1.155,0-2.1,0.332-2.835,0.997c-0.735,0.665-1.126,1.616-1.173,2.853v3.045c0,1.098,0.385,1.983,1.155,2.66
		C114.647,80.125,115.534,80.441,116.584,80.441z"/>
	<path d="M142.222,71.306c0.292,0.979,0.438,1.878,0.438,2.694c0,0.817-0.047,1.553-0.14,2.205h-10.99
		c0.046,1.377,0.385,2.497,1.015,3.36s1.586,1.295,2.87,1.295c1.703,0,2.718-0.746,3.045-2.24h4.165
		c-0.28,1.704-1.062,3.045-2.345,4.025c-1.33,1.026-2.952,1.54-4.865,1.54c-2.24,0-4.119-0.816-5.635-2.45
		c-1.564-1.703-2.345-3.885-2.345-6.545c0-2.73,0.781-4.923,2.345-6.58c1.493-1.587,3.371-2.38,5.635-2.38
		c2.356,0,4.188,0.828,5.495,2.484C141.492,69.462,141.93,70.326,142.222,71.306z M135.449,69.521c-1.167,0-2.077,0.379-2.73,1.138
		c-0.654,0.758-1.039,1.732-1.155,2.922h7.245c0-1.843-0.583-3.08-1.75-3.71C136.616,69.638,136.079,69.521,135.449,69.521z"/>
	<path d="M150.779,70.045c1.027-2.449,2.567-3.675,4.62-3.675c0.396,0,0.898,0.082,1.505,0.245l-0.07,4.13
		c-0.653-0.14-1.295-0.21-1.925-0.21c-2.753,0-4.13,1.902-4.13,5.705v7.455h-4.13V66.651h4.13V70.045z"/>
	<path d="M175.523,60.981c3.453,0,6.242,1.027,8.365,3.08c2.146,2.054,3.22,4.818,3.22,8.295c0,3.453-1.073,6.207-3.22,8.26
		c-2.124,2.054-4.912,3.08-8.365,3.08h-7.385V60.981H175.523z M172.303,79.951h3.22c2.146,0,3.885-0.723,5.215-2.17
		c1.26-1.4,1.89-3.208,1.89-5.425c0-2.263-0.63-4.095-1.89-5.495c-1.307-1.423-3.045-2.135-5.215-2.135h-3.22V79.951z"/>
	<path d="M202.543,80.616c-1.074,2.264-2.8,3.396-5.18,3.396c-3.01,0-4.993-1.179-5.95-3.535c-0.35-0.816-0.525-1.809-0.525-2.976
		v-10.85h4.13v10.43c0,1.12,0.268,1.955,0.805,2.503c0.537,0.548,1.196,0.822,1.978,0.822s1.44-0.11,1.978-0.332
		c0.537-0.222,1.003-0.555,1.4-0.998c0.863-1.003,1.318-2.345,1.365-4.024v-8.4h4.13v17.045h-4.13V80.616z"/>
	<path d="M216.018,68.996c1.073-1.843,2.707-2.765,4.9-2.765c2.1,0,3.896,0.793,5.39,2.38c1.586,1.68,2.38,3.873,2.38,6.58
		c0,2.729-0.805,4.935-2.415,6.615c-1.494,1.587-3.278,2.38-5.355,2.38c-2.077,0-3.594-0.618-4.55-1.855v9.66h-4.13V66.686h3.395
		L216.018,68.996z M220.183,80.441c0.49,0,0.997-0.105,1.522-0.315c0.525-0.21,0.998-0.536,1.417-0.979
		c0.933-0.98,1.4-2.293,1.4-3.938c0-1.646-0.402-2.935-1.208-3.868c-0.805-0.933-1.785-1.399-2.94-1.399
		c-1.155,0-2.1,0.332-2.835,0.997c-0.735,0.665-1.126,1.616-1.173,2.853v3.045c0,1.098,0.385,1.983,1.155,2.66
		C218.246,80.125,219.132,80.441,220.183,80.441z"/>
	<path d="M245.82,71.306c0.292,0.979,0.438,1.878,0.438,2.694c0,0.817-0.047,1.553-0.14,2.205h-10.99
		c0.046,1.377,0.385,2.497,1.015,3.36s1.586,1.295,2.87,1.295c1.703,0,2.718-0.746,3.045-2.24h4.165
		c-0.28,1.704-1.062,3.045-2.345,4.025c-1.33,1.026-2.952,1.54-4.865,1.54c-2.24,0-4.119-0.816-5.635-2.45
		c-1.564-1.703-2.345-3.885-2.345-6.545c0-2.73,0.781-4.923,2.345-6.58c1.493-1.587,3.371-2.38,5.635-2.38
		c2.356,0,4.188,0.828,5.495,2.484C245.09,69.462,245.528,70.326,245.82,71.306z M239.047,69.521c-1.167,0-2.077,0.379-2.73,1.138
		c-0.654,0.758-1.039,1.732-1.155,2.922h7.245c0-1.843-0.583-3.08-1.75-3.71C240.214,69.638,239.677,69.521,239.047,69.521z"/>
	<path d="M254.377,70.045c1.027-2.449,2.567-3.675,4.62-3.675c0.396,0,0.898,0.082,1.505,0.245l-0.07,4.13
		c-0.653-0.14-1.295-0.21-1.925-0.21c-2.753,0-4.13,1.902-4.13,5.705v7.455h-4.13V66.651h4.13V70.045z"/>
	<path d="M277.686,60.981l6.23,13.51l6.23-13.51h5.705v22.715h-4.165V66.441l-6.44,14.77h-2.695l-6.65-15.26v17.745h-4.13V60.981
		H277.686z"/>
	<path d="M314.594,71.306c0.291,0.979,0.438,1.878,0.438,2.694c0,0.817-0.047,1.553-0.14,2.205h-10.99
		c0.046,1.377,0.385,2.497,1.015,3.36s1.586,1.295,2.87,1.295c1.703,0,2.718-0.746,3.045-2.24h4.165
		c-0.28,1.704-1.062,3.045-2.345,4.025c-1.33,1.026-2.952,1.54-4.865,1.54c-2.24,0-4.119-0.816-5.635-2.45
		c-1.564-1.703-2.345-3.885-2.345-6.545c0-2.73,0.781-4.923,2.345-6.58c1.493-1.587,3.371-2.38,5.635-2.38
		c2.356,0,4.188,0.828,5.495,2.484C313.864,69.462,314.302,70.326,314.594,71.306z M307.821,69.521c-1.167,0-2.077,0.379-2.73,1.138
		c-0.654,0.758-1.039,1.732-1.155,2.922h7.246c0-1.843-0.584-3.08-1.75-3.71C308.988,69.638,308.451,69.521,307.821,69.521z"/>
	<path d="M334.141,69.906c1.097-2.45,3.021-3.675,5.775-3.675c2.029,0,3.604,0.688,4.725,2.064c1.073,1.308,1.61,3.127,1.61,5.46
		v9.94h-4.165v-9.94c0-1.26-0.304-2.21-0.91-2.853c-0.607-0.641-1.459-0.962-2.555-0.962c-1.098,0-1.995,0.479-2.695,1.435
		c-0.7,0.957-1.073,2.404-1.12,4.34v7.98h-4.13v-9.94c0-1.26-0.304-2.21-0.91-2.853c-0.607-0.641-1.459-0.962-2.555-0.962
		c-1.098,0-2.036,0.49-2.817,1.47c-0.782,0.98-1.196,2.45-1.243,4.41v7.875h-4.13v-17.01h3.605l0.455,2.939
		c1.119-2.263,2.916-3.395,5.39-3.395c1.423,0,2.607,0.327,3.553,0.979C332.968,67.865,333.674,68.763,334.141,69.906z"/>
	<path d="M365.588,68.681c1.435,1.633,2.152,3.779,2.152,6.439s-0.759,4.854-2.275,6.58c-1.47,1.657-3.302,2.485-5.495,2.485
		c-1.05,0-2.012-0.28-2.887-0.84c-0.875-0.561-1.57-1.424-2.083-2.591l-1.015,2.94h-2.695v-24.01h4.13v9.135
		c1.073-1.727,2.678-2.59,4.812-2.59S364.152,67.047,365.588,68.681z M355.42,74.141v2.239c0.047,1.19,0.479,2.171,1.295,2.94
		c0.771,0.747,1.709,1.12,2.817,1.12s2.06-0.484,2.853-1.452c0.793-0.969,1.19-2.246,1.19-3.833s-0.391-2.853-1.173-3.798
		c-0.781-0.944-1.756-1.417-2.922-1.417c-1.167,0-2.136,0.385-2.905,1.155C355.805,71.866,355.42,72.88,355.42,74.141z"/>
	<path d="M385.013,71.306c0.291,0.979,0.438,1.878,0.438,2.694c0,0.817-0.047,1.553-0.14,2.205h-10.99
		c0.046,1.377,0.385,2.497,1.015,3.36s1.587,1.295,2.87,1.295c1.703,0,2.718-0.746,3.045-2.24h4.165
		c-0.28,1.704-1.062,3.045-2.345,4.025c-1.33,1.026-2.952,1.54-4.865,1.54c-2.24,0-4.118-0.816-5.635-2.45
		c-1.563-1.703-2.346-3.885-2.346-6.545c0-2.73,0.782-4.923,2.346-6.58c1.493-1.587,3.371-2.38,5.635-2.38
		c2.356,0,4.188,0.828,5.495,2.484C384.283,69.462,384.721,70.326,385.013,71.306z M378.24,69.521c-1.167,0-2.077,0.379-2.73,1.138
		c-0.653,0.758-1.038,1.732-1.154,2.922h7.244c0-1.843-0.583-3.08-1.75-3.71C379.406,69.638,378.87,69.521,378.24,69.521z"/>
	<path d="M393.57,70.045c1.026-2.449,2.566-3.675,4.62-3.675c0.396,0,0.898,0.082,1.505,0.245l-0.069,4.13
		c-0.654-0.14-1.296-0.21-1.926-0.21c-2.753,0-4.13,1.902-4.13,5.705v7.455h-4.13V66.651h4.13V70.045z"/>
	<path d="M416.88,60.981l6.23,13.51l6.229-13.51h5.705v22.715h-4.165V66.441l-6.439,14.77h-2.695l-6.65-15.26v17.745h-4.13V60.981
		H416.88z"/>
	<path d="M446.21,73.755c1.353,0,2.916,0.223,4.689,0.665v-1.68c0-1.189-0.239-2.07-0.718-2.643
		c-0.479-0.571-1.26-0.857-2.345-0.857s-1.92,0.216-2.502,0.647c-0.584,0.433-0.875,1.045-0.875,1.838h-4.516
		c0-1.937,0.683-3.337,2.048-4.2s3.272-1.295,5.723-1.295c3.5,0,5.763,1.225,6.79,3.675c0.35,0.84,0.524,1.832,0.524,2.975v10.815
		h-3.604l-0.315-2.275c-1.097,1.844-2.777,2.766-5.04,2.766c-2.193,0-3.896-0.537-5.109-1.61c-1.12-1.026-1.681-2.327-1.681-3.902
		s0.618-2.788,1.855-3.64C442.371,74.182,444.062,73.755,446.21,73.755z M450.899,77.045c-1.377-0.373-2.66-0.56-3.85-0.56
		c-2.24,0-3.36,0.747-3.36,2.24c0,0.63,0.257,1.172,0.771,1.627c0.513,0.455,1.335,0.683,2.467,0.683s2.065-0.379,2.8-1.138
		C450.462,79.14,450.853,78.189,450.899,77.045z"/>
	<path d="M464.165,69.625c1.119-2.263,2.916-3.395,5.39-3.395c2.1,0,3.681,0.688,4.742,2.064c1.062,1.377,1.593,3.197,1.593,5.46
		v9.94h-4.13v-9.94c0-1.26-0.304-2.21-0.91-2.853c-0.607-0.641-1.459-0.962-2.555-0.962c-1.098,0-2.036,0.49-2.817,1.47
		c-0.782,0.98-1.196,2.45-1.243,4.41v7.875h-4.13v-17.01h3.605L464.165,69.625z"/>
	<path d="M486.564,73.755c1.353,0,2.916,0.223,4.689,0.665v-1.68c0-1.189-0.239-2.07-0.718-2.643
		c-0.479-0.571-1.26-0.857-2.345-0.857s-1.92,0.216-2.502,0.647c-0.584,0.433-0.875,1.045-0.875,1.838h-4.516
		c0-1.937,0.683-3.337,2.048-4.2s3.272-1.295,5.723-1.295c3.5,0,5.763,1.225,6.79,3.675c0.35,0.84,0.524,1.832,0.524,2.975v10.815
		h-3.604l-0.315-2.275c-1.097,1.844-2.777,2.766-5.04,2.766c-2.193,0-3.896-0.537-5.109-1.61c-1.12-1.026-1.681-2.327-1.681-3.902
		s0.618-2.788,1.855-3.64C482.726,74.182,484.417,73.755,486.564,73.755z M491.254,77.045c-1.377-0.373-2.66-0.56-3.85-0.56
		c-2.24,0-3.36,0.747-3.36,2.24c0,0.63,0.257,1.172,0.771,1.627c0.513,0.455,1.335,0.683,2.467,0.683s2.065-0.379,2.8-1.138
		C490.816,79.14,491.207,78.189,491.254,77.045z"/>
	<path d="M501.929,76.731c-1.377-1.167-2.064-2.625-2.064-4.375c0-1.843,0.723-3.337,2.17-4.48c1.4-1.096,3.004-1.645,4.812-1.645
		c1.808,0,3.319,0.338,4.532,1.015c0.141-1.33,0.712-2.402,1.715-3.22c0.98-0.816,2.136-1.225,3.466-1.225l-0.211,3.954
		c-2.007,0-3.045,0.665-3.114,1.995c0.862,1.074,1.295,2.17,1.295,3.29s-0.198,2.06-0.595,2.817
		c-0.397,0.759-0.934,1.395-1.61,1.908c-1.4,1.12-3.104,1.68-5.11,1.68c-1.144,0-2.182-0.175-3.115-0.525
		c-0.933,0.28-1.399,0.841-1.399,1.681c0,1.05,0.887,1.575,2.66,1.575h5.705c3.873,0,5.81,1.354,5.81,4.06
		c0,0.91-0.228,1.803-0.683,2.678s-1.114,1.65-1.978,2.327c-1.913,1.493-4.316,2.24-7.21,2.24c-2.8,0-5.075-0.572-6.825-1.715
		c-1.633-1.098-2.449-2.438-2.449-4.025c0-1.05,0.32-1.885,0.962-2.502c0.642-0.618,1.487-1.01,2.538-1.173
		c-1.377-0.84-2.065-1.878-2.065-3.115c0-0.816,0.257-1.499,0.771-2.048C500.447,77.355,501.112,76.964,501.929,76.731z
		 M505.079,84.081c-2.193,0.093-3.29,0.922-3.29,2.485c0,0.793,0.461,1.429,1.383,1.907c0.921,0.479,2.013,0.718,3.272,0.718
		s2.245-0.105,2.957-0.315s1.312-0.489,1.803-0.84c1.05-0.7,1.575-1.54,1.575-2.52c0-0.42-0.146-0.765-0.438-1.033
		c-0.292-0.269-0.718-0.402-1.277-0.402H505.079z M510.435,72.303c0-0.945-0.263-1.715-0.788-2.31
		c-0.524-0.596-1.324-0.893-2.397-0.893s-1.89,0.297-2.45,0.893c-0.56,0.595-0.84,1.364-0.84,2.31s0.28,1.721,0.84,2.327
		c0.561,0.607,1.377,0.91,2.45,0.91s1.873-0.303,2.397-0.91C510.172,74.024,510.435,73.249,510.435,72.303z"/>
	<path d="M533.061,71.306c0.291,0.979,0.438,1.878,0.438,2.694c0,0.817-0.047,1.553-0.14,2.205h-10.99
		c0.046,1.377,0.385,2.497,1.015,3.36s1.587,1.295,2.87,1.295c1.703,0,2.718-0.746,3.045-2.24h4.165
		c-0.28,1.704-1.062,3.045-2.345,4.025c-1.33,1.026-2.952,1.54-4.865,1.54c-2.24,0-4.118-0.816-5.635-2.45
		c-1.563-1.703-2.346-3.885-2.346-6.545c0-2.73,0.782-4.923,2.346-6.58c1.493-1.587,3.371-2.38,5.635-2.38
		c2.356,0,4.188,0.828,5.495,2.484C532.331,69.462,532.769,70.326,533.061,71.306z M526.288,69.521c-1.167,0-2.077,0.379-2.73,1.138
		c-0.653,0.758-1.038,1.732-1.154,2.922h7.244c0-1.843-0.583-3.08-1.75-3.71C527.454,69.638,526.918,69.521,526.288,69.521z"/>
	<path d="M541.618,70.045c1.026-2.449,2.566-3.675,4.62-3.675c0.396,0,0.898,0.082,1.505,0.245l-0.069,4.13
		c-0.654-0.14-1.296-0.21-1.926-0.21c-2.753,0-4.13,1.902-4.13,5.705v7.455h-4.13V66.651h4.13V70.045z"/>
</g>
<g id="Layer_2">
	<line fill="none" stroke="#FF0000" stroke-width="4" stroke-miterlimit="10" x1="23.841" y1="0" x2="23.841" y2="449"/>
	<line fill="none" stroke="#FF0000" stroke-width="4" stroke-miterlimit="10" x1="139.841" y1="0" x2="139.841" y2="449"/>
	<line fill="none" stroke="#FF0000" stroke-width="4" stroke-miterlimit="10" x1="343.842" y1="0" x2="343.842" y2="449"/>
	<line fill="none" stroke="#FF0000" stroke-width="4" stroke-miterlimit="10" x1="194.842" y1="0" x2="194.842" y2="449"/>
	<line fill="none" stroke="#FF0000" stroke-width="4" stroke-miterlimit="10" x1="587.842" y1="0" x2="587.842" y2="449"/>
	<line fill="none" stroke="#FF0000" stroke-width="4" stroke-miterlimit="10" x1="0" y1="21.768" x2="611" y2="21.768"/>
	<line fill="none" stroke="#FF0000" stroke-width="4" stroke-miterlimit="10" x1="0" y1="110.768" x2="611" y2="110.768"/>
	<line fill="none" stroke="#FF0000" stroke-width="4" stroke-miterlimit="10" x1="0" y1="151.768" x2="611" y2="151.768"/>
	<line fill="none" stroke="#FF0000" stroke-width="4" stroke-miterlimit="10" x1="0" y1="199.768" x2="611" y2="199.768"/>
	<line fill="none" stroke="#FF0000" stroke-width="4" stroke-miterlimit="10" x1="0" y1="241.768" x2="611" y2="241.768"/>
	<line fill="none" stroke="#FF0000" stroke-width="4" stroke-miterlimit="10" x1="0" y1="283.768" x2="611" y2="283.768"/>
	<line fill="none" stroke="#FF0000" stroke-width="4" stroke-miterlimit="10" x1="0" y1="350.768" x2="611" y2="350.768"/>
	<line fill="none" stroke="#FF0000" stroke-width="4" stroke-miterlimit="10" x1="0" y1="427.768" x2="611" y2="427.768"/>
</g>
</svg>
