<?xml version="1.0" encoding="utf-8"?>
<!-- Generator: Adobe Illustrator 15.1.0, SVG Export Plug-In . SVG Version: 6.00 Build 0)  -->
<!DOCTYPE svg PUBLIC "-//W3C//DTD SVG 1.1//EN" "http://www.w3.org/Graphics/SVG/1.1/DTD/svg11.dtd">
<svg version="1.1" id="Layer_1" xmlns="http://www.w3.org/2000/svg" xmlns:xlink="http://www.w3.org/1999/xlink" x="0px" y="0px"
	 width="800px" height="450px" viewBox="0 0 800 450" enable-background="new 0 0 800 450" xml:space="preserve">
<path fill="#001E39" fill-opacity="0.2" stroke="#001E39" stroke-width="8" stroke-miterlimit="10" d="M96.601,44.5v363H703.4v-363
	H96.601z M665.549,355.268H347.217v-52.408h318.332V355.268z M665.549,276.872H347.217v-52.407h318.332V276.872z M665.549,198.478
	H347.217V146.07h318.332V198.478z"/>
<g>
	<g>
		<path fill="#001E39" d="M133.937,162.248h13.671v2.434h-10.844v7.479h10.093v2.434h-10.093v10.164h-2.827V162.248L133.937,162.248
			z"/>
		<path fill="#001E39" d="M152.941,163.608c-0.573,0-1.021-0.16-1.343-0.483c-0.321-0.322-0.482-0.752-0.482-1.289
			c0-0.536,0.161-0.966,0.482-1.288c0.322-0.322,0.77-0.483,1.343-0.483c0.572,0,1.031,0.161,1.378,0.483
			c0.345,0.322,0.519,0.752,0.519,1.288c0,0.537-0.174,0.967-0.519,1.289C153.972,163.448,153.513,163.608,152.941,163.608z
			 M151.546,167.616h2.826v17.143h-2.826V167.616z"/>
		<path fill="#001E39" d="M167.72,170.05c-2.696,0-4.092,2.124-4.188,6.37v8.339h-2.827v-17.143h2.827v3.293
			c0.86-2.386,2.374-3.579,4.545-3.579c0.692,0,1.349,0.107,1.97,0.322l-0.144,2.756C169.188,170.17,168.461,170.05,167.72,170.05z"
			/>
		<path fill="#001E39" d="M173.967,168.475c1.204-0.834,2.832-1.252,4.885-1.252c2.052,0,3.656,0.429,4.814,1.289
			c1.156,0.859,1.759,1.945,1.807,3.257h-2.756c-0.215-1.551-1.527-2.326-3.937-2.326c-1.17,0-2.07,0.262-2.702,0.787
			c-0.633,0.526-0.949,1.092-0.949,1.7s0.239,1.122,0.716,1.539c0.478,0.418,1.241,0.782,2.291,1.092l3.436,1.145
			c1.455,0.454,2.571,1.032,3.347,1.736c0.774,0.704,1.163,1.67,1.163,2.899s-0.633,2.338-1.897,3.328
			c-1.265,0.99-3.029,1.485-5.297,1.485c-2.267,0-4.032-0.506-5.296-1.521c-1.265-1.014-1.934-2.32-2.005-3.918h2.721
			c0.047,1.073,0.483,1.879,1.307,2.416c0.822,0.537,1.854,0.806,3.095,0.806c1.241,0,2.267-0.264,3.078-0.788
			s1.217-1.151,1.217-1.879c0-0.727-0.239-1.281-0.716-1.664c-0.478-0.382-1.252-0.716-2.326-1.003l-3.328-1.109
			c-2.983-0.882-4.474-2.433-4.474-4.652C172.159,170.432,172.76,169.311,173.967,168.475z"/>
		<path fill="#001E39" d="M199.502,184.258c-2.052,0.954-3.925,1.157-5.618,0.608c-1.218-0.381-2.077-1.181-2.578-2.398
			c-0.263-0.596-0.393-1.312-0.393-2.147V169.8h-2.757v-2.148h2.757v-4.76h2.791v4.76h5.368v2.148h-5.368v10.486
			c0,1.741,0.811,2.612,2.434,2.612c0.882,0,1.873-0.215,2.971-0.645L199.502,184.258z"/>
		<path fill="#001E39" d="M213.173,162.248l11.166,18.073v-18.073h2.827v22.511h-3.149l-11.345-18.324v18.324h-2.863v-22.511
			H213.173z"/>
		<path fill="#001E39" d="M243.664,173.665c0-1.551-0.321-2.661-0.966-3.329s-1.581-1.002-2.81-1.002s-2.219,0.245-2.971,0.733
			c-0.751,0.489-1.127,1.258-1.127,2.309h-3.113c0-2.625,1.407-4.247,4.223-4.868c0.859-0.19,1.79-0.286,2.791-0.286
			c2.124,0,3.781,0.537,4.975,1.61c1.193,1.075,1.79,2.709,1.79,4.904v11.022h-2.434l-0.287-2.864
			c-1.05,2.172-2.946,3.257-5.689,3.257c-1.837,0-3.311-0.512-4.421-1.539c-1.108-1.026-1.663-2.302-1.663-3.829
			c0-1.527,0.613-2.721,1.843-3.579c1.229-0.859,2.762-1.288,4.6-1.288c1.837,0,3.59,0.311,5.26,0.93L243.664,173.665
			L243.664,173.665z M243.664,177.637c-1.693-0.478-3.173-0.716-4.438-0.716c-1.265,0-2.29,0.228-3.078,0.68
			c-0.787,0.454-1.181,1.17-1.181,2.148c0,2.147,1.217,3.221,3.65,3.221c1.384,0,2.57-0.495,3.561-1.485
			C243.169,180.495,243.664,179.212,243.664,177.637z"/>
		<path fill="#001E39" d="M254.508,170.945c1.122-2.481,3.043-3.722,5.763-3.722c1.479,0,2.72,0.364,3.723,1.091
			c1.002,0.729,1.729,1.736,2.183,3.024c1.073-2.744,3.065-4.116,5.976-4.116c2.053,0,3.639,0.668,4.761,2.005
			c1.121,1.336,1.683,3.161,1.683,5.475v10.057h-2.792v-10.057c0-1.647-0.388-2.887-1.164-3.722
			c-0.774-0.834-1.891-1.252-3.346-1.252s-2.583,0.597-3.382,1.789c-0.8,1.193-1.199,2.839-1.199,4.939v8.303h-2.791v-10.057
			c0-1.647-0.389-2.887-1.163-3.722c-0.775-0.834-1.879-1.252-3.311-1.252s-2.59,0.585-3.472,1.753
			c-0.883,1.169-1.348,2.792-1.396,4.867v8.411h-2.826v-17.107h2.433L254.508,170.945z"/>
		<path fill="#001E39" d="M289.83,182.863c2.363,0,3.71-1.039,4.045-3.114h2.899c-0.264,1.718-1.021,3.048-2.272,3.99
			c-1.254,0.943-2.81,1.414-4.672,1.414c-2.289,0-4.151-0.817-5.582-2.451c-1.432-1.634-2.148-3.811-2.148-6.532
			c0-2.72,0.722-4.89,2.166-6.513c1.443-1.623,3.364-2.434,5.763-2.434c2.397,0,4.188,0.93,5.368,2.792
			c1.181,1.86,1.592,4.127,1.234,6.799h-11.703c0,1.767,0.43,3.216,1.288,4.349C287.075,182.295,288.279,182.863,289.83,182.863z
			 M291.907,169.907c-0.549-0.287-1.218-0.43-2.005-0.43c-1.456,0-2.607,0.496-3.453,1.485c-0.848,0.991-1.342,2.226-1.485,3.705
			h9.126C294.09,172.281,293.361,170.694,291.907,169.907z"/>
	</g>
</g>
<g>
	<g>
		<path fill="#001E39" d="M139.252,262.389h10.021v2.469h-12.849v-22.51h2.827L139.252,262.389L139.252,262.389z"/>
		<path fill="#001E39" d="M162.443,253.764c0-1.551-0.322-2.66-0.966-3.328s-1.581-1.002-2.81-1.002s-2.22,0.244-2.971,0.732
			c-0.751,0.488-1.128,1.259-1.128,2.309h-3.112c0-2.623,1.406-4.246,4.223-4.867c0.858-0.19,1.789-0.285,2.791-0.285
			c2.123,0,3.781,0.535,4.975,1.609c1.193,1.074,1.79,2.709,1.79,4.903v11.022h-2.434l-0.286-2.863
			c-1.051,2.172-2.947,3.257-5.691,3.257c-1.837,0-3.31-0.513-4.42-1.538c-1.109-1.025-1.663-2.302-1.663-3.829
			c0-1.526,0.613-2.722,1.842-3.579c1.229-0.859,2.762-1.289,4.6-1.289c1.837,0,3.591,0.312,5.261,0.932L162.443,253.764
			L162.443,253.764z M162.443,257.734c-1.694-0.478-3.173-0.715-4.438-0.715c-1.265,0-2.29,0.228-3.078,0.68
			c-0.787,0.453-1.182,1.17-1.182,2.148c0,2.146,1.218,3.221,3.651,3.221c1.384,0,2.57-0.495,3.561-1.484
			C161.948,260.594,162.443,259.312,162.443,257.734z"/>
		<path fill="#001E39" d="M171.479,248.573c1.204-0.835,2.833-1.253,4.885-1.253c2.052,0,3.656,0.431,4.814,1.289
			c1.156,0.858,1.759,1.945,1.807,3.258h-2.756c-0.215-1.551-1.526-2.326-3.937-2.326c-1.169,0-2.07,0.262-2.702,0.787
			c-0.633,0.523-0.948,1.091-0.948,1.699s0.238,1.121,0.715,1.539c0.478,0.418,1.241,0.781,2.291,1.092l3.436,1.146
			c1.455,0.451,2.571,1.029,3.347,1.734c0.774,0.704,1.163,1.67,1.163,2.898c0,1.229-0.633,2.34-1.897,3.328
			c-1.265,0.989-3.029,1.484-5.297,1.484c-2.267,0-4.032-0.507-5.296-1.521c-1.265-1.014-1.934-2.318-2.005-3.918h2.721
			c0.048,1.072,0.483,1.879,1.307,2.416c0.822,0.536,1.854,0.805,3.096,0.805c1.24,0,2.266-0.264,3.078-0.788
			c0.81-0.523,1.217-1.15,1.217-1.878c0-0.727-0.24-1.282-0.717-1.664c-0.477-0.383-1.252-0.717-2.326-1.004l-3.328-1.108
			c-2.983-0.882-4.474-2.433-4.474-4.651C169.671,250.529,170.273,249.408,171.479,248.573z"/>
		<path fill="#001E39" d="M197.014,264.355c-2.052,0.955-3.925,1.158-5.618,0.608c-1.218-0.381-2.076-1.181-2.578-2.397
			c-0.263-0.598-0.393-1.312-0.393-2.146v-10.521h-2.756v-2.146h2.756v-4.761h2.792v4.761h5.367v2.146h-5.367v10.485
			c0,1.741,0.81,2.613,2.433,2.613c0.883,0,1.873-0.215,2.971-0.646L197.014,264.355z"/>
		<path fill="#001E39" d="M210.686,242.348l11.166,18.072v-18.072h2.827v22.51h-3.149l-11.346-18.322v18.322h-2.862v-22.51H210.686z
			"/>
		<path fill="#001E39" d="M241.177,253.764c0-1.551-0.322-2.66-0.967-3.328c-0.644-0.668-1.581-1.002-2.809-1.002
			c-1.229,0-2.22,0.244-2.972,0.732c-0.751,0.488-1.127,1.259-1.127,2.309h-3.113c0-2.623,1.407-4.246,4.223-4.867
			c0.859-0.19,1.79-0.285,2.792-0.285c2.123,0,3.78,0.535,4.974,1.609c1.193,1.074,1.79,2.709,1.79,4.903v11.022h-2.434
			l-0.286-2.863c-1.051,2.172-2.946,3.257-5.69,3.257c-1.837,0-3.311-0.513-4.421-1.538c-1.108-1.025-1.663-2.302-1.663-3.829
			c0-1.526,0.613-2.722,1.843-3.579c1.229-0.859,2.762-1.289,4.6-1.289c1.837,0,3.59,0.312,5.261,0.932L241.177,253.764
			L241.177,253.764z M241.177,257.734c-1.694-0.478-3.174-0.715-4.438-0.715c-1.264,0-2.29,0.228-3.078,0.68
			c-0.787,0.453-1.181,1.17-1.181,2.148c0,2.146,1.217,3.221,3.65,3.221c1.384,0,2.57-0.495,3.562-1.484
			C240.682,260.594,241.177,259.312,241.177,257.734z"/>
		<path fill="#001E39" d="M252.02,251.043c1.122-2.48,3.043-3.723,5.763-3.723c1.479,0,2.72,0.365,3.723,1.092
			c1.002,0.729,1.729,1.736,2.183,3.023c1.073-2.742,3.065-4.115,5.977-4.115c2.052,0,3.638,0.668,4.76,2.006
			c1.121,1.336,1.683,3.16,1.683,5.475v10.057h-2.792v-10.057c0-1.646-0.388-2.887-1.163-3.722
			c-0.775-0.835-1.891-1.252-3.346-1.252c-1.456,0-2.584,0.597-3.383,1.789c-0.8,1.192-1.199,2.839-1.199,4.938v8.303h-2.791V254.8
			c0-1.646-0.389-2.887-1.163-3.722c-0.775-0.835-1.879-1.252-3.311-1.252c-1.432,0-2.589,0.584-3.471,1.753
			c-0.884,1.17-1.349,2.791-1.396,4.868v8.408h-2.827V247.75h2.433L252.02,251.043z"/>
		<path fill="#001E39" d="M287.344,262.962c2.362,0,3.71-1.039,4.044-3.114h2.899c-0.264,1.717-1.021,3.049-2.272,3.989
			c-1.254,0.942-2.81,1.414-4.671,1.414c-2.29,0-4.152-0.817-5.583-2.451c-1.432-1.635-2.147-3.812-2.147-6.53
			c0-2.722,0.721-4.892,2.165-6.515c1.443-1.622,3.364-2.435,5.763-2.435c2.397,0,4.188,0.932,5.368,2.793
			c1.18,1.859,1.593,4.127,1.235,6.799h-11.704c0,1.768,0.43,3.216,1.289,4.35C284.588,262.395,285.792,262.962,287.344,262.962z
			 M289.42,250.006c-0.549-0.287-1.218-0.43-2.005-0.43c-1.455,0-2.607,0.494-3.453,1.484c-0.848,0.99-1.343,2.225-1.485,3.705
			h9.126C291.603,252.379,290.875,250.792,289.42,250.006z"/>
	</g>
</g>
<g>
	<g>
		<path fill="#001E39" d="M170.529,320.741l7.587,15.245l7.516-15.245h3.973v22.511h-2.827v-18.504l-7.729,15.676h-1.897
			l-7.838-15.926v18.754h-2.827v-22.511H170.529z"/>
		<path fill="#001E39" d="M201.665,325.715c2.386,0,4.312,0.776,5.779,2.327c1.468,1.551,2.202,3.77,2.202,6.656
			c0,2.864-0.734,5.069-2.202,6.622c-1.467,1.551-3.394,2.324-5.779,2.324c-2.385,0-4.312-0.773-5.78-2.324
			c-1.467-1.553-2.201-3.758-2.201-6.622c0-2.888,0.734-5.105,2.201-6.656C197.352,326.491,199.279,325.715,201.665,325.715z
			 M206.782,334.682c0-2.041-0.429-3.639-1.288-4.798c-0.858-1.156-2.117-1.732-3.775-1.732c-1.658,0-2.929,0.576-3.812,1.732
			c-0.882,1.159-1.323,2.757-1.323,4.798c0,2.04,0.417,3.639,1.253,4.796c0.835,1.156,2.081,1.734,3.74,1.734
			c1.657,0,2.939-0.578,3.847-1.734C206.329,338.319,206.782,336.722,206.782,334.682z"/>
		<path fill="#001E39" d="M216.552,328.688c1.146-1.979,2.815-2.973,5.011-2.973c2.196,0,4.021,0.818,5.477,2.452
			c1.454,1.634,2.183,3.794,2.183,6.478c0,2.685-0.74,4.855-2.219,6.515c-1.479,1.658-3.281,2.487-5.404,2.487
			c-1.146,0-2.178-0.286-3.097-0.859c-0.918-0.572-1.64-1.418-2.165-2.54l-0.644,3.006h-1.968V318.88h2.826V328.688L216.552,328.688
			z M221.384,328.221c-1.36,0-2.494,0.437-3.4,1.307c-0.906,0.87-1.384,2.081-1.432,3.633v2.792c0,1.575,0.472,2.834,1.414,3.774
			c0.942,0.941,2.081,1.415,3.418,1.415c1.336,0,2.492-0.592,3.472-1.771c0.978-1.184,1.467-2.751,1.467-4.706
			s-0.483-3.521-1.449-4.689C223.907,328.806,222.743,328.221,221.384,328.221z"/>
		<path fill="#001E39" d="M234.877,322.101c-0.573,0-1.021-0.16-1.343-0.481c-0.322-0.321-0.482-0.753-0.482-1.29
			c0-0.535,0.16-0.966,0.482-1.287c0.322-0.322,0.77-0.484,1.343-0.484c0.572,0,1.031,0.162,1.377,0.484
			c0.346,0.321,0.521,0.752,0.521,1.287c0,0.537-0.175,0.969-0.521,1.29C235.908,321.94,235.449,322.101,234.877,322.101z
			 M233.48,326.109h2.827v17.143h-2.827V326.109z"/>
		<path fill="#001E39" d="M242.679,318.88h2.826v24.372h-2.826V318.88z"/>
		<path fill="#001E39" d="M257.28,341.354c2.363,0,3.71-1.037,4.045-3.11h2.898c-0.263,1.716-1.021,3.046-2.272,3.988
			c-1.253,0.942-2.81,1.413-4.671,1.413c-2.29,0-4.151-0.815-5.583-2.449c-1.431-1.637-2.147-3.812-2.147-6.532
			c0-2.722,0.722-4.892,2.165-6.513c1.444-1.624,3.364-2.437,5.763-2.437c2.397,0,4.188,0.93,5.367,2.792
			c1.182,1.86,1.594,4.127,1.235,6.799h-11.703c0,1.768,0.43,3.217,1.288,4.351C254.525,340.789,255.728,341.354,257.28,341.354z
			 M259.356,328.399c-0.55-0.286-1.218-0.429-2.005-0.429c-1.455,0-2.606,0.494-3.453,1.483c-0.847,0.992-1.343,2.226-1.485,3.704
			h9.126C261.539,330.773,260.81,329.188,259.356,328.399z"/>
	</g>
</g>
<g>
	<g>
		<path fill="#001E39" d="M127.996,76.5h14.637v3.651h-10.414v6.119h9.52v3.615h-9.52v9.842h-4.223V76.5L127.996,76.5z"/>
		<path fill="#001E39" d="M146.104,76.715c0-0.763,0.228-1.366,0.681-1.808c0.452-0.441,1.097-0.663,1.932-0.663
			c0.812,0,1.449,0.222,1.915,0.663c0.465,0.442,0.698,1.044,0.698,1.808c0,0.764-0.233,1.367-0.698,1.807
			c-0.466,0.442-1.104,0.662-1.915,0.662c-0.835,0-1.479-0.22-1.932-0.662C146.332,78.082,146.104,77.479,146.104,76.715z
			 M146.604,82.297h4.224v17.43h-4.224V82.297z"/>
		<path fill="#001E39" d="M170.136,87.057c0.298,1.002,0.447,1.92,0.447,2.756c0,0.835-0.048,1.587-0.143,2.254h-11.238
			c0.047,1.408,0.394,2.554,1.038,3.436c0.645,0.883,1.622,1.324,2.935,1.324c1.741,0,2.779-0.763,3.113-2.29h4.26
			c-0.287,1.741-1.086,3.114-2.398,4.116c-1.36,1.049-3.019,1.574-4.975,1.574c-2.29,0-4.212-0.834-5.762-2.504
			c-1.599-1.742-2.398-3.973-2.398-6.693c0-2.792,0.8-5.034,2.398-6.728c1.525-1.623,3.447-2.434,5.762-2.434
			c2.41,0,4.282,0.847,5.619,2.542C169.39,85.173,169.836,86.055,170.136,87.057z M163.209,85.232c-1.192,0-2.123,0.388-2.79,1.163
			c-0.669,0.776-1.062,1.771-1.183,2.988h7.409c0-1.885-0.597-3.149-1.789-3.793C164.402,85.352,163.854,85.232,163.209,85.232z"/>
		<path fill="#001E39" d="M174.306,75.176h4.223v24.551h-4.223V75.176z"/>
		<path fill="#001E39" d="M195.205,97.042c-1.073,2.124-2.72,3.185-4.938,3.185c-2.218,0-4.08-0.846-5.583-2.541
			c-1.551-1.766-2.326-4.008-2.326-6.729c0-2.72,0.739-4.926,2.219-6.621c1.455-1.646,3.27-2.47,5.44-2.47s3.805,0.871,4.902,2.613
			v-9.305h4.259v24.551h-3.472L195.205,97.042z M190.804,85.662c-1.193,0-2.189,0.482-2.988,1.449
			c-0.8,0.966-1.199,2.261-1.199,3.883c0,1.623,0.405,2.929,1.217,3.918c0.811,0.992,1.837,1.485,3.078,1.485
			c1.025,0,1.944-0.405,2.756-1.217c0.834-0.834,1.252-1.885,1.252-3.149v-2.254c-0.048-1.241-0.465-2.255-1.252-3.042
			C192.951,86.02,191.996,85.662,190.804,85.662z"/>
		<path fill="#001E39" d="M216.786,76.5l10.235,16.462V76.5h4.223v23.228h-4.294l-10.558-17.036v17.036h-4.224V76.5H216.786z"/>
		<path fill="#001E39" d="M242.304,89.563c1.384,0,2.982,0.227,4.796,0.68v-1.718c0-1.216-0.245-2.117-0.734-2.702
			c-0.489-0.584-1.288-0.876-2.397-0.876c-1.109,0-1.963,0.221-2.559,0.662c-0.597,0.441-0.895,1.068-0.895,1.879h-4.617
			c0-1.98,0.697-3.412,2.094-4.295c1.396-0.882,3.346-1.324,5.852-1.324c3.579,0,5.893,1.253,6.943,3.758
			c0.357,0.858,0.536,1.873,0.536,3.042v11.059h-3.687l-0.321-2.327c-1.122,1.886-2.84,2.827-5.153,2.827
			c-2.243,0-3.985-0.548-5.226-1.646c-1.146-1.05-1.718-2.38-1.718-3.991c0-1.61,0.632-2.851,1.897-3.722
			C238.378,89.999,240.107,89.563,242.304,89.563z M247.1,92.927c-1.408-0.381-2.721-0.573-3.938-0.573
			c-2.29,0-3.436,0.764-3.436,2.291c0,0.644,0.264,1.199,0.788,1.665c0.524,0.466,1.365,0.697,2.523,0.697
			c1.156,0,2.11-0.387,2.862-1.163C246.65,95.068,247.051,94.096,247.1,92.927z"/>
		<path fill="#001E39" d="M271.615,85.626c1.122-2.505,3.09-3.758,5.905-3.758c2.076,0,3.686,0.704,4.832,2.111
			c1.097,1.337,1.646,3.198,1.646,5.584v10.164h-4.259V89.563c0-1.289-0.31-2.26-0.931-2.917c-0.62-0.656-1.491-0.984-2.612-0.984
			c-1.122,0-2.04,0.489-2.756,1.467c-0.716,0.979-1.098,2.458-1.146,4.438v8.161h-4.224V89.563c0-1.289-0.31-2.26-0.93-2.917
			c-0.621-0.656-1.491-0.984-2.612-0.984c-1.121,0-2.082,0.5-2.882,1.503c-0.799,1.001-1.222,2.505-1.27,4.509v8.053h-4.223V82.333
			h3.687l0.465,3.007c1.145-2.314,2.981-3.472,5.511-3.472c1.454,0,2.667,0.334,3.633,1.002
			C270.416,83.538,271.138,84.457,271.615,85.626z"/>
		<path fill="#001E39" d="M302.266,87.057c0.301,1.002,0.45,1.92,0.45,2.756c0,0.835-0.05,1.587-0.144,2.254h-11.239
			c0.048,1.408,0.395,2.554,1.039,3.436c0.644,0.883,1.622,1.324,2.935,1.324c1.741,0,2.779-0.763,3.113-2.29h4.259
			c-0.286,1.741-1.085,3.114-2.397,4.116c-1.36,1.049-3.019,1.574-4.975,1.574c-2.291,0-4.212-0.834-5.763-2.504
			c-1.598-1.742-2.397-3.973-2.397-6.693c0-2.792,0.8-5.034,2.397-6.728c1.526-1.623,3.448-2.434,5.763-2.434
			c2.409,0,4.282,0.847,5.618,2.542C301.521,85.173,301.967,86.055,302.266,87.057z M295.341,85.232
			c-1.193,0-2.124,0.388-2.791,1.163c-0.668,0.776-1.062,1.771-1.182,2.988h7.408c0-1.885-0.597-3.149-1.789-3.793
			C296.536,85.352,295.984,85.232,295.341,85.232z"/>
	</g>
</g>
<g>
	<g>
		<path fill="#001E39" d="M462.406,76.5l5.654,17.931l5.726-17.931h4.438l-7.98,23.228h-4.438L457.932,76.5H462.406z"/>
		<path fill="#001E39" d="M485.203,89.563c1.385,0,2.982,0.227,4.797,0.68v-1.718c0-1.216-0.245-2.117-0.734-2.702
			c-0.488-0.584-1.287-0.876-2.397-0.876c-1.108,0-1.962,0.221-2.558,0.662c-0.599,0.441-0.895,1.068-0.895,1.879h-4.617
			c0-1.98,0.696-3.412,2.094-4.295c1.396-0.882,3.346-1.324,5.852-1.324c3.578,0,5.893,1.253,6.943,3.758
			c0.356,0.858,0.537,1.873,0.537,3.042v11.059h-3.688l-0.32-2.327c-1.122,1.886-2.84,2.827-5.153,2.827
			c-2.242,0-3.984-0.548-5.226-1.646c-1.146-1.05-1.72-2.38-1.72-3.991c0-1.61,0.633-2.851,1.896-3.722
			C481.279,89.999,483.01,89.563,485.203,89.563z M490,92.927c-1.408-0.381-2.721-0.573-3.938-0.573
			c-2.291,0-3.436,0.764-3.436,2.291c0,0.644,0.264,1.199,0.789,1.665c0.521,0.465,1.365,0.697,2.521,0.697
			c1.155,0,2.111-0.387,2.863-1.163C489.552,95.068,489.951,94.096,490,92.927z"/>
		<path fill="#001E39" d="M499.053,75.176h4.225v24.551h-4.225V75.176z"/>
		<path fill="#001E39" d="M520.17,96.577c-1.1,2.315-2.861,3.472-5.298,3.472c-3.077,0-5.106-1.204-6.083-3.615
			c-0.359-0.835-0.537-1.848-0.537-3.042V82.297h4.223v10.665c0,1.146,0.274,2,0.823,2.56c0.548,0.562,1.224,0.841,2.022,0.841
			c0.798,0,1.473-0.112,2.021-0.339s1.025-0.567,1.433-1.021c0.883-1.025,1.349-2.398,1.396-4.115v-8.59h4.222v17.43h-4.222
			L520.17,96.577L520.17,96.577z"/>
		<path fill="#001E39" d="M543.201,87.057c0.295,1.002,0.445,1.92,0.445,2.756c0,0.835-0.047,1.587-0.144,2.254h-11.238
			c0.047,1.408,0.394,2.554,1.039,3.436c0.645,0.883,1.62,1.324,2.935,1.324c1.742,0,2.778-0.763,3.112-2.29h4.261
			c-0.286,1.741-1.087,3.114-2.398,4.116c-1.359,1.049-3.018,1.574-4.975,1.574c-2.29,0-4.212-0.834-5.762-2.504
			c-1.601-1.742-2.397-3.973-2.397-6.693c0-2.792,0.798-5.034,2.397-6.728c1.525-1.623,3.446-2.434,5.762-2.434
			c2.41,0,4.282,0.847,5.619,2.542C542.454,85.173,542.9,86.055,543.201,87.057z M536.273,85.232c-1.191,0-2.124,0.388-2.789,1.163
			c-0.67,0.776-1.063,1.771-1.183,2.988h7.407c0-1.885-0.598-3.149-1.789-3.793C537.469,85.352,536.919,85.232,536.273,85.232z"/>
	</g>
</g>
</svg>
