<?xml version="1.0" encoding="utf-8"?>
<!-- Generator: Adobe Illustrator 15.1.0, SVG Export Plug-In . SVG Version: 6.00 Build 0)  -->
<!DOCTYPE svg PUBLIC "-//W3C//DTD SVG 1.1//EN" "http://www.w3.org/Graphics/SVG/1.1/DTD/svg11.dtd">
<svg version="1.1" id="Layer_1" xmlns="http://www.w3.org/2000/svg" xmlns:xlink="http://www.w3.org/1999/xlink" x="0px" y="0px"
	 width="800px" height="224px" viewBox="0 97.5 800 224" enable-background="new 0 97.5 800 224" xml:space="preserve">
<path fill="#001E39" fill-opacity="0.2" stroke="#001E39" stroke-width="8" stroke-miterlimit="10" d="M56.341,114.267v192.315
	H329.82V114.267H56.341z M309.767,278.91h-120.65v-27.766h120.65V278.91z M309.767,237.377h-120.65v-27.766h120.65V237.377z
	 M309.767,195.843h-120.65v-27.765h120.65V195.843z"/>
<g>
	<g>
		<path fill="#001E39" d="M71.617,176.649h7.243v1.289h-5.745v3.963h5.347v1.29h-5.347v5.385h-1.498V176.649z"/>
		<path fill="#001E39" d="M81.685,177.37c-0.304,0-0.541-0.085-0.711-0.256c-0.17-0.17-0.256-0.398-0.256-0.683
			s0.085-0.512,0.256-0.683c0.171-0.171,0.408-0.256,0.711-0.256c0.303,0,0.546,0.085,0.73,0.256
			c0.183,0.17,0.274,0.398,0.274,0.683s-0.092,0.512-0.274,0.683C82.231,177.285,81.988,177.37,81.685,177.37z M80.946,179.493
			h1.497v9.083h-1.497V179.493z"/>
		<path fill="#001E39" d="M89.515,180.783c-1.429,0-2.168,1.125-2.219,3.375v4.418h-1.498v-9.083h1.498v1.745
			c0.456-1.264,1.258-1.896,2.408-1.896c0.367,0,0.715,0.057,1.044,0.17l-0.076,1.46C90.292,180.847,89.907,180.783,89.515,180.783z
			"/>
		<path fill="#001E39" d="M92.824,179.948c0.638-0.442,1.5-0.664,2.588-0.664c1.087,0,1.937,0.228,2.551,0.683
			c0.612,0.456,0.932,1.031,0.957,1.726h-1.46c-0.114-0.821-0.81-1.232-2.086-1.232c-0.62,0-1.097,0.139-1.431,0.417
			c-0.335,0.278-0.503,0.578-0.503,0.9c0,0.323,0.126,0.595,0.379,0.815c0.253,0.221,0.658,0.415,1.214,0.579l1.82,0.606
			c0.771,0.241,1.362,0.547,1.773,0.92c0.41,0.373,0.616,0.885,0.616,1.536c0,0.651-0.335,1.239-1.005,1.763
			c-0.67,0.525-1.605,0.787-2.806,0.787c-1.201,0-2.136-0.268-2.806-0.806c-0.67-0.537-1.024-1.229-1.062-2.076h1.441
			c0.025,0.569,0.256,0.996,0.692,1.28c0.436,0.285,0.982,0.427,1.64,0.427c0.658,0,1.201-0.14,1.631-0.417
			c0.429-0.278,0.645-0.61,0.645-0.996c0-0.385-0.127-0.679-0.379-0.881c-0.253-0.203-0.663-0.379-1.232-0.531l-1.763-0.588
			c-1.581-0.467-2.37-1.289-2.37-2.464C91.866,180.985,92.185,180.391,92.824,179.948z"/>
		<path fill="#001E39" d="M106.353,188.31c-1.087,0.505-2.08,0.613-2.977,0.322c-0.645-0.202-1.101-0.625-1.366-1.271
			c-0.139-0.315-0.208-0.695-0.208-1.137v-5.574h-1.46v-1.138h1.46v-2.521h1.479v2.521h2.844v1.138h-2.844v5.555
			c0,0.922,0.43,1.384,1.29,1.384c0.467,0,0.992-0.114,1.574-0.342L106.353,188.31z"/>
		<path fill="#001E39" d="M113.595,176.649l5.916,9.575v-9.575h1.498v11.926h-1.668l-6.011-9.708v9.708h-1.517v-11.926H113.595z"/>
		<path fill="#001E39" d="M129.75,182.698c0-0.822-0.17-1.409-0.512-1.763c-0.342-0.354-0.838-0.531-1.489-0.531
			s-1.175,0.129-1.574,0.389c-0.398,0.259-0.597,0.667-0.597,1.223h-1.649c0-1.39,0.746-2.25,2.237-2.579
			c0.455-0.101,0.948-0.152,1.479-0.152c1.125,0,2.003,0.285,2.636,0.853c0.632,0.569,0.948,1.435,0.948,2.598v5.84h-1.29
			l-0.152-1.517c-0.556,1.15-1.561,1.725-3.014,1.725c-0.973,0-1.754-0.271-2.342-0.815c-0.587-0.543-0.881-1.22-0.881-2.029
			s0.325-1.441,0.977-1.896c0.651-0.455,1.463-0.683,2.437-0.683c0.973,0,1.902,0.165,2.787,0.493V182.698z M129.75,184.802
			c-0.897-0.253-1.681-0.379-2.351-0.379s-1.213,0.121-1.631,0.36c-0.417,0.24-0.625,0.62-0.625,1.138
			c0,1.138,0.645,1.707,1.934,1.707c0.733,0,1.361-0.262,1.886-0.787C129.487,186.316,129.75,185.637,129.75,184.802z"/>
		<path fill="#001E39" d="M135.494,181.257c0.595-1.314,1.612-1.972,3.053-1.972c0.783,0,1.441,0.193,1.972,0.578
			c0.531,0.386,0.917,0.92,1.156,1.603c0.569-1.454,1.624-2.181,3.166-2.181c1.087,0,1.928,0.354,2.522,1.062
			c0.594,0.708,0.892,1.675,0.892,2.9v5.328h-1.479v-5.328c0-0.873-0.206-1.529-0.617-1.972c-0.411-0.442-1.002-0.664-1.773-0.664
			c-0.771,0-1.368,0.316-1.792,0.948c-0.424,0.632-0.635,1.504-0.635,2.617v4.399h-1.479v-5.328c0-0.873-0.206-1.529-0.616-1.972
			c-0.411-0.442-0.996-0.664-1.754-0.664c-0.759,0-1.372,0.31-1.839,0.929c-0.468,0.62-0.714,1.479-0.74,2.579v4.456h-1.498v-9.063
			h1.289L135.494,181.257z"/>
		<path fill="#001E39" d="M154.208,187.571c1.252,0,1.965-0.55,2.143-1.65h1.536c-0.14,0.91-0.541,1.615-1.204,2.114
			c-0.665,0.5-1.489,0.749-2.475,0.749c-1.213,0-2.2-0.433-2.958-1.298c-0.758-0.866-1.138-2.019-1.138-3.46
			c0-1.441,0.382-2.591,1.147-3.451c0.765-0.86,1.782-1.29,3.053-1.29c1.27,0,2.218,0.493,2.844,1.479
			c0.625,0.985,0.843,2.187,0.654,3.602h-6.201c0,0.936,0.228,1.704,0.683,2.304C152.748,187.271,153.386,187.571,154.208,187.571z
			 M155.308,180.707c-0.291-0.152-0.645-0.228-1.062-0.228c-0.771,0-1.381,0.263-1.83,0.787c-0.449,0.525-0.711,1.179-0.787,1.963
			h4.834C156.464,181.965,156.079,181.124,155.308,180.707z"/>
	</g>
</g>
<g>
	<g>
		<path fill="#001E39" d="M73.115,229.703h5.309v1.309h-6.807v-11.927h1.498V229.703z"/>
		<path fill="#001E39" d="M85.401,225.134c0-0.822-0.171-1.41-0.512-1.764s-0.838-0.531-1.489-0.531
			c-0.651,0-1.176,0.13-1.574,0.388c-0.398,0.259-0.598,0.667-0.598,1.223H79.58c0-1.39,0.745-2.25,2.237-2.579
			c0.455-0.101,0.948-0.151,1.479-0.151c1.125,0,2.003,0.284,2.636,0.853c0.632,0.57,0.948,1.435,0.948,2.598v5.84h-1.289
			l-0.152-1.518c-0.557,1.15-1.562,1.726-3.015,1.726c-0.973,0-1.753-0.271-2.342-0.815c-0.588-0.543-0.881-1.219-0.881-2.028
			s0.325-1.442,0.976-1.896c0.651-0.454,1.463-0.683,2.437-0.683c0.973,0,1.902,0.164,2.787,0.493V225.134z M85.401,227.238
			c-0.898-0.254-1.681-0.379-2.351-0.379s-1.213,0.12-1.631,0.359c-0.417,0.24-0.626,0.619-0.626,1.139
			c0,1.137,0.645,1.706,1.935,1.706c0.733,0,1.362-0.263,1.886-0.786C85.139,228.752,85.401,228.072,85.401,227.238z"/>
		<path fill="#001E39" d="M90.188,222.384c0.638-0.442,1.501-0.663,2.588-0.663s1.937,0.228,2.551,0.682
			c0.612,0.456,0.932,1.031,0.957,1.726h-1.46c-0.114-0.821-0.809-1.232-2.085-1.232c-0.62,0-1.097,0.139-1.432,0.417
			c-0.335,0.277-0.502,0.578-0.502,0.9c0,0.323,0.126,0.594,0.379,0.815c0.253,0.221,0.657,0.415,1.213,0.578l1.82,0.607
			c0.771,0.239,1.362,0.545,1.773,0.919c0.411,0.373,0.616,0.885,0.616,1.536c0,0.65-0.335,1.239-1.005,1.763
			c-0.67,0.524-1.605,0.787-2.807,0.787c-1.201,0-2.136-0.269-2.806-0.806c-0.67-0.537-1.024-1.229-1.062-2.076h1.441
			c0.025,0.568,0.256,0.996,0.692,1.279c0.436,0.285,0.982,0.428,1.64,0.428s1.201-0.141,1.631-0.418
			c0.429-0.277,0.645-0.609,0.645-0.995c0-0.385-0.127-0.679-0.38-0.882c-0.252-0.202-0.664-0.379-1.232-0.531l-1.763-0.588
			c-1.581-0.467-2.37-1.289-2.37-2.464C89.23,223.421,89.549,222.826,90.188,222.384z"/>
		<path fill="#001E39" d="M103.716,230.746c-1.087,0.506-2.079,0.613-2.977,0.322c-0.645-0.202-1.1-0.626-1.366-1.271
			c-0.139-0.316-0.208-0.694-0.208-1.138v-5.575h-1.46v-1.137h1.46v-2.522h1.479v2.522h2.843v1.137h-2.843v5.555
			c0,0.923,0.429,1.385,1.289,1.385c0.468,0,0.992-0.113,1.574-0.342L103.716,230.746z"/>
		<path fill="#001E39" d="M110.959,219.085l5.916,9.575v-9.575h1.498v11.927h-1.668l-6.011-9.708v9.708h-1.517v-11.927H110.959z"/>
		<path fill="#001E39" d="M127.114,225.134c0-0.822-0.171-1.41-0.512-1.764c-0.341-0.354-0.837-0.531-1.488-0.531
			c-0.651,0-1.176,0.13-1.575,0.388c-0.398,0.259-0.597,0.667-0.597,1.223h-1.649c0-1.39,0.745-2.25,2.237-2.579
			c0.456-0.101,0.948-0.151,1.479-0.151c1.125,0,2.002,0.284,2.635,0.853c0.632,0.57,0.948,1.435,0.948,2.598v5.84h-1.289
			l-0.152-1.518c-0.557,1.15-1.561,1.726-3.015,1.726c-0.973,0-1.754-0.271-2.342-0.815c-0.587-0.543-0.881-1.219-0.881-2.028
			s0.325-1.442,0.976-1.896c0.651-0.454,1.463-0.683,2.437-0.683c0.973,0,1.902,0.164,2.787,0.493V225.134z M127.114,227.238
			c-0.897-0.254-1.682-0.379-2.352-0.379s-1.213,0.12-1.631,0.359c-0.417,0.24-0.625,0.619-0.625,1.139
			c0,1.137,0.645,1.706,1.934,1.706c0.733,0,1.362-0.263,1.887-0.786C126.852,228.752,127.114,228.072,127.114,227.238z"/>
		<path fill="#001E39" d="M132.858,223.692c0.594-1.314,1.612-1.972,3.053-1.972c0.783,0,1.441,0.193,1.972,0.578
			c0.531,0.386,0.917,0.92,1.157,1.603c0.568-1.453,1.624-2.18,3.166-2.18c1.087,0,1.927,0.354,2.522,1.062
			c0.594,0.708,0.891,1.675,0.891,2.901v5.328h-1.479v-5.328c0-0.873-0.206-1.53-0.616-1.972s-1.001-0.663-1.772-0.663
			c-0.771,0-1.369,0.316-1.792,0.948c-0.423,0.632-0.635,1.504-0.635,2.616v4.399h-1.479v-5.328c0-0.873-0.206-1.53-0.616-1.972
			c-0.411-0.442-0.996-0.663-1.754-0.663s-1.372,0.309-1.839,0.929c-0.468,0.62-0.714,1.479-0.74,2.58v4.455h-1.498v-9.063h1.289
			L132.858,223.692z"/>
		<path fill="#001E39" d="M151.573,230.007c1.251,0,1.965-0.55,2.143-1.649h1.536c-0.14,0.909-0.541,1.614-1.204,2.113
			c-0.664,0.5-1.488,0.749-2.475,0.749c-1.213,0-2.2-0.433-2.958-1.299s-1.138-2.019-1.138-3.46s0.382-2.591,1.147-3.451
			c0.765-0.859,1.783-1.289,3.053-1.289c1.27,0,2.219,0.493,2.844,1.479c0.625,0.986,0.844,2.187,0.654,3.602h-6.201
			c0,0.937,0.228,1.704,0.683,2.304C150.113,229.706,150.75,230.007,151.573,230.007z M152.673,223.143
			c-0.291-0.152-0.646-0.228-1.062-0.228c-0.771,0-1.381,0.263-1.829,0.787c-0.449,0.525-0.711,1.178-0.787,1.962h4.835
			C153.829,224.4,153.444,223.56,152.673,223.143z"/>
	</g>
</g>
<g>
	<g>
		<path fill="#001E39" d="M73.759,260.618l4.02,8.077l3.981-8.077h2.105v11.926h-1.498v-9.804l-4.095,8.306h-1.005l-4.152-8.438
			v9.936h-1.498v-11.926H73.759z"/>
		<path fill="#001E39" d="M90.255,263.253c1.264,0,2.285,0.411,3.062,1.233c0.778,0.821,1.167,1.996,1.167,3.525
			c0,1.518-0.389,2.688-1.167,3.51c-0.777,0.82-1.798,1.23-3.062,1.23c-1.264,0-2.285-0.41-3.062-1.23
			c-0.777-0.822-1.166-1.992-1.166-3.51c0-1.529,0.389-2.704,1.166-3.525C87.97,263.664,88.991,263.253,90.255,263.253z
			 M92.966,268.004c0-1.082-0.227-1.928-0.683-2.542c-0.455-0.612-1.122-0.919-2-0.919s-1.552,0.307-2.02,0.919
			c-0.467,0.614-0.701,1.46-0.701,2.542c0,1.08,0.221,1.927,0.664,2.541c0.442,0.612,1.103,0.918,1.981,0.918
			c0.878,0,1.558-0.306,2.038-0.918C92.726,269.931,92.966,269.084,92.966,268.004z"/>
		<path fill="#001E39" d="M98.142,264.828c0.607-1.049,1.492-1.575,2.655-1.575s2.13,0.434,2.901,1.3
			c0.771,0.865,1.156,2.01,1.156,3.432s-0.392,2.572-1.175,3.451c-0.784,0.878-1.738,1.316-2.863,1.316
			c-0.607,0-1.154-0.15-1.641-0.455c-0.486-0.303-0.869-0.751-1.147-1.346l-0.341,1.593h-1.042v-12.912h1.497V264.828z
			 M100.702,264.58c-0.721,0-1.321,0.231-1.801,0.692c-0.48,0.461-0.733,1.103-0.759,1.925v1.479c0,0.835,0.25,1.502,0.749,2
			c0.5,0.5,1.103,0.75,1.811,0.75c0.708,0,1.32-0.312,1.839-0.939c0.518-0.626,0.777-1.457,0.777-2.492
			c0-1.036-0.256-1.865-0.768-2.484S101.422,264.58,100.702,264.58z"/>
		<path fill="#001E39" d="M107.85,261.338c-0.304,0-0.541-0.085-0.711-0.256c-0.17-0.17-0.255-0.398-0.255-0.683
			s0.085-0.512,0.255-0.683c0.171-0.17,0.408-0.256,0.711-0.256c0.303,0,0.546,0.086,0.729,0.256
			c0.183,0.171,0.276,0.398,0.276,0.683s-0.093,0.513-0.276,0.683C108.396,261.253,108.153,261.338,107.85,261.338z M107.11,263.462
			h1.498v9.082h-1.498V263.462z"/>
		<path fill="#001E39" d="M111.983,259.632h1.498v12.912h-1.498V259.632z"/>
		<path fill="#001E39" d="M119.719,271.539c1.252,0,1.966-0.551,2.143-1.648h1.536c-0.139,0.908-0.541,1.613-1.204,2.113
			s-1.488,0.748-2.475,0.748c-1.213,0-2.199-0.432-2.958-1.297c-0.758-0.867-1.138-2.02-1.138-3.461
			c0-1.442,0.382-2.592,1.147-3.451c0.765-0.859,1.782-1.29,3.053-1.29s2.219,0.493,2.844,1.479
			c0.626,0.985,0.844,2.187,0.654,3.602h-6.2c0,0.936,0.228,1.704,0.683,2.305C118.26,271.239,118.897,271.539,119.719,271.539z
			 M120.819,264.676c-0.292-0.152-0.645-0.227-1.062-0.227c-0.771,0-1.381,0.262-1.83,0.785c-0.449,0.525-0.711,1.18-0.787,1.963
			h4.835C121.976,265.934,121.59,265.094,120.819,264.676z"/>
	</g>
</g>
<g>
	<g>
		<path fill="#001E39" d="M71.617,131.22h7.754v1.935h-5.518v3.242h5.043v1.915h-5.043v5.214h-2.237V131.22z"/>
		<path fill="#001E39" d="M81.21,131.334c0-0.404,0.121-0.724,0.36-0.958c0.24-0.233,0.581-0.351,1.023-0.351
			c0.43,0,0.768,0.117,1.015,0.351c0.246,0.234,0.37,0.554,0.37,0.958c0,0.405-0.124,0.724-0.37,0.957
			c-0.247,0.234-0.584,0.351-1.015,0.351c-0.442,0-0.784-0.116-1.023-0.351C81.331,132.059,81.21,131.739,81.21,131.334z
			 M81.476,134.292h2.238v9.234h-2.238V134.292z"/>
		<path fill="#001E39" d="M93.942,136.813c0.158,0.531,0.237,1.018,0.237,1.46c0,0.442-0.025,0.841-0.075,1.194h-5.954
			c0.025,0.746,0.208,1.353,0.55,1.82c0.342,0.468,0.859,0.701,1.555,0.701c0.923,0,1.473-0.404,1.649-1.213h2.257
			c-0.152,0.922-0.575,1.649-1.271,2.181c-0.721,0.556-1.599,0.833-2.636,0.833c-1.213,0-2.231-0.442-3.052-1.327
			c-0.847-0.923-1.271-2.105-1.271-3.546c0-1.479,0.424-2.667,1.271-3.564c0.808-0.859,1.826-1.29,3.052-1.29
			c1.277,0,2.269,0.449,2.977,1.347C93.546,135.815,93.784,136.283,93.942,136.813z M90.272,135.847
			c-0.631,0-1.125,0.206-1.478,0.616c-0.354,0.411-0.563,0.938-0.626,1.583h3.925c0-0.999-0.316-1.668-0.948-2.01
			C90.905,135.91,90.614,135.847,90.272,135.847z"/>
		<path fill="#001E39" d="M96.151,130.519h2.237v13.007h-2.237V130.519z"/>
		<path fill="#001E39" d="M107.224,142.104c-0.569,1.125-1.441,1.687-2.617,1.687c-1.175,0-2.162-0.448-2.958-1.346
			c-0.822-0.936-1.232-2.124-1.232-3.565c0-1.441,0.392-2.61,1.175-3.507c0.771-0.873,1.732-1.309,2.882-1.309
			c1.15,0,2.016,0.461,2.597,1.384v-4.93h2.256v13.007h-1.839L107.224,142.104z M104.892,136.075c-0.632,0-1.16,0.255-1.583,0.768
			c-0.424,0.512-0.635,1.198-0.635,2.057c0,0.86,0.214,1.552,0.645,2.076c0.429,0.525,0.973,0.787,1.631,0.787
			c0.543,0,1.03-0.214,1.46-0.645c0.442-0.442,0.663-0.999,0.663-1.668v-1.194c-0.025-0.657-0.246-1.195-0.663-1.612
			C106.029,136.264,105.523,136.075,104.892,136.075z"/>
		<path fill="#001E39" d="M118.657,131.22l5.422,8.722v-8.722h2.237v12.306h-2.275l-5.593-9.025v9.025h-2.238V131.22H118.657z"/>
		<path fill="#001E39" d="M132.176,138.141c0.733,0,1.58,0.121,2.541,0.36v-0.911c0-0.644-0.13-1.121-0.389-1.431
			c-0.259-0.31-0.682-0.464-1.27-0.464s-1.04,0.117-1.355,0.351c-0.316,0.234-0.474,0.566-0.474,0.996h-2.446
			c0-1.049,0.369-1.808,1.109-2.276c0.74-0.467,1.773-0.701,3.101-0.701c1.896,0,3.122,0.664,3.678,1.991
			c0.189,0.455,0.284,0.992,0.284,1.612v5.858h-1.953l-0.17-1.232c-0.594,0.999-1.504,1.498-2.73,1.498
			c-1.188,0-2.111-0.291-2.769-0.872c-0.607-0.557-0.91-1.261-0.91-2.114c0-0.854,0.335-1.511,1.005-1.972
			C130.097,138.372,131.013,138.141,132.176,138.141z M134.717,139.923c-0.746-0.202-1.441-0.304-2.086-0.304
			c-1.213,0-1.82,0.405-1.82,1.214c0,0.341,0.14,0.635,0.417,0.882s0.724,0.369,1.337,0.369c0.613,0,1.118-0.205,1.517-0.616
			S134.691,140.543,134.717,139.923z"/>
		<path fill="#001E39" d="M147.705,136.056c0.595-1.327,1.637-1.991,3.128-1.991c1.1,0,1.953,0.373,2.56,1.119
			c0.581,0.708,0.872,1.694,0.872,2.958v5.385h-2.256v-5.385c0-0.683-0.164-1.197-0.493-1.545c-0.329-0.348-0.79-0.521-1.384-0.521
			c-0.595,0-1.081,0.259-1.46,0.777c-0.379,0.519-0.582,1.302-0.607,2.351v4.323h-2.238v-5.385c0-0.683-0.164-1.197-0.493-1.545
			c-0.329-0.348-0.79-0.521-1.384-0.521c-0.594,0-1.103,0.265-1.527,0.796c-0.423,0.531-0.647,1.328-0.673,2.389v4.266h-2.237
			v-9.215h1.953l0.246,1.593c0.606-1.226,1.58-1.839,2.919-1.839c0.771,0,1.413,0.177,1.925,0.531
			C147.07,134.949,147.452,135.436,147.705,136.056z"/>
		<path fill="#001E39" d="M163.943,136.813c0.16,0.531,0.239,1.018,0.239,1.46c0,0.442-0.026,0.841-0.076,1.194h-5.955
			c0.025,0.746,0.209,1.353,0.551,1.82c0.341,0.468,0.859,0.701,1.555,0.701c0.922,0,1.472-0.404,1.649-1.213h2.256
			c-0.152,0.922-0.575,1.649-1.271,2.181c-0.721,0.556-1.599,0.833-2.635,0.833c-1.214,0-2.231-0.442-3.053-1.327
			c-0.846-0.923-1.27-2.105-1.27-3.546c0-1.479,0.424-2.667,1.27-3.564c0.809-0.859,1.827-1.29,3.053-1.29
			c1.276,0,2.269,0.449,2.977,1.347C163.549,135.815,163.786,136.283,163.943,136.813z M160.275,135.847
			c-0.632,0-1.125,0.206-1.479,0.616c-0.354,0.411-0.563,0.938-0.626,1.583h3.925c0-0.999-0.316-1.668-0.948-2.01
			C160.908,135.91,160.616,135.847,160.275,135.847z"/>
	</g>
</g>
<g>
	<g>
		<path fill="#001E39" d="M187.866,131.22l2.996,9.5l3.033-9.5h2.352l-4.228,12.306h-2.351l-4.172-12.306H187.866z"/>
		<path fill="#001E39" d="M199.943,138.141c0.733,0,1.58,0.121,2.542,0.36v-0.911c0-0.644-0.13-1.121-0.389-1.431
			c-0.259-0.31-0.683-0.464-1.271-0.464c-0.587,0-1.039,0.117-1.355,0.351c-0.316,0.234-0.473,0.566-0.473,0.996h-2.446
			c0-1.049,0.369-1.808,1.109-2.276c0.739-0.467,1.772-0.701,3.1-0.701c1.896,0,3.122,0.664,3.679,1.991
			c0.189,0.455,0.284,0.992,0.284,1.612v5.858h-1.954l-0.169-1.232c-0.595,0.999-1.505,1.498-2.731,1.498
			c-1.188,0-2.111-0.291-2.768-0.872c-0.606-0.557-0.911-1.261-0.911-2.114c0-0.854,0.335-1.511,1.005-1.972
			C197.865,138.372,198.781,138.141,199.943,138.141z M202.485,139.923c-0.746-0.202-1.441-0.304-2.087-0.304
			c-1.213,0-1.819,0.405-1.819,1.214c0,0.341,0.139,0.635,0.418,0.882c0.277,0.247,0.723,0.369,1.336,0.369
			c0.612,0,1.119-0.205,1.517-0.616C202.247,141.058,202.459,140.543,202.485,139.923z"/>
		<path fill="#001E39" d="M207.281,130.519h2.238v13.007h-2.238V130.519z"/>
		<path fill="#001E39" d="M218.469,141.857c-0.582,1.227-1.517,1.84-2.807,1.84c-1.63,0-2.705-0.638-3.223-1.915
			c-0.19-0.442-0.285-0.979-0.285-1.612v-5.878h2.237v5.65c0,0.607,0.146,1.06,0.436,1.356c0.291,0.297,0.648,0.446,1.072,0.446
			c0.423,0,0.78-0.06,1.071-0.18c0.29-0.12,0.543-0.3,0.758-0.541c0.468-0.543,0.715-1.271,0.74-2.18v-4.551h2.236v9.234h-2.236
			V141.857z"/>
		<path fill="#001E39" d="M230.67,136.813c0.156,0.531,0.236,1.018,0.236,1.46c0,0.442-0.024,0.841-0.076,1.194h-5.954
			c0.024,0.746,0.208,1.353,0.55,1.82c0.341,0.468,0.858,0.701,1.554,0.701c0.923,0,1.473-0.404,1.649-1.213h2.257
			c-0.152,0.922-0.576,1.649-1.271,2.181c-0.72,0.556-1.599,0.833-2.636,0.833c-1.213,0-2.231-0.442-3.053-1.327
			c-0.847-0.923-1.27-2.105-1.27-3.546c0-1.479,0.423-2.667,1.27-3.564c0.809-0.859,1.827-1.29,3.053-1.29
			c1.277,0,2.269,0.449,2.977,1.347C230.274,135.815,230.511,136.283,230.67,136.813z M227,135.847
			c-0.631,0-1.125,0.206-1.478,0.616c-0.355,0.411-0.563,0.938-0.626,1.583h3.924c0-0.999-0.317-1.668-0.948-2.01
			C227.633,135.91,227.342,135.847,227,135.847z"/>
	</g>
</g>
<path fill="#001E39" fill-opacity="0.2" stroke="#001E39" stroke-width="8" stroke-miterlimit="10" d="M376.341,114.267v192.315
	H749.82V114.267H376.341z M729.767,278.91h-210.65v-27.766h210.65V278.91z M729.767,237.377h-210.65v-27.766h210.65V237.377z
	 M729.767,195.843h-210.65v-27.765h210.65V195.843z"/>
<g>
	<g>
		<path fill="#001E39" d="M391.617,176.649h7.243v1.289h-5.745v3.963h5.347v1.29h-5.347v5.385h-1.498V176.649z"/>
		<path fill="#001E39" d="M401.686,177.37c-0.305,0-0.541-0.085-0.712-0.256c-0.171-0.17-0.256-0.398-0.256-0.683
			s0.085-0.512,0.256-0.683c0.171-0.171,0.407-0.256,0.712-0.256c0.303,0,0.546,0.085,0.729,0.256
			c0.183,0.17,0.274,0.398,0.274,0.683s-0.092,0.512-0.274,0.683C402.231,177.285,401.988,177.37,401.686,177.37z M400.945,179.493
			h1.497v9.083h-1.497V179.493z"/>
		<path fill="#001E39" d="M409.515,180.783c-1.428,0-2.168,1.125-2.219,3.375v4.418h-1.497v-9.083h1.497v1.745
			c0.457-1.264,1.258-1.896,2.408-1.896c0.367,0,0.715,0.057,1.044,0.17l-0.076,1.46
			C410.292,180.847,409.907,180.783,409.515,180.783z"/>
		<path fill="#001E39" d="M412.824,179.948c0.638-0.442,1.501-0.664,2.588-0.664s1.937,0.228,2.551,0.683
			c0.612,0.456,0.932,1.031,0.957,1.726h-1.46c-0.113-0.821-0.81-1.232-2.086-1.232c-0.619,0-1.097,0.139-1.432,0.417
			c-0.335,0.278-0.502,0.578-0.502,0.9c0,0.323,0.126,0.595,0.379,0.815c0.252,0.221,0.657,0.415,1.213,0.579l1.82,0.606
			c0.771,0.241,1.363,0.547,1.773,0.92s0.616,0.885,0.616,1.536c0,0.651-0.335,1.239-1.005,1.763
			c-0.67,0.525-1.605,0.787-2.807,0.787s-2.137-0.268-2.806-0.806c-0.67-0.537-1.024-1.229-1.062-2.076h1.441
			c0.024,0.569,0.257,0.996,0.692,1.28c0.436,0.285,0.982,0.427,1.64,0.427s1.2-0.14,1.631-0.417
			c0.429-0.278,0.645-0.61,0.645-0.996c0-0.385-0.127-0.679-0.38-0.881c-0.252-0.203-0.662-0.379-1.232-0.531l-1.763-0.588
			c-1.581-0.467-2.37-1.289-2.37-2.464C411.866,180.985,412.185,180.391,412.824,179.948z"/>
		<path fill="#001E39" d="M426.353,188.31c-1.087,0.505-2.08,0.613-2.977,0.322c-0.645-0.202-1.101-0.625-1.365-1.271
			c-0.14-0.315-0.209-0.695-0.209-1.137v-5.574h-1.46v-1.138h1.46v-2.521h1.479v2.521h2.845v1.138h-2.845v5.555
			c0,0.922,0.43,1.384,1.29,1.384c0.467,0,0.992-0.114,1.573-0.342L426.353,188.31z"/>
		<path fill="#001E39" d="M433.595,176.649l5.916,9.575v-9.575h1.498v11.926h-1.668l-6.012-9.708v9.708h-1.516v-11.926H433.595z"/>
		<path fill="#001E39" d="M449.749,182.698c0-0.822-0.17-1.409-0.512-1.763s-0.838-0.531-1.488-0.531s-1.176,0.129-1.574,0.389
			c-0.397,0.259-0.597,0.667-0.597,1.223h-1.649c0-1.39,0.746-2.25,2.237-2.579c0.455-0.101,0.948-0.152,1.479-0.152
			c1.126,0,2.003,0.285,2.636,0.853c0.632,0.569,0.948,1.435,0.948,2.598v5.84h-1.29l-0.151-1.517
			c-0.556,1.15-1.562,1.725-3.015,1.725c-0.973,0-1.754-0.271-2.342-0.815c-0.588-0.543-0.881-1.22-0.881-2.029
			s0.324-1.441,0.977-1.896c0.65-0.455,1.463-0.683,2.437-0.683s1.901,0.165,2.786,0.493V182.698z M449.749,184.802
			c-0.896-0.253-1.681-0.379-2.351-0.379s-1.214,0.121-1.631,0.36c-0.417,0.24-0.626,0.62-0.626,1.138
			c0,1.138,0.645,1.707,1.935,1.707c0.733,0,1.361-0.262,1.886-0.787C449.487,186.316,449.749,185.637,449.749,184.802z"/>
		<path fill="#001E39" d="M455.494,181.257c0.595-1.314,1.612-1.972,3.054-1.972c0.783,0,1.44,0.193,1.972,0.578
			c0.53,0.386,0.917,0.92,1.156,1.603c0.569-1.454,1.624-2.181,3.166-2.181c1.087,0,1.928,0.354,2.522,1.062
			c0.594,0.708,0.891,1.675,0.891,2.9v5.328h-1.479v-5.328c0-0.873-0.205-1.529-0.617-1.972c-0.41-0.442-1.002-0.664-1.772-0.664
			s-1.368,0.316-1.792,0.948s-0.635,1.504-0.635,2.617v4.399h-1.479v-5.328c0-0.873-0.206-1.529-0.616-1.972
			c-0.411-0.442-0.995-0.664-1.754-0.664s-1.372,0.31-1.839,0.929c-0.469,0.62-0.715,1.479-0.74,2.579v4.456h-1.498v-9.063h1.289
			L455.494,181.257z"/>
		<path fill="#001E39" d="M474.208,187.571c1.252,0,1.965-0.55,2.143-1.65h1.536c-0.14,0.91-0.54,1.615-1.204,2.114
			c-0.664,0.5-1.488,0.749-2.475,0.749c-1.213,0-2.199-0.433-2.957-1.298c-0.759-0.866-1.139-2.019-1.139-3.46
			c0-1.441,0.383-2.591,1.147-3.451s1.782-1.29,3.054-1.29c1.27,0,2.218,0.493,2.844,1.479c0.625,0.985,0.843,2.187,0.654,3.602
			h-6.201c0,0.936,0.229,1.704,0.683,2.304C472.748,187.271,473.386,187.571,474.208,187.571z M475.308,180.707
			c-0.29-0.152-0.645-0.228-1.062-0.228c-0.771,0-1.382,0.263-1.829,0.787c-0.449,0.525-0.711,1.179-0.787,1.963h4.834
			C476.464,181.965,476.079,181.124,475.308,180.707z"/>
	</g>
</g>
<g>
	<g>
		<path fill="#001E39" d="M393.115,229.703h5.309v1.309h-6.807v-11.927h1.498V229.703z"/>
		<path fill="#001E39" d="M405.4,225.134c0-0.822-0.17-1.41-0.512-1.764c-0.34-0.354-0.838-0.531-1.488-0.531
			s-1.176,0.13-1.574,0.388c-0.396,0.259-0.598,0.667-0.598,1.223h-1.648c0-1.39,0.745-2.25,2.238-2.579
			c0.453-0.101,0.947-0.151,1.479-0.151c1.125,0,2.002,0.284,2.635,0.853c0.633,0.57,0.949,1.435,0.949,2.598v5.84h-1.289
			l-0.152-1.518c-0.557,1.15-1.562,1.726-3.016,1.726c-0.973,0-1.754-0.271-2.342-0.815c-0.588-0.543-0.881-1.219-0.881-2.028
			s0.325-1.442,0.976-1.896c0.651-0.454,1.464-0.683,2.437-0.683c0.975,0,1.902,0.164,2.787,0.493V225.134z M405.4,227.238
			c-0.896-0.254-1.68-0.379-2.35-0.379s-1.215,0.12-1.631,0.359c-0.418,0.24-0.627,0.619-0.627,1.139
			c0,1.137,0.645,1.706,1.936,1.706c0.732,0,1.361-0.263,1.885-0.786C405.139,228.752,405.4,228.072,405.4,227.238z"/>
		<path fill="#001E39" d="M410.188,222.384c0.639-0.442,1.502-0.663,2.588-0.663c1.088,0,1.938,0.228,2.551,0.682
			c0.613,0.456,0.932,1.031,0.957,1.726h-1.459c-0.113-0.821-0.809-1.232-2.086-1.232c-0.619,0-1.098,0.139-1.432,0.417
			c-0.336,0.277-0.502,0.578-0.502,0.9c0,0.323,0.127,0.594,0.379,0.815s0.656,0.415,1.213,0.578l1.82,0.607
			c0.771,0.239,1.363,0.545,1.773,0.919c0.41,0.373,0.615,0.885,0.615,1.536c0,0.65-0.334,1.239-1.004,1.763
			c-0.67,0.524-1.605,0.787-2.807,0.787s-2.137-0.269-2.807-0.806s-1.023-1.229-1.061-2.076h1.441
			c0.025,0.568,0.256,0.996,0.691,1.279c0.436,0.285,0.982,0.428,1.641,0.428c0.656,0,1.199-0.141,1.631-0.418
			c0.428-0.277,0.645-0.609,0.645-0.995c0-0.385-0.127-0.679-0.381-0.882c-0.252-0.202-0.662-0.379-1.232-0.531l-1.762-0.588
			c-1.582-0.467-2.371-1.289-2.371-2.464C409.23,223.421,409.549,222.826,410.188,222.384z"/>
		<path fill="#001E39" d="M423.717,230.746c-1.088,0.506-2.08,0.613-2.977,0.322c-0.645-0.202-1.1-0.626-1.365-1.271
			c-0.141-0.316-0.209-0.694-0.209-1.138v-5.575h-1.459v-1.137h1.459v-2.522h1.48v2.522h2.842v1.137h-2.842v5.555
			c0,0.923,0.428,1.385,1.287,1.385c0.469,0,0.992-0.113,1.574-0.342L423.717,230.746z"/>
		<path fill="#001E39" d="M430.959,219.085l5.916,9.575v-9.575h1.498v11.927h-1.668l-6.012-9.708v9.708h-1.516v-11.927H430.959z"/>
		<path fill="#001E39" d="M447.113,225.134c0-0.822-0.17-1.41-0.512-1.764c-0.34-0.354-0.838-0.531-1.488-0.531
			s-1.176,0.13-1.574,0.388c-0.398,0.259-0.596,0.667-0.596,1.223h-1.65c0-1.39,0.746-2.25,2.236-2.579
			c0.457-0.101,0.949-0.151,1.48-0.151c1.125,0,2.002,0.284,2.635,0.853c0.633,0.57,0.947,1.435,0.947,2.598v5.84h-1.289
			l-0.15-1.518c-0.557,1.15-1.561,1.726-3.016,1.726c-0.973,0-1.754-0.271-2.342-0.815c-0.588-0.543-0.881-1.219-0.881-2.028
			s0.324-1.442,0.977-1.896c0.65-0.454,1.463-0.683,2.436-0.683c0.975,0,1.902,0.164,2.787,0.493V225.134z M447.113,227.238
			c-0.896-0.254-1.682-0.379-2.352-0.379s-1.213,0.12-1.631,0.359c-0.416,0.24-0.625,0.619-0.625,1.139
			c0,1.137,0.645,1.706,1.934,1.706c0.734,0,1.363-0.263,1.887-0.786C446.852,228.752,447.113,228.072,447.113,227.238z"/>
		<path fill="#001E39" d="M452.859,223.692c0.594-1.314,1.611-1.972,3.053-1.972c0.783,0,1.439,0.193,1.971,0.578
			c0.531,0.386,0.918,0.92,1.158,1.603c0.568-1.453,1.623-2.18,3.166-2.18c1.086,0,1.926,0.354,2.521,1.062
			c0.594,0.708,0.891,1.675,0.891,2.901v5.328h-1.479v-5.328c0-0.873-0.205-1.53-0.617-1.972c-0.41-0.442-1-0.663-1.771-0.663
			s-1.369,0.316-1.793,0.948c-0.424,0.632-0.635,1.504-0.635,2.616v4.399h-1.479v-5.328c0-0.873-0.207-1.53-0.617-1.972
			s-0.994-0.663-1.754-0.663c-0.758,0-1.371,0.309-1.838,0.929c-0.469,0.62-0.715,1.479-0.74,2.58v4.455h-1.498v-9.063h1.289
			L452.859,223.692z"/>
		<path fill="#001E39" d="M471.572,230.007c1.252,0,1.967-0.55,2.143-1.649h1.537c-0.141,0.909-0.541,1.614-1.205,2.113
			c-0.664,0.5-1.488,0.749-2.475,0.749c-1.213,0-2.199-0.433-2.957-1.299s-1.139-2.019-1.139-3.46s0.383-2.591,1.148-3.451
			c0.764-0.859,1.781-1.289,3.053-1.289c1.27,0,2.219,0.493,2.844,1.479s0.844,2.187,0.654,3.602h-6.201
			c0,0.937,0.229,1.704,0.684,2.304C470.113,229.706,470.75,230.007,471.572,230.007z M472.674,223.143
			c-0.291-0.152-0.646-0.228-1.062-0.228c-0.771,0-1.383,0.263-1.83,0.787c-0.449,0.525-0.711,1.178-0.787,1.962h4.836
			C473.83,224.4,473.443,223.56,472.674,223.143z"/>
	</g>
</g>
<g>
	<g>
		<path fill="#001E39" d="M393.759,260.618l4.02,8.077l3.981-8.077h2.105v11.926h-1.498v-9.804l-4.095,8.306h-1.005l-4.152-8.438
			v9.936h-1.498v-11.926H393.759z"/>
		<path fill="#001E39" d="M410.254,263.253c1.264,0,2.285,0.411,3.062,1.233c0.777,0.821,1.166,1.996,1.166,3.525
			c0,1.518-0.389,2.688-1.166,3.51c-0.777,0.82-1.799,1.23-3.062,1.23s-2.283-0.41-3.062-1.23c-0.775-0.822-1.166-1.992-1.166-3.51
			c0-1.529,0.391-2.704,1.166-3.525C407.971,263.664,408.99,263.253,410.254,263.253z M412.965,268.004
			c0-1.082-0.227-1.928-0.682-2.542c-0.455-0.612-1.121-0.919-2-0.919s-1.553,0.307-2.02,0.919c-0.467,0.614-0.701,1.46-0.701,2.542
			c0,1.08,0.221,1.927,0.664,2.541c0.441,0.612,1.102,0.918,1.98,0.918s1.559-0.306,2.039-0.918
			C412.725,269.931,412.965,269.084,412.965,268.004z"/>
		<path fill="#001E39" d="M418.141,264.828c0.607-1.049,1.492-1.575,2.656-1.575c1.162,0,2.129,0.434,2.9,1.3
			c0.771,0.865,1.156,2.01,1.156,3.432s-0.393,2.572-1.176,3.451c-0.783,0.878-1.738,1.316-2.863,1.316
			c-0.605,0-1.152-0.15-1.641-0.455c-0.486-0.303-0.867-0.751-1.146-1.346l-0.34,1.593h-1.043v-12.912h1.496V264.828z
			 M420.701,264.58c-0.721,0-1.32,0.231-1.801,0.692s-0.734,1.103-0.76,1.925v1.479c0,0.835,0.25,1.502,0.75,2
			c0.5,0.5,1.102,0.75,1.811,0.75s1.32-0.312,1.84-0.939c0.518-0.626,0.777-1.457,0.777-2.492c0-1.036-0.256-1.865-0.768-2.484
			S421.422,264.58,420.701,264.58z"/>
		<path fill="#001E39" d="M427.85,261.338c-0.303,0-0.541-0.085-0.711-0.256c-0.17-0.17-0.256-0.398-0.256-0.683
			s0.086-0.512,0.256-0.683c0.17-0.17,0.408-0.256,0.711-0.256s0.547,0.086,0.73,0.256c0.182,0.171,0.275,0.398,0.275,0.683
			s-0.094,0.513-0.275,0.683C428.396,261.253,428.152,261.338,427.85,261.338z M427.109,263.462h1.498v9.082h-1.498V263.462z"/>
		<path fill="#001E39" d="M431.982,259.632h1.498v12.912h-1.498V259.632z"/>
		<path fill="#001E39" d="M439.719,271.539c1.252,0,1.967-0.551,2.143-1.648h1.537c-0.141,0.908-0.541,1.613-1.205,2.113
			s-1.488,0.748-2.475,0.748c-1.213,0-2.199-0.432-2.957-1.297c-0.758-0.867-1.139-2.02-1.139-3.461
			c0-1.442,0.383-2.592,1.148-3.451c0.764-0.859,1.781-1.29,3.053-1.29c1.27,0,2.219,0.493,2.844,1.479
			c0.625,0.985,0.844,2.187,0.654,3.602h-6.201c0,0.936,0.229,1.704,0.684,2.305S438.896,271.539,439.719,271.539z M440.818,264.676
			c-0.291-0.152-0.645-0.227-1.061-0.227c-0.771,0-1.381,0.262-1.83,0.785c-0.449,0.525-0.711,1.18-0.787,1.963h4.834
			C441.975,265.934,441.59,265.094,440.818,264.676z"/>
	</g>
</g>
<g>
	<g>
		<path fill="#001E39" d="M391.617,131.22h7.754v1.935h-5.518v3.242h5.043v1.915h-5.043v5.214h-2.237V131.22z"/>
		<path fill="#001E39" d="M401.211,131.334c0-0.404,0.12-0.724,0.359-0.958c0.24-0.233,0.582-0.351,1.023-0.351
			c0.431,0,0.769,0.117,1.016,0.351c0.246,0.234,0.369,0.554,0.369,0.958c0,0.405-0.123,0.724-0.369,0.957
			c-0.247,0.234-0.585,0.351-1.016,0.351c-0.441,0-0.783-0.116-1.023-0.351C401.331,132.059,401.211,131.739,401.211,131.334z
			 M401.476,134.292h2.237v9.234h-2.237V134.292z"/>
		<path fill="#001E39" d="M413.941,136.813c0.158,0.531,0.237,1.018,0.237,1.46c0,0.442-0.025,0.841-0.075,1.194h-5.954
			c0.024,0.746,0.208,1.353,0.55,1.82c0.342,0.468,0.859,0.701,1.555,0.701c0.923,0,1.473-0.404,1.649-1.213h2.257
			c-0.152,0.922-0.575,1.649-1.271,2.181c-0.721,0.556-1.599,0.833-2.636,0.833c-1.213,0-2.231-0.442-3.053-1.327
			c-0.847-0.923-1.271-2.105-1.271-3.546c0-1.479,0.424-2.667,1.271-3.564c0.809-0.859,1.826-1.29,3.053-1.29
			c1.277,0,2.27,0.449,2.977,1.347C413.547,135.815,413.783,136.283,413.941,136.813z M410.272,135.847
			c-0.632,0-1.124,0.206-1.478,0.616c-0.355,0.411-0.563,0.938-0.627,1.583h3.926c0-0.999-0.316-1.668-0.948-2.01
			C410.904,135.91,410.614,135.847,410.272,135.847z"/>
		<path fill="#001E39" d="M416.15,130.519h2.238v13.007h-2.238V130.519z"/>
		<path fill="#001E39" d="M427.224,142.104c-0.569,1.125-1.44,1.687-2.616,1.687s-2.162-0.448-2.958-1.346
			c-0.821-0.936-1.232-2.124-1.232-3.565c0-1.441,0.392-2.61,1.175-3.507c0.771-0.873,1.732-1.309,2.883-1.309
			s2.016,0.461,2.598,1.384v-4.93h2.256v13.007h-1.84L427.224,142.104z M424.892,136.075c-0.632,0-1.159,0.255-1.583,0.768
			c-0.424,0.512-0.635,1.198-0.635,2.057c0,0.86,0.214,1.552,0.645,2.076c0.429,0.525,0.973,0.787,1.631,0.787
			c0.543,0,1.029-0.214,1.459-0.645c0.442-0.442,0.664-0.999,0.664-1.668v-1.194c-0.025-0.657-0.246-1.195-0.664-1.612
			C426.029,136.264,425.523,136.075,424.892,136.075z"/>
		<path fill="#001E39" d="M438.657,131.22l5.423,8.722v-8.722h2.236v12.306h-2.274l-5.593-9.025v9.025h-2.238V131.22H438.657z"/>
		<path fill="#001E39" d="M452.176,138.141c0.733,0,1.58,0.121,2.541,0.36v-0.911c0-0.644-0.13-1.121-0.389-1.431
			c-0.26-0.31-0.683-0.464-1.271-0.464s-1.04,0.117-1.355,0.351s-0.474,0.566-0.474,0.996h-2.446c0-1.049,0.369-1.808,1.108-2.276
			c0.74-0.467,1.773-0.701,3.102-0.701c1.896,0,3.121,0.664,3.678,1.991c0.189,0.455,0.284,0.992,0.284,1.612v5.858h-1.953
			l-0.171-1.232c-0.594,0.999-1.504,1.498-2.729,1.498c-1.188,0-2.111-0.291-2.769-0.872c-0.607-0.557-0.91-1.261-0.91-2.114
			c0-0.854,0.335-1.511,1.006-1.972C450.097,138.372,451.014,138.141,452.176,138.141z M454.717,139.923
			c-0.746-0.202-1.441-0.304-2.086-0.304c-1.213,0-1.82,0.405-1.82,1.214c0,0.341,0.14,0.635,0.418,0.882
			c0.277,0.247,0.723,0.369,1.336,0.369s1.119-0.205,1.518-0.616S454.691,140.543,454.717,139.923z"/>
		<path fill="#001E39" d="M467.705,136.056c0.595-1.327,1.637-1.991,3.129-1.991c1.1,0,1.952,0.373,2.56,1.119
			c0.581,0.708,0.872,1.694,0.872,2.958v5.385h-2.256v-5.385c0-0.683-0.164-1.197-0.494-1.545c-0.328-0.348-0.789-0.521-1.383-0.521
			c-0.596,0-1.082,0.259-1.461,0.777c-0.379,0.519-0.581,1.302-0.606,2.351v4.323h-2.237v-5.385c0-0.683-0.164-1.197-0.493-1.545
			c-0.329-0.348-0.79-0.521-1.384-0.521s-1.104,0.265-1.527,0.796c-0.423,0.531-0.646,1.328-0.672,2.389v4.266h-2.237v-9.215h1.953
			l0.246,1.593c0.606-1.226,1.579-1.839,2.919-1.839c0.771,0,1.414,0.177,1.926,0.531
			C467.07,134.949,467.452,135.436,467.705,136.056z"/>
		<path fill="#001E39" d="M483.943,136.813c0.16,0.531,0.238,1.018,0.238,1.46c0,0.442-0.025,0.841-0.076,1.194h-5.954
			c0.025,0.746,0.209,1.353,0.551,1.82c0.341,0.468,0.859,0.701,1.555,0.701c0.923,0,1.472-0.404,1.649-1.213h2.256
			c-0.151,0.922-0.574,1.649-1.27,2.181c-0.721,0.556-1.6,0.833-2.636,0.833c-1.214,0-2.231-0.442-3.054-1.327
			c-0.846-0.923-1.27-2.105-1.27-3.546c0-1.479,0.424-2.667,1.27-3.564c0.809-0.859,1.828-1.29,3.054-1.29
			c1.276,0,2.269,0.449,2.977,1.347C483.549,135.815,483.785,136.283,483.943,136.813z M480.275,135.847
			c-0.633,0-1.125,0.206-1.479,0.616c-0.354,0.411-0.562,0.938-0.626,1.583h3.925c0-0.999-0.316-1.668-0.948-2.01
			C480.908,135.91,480.616,135.847,480.275,135.847z"/>
	</g>
</g>
<g>
	<g>
		<path fill="#001E39" d="M517.865,131.22l2.996,9.5l3.033-9.5h2.352l-4.229,12.306h-2.351l-4.172-12.306H517.865z"/>
		<path fill="#001E39" d="M529.943,138.141c0.733,0,1.58,0.121,2.541,0.36v-0.911c0-0.644-0.129-1.121-0.389-1.431
			c-0.26-0.31-0.683-0.464-1.271-0.464c-0.586,0-1.039,0.117-1.354,0.351c-0.316,0.234-0.474,0.566-0.474,0.996h-2.445
			c0-1.049,0.369-1.808,1.109-2.276c0.738-0.467,1.771-0.701,3.1-0.701c1.896,0,3.121,0.664,3.678,1.991
			c0.189,0.455,0.285,0.992,0.285,1.612v5.858h-1.955l-0.169-1.232c-0.595,0.999-1.505,1.498-2.731,1.498
			c-1.188,0-2.11-0.291-2.768-0.872c-0.606-0.557-0.911-1.261-0.911-2.114c0-0.854,0.335-1.511,1.005-1.972
			C527.865,138.372,528.781,138.141,529.943,138.141z M532.484,139.923c-0.746-0.202-1.44-0.304-2.086-0.304
			c-1.213,0-1.82,0.405-1.82,1.214c0,0.341,0.14,0.635,0.418,0.882c0.277,0.247,0.724,0.369,1.337,0.369
			c0.612,0,1.118-0.205,1.517-0.616C532.247,141.058,532.459,140.543,532.484,139.923z"/>
		<path fill="#001E39" d="M537.281,130.519h2.238v13.007h-2.238V130.519z"/>
		<path fill="#001E39" d="M548.469,141.857c-0.582,1.227-1.517,1.84-2.807,1.84c-1.631,0-2.705-0.638-3.223-1.915
			c-0.191-0.442-0.285-0.979-0.285-1.612v-5.878h2.237v5.65c0,0.607,0.146,1.06,0.437,1.356c0.29,0.297,0.648,0.446,1.071,0.446
			s0.78-0.06,1.071-0.18c0.289-0.12,0.543-0.3,0.758-0.541c0.468-0.543,0.715-1.271,0.74-2.18v-4.551h2.236v9.234h-2.236V141.857z"
			/>
		<path fill="#001E39" d="M560.67,136.813c0.156,0.531,0.236,1.018,0.236,1.46c0,0.442-0.024,0.841-0.076,1.194h-5.953
			c0.024,0.746,0.208,1.353,0.551,1.82c0.34,0.468,0.857,0.701,1.554,0.701c0.923,0,1.473-0.404,1.649-1.213h2.257
			c-0.151,0.922-0.575,1.649-1.271,2.181c-0.721,0.556-1.6,0.833-2.636,0.833c-1.214,0-2.231-0.442-3.053-1.327
			c-0.847-0.923-1.271-2.105-1.271-3.546c0-1.479,0.424-2.667,1.271-3.564c0.81-0.859,1.827-1.29,3.053-1.29
			c1.276,0,2.269,0.449,2.978,1.347C560.274,135.815,560.512,136.283,560.67,136.813z M557,135.847
			c-0.631,0-1.125,0.206-1.478,0.616c-0.354,0.411-0.563,0.938-0.626,1.583h3.924c0-0.999-0.316-1.668-0.947-2.01
			C557.633,135.91,557.342,135.847,557,135.847z"/>
	</g>
</g>
</svg>
