<?xml version="1.0" encoding="utf-8"?>
<!-- Generator: Adobe Illustrator 15.1.0, SVG Export Plug-In . SVG Version: 6.00 Build 0)  -->
<!DOCTYPE svg PUBLIC "-//W3C//DTD SVG 1.1//EN" "http://www.w3.org/Graphics/SVG/1.1/DTD/svg11.dtd">
<svg version="1.1" id="Layer_1" xmlns="http://www.w3.org/2000/svg" xmlns:xlink="http://www.w3.org/1999/xlink" x="0px" y="0px"
	 width="299px" height="299px" viewBox="0 0 299 299" enable-background="new 0 0 299 299" xml:space="preserve">
<rect display="none" fill="#225413" width="300.641" height="300"/>
<path opacity="0.1" fill="#FFFFFF" d="M300,267.287v-2.042c-7.85,2.88-14.516,6.941-22.434,9.755
	c-3.461-8.217-7.281-16.077-11.037-24c4.221-7.794,6.449-17.572,12.041-24c7.162,3.215,14.373,6.382,21.43,9.701v-1.986
	c-3.494-1.542-6.271-3.799-10.395-4.715c-3.248-2.43-8.521-2.839-11.035-6c3.291-7.719,7.654-14.372,10.033-23
	c-1.84-9.835-7.346-16.012-10.033-25c8.186-1.901,13.49-6.677,21.43-8.823v-2.011c-8.324,2.1-13.674,7.166-22.434,8.834
	c-3.922-7.758-7.547-15.811-11.037-24c2.154-3.853,3.809-8.205,6.02-12c1.732-4.274,3.01-9.001,6.021-12
	c6.471,3.928,13.641,7.162,21.43,9.779v-2.029c-7.555-2.841-14.754-6.035-21.43-9.75c3.197-8.481,8.492-14.869,10.033-25
	c-2.777-8.233-7.105-14.917-10.033-23c7.312-3.062,14.441-6.308,21.43-9.692v-2.034c-7.562,3.158-14.438,7-22.434,9.726
	c-3.816-7.863-7.219-16.137-11.037-24c4.373-7.641,6.518-17.505,12.041-24c6.986,3.397,14.121,6.648,21.43,9.725v-2.058
	c-7.049-3.651-15.715-5.689-21.43-10.667c3.514-7.499,7.598-14.426,10.033-23h-2.008c-3.096,8.247-5.934,16.753-11.037,23
	c-7.32-4.703-17.223-6.833-24.08-12c0-3.667,0-7.333,0-11h-2.006c0,4,0,8,0,12c-8.674,3.354-16.309,7.745-25.084,11
	c-2.926-8.083-7.256-14.767-10.033-23h-2.006c2.713,8.629,7.434,15.256,10.033,24c-7.193,3.497-14.537,6.844-22.074,10
	c-7.156-3.868-16.182-5.87-22.072-11c3.412-7.601,7.486-14.54,10.033-23h-2.008c-1.352,4.319-3.295,8.047-5.016,12
	c-2.578,3.096-2.436,8.905-6.02,11c-3.867-2.147-8.232-3.795-12.041-6c-4.287-1.725-9.029-3-12.039-6c0-3.667,0-7.333,0-11h-2.006
	c0,4,0,8,0,12c-8.675,3.354-16.31,7.745-25.084,11c-3.216-7.794-7.221-14.803-10.033-23h-2.007c2.432,8.909,7.265,15.425,10.034,24
	c-7.695,3.331-14.746,7.304-23.077,10c-6.364-4.324-15.669-5.716-21.07-11c3.217-7.794,7.221-14.803,10.033-23H85.93
	c-3.32,8.025-6.43,16.259-11.037,23c-3.866-2.147-8.232-3.795-12.04-6c-4.29-1.725-9.03-3-12.04-6c0-3.667,0-7.333,0-11h-2.007
	c0,4,0,8,0,12c-8.639,3.39-16.61,7.445-25.083,11c-3.41-7.601-7.485-14.54-10.033-23h-2.007c2.434,8.574,6.521,15.501,10.034,23
	c-5.89,5.13-14.918,7.132-22.074,11c0-11.333,0-22.667,0-34H-1v300h0.643c0-11,0-22,0-33c7.156,3.867,16.184,5.87,22.074,11
	c-3.834,6.846-7.123,14.234-10.034,22h2.007c3.079-7.598,6.402-14.952,10.033-22c5.227,0.79,7.274,4.75,13.043,5
	c2.932,3.411,9.248,3.449,12.04,7c0,3.333,0,6.667,0,10h2.007c0-3.667,0-7.333,0-11c8.485-3.544,16.298-7.757,25.083-11
	c3.408,7.271,6.367,14.986,10.034,22h2.006c-3.216-7.794-7.221-14.803-10.033-23c7.144-3.547,14.398-6.982,22.073-10
	c7.321,3.702,16.237,5.816,22.074,11c-3.559,7.119-7.007,14.35-10.034,22h2.007c3.88-7.132,5.89-16.13,11.037-22
	c3.866,2.146,8.232,3.795,12.04,6c4.289,1.725,9.03,2.999,12.041,6c0,3.333,0,6.667,0,10h2.006c0-3.667,0-7.333,0-11
	c8.674-3.354,16.309-7.745,25.082-11c3.441,7.236,6.711,14.646,10.033,22h2.008c-2.9-8.109-7.133-14.891-10.033-23
	c7.627-3.398,14.59-7.46,23.076-10c6.48,4.209,15.73,5.657,21.07,11c-3.441,7.236-6.709,14.646-10.033,22h2.006
	c4.232-6.782,5.906-16.113,11.037-22c3.588,2.425,8.705,3.325,12.041,6c4.123,1.891,9.443,2.588,12.039,6c0,3.333,0,6.667,0,10
	h2.006c0-3.667,0-7.333,0-11c9.123-3.242,16.34-8.382,26.088-11c1.883,8.457,6.541,14.146,9.029,22h2.008
	c-2.812-8.197-6.818-15.206-10.033-23C285.621,273.67,292.832,270.501,300,267.287z M264.523,250c-9.363,0-18.729,0-28.094,0
	c-4.777-7.904-11.355-14.016-15.051-23c10.703-2.999,18.395-9.001,29.098-12c9.449,2.248,15.678,7.707,25.082,10
	C272.834,234.283,268.246,241.71,264.523,250z M24.726,176c2.872-9.139,7.212-16.812,11.037-25c9.365,0,18.729,0,28.093,0
	c3.365,8.646,7.771,16.255,11.037,25c-9.295,3.068-16.792,7.932-26.087,11C41.274,182.841,33.079,179.342,24.726,176z M48.806,189
	c0,8,0,16,0,24c-8.413,3.281-16.709,6.68-24.08,11c-5.627-6.057-7.042-16.316-12.04-23c3.411-7.602,7.485-14.54,10.033-23
	C32.82,180.268,40.175,185.27,48.806,189z M222.383,125c-7.613,2.411-13.74,6.304-21.07,9c-8.824-1.871-14.631-6.752-23.076-9
	c2.434-8.909,7.266-15.425,10.033-24c8.027,0,16.053,0,24.08,0C215.297,109.396,220.145,115.899,222.383,125z M214.355,100
	c2.867-8.145,6.984-15.04,10.033-23c8.781,3.249,16.234,7.821,25.084,11c0,8.333,0,16.667,0,25c-9.555,2.142-15.525,7.858-25.084,10
	C220.916,115.462,217.312,108.052,214.355,100z M234.422,151c-6.076,6.275-9.381,15.316-16.053,21
	c-6.209-1.811-10.949-5.086-17.057-7c0-9.667,0-19.333,0-29c7.217-3.142,14.92-5.797,21.07-10
	C228.027,132.708,230.799,142.278,234.422,151z M134.09,150c-2.769,8.574-7.602,15.091-10.034,24c-8.937-1.427-14.787-5.93-22.073-9
	c7.653-8.372,15.681-16.371,23.077-25C129.943,141.466,130.334,147.409,134.09,150z M128.07,139c1.486-5.519,7.461-6.563,9.03-12
	c4.277-2.737,6.759-7.263,11.037-10c0.355-1.313,1.768-1.573,2.006-3c8.484,3.544,16.297,7.757,25.084,11
	c-2.9,8.442-7.613,15.078-10.033,24c-10.033,0-20.067,0-30.101,0C132.976,145.443,131.2,141.547,128.07,139z M136.096,151
	c9.365,0,18.73,0,28.093,0c4.748,7.936,11.514,13.859,15.049,23c-10.363,4.002-19.322,9.407-30.098,13
	c-7.533-4.159-15.728-7.658-24.081-11C128.247,167.177,132.388,159.305,136.096,151z M174.223,161
	c-3.352-3.327-6.031-7.323-8.027-12c4.443-6.905,7.115-15.575,11.037-23c7.193,3.497,14.537,6.844,22.074,10c0,9.667,0,19.333,0,29
	c-5.768,1.919-10.504,4.864-16.055,7C178.086,170.484,177.104,164.796,174.223,161z M176.229,123
	c-9.168-2.862-16.867-7.188-25.082-11c0-8,0-16,0-24c8.352-3.341,16.547-6.841,24.08-11c0.855-0.184,0.945,0.39,1.002,1
	c4.1,6.582,6.967,14.392,10.033,22C183.715,108.46,179.641,115.399,176.229,123z M151.146,86c-11.642-2.397-18.976-9.087-30.1-12
	c2.657-9.685,10.578-14.123,14.046-23c9.699,0,19.397,0,29.097,0c4.023,7.325,6.924,15.766,11.037,23
	C168.789,79.583,159.156,81.983,151.146,86z M149.14,88c0,7.667,0,15.333,0,23c-2.104,5.903-8.104,7.924-11.037,13
	c-3.083,4.595-7.955,7.405-11.037,12c-9.636-10.729-16.376-24.346-26.087-35c4.843-9.507,12.506-16.201,17.057-26
	C129.509,78.231,138.189,84.248,149.14,88z M125.06,137c-3.924,4.756-8.49,8.871-12.04,14c-5.429,3.256-7.787,9.572-14.046,12
	c-7.709-8.65-16.252-16.469-24.08-25c7.378-12.646,17.097-22.96,24.08-36C108.902,112.438,115.634,126.061,125.06,137z M97.97,164
	c-1.872,3.468-7.133,3.559-10.034,6c-4.837,0.514-6.175,4.514-12.04,4c-2.705-8.305-6.691-15.331-10.033-23
	c1.586-4.419,4.995-7.022,7.023-11c1.62-0.282,1.728,0.945,3.01,1C82.556,149.362,89.887,157.057,97.97,164z M73.89,136
	c-8.632-7.063-15.62-15.765-23.077-24c0-8,0-16,0-24c9.572-4.128,19.366-8.032,28.093-13c1.62-0.282,1.728,0.945,3.01,1
	c4.91,8.44,11.346,15.358,16.054,24C91.069,113.122,81.125,123.212,73.89,136z M49.81,86c-9.405-2.294-15.634-7.751-25.083-10
	c2.142-9.532,7.704-15.655,10.033-25c9.699,0,19.397,0,29.097,0c2.819,3.525,5.208,7.475,8.027,11c1.906,4.433,6.247,6.441,7.023,12
	C68.117,76.913,60.384,82.872,49.81,86z M48.806,88c0,8,0,16,0,24c-8.664,3.698-16.164,8.556-26.087,11
	c-2.508-8.167-5.933-15.421-10.033-22c3.672-8.007,7.14-16.218,11.037-24C31.972,80.778,40.159,84.618,48.806,88z M47.803,114
	c1.62-0.282,1.728,0.945,3.01,1c3.386,4.291,7.515,7.844,11.037,12c2.601,4.741,8.261,6.433,10.033,12
	c-3.396,2.615-4.786,7.23-8.027,10c-9.699,0-19.397,0-29.097,0c-2.844-8.498-7.189-15.502-10.033-24
	C32.646,121.56,41.026,118.579,47.803,114z M50.813,188c9.376-2.32,15.519-7.865,25.083-10c3.666,7.014,6.627,14.729,10.034,22
	c-2.433,8.909-7.266,15.426-10.034,24c-8.485-3.544-16.298-7.757-25.083-11C50.813,204.667,50.813,196.333,50.813,188z M77.903,176
	c8.045-2.314,13.795-6.918,22.073-9c8.141,2.221,13.932,6.779,22.074,9c-3.125,8.553-6.661,16.695-11.037,24
	c-7.693,0-15.384,0-23.077,0C85.148,191.445,80.162,185.082,77.903,176z M123.053,178c10.3,2.068,17.445,7.279,26.087,11
	c0,8,0,16,0,24c-8.354,3.342-16.549,6.841-24.081,11c-3.171-2.506-3.584-7.762-6.02-11c-1.244-4.427-3.895-7.451-5.017-12
	C115.867,192.172,121.287,186.906,123.053,178z M150.143,215c10.674,3.027,18.605,8.79,29.096,12c-0.773,5.559-5.115,7.566-7.021,12
	c-2.818,3.523-5.207,7.477-8.027,11c-9.363,0-18.729,0-28.093,0c-3.798-8.215-7.983-16.044-11.037-25
	C134.509,222.752,140.738,217.293,150.143,215z M151.146,213c0-8,0-16,0-24c9.201-5.163,20.127-8.607,29.096-14
	c7.498,7.193,11.857,17.518,19.064,25c-5.6,9.086-12.119,17.255-18.061,26C170.734,222.143,161.66,216.857,151.146,213z
	 M183.252,175c4.836-3.514,10.785-5.92,17.057-8c6.68,1.343,10.898,5.139,17.057,7c-1.752,5.253-6.271,7.747-8.025,13
	c-4.414,2.6-4.768,9.248-10.033,11C194.588,189.704,188.781,182.49,183.252,175z M219.373,175c10.066,4.299,19.33,9.4,30.1,13
	c0,8.333,0,16.667,0,25c-10.512,3.857-19.586,9.143-30.1,13c-5.451-8.566-11.898-16.141-17.057-25
	C206.77,191.104,214.291,184.266,219.373,175z M287.6,200c-3.816,7.863-7.219,16.137-11.037,24c-8.332-3.695-16.23-7.823-25.084-11
	c0-8,0-16,0-24c8.633-3.73,15.99-8.732,26.088-11C280.229,186.014,283.549,193.371,287.6,200z M264.523,151
	c3.824,8.188,8.166,15.861,11.035,25c-8.352,3.342-16.547,6.841-24.08,11c-10.643-3.725-19.654-9.076-30.1-13
	c3.545-8.991,12.646-17.136,15.051-24c-3.492-8.186-6.863-16.493-11.037-24c7.025-4.999,16.943-7.112,24.08-12
	c9.627,2.738,16.883,7.84,26.086,11C272.279,134.065,267.963,142.096,264.523,151z M287.6,100c-3.445,7.566-7.648,14.376-10.033,23
	c-9.924-2.444-17.424-7.302-26.088-11c0-8,0-16,0-24c8.207-3.487,16.787-6.603,24.08-11C281.248,82.997,282.762,93.155,287.6,100z
	 M248.469,14c0.67,0,1.34,0,2.008,0c8.949,3.081,17.012,7.046,25.082,11c-3.418,8.924-7.922,16.77-11.035,26
	c4.01,8.002,8.352,15.675,11.035,25c-9.025,2.336-15.613,7.104-24.08,10c-9.922-2.444-17.422-7.302-26.086-11
	c3.643-7.924,8.902-18.824,11.037-25c-3.293-8.385-6.703-16.653-11.037-24C231.471,20.391,241.764,18.982,248.469,14z M201.312,36
	c7.592-3.434,14.426-7.624,23.076-10c2.42,8.922,7.133,15.558,10.033,24c-2.785,8.555-7.773,14.918-10.033,24
	c-8.744-2.284-15.543-6.507-23.076-10C201.312,54.667,201.312,45.333,201.312,36z M222.383,76c-2.705,8.304-6.689,15.331-10.033,23
	c-8.027,0-16.053,0-24.08,0c-3.049-7.96-7.168-14.855-10.033-23c6.941-3.416,14.77-5.947,21.07-10
	C207.783,68.552,214.43,72.926,222.383,76z M177.232,26c7.678,3.016,14.93,6.453,22.074,10c0,9.667,0,19.333,0,29
	c-8.234,2.126-14.229,6.487-22.074,9c-3.797-8.215-7.982-16.043-11.037-25C170.311,41.766,173.211,33.325,177.232,26z M135.093,20
	c4.552-0.463,5.95-4.07,11.037-4c0.735-0.934,1.824-1.515,3.01-2c10.026,2.34,17.206,7.518,26.086,11
	c-3.461,8.216-7.281,16.077-11.037,24c-9.363,0-18.729,0-28.093,0c-3.863-7.484-6.941-15.749-11.037-23
	C126.637,22.239,132.722,22.97,135.093,20z M100.979,36c6.214-3.807,14.385-5.663,20.067-10c1.62-0.282,1.728,0.945,3.01,1
	c2.967,7.71,6.359,14.996,10.034,22c-4.229,8.453-10.73,14.64-15.05,23c-6.751-1.604-11.162-5.542-18.06-7
	C100.979,55.333,100.979,45.667,100.979,36z M117.033,74c-5.164,8.187-11.683,15.022-16.053,24c-2.752-0.923-4.194-3.153-5.017-6
	c-2.66-1.015-2.718-4.624-5.017-6c-2.512-4.495-6.189-7.831-8.027-13c6.343-1.345,10.98-4.39,16.054-7
	C105.458,68.204,111.268,71.079,117.033,74z M75.896,26c8.653,2.376,15.486,6.566,23.077,10c0,9.333,0,18.667,0,28
	c-5.867,2.819-11.3,6.071-18.06,8c-4.402-7.946-10.364-14.338-15.05-22C68.764,41.558,73.476,34.922,75.896,26z M49.81,14
	c8.852,3.177,16.751,7.304,25.083,11c-3.816,7.863-7.222,16.137-11.037,24c-9.699,0-19.397,0-29.097,0
	c-2.42-8.922-7.132-15.558-10.033-24C32.799,21.046,40.86,17.081,49.81,14z M-0.357,36c7.986-3.041,14.905-7.145,23.077-10
	c3.815,7.863,7.221,16.137,11.037,24c-4.374,7.641-6.517,17.505-12.04,24c-7.262-3.429-14.694-6.688-22.074-10
	C-0.357,54.667-0.357,45.333-0.357,36z M-0.357,66c3.521,1.825,7.09,3.601,11.037,5c3.249,2.429,8.523,2.839,11.037,6
	c-3.505,7.507-7.741,14.284-10.034,23c1.999,9.675,7.406,15.952,10.034,25c-8.279,2.082-14.029,6.685-22.074,9
	C-0.357,111.333-0.357,88.667-0.357,66z M-0.357,136c8.488-2.54,15.451-6.601,23.077-10c3.365,8.646,7.771,16.255,11.037,25
	c-4.653,7.029-6.339,17.016-12.04,23c-8.045-2.314-13.794-6.918-22.074-9C-0.357,155.333-0.357,145.667-0.357,136z M-0.357,167
	c8.049,2.645,15.074,6.311,22.074,10c-3.277,8.4-8.636,14.727-10.034,25c2.927,8.083,7.257,14.768,10.034,23
	c-7.545,3.146-15.024,6.359-22.074,10C-0.357,212.333-0.357,189.667-0.357,167z M21.716,275c-7.144-3.547-14.397-6.982-22.074-10
	c0-9.333,0-18.667,0-28c7.695-3.331,14.745-7.305,23.077-10c3.797,8.215,7.984,16.044,11.037,25c-3.155,2.523-3.153,8.191-6.02,11
	C26.005,267.275,24.726,272.001,21.716,275z M62.853,281c-3.336,2.675-8.453,3.575-12.04,6c-9.923-2.443-17.423-7.302-26.087-11
	c3.193-9.15,7.802-16.891,11.037-26c-3.722-8.29-8.311-15.717-11.037-25c8.952-2.412,15.61-7.109,24.08-10
	c10.101,2.268,17.456,7.27,26.087,11c-3.752,7.814-9.011,18.716-11.037,25c3.352,8.325,6.863,16.493,11.037,24
	C72.296,278.412,66.977,279.109,62.853,281z M98.973,265c-6.756,3.6-14.495,6.221-21.07,10c-5.602-6.417-8.009-16.018-12.04-24
	c2.919-8.424,7.363-15.327,10.033-24c8.744,2.284,15.544,6.507,23.077,10C98.973,246.333,98.973,255.667,98.973,265z M77.903,225
	c2.548-8.46,6.623-15.398,10.033-23c7.032-0.657,16.709,1.32,22.074-1c1.317,0.354,1.578,1.762,3.01,2
	c2.089,8.252,6.708,13.982,9.03,22c-7.087,3.271-14.852,5.865-21.07,10C92.755,232.197,85.723,228.205,77.903,225z M123.053,275
	c-7.667-3.025-14.785-6.598-22.073-10c0-9.667,0-19.333,0-29c7.84-2.186,13.986-6.061,21.07-9c0.669,0,1.337,0,2.006,0
	c2.385,8.624,6.589,15.434,10.034,23C130.8,258.723,126.982,266.915,123.053,275z M150.143,287c-8.852-3.177-16.751-7.305-25.083-11
	c2.787-8.555,7.775-14.918,10.033-24c10.034,0,20.067,0,30.101,0c2.258,9.082,7.246,15.445,10.033,24
	C166.895,279.695,158.996,283.823,150.143,287z M199.307,265c-7.289,3.402-14.406,6.975-22.074,10
	c-4.145-7.201-6.498-16.189-11.037-23c4.193-8.488,10.471-14.9,15.051-23c7.092,1.266,10.969,5.734,18.061,7
	C199.307,245.667,199.307,255.333,199.307,265z M199.307,235c-4.344-3.672-11.184-4.852-16.055-8
	c5.037-8.314,11.414-15.291,16.055-24c1.619-0.281,1.729,0.945,3.01,1c3.738,9.275,11.598,14.441,15.049,24
	C210.289,229.279,205.967,233.307,199.307,235z M223.387,275c-7.537-3.156-14.881-6.503-22.074-10c0-9.333,0-18.667,0-28
	c5.051-2.967,11.154-4.884,16.053-8c1.621-0.281,1.73,0.945,3.012,1c3.957,8.057,10.469,13.566,14.045,22
	C230.311,259.234,227.408,267.676,223.387,275z M250.477,287c-8.787-3.243-16.6-7.456-25.084-11c3.672-8.007,7.141-16.217,11.037-24
	c9.699,0,19.398,0,29.096,0c2.6,8.744,7.322,15.371,10.033,24C267.316,279.785,259.463,283.956,250.477,287z"/>
</svg>
