<?xml version="1.0" encoding="utf-8"?>
<!-- Generator: Adobe Illustrator 15.1.0, SVG Export Plug-In . SVG Version: 6.00 Build 0)  -->
<!DOCTYPE svg PUBLIC "-//W3C//DTD SVG 1.1//EN" "http://www.w3.org/Graphics/SVG/1.1/DTD/svg11.dtd">
<svg version="1.1" id="Layer_1" xmlns="http://www.w3.org/2000/svg" xmlns:xlink="http://www.w3.org/1999/xlink" x="0px" y="0px"
	 width="611px" height="449px" viewBox="102.5 32.5 611 449" enable-background="new 102.5 32.5 611 449" xml:space="preserve">
<g>
	<g>
		<path fill="#001E39" d="M151.617,205.649h7.243v1.289h-5.745v3.963h5.347v1.29h-5.347v5.385h-1.498V205.649z"/>
		<path fill="#001E39" d="M161.685,206.369c-0.304,0-0.541-0.084-0.711-0.256c-0.17-0.17-0.256-0.398-0.256-0.682
			c0-0.285,0.085-0.513,0.256-0.684c0.171-0.17,0.408-0.255,0.711-0.255c0.303,0,0.546,0.085,0.73,0.255
			c0.183,0.171,0.274,0.398,0.274,0.684c0,0.283-0.092,0.512-0.274,0.682C162.231,206.285,161.988,206.369,161.685,206.369z
			 M160.946,208.493h1.497v9.083h-1.497V208.493z"/>
		<path fill="#001E39" d="M169.515,209.783c-1.429,0-2.168,1.125-2.219,3.375v4.418h-1.498v-9.083h1.498v1.745
			c0.456-1.265,1.258-1.896,2.408-1.896c0.367,0,0.715,0.057,1.044,0.17l-0.076,1.461
			C170.292,209.847,169.907,209.783,169.515,209.783z"/>
		<path fill="#001E39" d="M172.824,208.948c0.638-0.442,1.5-0.663,2.588-0.663c1.087,0,1.937,0.227,2.551,0.682
			c0.612,0.456,0.932,1.031,0.957,1.727h-1.46c-0.114-0.822-0.81-1.232-2.086-1.232c-0.62,0-1.097,0.139-1.431,0.416
			c-0.335,0.279-0.503,0.578-0.503,0.9c0,0.323,0.126,0.596,0.379,0.816c0.253,0.221,0.658,0.414,1.214,0.578l1.82,0.606
			c0.771,0.241,1.362,0.547,1.773,0.92c0.41,0.373,0.616,0.885,0.616,1.536c0,0.65-0.335,1.238-1.005,1.763
			s-1.605,0.786-2.806,0.786c-1.201,0-2.136-0.268-2.806-0.805c-0.67-0.537-1.024-1.229-1.062-2.076h1.441
			c0.025,0.568,0.256,0.996,0.692,1.279c0.436,0.285,0.982,0.428,1.64,0.428c0.658,0,1.201-0.141,1.631-0.418
			c0.429-0.277,0.645-0.609,0.645-0.996c0-0.385-0.127-0.678-0.379-0.881c-0.253-0.203-0.663-0.379-1.232-0.531l-1.763-0.588
			c-1.581-0.467-2.37-1.289-2.37-2.465C171.866,209.985,172.185,209.391,172.824,208.948z"/>
		<path fill="#001E39" d="M186.353,217.311c-1.087,0.505-2.08,0.612-2.977,0.322c-0.645-0.202-1.101-0.626-1.366-1.271
			c-0.139-0.314-0.208-0.694-0.208-1.137v-5.574h-1.46v-1.139h1.46v-2.521h1.479v2.521h2.844v1.139h-2.844v5.555
			c0,0.923,0.43,1.385,1.29,1.385c0.467,0,0.992-0.113,1.574-0.342L186.353,217.311z"/>
		<path fill="#001E39" d="M193.595,205.649l5.916,9.575v-9.575h1.498v11.927h-1.668l-6.011-9.709v9.709h-1.517v-11.927H193.595z"/>
		<path fill="#001E39" d="M209.75,211.697c0-0.821-0.17-1.408-0.512-1.763c-0.342-0.354-0.838-0.53-1.489-0.53
			s-1.175,0.129-1.574,0.389c-0.398,0.258-0.597,0.666-0.597,1.223h-1.649c0-1.391,0.746-2.25,2.237-2.579
			c0.455-0.101,0.948-0.151,1.479-0.151c1.125,0,2.003,0.284,2.636,0.853c0.632,0.569,0.948,1.435,0.948,2.599v5.84h-1.29
			l-0.152-1.518c-0.556,1.15-1.561,1.725-3.014,1.725c-0.973,0-1.754-0.271-2.342-0.814c-0.587-0.543-0.881-1.22-0.881-2.029
			c0-0.809,0.325-1.441,0.977-1.896c0.651-0.455,1.463-0.683,2.437-0.683c0.973,0,1.902,0.164,2.787,0.493V211.697z M209.75,213.803
			c-0.897-0.254-1.681-0.38-2.351-0.38s-1.213,0.12-1.631,0.36c-0.417,0.24-0.625,0.619-0.625,1.138
			c0,1.138,0.645,1.706,1.934,1.706c0.733,0,1.361-0.262,1.886-0.786C209.487,215.316,209.75,214.637,209.75,213.803z"/>
		<path fill="#001E39" d="M215.494,210.257c0.595-1.314,1.612-1.972,3.053-1.972c0.783,0,1.441,0.193,1.972,0.578
			c0.531,0.386,0.917,0.92,1.156,1.602c0.569-1.453,1.624-2.18,3.166-2.18c1.087,0,1.928,0.354,2.522,1.062
			c0.594,0.707,0.892,1.674,0.892,2.9v5.328h-1.479v-5.328c0-0.873-0.206-1.529-0.617-1.973c-0.411-0.441-1.002-0.663-1.773-0.663
			c-0.771,0-1.368,0.315-1.792,0.948c-0.424,0.631-0.635,1.504-0.635,2.616v4.399h-1.479v-5.328c0-0.873-0.206-1.529-0.616-1.973
			c-0.411-0.441-0.996-0.663-1.754-0.663c-0.759,0-1.372,0.31-1.839,0.929c-0.468,0.619-0.714,1.479-0.74,2.578v4.457h-1.498v-9.064
			h1.289L215.494,210.257z"/>
		<path fill="#001E39" d="M234.208,216.57c1.252,0,1.965-0.55,2.143-1.649h1.536c-0.14,0.91-0.541,1.615-1.204,2.114
			c-0.665,0.5-1.489,0.748-2.475,0.748c-1.213,0-2.2-0.432-2.958-1.298c-0.758-0.866-1.138-2.019-1.138-3.46
			s0.382-2.592,1.147-3.451c0.765-0.859,1.782-1.289,3.053-1.289c1.27,0,2.218,0.492,2.844,1.479s0.843,2.188,0.654,3.603h-6.201
			c0,0.936,0.228,1.704,0.683,2.304C232.748,216.271,233.386,216.57,234.208,216.57z M235.308,209.707
			c-0.291-0.152-0.645-0.229-1.062-0.229c-0.771,0-1.381,0.264-1.83,0.787c-0.449,0.525-0.711,1.18-0.787,1.963h4.834
			C236.464,210.965,236.079,210.124,235.308,209.707z"/>
	</g>
</g>
<g>
	<g>
		<path fill="#001E39" d="M153.115,258.703h5.309v1.309h-6.807v-11.927h1.498V258.703z"/>
		<path fill="#001E39" d="M165.401,254.134c0-0.821-0.171-1.409-0.512-1.764s-0.838-0.53-1.489-0.53
			c-0.651,0-1.176,0.129-1.574,0.388s-0.598,0.667-0.598,1.224h-1.649c0-1.391,0.745-2.25,2.237-2.579
			c0.455-0.101,0.948-0.151,1.479-0.151c1.125,0,2.003,0.284,2.636,0.853c0.632,0.569,0.948,1.435,0.948,2.599v5.84h-1.289
			l-0.152-1.518c-0.557,1.15-1.562,1.726-3.015,1.726c-0.973,0-1.753-0.271-2.342-0.815c-0.588-0.543-0.881-1.219-0.881-2.028
			s0.325-1.442,0.976-1.896c0.651-0.454,1.463-0.683,2.437-0.683c0.973,0,1.902,0.164,2.787,0.493V254.134z M165.401,256.238
			c-0.898-0.254-1.681-0.379-2.351-0.379s-1.213,0.12-1.631,0.359c-0.417,0.24-0.626,0.619-0.626,1.139
			c0,1.137,0.645,1.706,1.935,1.706c0.733,0,1.362-0.263,1.886-0.786C165.139,257.752,165.401,257.072,165.401,256.238z"/>
		<path fill="#001E39" d="M170.188,251.384c0.638-0.442,1.501-0.663,2.588-0.663s1.937,0.228,2.551,0.682
			c0.612,0.456,0.932,1.031,0.957,1.727h-1.46c-0.114-0.821-0.809-1.232-2.085-1.232c-0.62,0-1.097,0.139-1.432,0.417
			c-0.335,0.277-0.502,0.578-0.502,0.9c0,0.323,0.126,0.595,0.379,0.815c0.253,0.221,0.657,0.414,1.213,0.578l1.82,0.607
			c0.771,0.239,1.362,0.545,1.773,0.919c0.411,0.373,0.616,0.885,0.616,1.536c0,0.65-0.335,1.239-1.005,1.763
			c-0.67,0.524-1.605,0.787-2.807,0.787c-1.201,0-2.136-0.269-2.806-0.806c-0.67-0.537-1.024-1.229-1.062-2.076h1.441
			c0.025,0.568,0.256,0.996,0.692,1.279c0.436,0.285,0.982,0.428,1.64,0.428s1.201-0.141,1.631-0.418
			c0.429-0.277,0.645-0.609,0.645-0.995c0-0.385-0.127-0.679-0.38-0.882c-0.252-0.202-0.664-0.379-1.232-0.531l-1.763-0.588
			c-1.581-0.467-2.37-1.289-2.37-2.465C169.23,252.421,169.549,251.826,170.188,251.384z"/>
		<path fill="#001E39" d="M183.716,259.746c-1.087,0.506-2.079,0.613-2.977,0.322c-0.645-0.202-1.1-0.626-1.366-1.271
			c-0.139-0.316-0.208-0.694-0.208-1.138v-5.574h-1.46v-1.138h1.46v-2.522h1.479v2.522h2.843v1.138h-2.843v5.555
			c0,0.923,0.429,1.385,1.289,1.385c0.468,0,0.992-0.113,1.574-0.342L183.716,259.746z"/>
		<path fill="#001E39" d="M190.959,248.085l5.916,9.575v-9.575h1.498v11.927h-1.668l-6.011-9.708v9.708h-1.517v-11.927H190.959z"/>
		<path fill="#001E39" d="M207.114,254.134c0-0.821-0.171-1.409-0.512-1.764c-0.341-0.354-0.837-0.53-1.488-0.53
			c-0.651,0-1.176,0.129-1.575,0.388c-0.398,0.259-0.597,0.667-0.597,1.224h-1.649c0-1.391,0.745-2.25,2.237-2.579
			c0.456-0.101,0.948-0.151,1.479-0.151c1.125,0,2.002,0.284,2.635,0.853c0.632,0.569,0.948,1.435,0.948,2.599v5.84h-1.289
			l-0.152-1.518c-0.557,1.15-1.561,1.726-3.015,1.726c-0.973,0-1.754-0.271-2.342-0.815c-0.587-0.543-0.881-1.219-0.881-2.028
			s0.325-1.442,0.976-1.896c0.651-0.454,1.463-0.683,2.437-0.683c0.973,0,1.902,0.164,2.787,0.493V254.134z M207.114,256.238
			c-0.897-0.254-1.682-0.379-2.352-0.379s-1.213,0.12-1.631,0.359c-0.417,0.24-0.625,0.619-0.625,1.139
			c0,1.137,0.645,1.706,1.934,1.706c0.733,0,1.362-0.263,1.887-0.786C206.852,257.752,207.114,257.072,207.114,256.238z"/>
		<path fill="#001E39" d="M212.858,252.692c0.594-1.314,1.612-1.972,3.053-1.972c0.783,0,1.441,0.193,1.972,0.578
			c0.531,0.386,0.917,0.92,1.157,1.602c0.568-1.452,1.624-2.18,3.166-2.18c1.087,0,1.927,0.354,2.522,1.062
			c0.594,0.707,0.891,1.674,0.891,2.9v5.328h-1.479v-5.328c0-0.873-0.206-1.529-0.616-1.973c-0.411-0.441-1.001-0.662-1.772-0.662
			c-0.771,0-1.369,0.315-1.792,0.947c-0.423,0.633-0.635,1.504-0.635,2.616v4.399h-1.479v-5.328c0-0.873-0.206-1.529-0.616-1.973
			c-0.411-0.441-0.996-0.662-1.754-0.662s-1.372,0.309-1.839,0.928c-0.468,0.62-0.714,1.479-0.74,2.58v4.455h-1.498v-9.063h1.289
			L212.858,252.692z"/>
		<path fill="#001E39" d="M231.573,259.007c1.251,0,1.965-0.55,2.143-1.649h1.536c-0.14,0.909-0.541,1.614-1.204,2.113
			c-0.664,0.5-1.488,0.749-2.475,0.749c-1.213,0-2.2-0.433-2.958-1.299s-1.138-2.019-1.138-3.46s0.382-2.592,1.147-3.451
			s1.783-1.289,3.053-1.289c1.27,0,2.219,0.493,2.844,1.479c0.625,0.986,0.844,2.188,0.654,3.603h-6.201
			c0,0.937,0.228,1.704,0.683,2.304C230.113,258.706,230.75,259.007,231.573,259.007z M232.673,252.143
			c-0.291-0.152-0.646-0.228-1.062-0.228c-0.771,0-1.381,0.263-1.829,0.787c-0.449,0.524-0.711,1.179-0.787,1.962h4.835
			C233.829,253.4,233.444,252.56,232.673,252.143z"/>
	</g>
</g>
<g>
	<g>
		<path fill="#001E39" d="M153.759,289.618l4.02,8.077l3.981-8.077h2.105v11.926h-1.498v-9.804l-4.095,8.306h-1.005l-4.152-8.438
			v9.936h-1.498v-11.926H153.759z"/>
		<path fill="#001E39" d="M170.255,292.253c1.264,0,2.285,0.411,3.062,1.233c0.778,0.821,1.167,1.996,1.167,3.525
			c0,1.518-0.389,2.688-1.167,3.51c-0.777,0.82-1.798,1.23-3.062,1.23c-1.264,0-2.285-0.41-3.062-1.23
			c-0.777-0.822-1.166-1.992-1.166-3.51c0-1.529,0.389-2.704,1.166-3.525C167.97,292.664,168.991,292.253,170.255,292.253z
			 M172.966,297.004c0-1.082-0.227-1.928-0.683-2.542c-0.455-0.612-1.122-0.919-2-0.919s-1.552,0.307-2.02,0.919
			c-0.467,0.614-0.701,1.46-0.701,2.542c0,1.08,0.221,1.927,0.664,2.541c0.442,0.612,1.103,0.918,1.981,0.918
			c0.878,0,1.558-0.306,2.038-0.918C172.726,298.931,172.966,298.084,172.966,297.004z"/>
		<path fill="#001E39" d="M178.142,293.828c0.607-1.049,1.492-1.575,2.655-1.575s2.13,0.434,2.901,1.3
			c0.771,0.865,1.156,2.01,1.156,3.432s-0.392,2.572-1.175,3.451c-0.784,0.878-1.738,1.316-2.863,1.316
			c-0.607,0-1.154-0.15-1.641-0.455c-0.486-0.303-0.869-0.751-1.147-1.346l-0.341,1.593h-1.042v-12.912h1.497V293.828z
			 M180.702,293.58c-0.721,0-1.321,0.231-1.801,0.692c-0.48,0.461-0.733,1.103-0.759,1.925v1.479c0,0.835,0.25,1.502,0.749,2
			c0.5,0.5,1.103,0.75,1.811,0.75c0.708,0,1.32-0.312,1.839-0.939c0.518-0.626,0.777-1.457,0.777-2.492
			c0-1.036-0.256-1.865-0.768-2.484S181.422,293.58,180.702,293.58z"/>
		<path fill="#001E39" d="M187.85,290.338c-0.304,0-0.541-0.085-0.711-0.256c-0.17-0.17-0.255-0.398-0.255-0.683
			s0.085-0.512,0.255-0.683c0.171-0.17,0.408-0.256,0.711-0.256c0.303,0,0.546,0.086,0.729,0.256
			c0.183,0.171,0.276,0.398,0.276,0.683s-0.093,0.513-0.276,0.683C188.396,290.253,188.153,290.338,187.85,290.338z M187.11,292.462
			h1.498v9.082h-1.498V292.462z"/>
		<path fill="#001E39" d="M191.983,288.632h1.498v12.912h-1.498V288.632z"/>
		<path fill="#001E39" d="M199.719,300.539c1.252,0,1.966-0.551,2.143-1.648h1.536c-0.139,0.908-0.541,1.613-1.204,2.113
			s-1.488,0.748-2.475,0.748c-1.213,0-2.199-0.432-2.958-1.297c-0.758-0.867-1.138-2.02-1.138-3.461
			c0-1.442,0.382-2.592,1.147-3.451c0.765-0.859,1.782-1.29,3.053-1.29s2.219,0.493,2.844,1.479
			c0.626,0.985,0.844,2.187,0.654,3.602h-6.2c0,0.936,0.228,1.704,0.683,2.305C198.26,300.239,198.897,300.539,199.719,300.539z
			 M200.819,293.676c-0.292-0.152-0.645-0.227-1.062-0.227c-0.771,0-1.381,0.262-1.83,0.785c-0.449,0.525-0.711,1.18-0.787,1.963
			h4.835C201.976,294.934,201.59,294.094,200.819,293.676z"/>
	</g>
</g>
<rect x="457.5" y="153.5" fill="none" width="193" height="22"/>
<text transform="matrix(1 0 0 1 457.5 169.9639)" font-family="'Karla-Bold'" font-size="24">All Members</text>
<rect x="147.5" y="153.5" fill="none" width="193" height="22"/>
<text transform="matrix(1 0 0 1 147.5 169.9639)" font-family="'Karla-Bold'" font-size="24">New Member</text>
<path fill="#001E39" fill-opacity="0.2" stroke="#001E39" stroke-width="8" stroke-miterlimit="10" d="M126.341,54.267v406.315
	H689.82V54.267H126.341z M289.5,436.5h-130v-45h130V436.5z M433.767,239.611v27.766h-180.65v-27.766H433.767z M253.116,225.844
	v-27.766h180.65v27.766H253.116z M433.767,281.145v27.766h-180.65v-27.766H433.767z M434.5,436.5h-129v-45h129V436.5z M666.5,436.5
	h-207v-239h207V436.5z M666.5,131.5H151.617v-52H666.5V131.5z"/>
<rect x="180.895" y="404.5" fill="none" width="86.5" height="23"/>
<text transform="matrix(1 0 0 1 187.9058 420.9639)" font-family="'Karla-Bold'" font-size="24">Cancel</text>
<rect x="325.895" y="404.5" fill="none" width="86.5" height="23"/>
<text transform="matrix(1 0 0 1 343.2251 420.9639)" font-family="'Karla-Bold'" font-size="24">Save</text>
<rect x="162.5" y="91.5" fill="none" width="543" height="32"/>
<text transform="matrix(1 0 0 1 162.5 116.1958)" font-family="'Karla-Bold'" font-size="36" letter-spacing="-1">Super Duper Member Manager</text>
</svg>
