<?xml version="1.0" encoding="utf-8"?>
<!-- Generator: Adobe Illustrator 15.1.0, SVG Export Plug-In . SVG Version: 6.00 Build 0)  -->
<!DOCTYPE svg PUBLIC "-//W3C//DTD SVG 1.1//EN" "http://www.w3.org/Graphics/SVG/1.1/DTD/svg11.dtd">
<svg version="1.1" id="Layer_1" xmlns="http://www.w3.org/2000/svg" xmlns:xlink="http://www.w3.org/1999/xlink" x="0px" y="0px"
	 width="611px" height="449px" viewBox="0 0 611 449" enable-background="new 0 0 611 449" xml:space="preserve">
<g id="Layer_1_1_">
	<g>
		<g>
			<path fill="#001E39" d="M51.617,172.149h7.243v1.289h-5.745v3.963h5.347v1.29h-5.347v5.385h-1.498V172.149z"/>
			<path fill="#001E39" d="M61.685,172.869c-0.304,0-0.541-0.084-0.711-0.256c-0.17-0.17-0.256-0.398-0.256-0.682
				c0-0.285,0.085-0.513,0.256-0.684c0.171-0.17,0.408-0.255,0.711-0.255c0.303,0,0.546,0.085,0.73,0.255
				c0.183,0.171,0.274,0.398,0.274,0.684c0,0.283-0.092,0.512-0.274,0.682C62.231,172.785,61.988,172.869,61.685,172.869z
				 M60.946,174.993h1.497v9.083h-1.497V174.993z"/>
			<path fill="#001E39" d="M69.515,176.283c-1.429,0-2.168,1.125-2.219,3.375v4.418h-1.498v-9.083h1.498v1.745
				c0.456-1.265,1.258-1.896,2.408-1.896c0.367,0,0.715,0.057,1.044,0.17l-0.076,1.461
				C70.292,176.347,69.907,176.283,69.515,176.283z"/>
			<path fill="#001E39" d="M72.824,175.448c0.638-0.442,1.5-0.663,2.588-0.663c1.087,0,1.937,0.227,2.551,0.682
				c0.612,0.456,0.932,1.031,0.957,1.727h-1.46c-0.114-0.822-0.81-1.232-2.086-1.232c-0.62,0-1.097,0.139-1.431,0.416
				c-0.335,0.279-0.503,0.578-0.503,0.9c0,0.323,0.126,0.596,0.379,0.816c0.253,0.221,0.658,0.414,1.214,0.578l1.82,0.606
				c0.771,0.241,1.362,0.547,1.773,0.92c0.41,0.373,0.616,0.885,0.616,1.536c0,0.65-0.335,1.238-1.005,1.763
				c-0.67,0.525-1.605,0.786-2.806,0.786c-1.201,0-2.136-0.268-2.806-0.805s-1.024-1.229-1.062-2.076h1.441
				c0.025,0.568,0.256,0.996,0.692,1.279c0.436,0.285,0.982,0.428,1.64,0.428s1.201-0.141,1.631-0.418
				c0.429-0.277,0.645-0.609,0.645-0.996c0-0.385-0.127-0.678-0.379-0.881c-0.253-0.203-0.663-0.379-1.232-0.531l-1.763-0.588
				c-1.581-0.467-2.37-1.289-2.37-2.465C71.866,176.485,72.185,175.891,72.824,175.448z"/>
			<path fill="#001E39" d="M86.353,183.811c-1.087,0.505-2.08,0.612-2.977,0.322c-0.645-0.202-1.101-0.626-1.366-1.271
				c-0.139-0.314-0.208-0.694-0.208-1.137v-5.574h-1.46v-1.139h1.46v-2.521h1.479v2.521h2.844v1.139h-2.844v5.555
				c0,0.923,0.43,1.385,1.29,1.385c0.467,0,0.992-0.113,1.574-0.342L86.353,183.811z"/>
			<path fill="#001E39" d="M93.595,172.149l5.916,9.575v-9.575h1.498v11.927h-1.668l-6.011-9.709v9.709h-1.517v-11.927H93.595z"/>
			<path fill="#001E39" d="M109.75,178.197c0-0.821-0.17-1.408-0.512-1.763c-0.342-0.354-0.838-0.53-1.489-0.53
				s-1.175,0.129-1.574,0.389c-0.398,0.258-0.597,0.666-0.597,1.223h-1.649c0-1.391,0.746-2.25,2.237-2.579
				c0.455-0.101,0.948-0.151,1.479-0.151c1.125,0,2.003,0.284,2.636,0.853c0.632,0.569,0.948,1.435,0.948,2.599v5.84h-1.29
				l-0.152-1.518c-0.556,1.15-1.561,1.725-3.014,1.725c-0.973,0-1.754-0.271-2.342-0.814c-0.587-0.543-0.881-1.22-0.881-2.029
				s0.325-1.441,0.977-1.896c0.651-0.455,1.463-0.683,2.437-0.683c0.973,0,1.902,0.164,2.787,0.493L109.75,178.197L109.75,178.197z
				 M109.75,180.303c-0.897-0.254-1.681-0.38-2.351-0.38s-1.213,0.12-1.631,0.36c-0.417,0.24-0.625,0.619-0.625,1.138
				c0,1.138,0.645,1.706,1.934,1.706c0.733,0,1.361-0.262,1.886-0.786C109.487,181.816,109.75,181.137,109.75,180.303z"/>
			<path fill="#001E39" d="M115.494,176.757c0.595-1.314,1.612-1.972,3.053-1.972c0.783,0,1.441,0.193,1.972,0.578
				c0.531,0.386,0.917,0.92,1.156,1.602c0.569-1.453,1.624-2.18,3.166-2.18c1.087,0,1.928,0.354,2.522,1.062
				c0.594,0.707,0.892,1.674,0.892,2.9v5.328h-1.479v-5.328c0-0.873-0.206-1.529-0.617-1.973c-0.411-0.441-1.002-0.663-1.773-0.663
				s-1.368,0.315-1.792,0.948c-0.424,0.631-0.635,1.504-0.635,2.616v4.399h-1.479v-5.328c0-0.873-0.206-1.529-0.616-1.973
				c-0.411-0.441-0.996-0.663-1.754-0.663c-0.759,0-1.372,0.31-1.839,0.929c-0.468,0.619-0.714,1.479-0.74,2.578v4.457h-1.498
				v-9.064h1.289L115.494,176.757z"/>
			<path fill="#001E39" d="M134.208,183.07c1.252,0,1.965-0.55,2.143-1.649h1.536c-0.14,0.91-0.541,1.615-1.204,2.114
				c-0.665,0.5-1.489,0.748-2.475,0.748c-1.213,0-2.2-0.432-2.958-1.298c-0.758-0.866-1.138-2.019-1.138-3.46
				s0.382-2.592,1.147-3.451c0.765-0.859,1.782-1.289,3.053-1.289c1.27,0,2.218,0.492,2.844,1.479
				c0.626,0.987,0.843,2.188,0.654,3.603h-6.201c0,0.936,0.228,1.704,0.683,2.304C132.748,182.771,133.386,183.07,134.208,183.07z
				 M135.308,176.207c-0.291-0.152-0.645-0.229-1.062-0.229c-0.771,0-1.381,0.264-1.83,0.787c-0.449,0.525-0.711,1.18-0.787,1.963
				h4.834C136.464,177.465,136.079,176.624,135.308,176.207z"/>
		</g>
	</g>
	<g>
		<g>
			<path fill="#001E39" d="M53.115,225.203h5.309v1.309h-6.807v-11.927h1.498V225.203z"/>
			<path fill="#001E39" d="M65.401,220.634c0-0.821-0.171-1.409-0.512-1.764c-0.341-0.354-0.838-0.53-1.489-0.53
				s-1.176,0.129-1.574,0.389c-0.398,0.258-0.598,0.666-0.598,1.224h-1.649c0-1.392,0.745-2.25,2.237-2.579
				c0.455-0.102,0.948-0.15,1.479-0.15c1.125,0,2.003,0.283,2.636,0.853c0.632,0.569,0.948,1.435,0.948,2.599v5.84H65.59
				l-0.152-1.518c-0.557,1.15-1.562,1.727-3.015,1.727c-0.973,0-1.753-0.271-2.342-0.815c-0.588-0.543-0.881-1.22-0.881-2.028
				s0.325-1.441,0.976-1.896c0.651-0.453,1.463-0.683,2.437-0.683c0.973,0,1.902,0.164,2.787,0.493L65.401,220.634L65.401,220.634z
				 M65.401,222.738c-0.898-0.254-1.681-0.379-2.351-0.379c-0.67,0-1.213,0.119-1.631,0.358c-0.417,0.24-0.626,0.619-0.626,1.14
				c0,1.137,0.645,1.705,1.935,1.705c0.733,0,1.362-0.263,1.886-0.785C65.139,224.252,65.401,223.572,65.401,222.738z"/>
			<path fill="#001E39" d="M70.188,217.884c0.638-0.442,1.501-0.663,2.588-0.663s1.937,0.229,2.551,0.682
				c0.612,0.457,0.932,1.031,0.957,1.728h-1.46c-0.114-0.821-0.809-1.231-2.085-1.231c-0.62,0-1.097,0.139-1.432,0.416
				s-0.502,0.578-0.502,0.9c0,0.323,0.126,0.596,0.379,0.815c0.253,0.221,0.657,0.413,1.213,0.577l1.82,0.607
				c0.771,0.239,1.362,0.545,1.773,0.919c0.411,0.373,0.616,0.886,0.616,1.536s-0.335,1.239-1.005,1.764
				c-0.67,0.523-1.605,0.787-2.807,0.787c-1.201,0-2.136-0.27-2.806-0.807c-0.67-0.537-1.024-1.229-1.062-2.076h1.441
				c0.025,0.568,0.256,0.996,0.692,1.279c0.436,0.285,0.982,0.428,1.64,0.428c0.658,0,1.201-0.141,1.631-0.418
				c0.429-0.277,0.645-0.609,0.645-0.995c0-0.385-0.127-0.679-0.38-0.882c-0.252-0.202-0.664-0.379-1.232-0.531l-1.763-0.588
				c-1.581-0.467-2.37-1.289-2.37-2.465C69.23,218.921,69.549,218.326,70.188,217.884z"/>
			<path fill="#001E39" d="M83.716,226.246c-1.087,0.506-2.079,0.613-2.977,0.322c-0.645-0.202-1.1-0.627-1.366-1.271
				c-0.139-0.316-0.208-0.693-0.208-1.138v-5.574h-1.46v-1.138h1.46v-2.522h1.479v2.522h2.843v1.138h-2.843v5.556
				c0,0.922,0.429,1.385,1.289,1.385c0.468,0,0.992-0.113,1.574-0.342L83.716,226.246z"/>
			<path fill="#001E39" d="M90.959,214.585l5.916,9.575v-9.575h1.498v11.927h-1.668l-6.011-9.707v9.707h-1.517v-11.927H90.959
				L90.959,214.585z"/>
			<path fill="#001E39" d="M107.114,220.634c0-0.821-0.171-1.409-0.512-1.764s-0.837-0.53-1.488-0.53
				c-0.651,0-1.176,0.129-1.575,0.389c-0.398,0.258-0.597,0.666-0.597,1.224h-1.649c0-1.392,0.745-2.25,2.237-2.579
				c0.456-0.102,0.948-0.15,1.479-0.15c1.125,0,2.002,0.283,2.635,0.853c0.632,0.569,0.948,1.435,0.948,2.599v5.84h-1.289
				l-0.152-1.518c-0.557,1.15-1.561,1.727-3.015,1.727c-0.973,0-1.754-0.271-2.342-0.815c-0.587-0.543-0.881-1.22-0.881-2.028
				s0.325-1.441,0.976-1.896c0.651-0.453,1.463-0.683,2.437-0.683c0.973,0,1.902,0.164,2.787,0.493L107.114,220.634L107.114,220.634
				z M107.114,222.738c-0.897-0.254-1.682-0.379-2.352-0.379c-0.67,0-1.213,0.119-1.631,0.358c-0.417,0.24-0.625,0.619-0.625,1.14
				c0,1.137,0.645,1.705,1.934,1.705c0.733,0,1.362-0.263,1.887-0.785C106.852,224.252,107.114,223.572,107.114,222.738z"/>
			<path fill="#001E39" d="M112.858,219.191c0.594-1.313,1.612-1.971,3.053-1.971c0.783,0,1.441,0.192,1.972,0.577
				c0.531,0.386,0.917,0.92,1.157,1.603c0.568-1.452,1.624-2.18,3.166-2.18c1.087,0,1.927,0.354,2.522,1.062
				c0.594,0.707,0.891,1.674,0.891,2.899v5.328h-1.479v-5.328c0-0.873-0.206-1.529-0.616-1.973
				c-0.411-0.441-1.001-0.662-1.772-0.662s-1.369,0.314-1.792,0.947s-0.635,1.504-0.635,2.615v4.399h-1.479v-5.327
				c0-0.873-0.206-1.529-0.616-1.974c-0.411-0.44-0.996-0.662-1.754-0.662c-0.758,0-1.372,0.31-1.839,0.929
				c-0.468,0.619-0.714,1.479-0.74,2.58v4.454h-1.498v-9.063h1.289L112.858,219.191z"/>
			<path fill="#001E39" d="M131.573,225.507c1.251,0,1.965-0.55,2.143-1.649h1.536c-0.14,0.91-0.541,1.615-1.204,2.113
				c-0.664,0.5-1.488,0.75-2.475,0.75c-1.213,0-2.2-0.434-2.958-1.3c-0.758-0.866-1.138-2.019-1.138-3.46s0.382-2.592,1.147-3.451
				s1.783-1.289,3.053-1.289c1.27,0,2.219,0.493,2.844,1.479c0.625,0.985,0.844,2.188,0.654,3.603h-6.201
				c0,0.938,0.228,1.704,0.683,2.305C130.113,225.206,130.75,225.507,131.573,225.507z M132.673,218.643
				c-0.291-0.151-0.646-0.228-1.062-0.228c-0.771,0-1.381,0.263-1.829,0.787c-0.449,0.524-0.711,1.179-0.787,1.962h4.835
				C133.829,219.9,133.444,219.061,132.673,218.643z"/>
		</g>
	</g>
	<g>
		<g>
			<path fill="#001E39" d="M53.759,256.118l4.02,8.077l3.981-8.077h2.105v11.926h-1.498v-9.804l-4.095,8.306h-1.005l-4.152-8.438
				v9.937h-1.498v-11.926H53.759L53.759,256.118z"/>
			<path fill="#001E39" d="M70.255,258.753c1.264,0,2.285,0.411,3.062,1.233c0.778,0.82,1.167,1.996,1.167,3.524
				c0,1.519-0.389,2.688-1.167,3.511c-0.777,0.819-1.798,1.229-3.062,1.229c-1.264,0-2.285-0.41-3.062-1.229
				c-0.777-0.822-1.166-1.992-1.166-3.511c0-1.528,0.389-2.704,1.166-3.524C67.97,259.164,68.991,258.753,70.255,258.753z
				 M72.966,263.504c0-1.082-0.227-1.928-0.683-2.542c-0.455-0.612-1.122-0.919-2-0.919c-0.878,0-1.552,0.307-2.02,0.919
				c-0.467,0.614-0.701,1.46-0.701,2.542c0,1.08,0.221,1.927,0.664,2.541c0.442,0.612,1.103,0.918,1.981,0.918
				s1.558-0.306,2.038-0.918C72.726,265.431,72.966,264.584,72.966,263.504z"/>
			<path fill="#001E39" d="M78.142,260.328c0.607-1.049,1.492-1.575,2.655-1.575s2.13,0.435,2.901,1.3
				c0.771,0.865,1.156,2.01,1.156,3.432c0,1.423-0.392,2.572-1.175,3.451c-0.784,0.879-1.738,1.316-2.863,1.316
				c-0.607,0-1.154-0.15-1.641-0.455c-0.486-0.303-0.869-0.751-1.147-1.346l-0.341,1.593h-1.042v-12.912h1.497V260.328
				L78.142,260.328z M80.702,260.08c-0.721,0-1.321,0.23-1.801,0.691s-0.733,1.104-0.759,1.926v1.479c0,0.835,0.25,1.502,0.749,2
				c0.5,0.5,1.103,0.75,1.811,0.75s1.32-0.312,1.839-0.938c0.518-0.626,0.777-1.457,0.777-2.492c0-1.036-0.256-1.865-0.768-2.484
				C82.038,260.393,81.422,260.08,80.702,260.08z"/>
			<path fill="#001E39" d="M87.85,256.838c-0.304,0-0.541-0.085-0.711-0.256c-0.17-0.17-0.255-0.398-0.255-0.684
				s0.085-0.512,0.255-0.683c0.171-0.17,0.408-0.256,0.711-0.256c0.303,0,0.546,0.086,0.729,0.256
				c0.183,0.171,0.276,0.397,0.276,0.683s-0.093,0.514-0.276,0.684C88.396,256.753,88.153,256.838,87.85,256.838z M87.11,258.962
				h1.498v9.082H87.11V258.962z"/>
			<path fill="#001E39" d="M91.983,255.132h1.498v12.912h-1.498V255.132z"/>
			<path fill="#001E39" d="M99.719,267.039c1.252,0,1.966-0.551,2.143-1.648h1.536c-0.139,0.908-0.541,1.613-1.204,2.113
				c-0.663,0.5-1.488,0.748-2.475,0.748c-1.213,0-2.199-0.432-2.958-1.297c-0.758-0.867-1.138-2.021-1.138-3.461
				c0-1.442,0.382-2.592,1.147-3.451s1.782-1.29,3.053-1.29c1.271,0,2.219,0.493,2.844,1.479c0.626,0.984,0.844,2.187,0.654,3.602
				h-6.2c0,0.936,0.228,1.704,0.683,2.305C98.26,266.739,98.897,267.039,99.719,267.039z M100.819,260.176
				c-0.292-0.152-0.645-0.227-1.062-0.227c-0.771,0-1.381,0.262-1.83,0.785c-0.449,0.524-0.711,1.18-0.787,1.963h4.835
				C101.976,261.434,101.59,260.594,100.819,260.176z"/>
		</g>
	</g>
	<rect x="357.5" y="120" fill="none" width="193" height="22"/>
	<text transform="matrix(1 0 0 1 357.5 136.4639)" font-family="'Karla-Bold'" font-size="24">All Members</text>
	<rect x="47.5" y="120" fill="none" width="193" height="22"/>
	<text transform="matrix(1 0 0 1 47.5 136.4639)" font-family="'Karla-Bold'" font-size="24">New Member</text>
	<path fill="#001E39" fill-opacity="0.2" stroke="#001E39" stroke-width="8" stroke-miterlimit="10" d="M26.341,20.767v406.315
		H589.82V20.767H26.341z M189.5,403h-130v-45h130V403z M333.767,206.111v27.766H153.117v-27.766H333.767L333.767,206.111z
		 M153.116,192.344v-27.766h180.649v27.766H153.116z M333.767,247.645v27.767H153.117v-27.767H333.767z M334.5,403h-129v-45h129V403
		z M566.5,403h-207V164h207V403z M566.5,98H51.617V46H566.5V98z"/>
	<rect x="80.895" y="371" fill="none" width="86.5" height="23"/>
	<text transform="matrix(1 0 0 1 87.9058 387.4639)" font-family="'Karla-Bold'" font-size="24">Cancel</text>
	<rect x="225.895" y="371" fill="none" width="86.5" height="23"/>
	<text transform="matrix(1 0 0 1 243.2251 387.4639)" font-family="'Karla-Bold'" font-size="24">Save</text>
	<rect x="62.5" y="58" fill="none" width="543" height="32"/>
	<text transform="matrix(1 0 0 1 62.5 82.6953)" font-family="'Karla-Bold'" font-size="36">Super Duper Member Manager</text>
</g>
<g opacity="0.8">
	<rect x="142.341" y="20.767" fill="#FFFFFF" stroke="#000000" stroke-miterlimit="10" width="447.479" height="89"/>
	<rect x="142.341" y="109.767" fill="#FFFFFF" stroke="#000000" stroke-miterlimit="10" width="204.001" height="41"/>
	<rect x="197.341" y="150.767" fill="#FFFFFF" stroke="#000000" stroke-miterlimit="10" width="149.001" height="132"/>
	<rect x="26.341" y="282.768" fill="#FFFFFF" stroke="#000000" stroke-miterlimit="10" width="564.001" height="67"/>
	<rect x="346.342" y="198.768" fill="#FFFFFF" stroke="#000000" stroke-miterlimit="10" width="243.479" height="228.314"/>
	<rect x="142.341" y="349.768" fill="#FFFFFF" stroke="#000000" stroke-miterlimit="10" width="55" height="77"/>
</g>
<g id="Layer_2">
	<line fill="none" stroke="#FF0000" stroke-width="4" stroke-miterlimit="10" x1="26.341" y1="-1" x2="26.341" y2="448"/>
	<line fill="none" stroke="#FF0000" stroke-width="4" stroke-miterlimit="10" x1="142.341" y1="-1" x2="142.341" y2="448"/>
	<line fill="none" stroke="#FF0000" stroke-width="4" stroke-miterlimit="10" x1="346.342" y1="-1" x2="346.342" y2="448"/>
	<line fill="none" stroke="#FF0000" stroke-width="4" stroke-miterlimit="10" x1="197.342" y1="-1" x2="197.342" y2="448"/>
	<line fill="none" stroke="#FF0000" stroke-width="4" stroke-miterlimit="10" x1="590.342" y1="-1" x2="590.342" y2="448"/>
	<line fill="none" stroke="#FF0000" stroke-width="4" stroke-miterlimit="10" x1="2.5" y1="20.767" x2="613.5" y2="20.767"/>
	<line fill="none" stroke="#FF0000" stroke-width="4" stroke-miterlimit="10" x1="2.5" y1="109.767" x2="613.5" y2="109.767"/>
	<line fill="none" stroke="#FF0000" stroke-width="4" stroke-miterlimit="10" x1="2.5" y1="150.767" x2="613.5" y2="150.767"/>
	<line fill="none" stroke="#FF0000" stroke-width="4" stroke-miterlimit="10" x1="2.5" y1="198.768" x2="613.5" y2="198.768"/>
	<line fill="none" stroke="#FF0000" stroke-width="4" stroke-miterlimit="10" x1="2.5" y1="240.768" x2="613.5" y2="240.768"/>
	<line fill="none" stroke="#FF0000" stroke-width="4" stroke-miterlimit="10" x1="2.5" y1="282.768" x2="613.5" y2="282.768"/>
	<line fill="none" stroke="#FF0000" stroke-width="4" stroke-miterlimit="10" x1="2.5" y1="349.768" x2="613.5" y2="349.768"/>
	<line fill="none" stroke="#FF0000" stroke-width="4" stroke-miterlimit="10" x1="2.5" y1="426.768" x2="613.5" y2="426.768"/>
</g>
<g id="Layer_3">
	<rect x="26.341" y="20.767" fill="#FF0000" width="39.458" height="21.233"/>
	<rect x="28.07" y="22.384" fill="none" width="33.729" height="16.616"/>
	<text transform="matrix(1 0 0 1 28.0703 33.3594)" fill="#FFFFFF" font-family="'Karla-Bold'" font-size="16">0, 0</text>
	<rect x="26.341" y="110.767" fill="#FF0000" width="39.458" height="21.233"/>
	<rect x="28.07" y="112.384" fill="none" width="33.729" height="16.616"/>
	<text transform="matrix(1 0 0 1 28.0703 123.3594)" fill="#FFFFFF" font-family="'Karla-Bold'" font-size="16">1, 0</text>
	<rect x="346.342" y="110.767" fill="#FF0000" width="39.457" height="21.233"/>
	<rect x="348.07" y="112.384" fill="none" width="33.729" height="16.616"/>
	<text transform="matrix(1 0 0 1 348.0703 123.3594)" fill="#FFFFFF" font-family="'Karla-Bold'" font-size="16">1, 3</text>
	<rect x="26.341" y="150.767" fill="#FF0000" width="39.458" height="21.233"/>
	<rect x="28.07" y="152.384" fill="none" width="33.729" height="16.616"/>
	<text transform="matrix(1 0 0 1 28.0703 163.3594)" fill="#FFFFFF" font-family="'Karla-Bold'" font-size="16">2, 0</text>
	<rect x="142.341" y="150.767" fill="#FF0000" width="39.458" height="21.233"/>
	<rect x="144.07" y="152.384" fill="none" width="33.729" height="16.616"/>
	<text transform="matrix(1 0 0 1 144.0703 163.3594)" fill="#FFFFFF" font-family="'Karla-Bold'" font-size="16">2, 1</text>
	<rect x="346.342" y="150.767" fill="#FF0000" width="39.457" height="21.233"/>
	<rect x="348.07" y="152.384" fill="none" width="33.729" height="16.616"/>
	<text transform="matrix(1 0 0 1 348.0703 163.3594)" fill="#FFFFFF" font-family="'Karla-Bold'" font-size="16">2, 3</text>
	<rect x="26.341" y="200.768" fill="#FF0000" width="39.458" height="21.232"/>
	<rect x="28.07" y="202.384" fill="none" width="33.729" height="16.616"/>
	<text transform="matrix(1 0 0 1 28.0703 213.3594)" fill="#FFFFFF" font-family="'Karla-Bold'" font-size="16">3, 0</text>
	<rect x="142.341" y="200.768" fill="#FF0000" width="39.458" height="21.232"/>
	<rect x="144.07" y="202.384" fill="none" width="33.729" height="16.616"/>
	<text transform="matrix(1 0 0 1 144.0703 213.3594)" fill="#FFFFFF" font-family="'Karla-Bold'" font-size="16">3, 1</text>
	<rect x="26.341" y="240.768" fill="#FF0000" width="39.458" height="21.232"/>
	<rect x="28.07" y="242.384" fill="none" width="33.729" height="16.616"/>
	<text transform="matrix(1 0 0 1 28.0703 253.3594)" fill="#FFFFFF" font-family="'Karla-Bold'" font-size="16">4, 0</text>
	<rect x="142.341" y="240.768" fill="#FF0000" width="39.458" height="21.232"/>
	<rect x="144.07" y="242.384" fill="none" width="33.729" height="16.616"/>
	<text transform="matrix(1 0 0 1 144.0703 253.3594)" fill="#FFFFFF" font-family="'Karla-Bold'" font-size="16">4, 1</text>
	<rect x="26.341" y="349.768" fill="#FF0000" width="39.458" height="21.232"/>
	<rect x="28.07" y="351.384" fill="none" width="33.729" height="16.616"/>
	<text transform="matrix(1 0 0 1 28.0703 362.3594)" fill="#FFFFFF" font-family="'Karla-Bold'" font-size="16">6, 0</text>
	<rect x="197.341" y="349.768" fill="#FF0000" width="39.458" height="21.232"/>
	<rect x="199.07" y="351.384" fill="none" width="33.729" height="16.616"/>
	<text transform="matrix(1 0 0 1 199.0703 362.3594)" fill="#FFFFFF" font-family="'Karla-Bold'" font-size="16">6, 2</text>
</g>
</svg>
