<?xml version="1.0" encoding="utf-8"?>
<!-- Generator: Adobe Illustrator 15.1.0, SVG Export Plug-In . SVG Version: 6.00 Build 0)  -->
<!DOCTYPE svg PUBLIC "-//W3C//DTD SVG 1.1//EN" "http://www.w3.org/Graphics/SVG/1.1/DTD/svg11.dtd">
<svg version="1.1" id="Layer_1" xmlns="http://www.w3.org/2000/svg" xmlns:xlink="http://www.w3.org/1999/xlink" x="0px" y="0px"
	 width="800px" height="450px" viewBox="0 0 800 450" enable-background="new 0 0 800 450" xml:space="preserve">
<path fill="#001E39" fill-opacity="0.2" stroke="#001E39" stroke-width="8" stroke-miterlimit="10" d="M293.831,33v265.233h209.222
	V33H293.831z M368.789,51.122H485.48v30.751H368.789V51.122z M485.48,96.151v30.751H369.337V96.151H485.48z M312.831,51.122h41.708
	v30.751h-41.708V51.122z M389.778,280.661H311.28v-30.752h78.498V280.661z M486.633,280.661h-78.498v-30.752h78.498V280.661z"/>
<path fill="#001E39" fill-opacity="0.2" stroke="#001E39" stroke-width="8" stroke-miterlimit="10" d="M28.57,33v265.233h209.221V33
	H28.57z M112.327,51.122h41.708v30.751h-41.708V51.122z M172.43,266.383H93.932v-30.752h78.498V266.383z M172.43,220.256H93.932
	v-30.752h78.498V220.256z M191.252,174.128H75.11v-30.751h116.142V174.128z M191.527,128H74.835V97.249h116.692V128z"/>
<path fill="#001E39" fill-opacity="0.2" stroke="#001E39" stroke-width="8" stroke-miterlimit="10" d="M561.444,33v265.233h209.221
	V33H561.444z M605.649,51.122h116.692v30.751H605.649V51.122z M580.444,128h41.707v30.752h-41.707V128z M611.842,194.995h78.497
	v30.752h-78.497V194.995z M754.246,280.661h-78.498v-30.752h78.498V280.661z M755.29,159.851H639.147v-30.751H755.29V159.851z"/>
<g>
	<path fill="#001E39" d="M105.346,347.416c0,1.266,0.105,2.479,0.105,3.638c0,2.057-0.053,4.112-0.158,6.168
		c-0.053,1.266-0.58,1.318-2.372,1.318c-1.16,0-2.373-0.158-2.373-1.529c0-8.118,0.686-16.237,0.686-24.355
		c0-1.951-0.105-3.954-0.105-5.905c0-3.269,3.005-3.005,6.326-3.005c8.435,0,8.699,6.326,8.699,13.443
		c0,4.64-0.58,9.227-7.117,9.227c-1.212,0-2.373-0.211-3.638-0.211C105.346,346.626,105.346,347.047,105.346,347.416z
		 M110.671,329.492h0.053c-0.949-0.738-2.373-0.949-3.479-0.949c-0.58,0-1.212,0.105-1.792,0.158
		c0.053,1.95,0.105,3.849,0.105,5.746c0,2.583-0.053,5.114-0.053,7.592h0.475c1.001,0,3.058,0.053,3.848-0.369
		c1.424-0.738,1.792-4.534,1.792-5.904C111.62,333.762,111.304,330.071,110.671,329.492z"/>
	<path fill="#001E39" d="M131.284,354.059c0,0.369,0.053,0.844,0.053,1.424c0,1.213-0.211,2.583-1.529,2.583
		c-0.58,0-1.16,0.422-1.792,0.422c-0.527,0-1.16-0.316-1.265-0.844c-0.791,0.369-1.687,0.791-2.583,0.791
		c-4.639,0-6.59-5.799-6.59-9.806c0-3.163,1.582-8.172,5.536-8.172c1.001,0,2.109,0.316,3.374,1.002
		c0.264-0.475,0.369-1.002,0.369-1.528c0-0.844-0.316-1.793-1.16-2.162h0.053c-0.053-0.053-0.211-0.105-0.316-0.105
		c-0.632,0-0.843,0.791-1.001,1.266c0,0.738-1.582,0.791-2.267,0.844c-0.632,0-2.267,0-2.267-0.844c0-3.163,3.11-6.326,6.273-6.326
		c4.639,0,5.43,5.641,5.43,9.173c0,2.214-0.316,4.429-0.316,7.012V354.059z M126.75,349.104c0-1.266,0-3.69-1.371-4.218
		c-0.738,0-2.794,0.211-2.794,4.06v0.58c0,1.001,0.158,4.059,1.634,4.059C126.17,353.584,126.75,350.526,126.75,349.104z"/>
	<path fill="#001E39" d="M140.614,338.454c-2.267,0-3.058,8.487-3.058,10.333c0,1.634,0.474,5.271,2.741,5.271
		c1.423,0,1.529-1.845,2.794-1.845c0.686,0,1.371,0.633,1.845,1.107v-0.053c0.475,0.526,0.844,1.106,0.844,1.845
		c0,2.267-3.532,3.532-5.377,3.532c-6.484,0-6.906-6.537-6.906-11.124c0-4.217,0.264-12.916,6.432-13.971
		c1.16,0,6.273,0.896,6.273,3.374c0,1.213-1.423,2.004-2.161,2.742v-0.053c-0.211,0.211-0.475,0.369-0.791,0.369
		C142.143,339.983,141.563,338.454,140.614,338.454z"/>
	<path fill="#001E39" d="M160.171,334.764h-0.053c0.369-0.475,1.476-0.527,2.373-0.527c1.054,0,2.636-0.475,2.636,1.213
		c0,1.423-0.896,1.897-1.582,2.952v-0.053c-3.638,4.798-4.165,4.851-4.165,5.114c0,0,0.052,0.052,0.052,0.104
		c5.061,12.917,5.43,13.233,5.43,13.812c0,1.529-2.267,1.266-3.532,1.266c-0.421,0-0.738-0.211-0.949-0.633v0.053
		c-0.686-1.055-1.001-2.161-1.423-3.321c-0.896-2.372-1.898-4.691-3.058-6.906c-0.369,0.316-0.686,0.686-0.949,1.107
		c0.158,2.583,0.264,4.797,0.264,6.432c0,2.003-0.211,3.163-1.001,3.163c-0.791,0-2.636-0.158-3.69-0.158h-0.369
		c-0.158-0.211-0.211-0.422-0.211-0.58c0-5.588,0.422-11.123,0.422-16.712v-10.122c-0.105-3.954-0.105-4.428-0.105-4.797
		c0-0.896,1.107-1.107,1.792-1.107c1.371,0,2.214,0.264,3.163,0.264c-0.264,5.535-0.264,10.913-0.264,16.448
		C156.745,339.667,158.326,337.03,160.171,334.764z"/>
</g>
<g>
	<path fill="#001E39" d="M380.229,349.051c0.211-0.738,0.369-1.477,0.369-2.215c0-0.315,0.053-0.579-0.475-0.579
		c-0.738,0-1.476,0.158-2.214,0.158c-2.003,0-2.109-1.424-2.109-3.005c0-1.688,1.423-1.846,3.321-1.846h1.318
		c0.949,0,1.951-0.158,2.9-0.158c0.685,0,1.318,0.158,1.95,0.422c0.475,1.635,0.527,3.427,0.527,5.113
		c0,5.905-0.791,11.704-7.644,11.704c-9.542,0-8.646-10.649-8.751-17.187c-0.053-1.897-0.264-3.796-0.264-5.693
		c0-4.007,0.422-7.645,4.375-9.647v0.053c1.266-0.58,2.689-1.055,4.112-1.055c2.952,0,7.75,2.478,7.75,5.061
		c0,1.107-2.056,2.584-2.899,2.584c-0.738,0-3.269-2.215-4.428-2.531h0.053c-0.211,0-0.475-0.053-0.738-0.053
		c-3.058,0-3.058,2.32-3.058,4.64c0,2.583-0.105,5.167-0.105,7.75c0,2.847,0.158,6.01,0.475,8.856
		c0.158,1.318,0.738,2.688,2.688,2.688c2.583,0,2.425-3.374,2.899-5.113L380.229,349.051z"/>
	<path fill="#001E39" d="M394.409,332.55v0.105c0,0.211,0,0.422,0.053,0.633c1.212-0.527,1.265-0.791,2.742-0.791
		c2.688,0,3.795,1.317,5.219,3.374c0.211,0.316,0.316,0.633,0.316,1.001c0,0.527-0.316,1.002-0.738,1.318h0.053
		c-0.475,0.527-1.371,1.266-2.108,1.266c-0.158,0-0.316,0-0.475-0.053h0.053c-0.896-0.264-1.16-1.107-1.634-1.266l0.053,0.053
		c-0.422-0.264-0.896-0.316-1.371-0.316c-2.214,0-2.056,3.901-2.056,5.799c0,3.111,0.158,6.222,0.158,9.438
		c0,1.739-0.211,3.427-0.211,5.166c-0.791,0.316-1.423,0.316-2.162,0.316c-1.845,0-2.478-0.053-2.478-1.687
		c0-2.373,0.211-4.745,0.211-7.117v-9.543c0-2.267-0.422-4.639-0.422-6.801c0-1.792,2.425-1.581,3.585-1.581
		c0.264,0,0.527,0.053,0.791,0.158L394.409,332.55z"/>
	<path fill="#001E39" d="M408.009,327.172c1.318,0,2.268,0.949,2.268,2.057c0,0.843-0.686,2.583-2.636,2.583
		c-2.109,0-2.426-0.791-2.426-2.056c0-0.686,0.316-1.424,1.107-2.109C406.902,327.33,407.535,327.172,408.009,327.172z
		 M408.642,333.393c1.74,0,2.109,0.316,2.109,2.004c0,5.43-0.686,10.86-0.686,16.29c0,1.793,0.264,3.585,0.264,5.324
		c0,1.266-0.738,1.477-1.846,1.477c-0.633,0-1.317,0-1.95-0.211h0.053c-0.105,0-0.264-0.053-0.369-0.053
		c-0.158,0-0.316,0.053-0.475,0.053c-0.211-0.791-0.316-1.581-0.316-2.319c0-4.903,0.158-9.806,0.158-14.709
		c0-2.003-0.158-4.007-0.158-5.957c0-1.898,1.688-1.74,1.846-1.793L408.642,333.393z"/>
	<path fill="#001E39" d="M427.62,326.013c-0.053,0.685-0.053,1.37-0.053,2.056c0,1.371,0.053,2.741,0.053,4.112
		c0,5.377-0.369,10.702-0.369,16.079c0,2.372,0.105,4.692,0.105,7.064c0,1.002,0,1.95-0.053,2.952
		c-1.106,0.158-2.267,0.369-3.427,0.369c-0.474,0-1.001-0.105-1.423-0.422v-0.211c-0.369,0.211-0.791,0.264-1.266,0.264
		c-6.273,0-7.539-6.854-7.539-11.598c0-4.271-0.211-10.86,4.903-12.39H418.5c0.422-0.158,0.896-0.211,1.371-0.211
		c0.843,0,1.739,0.264,2.583,0.475c0-2.003,0.105-3.954,0.105-5.957c0-1.002-0.053-1.951-0.105-2.952
		c0.791-0.791,1.897-1.055,3.005-1.055c0.58,0,1.16,0.053,1.634,0.158C427.356,325.063,427.62,325.591,427.62,326.013z
		 M418.078,347.68c0,1.951,0.105,5.8,2.688,5.8c0.738,0,1.16-0.58,1.635-1.107c-0.158-0.791-0.264-1.74-0.264-2.741
		c0-2.637,0.422-5.747,0.422-7.855c0-1.055,0.369-2.583-2.268-2.583C418.131,339.192,418.078,345.729,418.078,347.68z"/>
</g>
<g>
	<path fill="#001E39" d="M634.529,347.416c0,1.266,0.105,2.479,0.105,3.638c0,2.057-0.053,4.112-0.158,6.168
		c-0.053,1.266-0.58,1.318-2.372,1.318c-1.16,0-2.373-0.158-2.373-1.529c0-8.118,0.686-16.237,0.686-24.355
		c0-1.951-0.105-3.954-0.105-5.905c0-3.269,3.005-3.005,6.326-3.005c8.436,0,8.699,6.326,8.699,13.443
		c0,4.64-0.58,9.227-7.117,9.227c-1.213,0-2.372-0.211-3.638-0.211C634.529,346.626,634.529,347.047,634.529,347.416z
		 M639.854,329.492h0.052c-0.948-0.738-2.372-0.949-3.479-0.949c-0.58,0-1.213,0.105-1.793,0.158
		c0.053,1.95,0.105,3.849,0.105,5.746c0,2.583-0.053,5.114-0.053,7.592h0.475c1.002,0,3.058,0.053,3.849-0.369
		c1.423-0.738,1.792-4.534,1.792-5.904C640.803,333.762,640.486,330.071,639.854,329.492z"/>
	<path fill="#001E39" d="M653.19,357.907c-1.106,0.053-2.319,0.211-3.427,0.369c-0.737-0.527-0.948-1.423-0.948-2.267
		c0-1.846,0.264-3.69,0.264-5.589c0-4.27,0.21-22.616,0.368-25.305l0.422-0.58c1.107-0.316,2.32-0.264,3.479-0.527
		c0.369,0.475,0.475,1.424,0.475,2.32c0,2.53-0.211,5.746-0.211,8.487C653.612,339.192,653.19,349.631,653.19,357.907z"/>
	<path fill="#001E39" d="M671.483,354.059c0,0.369,0.053,0.844,0.053,1.424c0,1.213-0.21,2.583-1.528,2.583
		c-0.58,0-1.16,0.422-1.793,0.422c-0.526,0-1.159-0.316-1.265-0.844c-0.791,0.369-1.688,0.791-2.583,0.791
		c-4.64,0-6.59-5.799-6.59-9.806c0-3.163,1.581-8.172,5.535-8.172c1.002,0,2.108,0.316,3.374,1.002
		c0.264-0.475,0.369-1.002,0.369-1.528c0-0.844-0.316-1.793-1.16-2.162h0.053c-0.053-0.053-0.211-0.105-0.316-0.105
		c-0.633,0-0.844,0.791-1.001,1.266c0,0.738-1.582,0.791-2.268,0.844c-0.633,0-2.267,0-2.267-0.844c0-3.163,3.11-6.326,6.273-6.326
		c4.64,0,5.43,5.641,5.43,9.173c0,2.214-0.316,4.429-0.316,7.012V354.059z M666.95,349.104c0-1.266,0-3.69-1.371-4.218
		c-0.738,0-2.794,0.211-2.794,4.06v0.58c0,1.001,0.158,4.059,1.635,4.059C666.37,353.584,666.95,350.526,666.95,349.104z"/>
	<path fill="#001E39" d="M680.813,338.454c-2.267,0-3.058,8.487-3.058,10.333c0,1.634,0.475,5.271,2.741,5.271
		c1.424,0,1.529-1.845,2.795-1.845c0.685,0,1.37,0.633,1.845,1.107v-0.053c0.475,0.526,0.844,1.106,0.844,1.845
		c0,2.267-3.532,3.532-5.378,3.532c-6.484,0-6.906-6.537-6.906-11.124c0-4.217,0.264-12.916,6.433-13.971
		c1.159,0,6.273,0.896,6.273,3.374c0,1.213-1.424,2.004-2.162,2.742v-0.053c-0.211,0.211-0.474,0.369-0.79,0.369
		C682.343,339.983,681.763,338.454,680.813,338.454z"/>
	<path fill="#001E39" d="M701.742,351.897c0,3.954-3.585,6.748-7.381,6.748c-6.484,0-7.011-8.909-7.011-13.654
		c0-4.903,1.792-11.599,7.802-11.599c6.273,0,6.062,7.592,6.062,12.337c0,1.528-5.113,1.739-8.909,1.739v1.002
		c0,1.477,0.105,5.166,2.214,5.166c1.951,0,2.109-2.688,2.426-4.111C698.263,349.525,701.742,350.105,701.742,351.897z
		 M692.464,342.461c0.527,0.105,1.055,0.105,1.582,0.105c1.001,0,1.897-0.105,2.847-0.264c0-0.949-0.527-4.112-1.846-4.112
		C693.097,338.19,692.622,340.984,692.464,342.461z"/>
</g>
<g>
	<path fill="#001E39" d="M60.926,381.078c0.857,0,1.641,0.142,2.353,0.425c0.712,0.283,1.325,0.702,1.839,1.256
		c1.081,1.159,1.621,2.82,1.621,4.981c0,2.175-0.541,3.854-1.621,5.041c-1.028,1.107-2.432,1.66-4.211,1.66
		c-1.766,0-3.163-0.566-4.191-1.7c-1.081-1.173-1.621-2.84-1.621-5.001c0-2.188,0.54-3.861,1.621-5.021
		C57.73,381.625,59.134,381.078,60.926,381.078z M64.327,387.77c0-1.469-0.306-2.603-0.919-3.4c-0.613-0.797-1.44-1.195-2.481-1.195
		s-1.871,0.398-2.491,1.195c-0.62,0.798-0.929,1.932-0.929,3.4c0,1.47,0.31,2.597,0.929,3.381s1.45,1.176,2.491,1.176
		s1.868-0.392,2.481-1.176C64.021,390.366,64.327,389.239,64.327,387.77z"/>
	<path fill="#001E39" d="M71.068,386.218c0.632-1.278,1.647-1.917,3.044-1.917c1.186,0,2.079,0.389,2.679,1.166
		c0.6,0.777,0.899,1.806,0.899,3.084v5.614h-2.333v-5.614c0-0.712-0.171-1.249-0.514-1.611c-0.343-0.362-0.824-0.544-1.443-0.544
		s-1.15,0.277-1.591,0.831c-0.442,0.553-0.676,1.384-0.702,2.49v4.448h-2.333v-9.607h2.036L71.068,386.218z"/>
	<path fill="#001E39" d="M87.802,387.167c0.165,0.554,0.247,1.061,0.247,1.522c0,0.461-0.027,0.876-0.079,1.245h-6.208
		c0.026,0.777,0.217,1.41,0.573,1.897c0.356,0.488,0.896,0.731,1.621,0.731c0.962,0,1.535-0.421,1.72-1.265h2.353
		c-0.158,0.962-0.6,1.72-1.324,2.273c-0.751,0.58-1.667,0.869-2.748,0.869c-1.265,0-2.326-0.461-3.183-1.384
		c-0.883-0.962-1.324-2.194-1.324-3.696c0-1.542,0.441-2.78,1.324-3.717c0.844-0.896,1.905-1.344,3.183-1.344
		c1.331,0,2.365,0.468,3.104,1.403C87.39,386.126,87.637,386.613,87.802,387.167z M83.977,386.158c-0.659,0-1.173,0.215-1.542,0.643
		c-0.369,0.429-0.586,0.979-0.652,1.651h4.092c0-1.041-0.33-1.74-0.988-2.096C84.636,386.225,84.333,386.158,83.977,386.158z"/>
	<path fill="#001E39" d="M97.538,388.551c0.764,0,1.647,0.125,2.649,0.376v-0.949c0-0.672-0.135-1.17-0.405-1.493
		c-0.27-0.322-0.711-0.484-1.324-0.484s-1.084,0.122-1.414,0.366c-0.33,0.244-0.494,0.59-0.494,1.038H94
		c0-1.094,0.386-1.885,1.156-2.372c0.771-0.488,1.849-0.731,3.232-0.731c1.977,0,3.255,0.691,3.835,2.075
		c0.197,0.475,0.296,1.035,0.296,1.681v6.108h-2.036l-0.178-1.285c-0.62,1.041-1.568,1.562-2.847,1.562
		c-1.239,0-2.201-0.303-2.886-0.909c-0.632-0.579-0.949-1.314-0.949-2.204s0.349-1.574,1.048-2.056
		C95.37,388.791,96.326,388.551,97.538,388.551z M100.187,390.409c-0.778-0.211-1.502-0.316-2.174-0.316
		c-1.265,0-1.898,0.422-1.898,1.265c0,0.356,0.145,0.663,0.435,0.92c0.29,0.257,0.754,0.386,1.394,0.386s1.167-0.215,1.582-0.643
		C99.94,391.592,100.161,391.055,100.187,390.409z"/>
	<path fill="#001E39" d="M104.141,384.558h1.424v-1.127c0-0.988,0.29-1.746,0.87-2.273c0.527-0.475,1.212-0.712,2.056-0.712
		c0.54,0,1.206,0.079,1.997,0.237l-0.455,1.799c-0.369-0.132-0.702-0.197-0.999-0.197s-0.557,0.082-0.781,0.247
		c-0.225,0.165-0.336,0.471-0.336,0.919v1.107h1.76v1.562h-1.76v8.046h-2.352v-8.046h-1.424V384.558z"/>
	<path fill="#001E39" d="M117.109,393.928c-0.87,0.343-1.556,0.514-2.056,0.514c-0.501,0-0.939-0.059-1.314-0.178
		c-0.376-0.118-0.709-0.296-0.999-0.533c-0.606-0.541-0.909-1.285-0.909-2.234v-5.377h-1.344v-1.562h1.344v-2.53h2.333v2.53h2.609
		v1.562h-2.609v5.298c0,0.791,0.375,1.187,1.127,1.187c0.382,0,0.876-0.105,1.482-0.316L117.109,393.928z"/>
	<path fill="#001E39" d="M126.213,387.167c0.165,0.554,0.247,1.061,0.247,1.522c0,0.461-0.027,0.876-0.079,1.245h-6.208
		c0.026,0.777,0.217,1.41,0.573,1.897c0.356,0.488,0.896,0.731,1.621,0.731c0.962,0,1.535-0.421,1.72-1.265h2.353
		c-0.158,0.962-0.6,1.72-1.324,2.273c-0.751,0.58-1.667,0.869-2.748,0.869c-1.265,0-2.326-0.461-3.183-1.384
		c-0.883-0.962-1.324-2.194-1.324-3.696c0-1.542,0.441-2.78,1.324-3.717c0.844-0.896,1.905-1.344,3.183-1.344
		c1.331,0,2.365,0.468,3.104,1.403C125.801,386.126,126.048,386.613,126.213,387.167z M122.387,386.158
		c-0.659,0-1.173,0.215-1.542,0.643c-0.369,0.429-0.586,0.979-0.652,1.651h4.092c0-1.041-0.33-1.74-0.988-2.096
		C123.046,386.225,122.743,386.158,122.387,386.158z"/>
	<path fill="#001E39" d="M130.849,386.455c0.58-1.384,1.45-2.075,2.609-2.075c0.224,0,0.507,0.046,0.85,0.138l-0.04,2.333
		c-0.369-0.079-0.731-0.119-1.087-0.119c-1.555,0-2.333,1.075-2.333,3.223v4.211h-2.333v-9.628h2.333V386.455z"/>
	<path fill="#001E39" d="M143.441,388.551c0.764,0,1.647,0.125,2.649,0.376v-0.949c0-0.672-0.135-1.17-0.405-1.493
		c-0.27-0.322-0.711-0.484-1.324-0.484s-1.084,0.122-1.414,0.366c-0.33,0.244-0.494,0.59-0.494,1.038h-2.55
		c0-1.094,0.386-1.885,1.156-2.372c0.771-0.488,1.849-0.731,3.232-0.731c1.977,0,3.255,0.691,3.835,2.075
		c0.197,0.475,0.296,1.035,0.296,1.681v6.108h-2.036l-0.178-1.285c-0.62,1.041-1.568,1.562-2.847,1.562
		c-1.239,0-2.201-0.303-2.886-0.909c-0.632-0.579-0.949-1.314-0.949-2.204s0.349-1.574,1.048-2.056
		C141.273,388.791,142.229,388.551,143.441,388.551z M146.09,390.409c-0.778-0.211-1.502-0.316-2.174-0.316
		c-1.265,0-1.898,0.422-1.898,1.265c0,0.356,0.145,0.663,0.435,0.92c0.29,0.257,0.754,0.386,1.394,0.386s1.167-0.215,1.582-0.643
		C145.843,391.592,146.063,391.055,146.09,390.409z"/>
	<path fill="#001E39" d="M153.385,386.218c0.632-1.278,1.647-1.917,3.044-1.917c1.186,0,2.079,0.389,2.679,1.166
		c0.6,0.777,0.899,1.806,0.899,3.084v5.614h-2.333v-5.614c0-0.712-0.171-1.249-0.514-1.611c-0.343-0.362-0.824-0.544-1.443-0.544
		s-1.15,0.277-1.591,0.831c-0.442,0.553-0.676,1.384-0.702,2.49v4.448h-2.333v-9.607h2.036L153.385,386.218z"/>
	<path fill="#001E39" d="M166.452,384.301c0.646,0,1.252,0.102,1.819,0.306c0.566,0.205,1.054,0.518,1.463,0.939
		c0.909,0.923,1.364,2.201,1.364,3.835c0,1.608-0.455,2.873-1.364,3.796c-0.817,0.844-1.911,1.265-3.282,1.265
		s-2.478-0.421-3.321-1.265c-0.909-0.909-1.364-2.175-1.364-3.796c0-1.647,0.455-2.926,1.364-3.835
		C163.961,384.716,165.068,384.301,166.452,384.301z M168.765,389.361c0-1.015-0.198-1.776-0.593-2.283
		c-0.396-0.508-0.946-0.762-1.651-0.762s-1.282,0.254-1.73,0.762c-0.448,0.507-0.672,1.269-0.672,2.283s0.201,1.776,0.603,2.283
		c0.402,0.508,0.952,0.761,1.65,0.761s1.272-0.253,1.72-0.761C168.541,391.138,168.765,390.376,168.765,389.361z"/>
	<path fill="#001E39" d="M178.55,393.928c-0.87,0.343-1.556,0.514-2.056,0.514c-0.501,0-0.939-0.059-1.314-0.178
		c-0.376-0.118-0.709-0.296-0.999-0.533c-0.606-0.541-0.909-1.285-0.909-2.234v-5.377h-1.344v-1.562h1.344v-2.53h2.333v2.53h2.609
		v1.562h-2.609v5.298c0,0.791,0.375,1.187,1.127,1.187c0.382,0,0.876-0.105,1.482-0.316L178.55,393.928z"/>
	<path fill="#001E39" d="M182.543,386.119c0.659-1.213,1.621-1.818,2.886-1.818s2.197,0.389,2.797,1.166
		c0.6,0.777,0.899,1.806,0.899,3.084v5.614h-2.333v-5.614c0-0.712-0.171-1.249-0.514-1.611c-0.343-0.362-0.824-0.544-1.443-0.544
		s-1.15,0.277-1.591,0.831c-0.442,0.553-0.676,1.384-0.702,2.49v4.448h-2.333v-13.562h2.333V386.119z"/>
	<path fill="#001E39" d="M199.238,387.167c0.165,0.554,0.247,1.061,0.247,1.522c0,0.461-0.027,0.876-0.079,1.245h-6.208
		c0.026,0.777,0.217,1.41,0.573,1.897c0.356,0.488,0.896,0.731,1.621,0.731c0.962,0,1.535-0.421,1.72-1.265h2.353
		c-0.158,0.962-0.6,1.72-1.324,2.273c-0.751,0.58-1.667,0.869-2.748,0.869c-1.265,0-2.326-0.461-3.183-1.384
		c-0.883-0.962-1.324-2.194-1.324-3.696c0-1.542,0.441-2.78,1.324-3.717c0.844-0.896,1.905-1.344,3.183-1.344
		c1.331,0,2.365,0.468,3.104,1.403C198.826,386.126,199.073,386.613,199.238,387.167z M195.413,386.158
		c-0.659,0-1.173,0.215-1.542,0.643c-0.369,0.429-0.586,0.979-0.652,1.651h4.092c0-1.041-0.33-1.74-0.988-2.096
		C196.072,386.225,195.769,386.158,195.413,386.158z"/>
	<path fill="#001E39" d="M203.874,386.455c0.58-1.384,1.45-2.075,2.609-2.075c0.224,0,0.507,0.046,0.85,0.138l-0.04,2.333
		c-0.369-0.079-0.731-0.119-1.087-0.119c-1.555,0-2.333,1.075-2.333,3.223v4.211h-2.333v-9.628h2.333V386.455z"/>
	<path fill="#001E39" d="M208.549,393.819c-0.257-0.23-0.385-0.54-0.385-0.93c0-0.389,0.151-0.722,0.455-0.998
		s0.718-0.415,1.246-0.415c0.527,0,0.955,0.204,1.285,0.612c0.33,0.409,0.495,0.91,0.495,1.503c0,0.962-0.435,1.839-1.305,2.629
		c-0.276,0.251-0.586,0.462-0.929,0.633l-1.74-0.87c0.435-0.224,0.82-0.474,1.156-0.751c0.336-0.276,0.557-0.6,0.662-0.969
		C209.119,394.198,208.806,394.05,208.549,393.819z"/>
	<path fill="#001E39" d="M30.493,408.28l2.194,7.295l2.214-7.295h2.688l-3.578,9.607h-2.629l-3.578-9.607H30.493z"/>
	<path fill="#001E39" d="M46.377,410.89c0.165,0.554,0.247,1.061,0.247,1.522c0,0.461-0.027,0.876-0.079,1.245h-6.208
		c0.026,0.777,0.217,1.41,0.573,1.897c0.356,0.488,0.896,0.731,1.621,0.731c0.962,0,1.535-0.421,1.72-1.265h2.353
		c-0.158,0.962-0.6,1.72-1.324,2.273c-0.751,0.58-1.667,0.869-2.748,0.869c-1.265,0-2.326-0.461-3.183-1.384
		c-0.883-0.962-1.324-2.194-1.324-3.696c0-1.542,0.441-2.78,1.324-3.717c0.844-0.896,1.905-1.344,3.183-1.344
		c1.331,0,2.365,0.468,3.104,1.403C45.965,409.849,46.212,410.336,46.377,410.89z M42.552,409.881c-0.659,0-1.173,0.215-1.542,0.643
		c-0.369,0.429-0.586,0.979-0.652,1.651h4.092c0-1.041-0.33-1.74-0.988-2.096C43.211,409.947,42.908,409.881,42.552,409.881z"/>
	<path fill="#001E39" d="M51.013,410.178c0.58-1.384,1.45-2.075,2.609-2.075c0.224,0,0.507,0.046,0.85,0.138l-0.04,2.333
		c-0.369-0.079-0.731-0.119-1.087-0.119c-1.555,0-2.333,1.075-2.333,3.223v4.211H48.68v-9.628h2.333V410.178z"/>
	<path fill="#001E39" d="M61.589,417.65c-0.87,0.343-1.556,0.514-2.056,0.514c-0.501,0-0.939-0.059-1.314-0.178
		c-0.376-0.118-0.709-0.296-0.999-0.533c-0.606-0.541-0.909-1.285-0.909-2.234v-5.377h-1.344v-1.562h1.344v-2.53h2.333v2.53h2.609
		v1.562h-2.609v5.298c0,0.791,0.375,1.187,1.127,1.187c0.382,0,0.876-0.105,1.482-0.316L61.589,417.65z"/>
	<path fill="#001E39" d="M63.17,405.177c0-0.422,0.125-0.755,0.376-0.999c0.25-0.243,0.606-0.365,1.067-0.365
		c0.448,0,0.801,0.122,1.058,0.365c0.257,0.244,0.385,0.577,0.385,0.999s-0.128,0.754-0.385,0.998s-0.61,0.365-1.058,0.365
		c-0.461,0-0.817-0.121-1.067-0.365C63.296,405.931,63.17,405.599,63.17,405.177z M63.447,408.26h2.333v9.628h-2.333V408.26z"/>
	<path fill="#001E39" d="M72.659,408.023c0.606,0,1.15,0.102,1.631,0.306c0.481,0.205,0.886,0.472,1.216,0.801
		c0.659,0.633,1.048,1.431,1.167,2.393l-2.353,0.059c-0.105-0.421-0.3-0.771-0.583-1.048c-0.284-0.276-0.61-0.415-0.979-0.415
		c-0.369,0-0.686,0.057-0.949,0.168c-0.264,0.112-0.494,0.287-0.692,0.524c-0.448,0.554-0.672,1.318-0.672,2.293
		c0,0.976,0.21,1.71,0.632,2.204s0.933,0.741,1.532,0.741s1.035-0.142,1.305-0.425s0.405-0.669,0.405-1.156h2.353
		c0,1.055-0.349,1.931-1.048,2.629c-0.711,0.712-1.707,1.067-2.985,1.067c-1.265,0-2.326-0.461-3.183-1.384
		c-0.909-0.988-1.364-2.221-1.364-3.696c0-1.555,0.455-2.801,1.364-3.736C70.313,408.465,71.381,408.023,72.659,408.023z"/>
	<path fill="#001E39" d="M81.911,412.273c0.764,0,1.647,0.125,2.649,0.376V411.7c0-0.672-0.135-1.17-0.405-1.493
		c-0.27-0.322-0.711-0.484-1.324-0.484s-1.084,0.122-1.414,0.366c-0.33,0.244-0.494,0.59-0.494,1.038h-2.55
		c0-1.094,0.386-1.885,1.156-2.372c0.771-0.488,1.849-0.731,3.232-0.731c1.977,0,3.255,0.691,3.835,2.075
		c0.197,0.475,0.296,1.035,0.296,1.681v6.108h-2.036l-0.178-1.285c-0.62,1.041-1.568,1.562-2.847,1.562
		c-1.239,0-2.201-0.303-2.886-0.909c-0.632-0.579-0.949-1.314-0.949-2.204s0.349-1.574,1.048-2.056
		C79.743,412.514,80.699,412.273,81.911,412.273z M84.56,414.132c-0.778-0.211-1.502-0.316-2.174-0.316
		c-1.265,0-1.898,0.422-1.898,1.265c0,0.356,0.145,0.663,0.435,0.92c0.29,0.257,0.754,0.386,1.394,0.386s1.167-0.215,1.582-0.643
		C84.313,415.314,84.534,414.777,84.56,414.132z"/>
	<path fill="#001E39" d="M89.562,404.326h2.333v13.562h-2.333V404.326z"/>
	<path fill="#001E39" d="M94.839,404.326h2.333v13.562h-2.333V404.326z"/>
	<path fill="#001E39" d="M101.303,408.28l2.313,6.919l2.017-6.919h2.372l-3.677,11.347c-0.382,1.147-0.847,1.971-1.394,2.472
		c-0.547,0.501-1.243,0.751-2.086,0.751c-0.857,0-1.713-0.211-2.57-0.633v-2.056c0.685,0.435,1.377,0.652,2.076,0.652
		c0.461,0,0.84-0.185,1.137-0.554s0.537-0.85,0.722-1.443l0.296-0.929l-3.855-9.607H101.303z"/>
	<path fill="#001E39" d="M117.395,408.023c0.646,0,1.252,0.102,1.819,0.306c0.566,0.205,1.054,0.518,1.463,0.939
		c0.909,0.923,1.364,2.201,1.364,3.835c0,1.608-0.455,2.873-1.364,3.796c-0.817,0.844-1.911,1.265-3.282,1.265
		s-2.478-0.421-3.321-1.265c-0.909-0.909-1.364-2.175-1.364-3.796c0-1.647,0.455-2.926,1.364-3.835
		C114.904,408.438,116.011,408.023,117.395,408.023z M119.708,413.084c0-1.015-0.198-1.776-0.593-2.283
		c-0.396-0.508-0.946-0.762-1.651-0.762s-1.282,0.254-1.73,0.762c-0.448,0.507-0.672,1.269-0.672,2.283s0.201,1.776,0.603,2.283
		c0.402,0.508,0.952,0.761,1.65,0.761s1.272-0.253,1.72-0.761C119.484,414.86,119.708,414.099,119.708,413.084z"/>
	<path fill="#001E39" d="M126.41,410.178c0.58-1.384,1.45-2.075,2.609-2.075c0.224,0,0.507,0.046,0.85,0.138l-0.04,2.333
		c-0.369-0.079-0.731-0.119-1.087-0.119c-1.555,0-2.333,1.075-2.333,3.223v4.211h-2.333v-9.628h2.333V410.178z"/>
	<path fill="#001E39" d="M138.172,409.842c0.659-1.213,1.621-1.818,2.886-1.818s2.197,0.389,2.797,1.166
		c0.6,0.777,0.899,1.806,0.899,3.084v5.614h-2.333v-5.614c0-0.712-0.171-1.249-0.514-1.611c-0.343-0.362-0.824-0.544-1.443-0.544
		s-1.15,0.277-1.591,0.831c-0.442,0.553-0.676,1.384-0.702,2.49v4.448h-2.333v-13.562h2.333V409.842z"/>
	<path fill="#001E39" d="M151.199,408.023c0.646,0,1.252,0.102,1.819,0.306c0.566,0.205,1.054,0.518,1.463,0.939
		c0.909,0.923,1.364,2.201,1.364,3.835c0,1.608-0.455,2.873-1.364,3.796c-0.817,0.844-1.911,1.265-3.282,1.265
		s-2.478-0.421-3.321-1.265c-0.909-0.909-1.364-2.175-1.364-3.796c0-1.647,0.455-2.926,1.364-3.835
		C148.708,408.438,149.815,408.023,151.199,408.023z M153.512,413.084c0-1.015-0.198-1.776-0.593-2.283
		c-0.396-0.508-0.946-0.762-1.651-0.762s-1.282,0.254-1.73,0.762c-0.448,0.507-0.672,1.269-0.672,2.283s0.201,1.776,0.603,2.283
		c0.402,0.508,0.952,0.761,1.65,0.761s1.272-0.253,1.72-0.761C153.288,414.86,153.512,414.099,153.512,413.084z"/>
	<path fill="#001E39" d="M160.214,410.178c0.58-1.384,1.45-2.075,2.609-2.075c0.224,0,0.507,0.046,0.85,0.138l-0.04,2.333
		c-0.369-0.079-0.731-0.119-1.087-0.119c-1.555,0-2.333,1.075-2.333,3.223v4.211h-2.333v-9.628h2.333V410.178z"/>
	<path fill="#001E39" d="M165.294,405.177c0-0.422,0.125-0.755,0.376-0.999c0.25-0.243,0.606-0.365,1.067-0.365
		c0.448,0,0.801,0.122,1.058,0.365c0.257,0.244,0.385,0.577,0.385,0.999s-0.128,0.754-0.385,0.998s-0.61,0.365-1.058,0.365
		c-0.461,0-0.817-0.121-1.067-0.365C165.419,405.931,165.294,405.599,165.294,405.177z M165.571,408.26h2.333v9.628h-2.333V408.26z"
		/>
	<path fill="#001E39" d="M170.414,415.99l4.981-5.812h-4.981v-1.897h7.552v1.897l-4.824,5.812h4.824v1.897h-7.552V415.99z"/>
	<path fill="#001E39" d="M183.956,408.023c0.646,0,1.252,0.102,1.819,0.306c0.566,0.205,1.054,0.518,1.463,0.939
		c0.909,0.923,1.364,2.201,1.364,3.835c0,1.608-0.455,2.873-1.364,3.796c-0.817,0.844-1.911,1.265-3.282,1.265
		s-2.478-0.421-3.321-1.265c-0.909-0.909-1.364-2.175-1.364-3.796c0-1.647,0.455-2.926,1.364-3.835
		C181.465,408.438,182.572,408.023,183.956,408.023z M186.269,413.084c0-1.015-0.198-1.776-0.593-2.283
		c-0.396-0.508-0.946-0.762-1.651-0.762s-1.282,0.254-1.73,0.762c-0.448,0.507-0.672,1.269-0.672,2.283s0.201,1.776,0.603,2.283
		c0.402,0.508,0.952,0.761,1.65,0.761s1.272-0.253,1.72-0.761C186.044,414.86,186.269,414.099,186.269,413.084z"/>
	<path fill="#001E39" d="M192.931,409.94c0.632-1.278,1.647-1.917,3.044-1.917c1.186,0,2.079,0.389,2.679,1.166
		c0.6,0.777,0.899,1.806,0.899,3.084v5.614h-2.333v-5.614c0-0.712-0.171-1.249-0.514-1.611c-0.343-0.362-0.824-0.544-1.443-0.544
		s-1.15,0.277-1.591,0.831c-0.442,0.553-0.676,1.384-0.702,2.49v4.448h-2.333v-9.607h2.036L192.931,409.94z"/>
	<path fill="#001E39" d="M207.639,417.65c-0.87,0.343-1.556,0.514-2.056,0.514c-0.501,0-0.939-0.059-1.314-0.178
		c-0.376-0.118-0.709-0.296-0.999-0.533c-0.606-0.541-0.909-1.285-0.909-2.234v-5.377h-1.344v-1.562h1.344v-2.53h2.333v2.53h2.609
		v1.562h-2.609v5.298c0,0.791,0.375,1.187,1.127,1.187c0.382,0,0.876-0.105,1.482-0.316L207.639,417.65z"/>
	<path fill="#001E39" d="M212.462,412.273c0.764,0,1.647,0.125,2.649,0.376V411.7c0-0.672-0.135-1.17-0.405-1.493
		c-0.27-0.322-0.711-0.484-1.324-0.484s-1.084,0.122-1.414,0.366c-0.33,0.244-0.494,0.59-0.494,1.038h-2.55
		c0-1.094,0.386-1.885,1.156-2.372c0.771-0.488,1.849-0.731,3.232-0.731c1.977,0,3.255,0.691,3.835,2.075
		c0.197,0.475,0.296,1.035,0.296,1.681v6.108h-2.036l-0.178-1.285c-0.62,1.041-1.568,1.562-2.847,1.562
		c-1.239,0-2.201-0.303-2.886-0.909c-0.632-0.579-0.949-1.314-0.949-2.204s0.349-1.574,1.048-2.056
		C210.294,412.514,211.25,412.273,212.462,412.273z M215.111,414.132c-0.778-0.211-1.502-0.316-2.174-0.316
		c-1.265,0-1.898,0.422-1.898,1.265c0,0.356,0.145,0.663,0.435,0.92c0.29,0.257,0.754,0.386,1.394,0.386s1.167-0.215,1.582-0.643
		C214.864,415.314,215.084,414.777,215.111,414.132z"/>
	<path fill="#001E39" d="M220.112,404.326h2.333v13.562h-2.333V404.326z"/>
	<path fill="#001E39" d="M225.39,404.326h2.333v13.562h-2.333V404.326z"/>
	<path fill="#001E39" d="M231.854,408.28l2.313,6.919l2.017-6.919h2.372l-3.677,11.347c-0.382,1.147-0.847,1.971-1.394,2.472
		c-0.547,0.501-1.243,0.751-2.086,0.751c-0.857,0-1.713-0.211-2.57-0.633v-2.056c0.685,0.435,1.377,0.652,2.076,0.652
		c0.461,0,0.84-0.185,1.137-0.554s0.537-0.85,0.722-1.443l0.296-0.929l-3.855-9.607H231.854z"/>
</g>
<g>
	<path fill="#001E39" d="M307.853,381.335h2.926l4.211,12.83h-2.471l-0.89-2.768h-4.764l-0.909,2.768h-2.471L307.853,381.335z
		 M307.458,389.638h3.598l-1.779-5.516L307.458,389.638z"/>
	<path fill="#001E39" d="M317.835,391.239c0.026,0.909,0.692,1.364,1.997,1.364c0.5,0,0.912-0.109,1.235-0.326
		c0.323-0.218,0.484-0.472,0.484-0.762c0-0.289-0.099-0.514-0.296-0.672c-0.198-0.158-0.508-0.303-0.929-0.435l-2.096-0.751
		c-1.555-0.541-2.333-1.424-2.333-2.649c0-0.817,0.366-1.473,1.097-1.967s1.713-0.741,2.945-0.741s2.181,0.27,2.847,0.811
		c0.666,0.54,1.011,1.219,1.038,2.036h-2.194c-0.027-0.316-0.178-0.566-0.455-0.752c-0.277-0.184-0.672-0.276-1.187-0.276
		c-0.514,0-0.913,0.103-1.196,0.307c-0.284,0.204-0.425,0.438-0.425,0.701c0,0.462,0.388,0.805,1.166,1.028l2.273,0.85
		c0.751,0.251,1.328,0.57,1.73,0.959c0.402,0.39,0.603,0.894,0.603,1.513c0,0.791-0.376,1.477-1.127,2.056
		c-0.778,0.606-1.806,0.909-3.084,0.909s-2.307-0.279-3.084-0.84c-0.778-0.56-1.173-1.348-1.186-2.362H317.835z"/>
	<path fill="#001E39" d="M327.522,391.239c0.026,0.909,0.692,1.364,1.997,1.364c0.5,0,0.912-0.109,1.235-0.326
		c0.323-0.218,0.484-0.472,0.484-0.762c0-0.289-0.099-0.514-0.296-0.672c-0.198-0.158-0.508-0.303-0.929-0.435l-2.096-0.751
		c-1.555-0.541-2.333-1.424-2.333-2.649c0-0.817,0.366-1.473,1.097-1.967s1.713-0.741,2.945-0.741s2.181,0.27,2.847,0.811
		c0.666,0.54,1.011,1.219,1.038,2.036h-2.194c-0.027-0.316-0.178-0.566-0.455-0.752c-0.277-0.184-0.672-0.276-1.187-0.276
		c-0.514,0-0.913,0.103-1.196,0.307c-0.284,0.204-0.425,0.438-0.425,0.701c0,0.462,0.388,0.805,1.166,1.028l2.273,0.85
		c0.751,0.251,1.328,0.57,1.73,0.959c0.402,0.39,0.603,0.894,0.603,1.513c0,0.791-0.376,1.477-1.127,2.056
		c-0.778,0.606-1.806,0.909-3.084,0.909s-2.307-0.279-3.084-0.84c-0.778-0.56-1.173-1.348-1.186-2.362H327.522z"/>
	<path fill="#001E39" d="M335.825,381.454c0-0.422,0.125-0.755,0.376-0.999c0.25-0.243,0.606-0.365,1.067-0.365
		c0.448,0,0.801,0.122,1.058,0.365c0.257,0.244,0.385,0.577,0.385,0.999s-0.128,0.754-0.385,0.998s-0.61,0.365-1.058,0.365
		c-0.461,0-0.817-0.121-1.067-0.365C335.95,382.208,335.825,381.876,335.825,381.454z M336.102,384.537h2.333v9.628h-2.333V384.537z
		"/>
	<path fill="#001E39" d="M342.487,390.231c-0.778-0.659-1.167-1.483-1.167-2.472c0-1.041,0.408-1.885,1.226-2.53
		c0.791-0.619,1.697-0.929,2.718-0.929c1.021,0,1.875,0.19,2.56,0.573c0.079-0.752,0.402-1.357,0.969-1.819
		c0.554-0.461,1.206-0.691,1.957-0.691l-0.119,2.233c-1.133,0-1.72,0.376-1.759,1.127c0.487,0.606,0.731,1.226,0.731,1.858
		s-0.112,1.163-0.336,1.592c-0.225,0.428-0.527,0.787-0.91,1.077c-0.791,0.633-1.753,0.948-2.886,0.948
		c-0.646,0-1.232-0.099-1.759-0.296c-0.527,0.158-0.791,0.475-0.791,0.949c0,0.593,0.501,0.889,1.502,0.889h3.223
		c2.188,0,3.282,0.765,3.282,2.294c0,0.514-0.129,1.018-0.386,1.512s-0.629,0.933-1.117,1.315c-1.081,0.843-2.438,1.265-4.073,1.265
		c-1.582,0-2.866-0.323-3.855-0.969c-0.922-0.619-1.384-1.377-1.384-2.273c0-0.593,0.181-1.064,0.544-1.413
		c0.362-0.35,0.84-0.57,1.433-0.662c-0.778-0.475-1.167-1.062-1.167-1.76c0-0.461,0.145-0.847,0.435-1.156
		C341.649,390.584,342.025,390.363,342.487,390.231z M344.266,394.383c-1.239,0.052-1.858,0.521-1.858,1.403
		c0,0.448,0.26,0.807,0.781,1.077c0.521,0.271,1.137,0.405,1.849,0.405c0.711,0,1.268-0.06,1.67-0.178
		c0.402-0.118,0.741-0.276,1.018-0.475c0.593-0.396,0.89-0.87,0.89-1.423c0-0.237-0.083-0.433-0.247-0.584
		c-0.165-0.151-0.405-0.227-0.722-0.227H344.266z M347.291,387.73c0-0.534-0.148-0.969-0.445-1.305s-0.748-0.504-1.354-0.504
		c-0.606,0-1.068,0.168-1.384,0.504c-0.316,0.336-0.475,0.771-0.475,1.305c0,0.533,0.158,0.972,0.475,1.314
		c0.316,0.343,0.777,0.514,1.384,0.514c0.606,0,1.058-0.171,1.354-0.514S347.291,388.264,347.291,387.73z"/>
	<path fill="#001E39" d="M354.724,386.218c0.632-1.278,1.647-1.917,3.044-1.917c1.186,0,2.079,0.389,2.679,1.166
		c0.6,0.777,0.899,1.806,0.899,3.084v5.614h-2.333v-5.614c0-0.712-0.171-1.249-0.514-1.611c-0.343-0.362-0.824-0.544-1.443-0.544
		s-1.15,0.277-1.591,0.831c-0.442,0.553-0.676,1.384-0.702,2.49v4.448h-2.333v-9.607h2.036L354.724,386.218z"/>
	<path fill="#001E39" d="M371.458,387.167c0.165,0.554,0.247,1.061,0.247,1.522c0,0.461-0.027,0.876-0.079,1.245h-6.208
		c0.026,0.777,0.217,1.41,0.573,1.897c0.356,0.488,0.896,0.731,1.621,0.731c0.962,0,1.535-0.421,1.72-1.265h2.353
		c-0.158,0.962-0.6,1.72-1.324,2.273c-0.751,0.58-1.667,0.869-2.748,0.869c-1.265,0-2.326-0.461-3.183-1.384
		c-0.883-0.962-1.324-2.194-1.324-3.696c0-1.542,0.441-2.78,1.324-3.717c0.844-0.896,1.905-1.344,3.183-1.344
		c1.331,0,2.365,0.468,3.104,1.403C371.046,386.126,371.293,386.613,371.458,387.167z M367.632,386.158
		c-0.659,0-1.173,0.215-1.542,0.643c-0.369,0.429-0.586,0.979-0.652,1.651h4.092c0-1.041-0.33-1.74-0.988-2.096
		C368.292,386.225,367.988,386.158,367.632,386.158z"/>
	<path fill="#001E39" d="M380.028,392.683c-0.593,1.173-1.502,1.759-2.729,1.759c-1.226,0-2.253-0.467-3.084-1.403
		c-0.856-0.975-1.285-2.214-1.285-3.717c0-1.502,0.408-2.721,1.226-3.657c0.804-0.909,1.806-1.363,3.005-1.363
		s2.102,0.48,2.708,1.442v-5.14h2.353v13.562h-1.918L380.028,392.683z M377.596,386.396c-0.659,0-1.209,0.268-1.651,0.801
		c-0.442,0.534-0.662,1.249-0.662,2.146s0.224,1.617,0.672,2.164s1.015,0.82,1.7,0.82c0.566,0,1.074-0.224,1.522-0.672
		c0.461-0.461,0.692-1.041,0.692-1.739v-1.246c-0.027-0.685-0.257-1.245-0.692-1.68
		C378.782,386.594,378.255,386.396,377.596,386.396z"/>
	<path fill="#001E39" d="M394.854,393.928c-0.87,0.343-1.556,0.514-2.056,0.514c-0.501,0-0.939-0.059-1.314-0.178
		c-0.376-0.118-0.709-0.296-0.999-0.533c-0.606-0.541-0.909-1.285-0.909-2.234v-5.377h-1.344v-1.562h1.344v-2.53h2.333v2.53h2.609
		v1.562h-2.609v5.298c0,0.791,0.375,1.187,1.127,1.187c0.382,0,0.876-0.105,1.482-0.316L394.854,393.928z"/>
	<path fill="#001E39" d="M400.291,384.301c0.645,0,1.252,0.102,1.819,0.306c0.566,0.205,1.055,0.518,1.463,0.939
		c0.909,0.923,1.364,2.201,1.364,3.835c0,1.608-0.455,2.873-1.364,3.796c-0.817,0.844-1.911,1.265-3.282,1.265
		s-2.478-0.421-3.321-1.265c-0.909-0.909-1.364-2.175-1.364-3.796c0-1.647,0.455-2.926,1.364-3.835
		C397.8,384.716,398.907,384.301,400.291,384.301z M402.604,389.361c0-1.015-0.197-1.776-0.593-2.283
		c-0.396-0.508-0.946-0.762-1.651-0.762c-0.705,0-1.282,0.254-1.73,0.762c-0.448,0.507-0.672,1.269-0.672,2.283
		s0.201,1.776,0.603,2.283c0.402,0.508,0.952,0.761,1.65,0.761s1.272-0.253,1.72-0.761
		C402.379,391.138,402.604,390.376,402.604,389.361z"/>
	<path fill="#001E39" d="M412.072,390.231c-0.777-0.659-1.166-1.483-1.166-2.472c0-1.041,0.408-1.885,1.226-2.53
		c0.791-0.619,1.696-0.929,2.718-0.929s1.875,0.19,2.561,0.573c0.079-0.752,0.402-1.357,0.969-1.819
		c0.554-0.461,1.206-0.691,1.957-0.691l-0.119,2.233c-1.133,0-1.719,0.376-1.759,1.127c0.487,0.606,0.731,1.226,0.731,1.858
		s-0.112,1.163-0.336,1.592c-0.225,0.428-0.527,0.787-0.91,1.077c-0.79,0.633-1.752,0.948-2.886,0.948
		c-0.646,0-1.232-0.099-1.759-0.296c-0.527,0.158-0.791,0.475-0.791,0.949c0,0.593,0.5,0.889,1.502,0.889h3.223
		c2.188,0,3.281,0.765,3.281,2.294c0,0.514-0.129,1.018-0.385,1.512c-0.258,0.494-0.63,0.933-1.117,1.315
		c-1.081,0.843-2.438,1.265-4.072,1.265c-1.582,0-2.867-0.323-3.855-0.969c-0.922-0.619-1.384-1.377-1.384-2.273
		c0-0.593,0.181-1.064,0.544-1.413c0.362-0.35,0.84-0.57,1.434-0.662c-0.778-0.475-1.167-1.062-1.167-1.76
		c0-0.461,0.146-0.847,0.435-1.156C411.235,390.584,411.611,390.363,412.072,390.231z M413.852,394.383
		c-1.238,0.052-1.857,0.521-1.857,1.403c0,0.448,0.26,0.807,0.78,1.077s1.137,0.405,1.849,0.405c0.711,0,1.268-0.06,1.67-0.178
		s0.742-0.276,1.019-0.475c0.593-0.396,0.89-0.87,0.89-1.423c0-0.237-0.082-0.433-0.247-0.584s-0.405-0.227-0.722-0.227H413.852z
		 M416.877,387.73c0-0.534-0.148-0.969-0.445-1.305s-0.748-0.504-1.354-0.504c-0.607,0-1.068,0.168-1.385,0.504
		s-0.475,0.771-0.475,1.305c0,0.533,0.158,0.972,0.475,1.314s0.777,0.514,1.385,0.514c0.605,0,1.057-0.171,1.354-0.514
		S416.877,388.264,416.877,387.73z"/>
	<path fill="#001E39" d="M424.35,386.455c0.579-1.384,1.449-2.075,2.609-2.075c0.224,0,0.507,0.046,0.85,0.138l-0.039,2.333
		c-0.369-0.079-0.732-0.119-1.088-0.119c-1.555,0-2.332,1.075-2.332,3.223v4.211h-2.334v-9.628h2.334V386.455z"/>
	<path fill="#001E39" d="M429.43,381.454c0-0.422,0.125-0.755,0.375-0.999c0.25-0.243,0.606-0.365,1.068-0.365
		c0.447,0,0.801,0.122,1.057,0.365c0.258,0.244,0.386,0.577,0.386,0.999s-0.128,0.754-0.386,0.998
		c-0.256,0.244-0.609,0.365-1.057,0.365c-0.462,0-0.818-0.121-1.068-0.365S429.43,381.876,429.43,381.454z M429.706,384.537h2.333
		v9.628h-2.333V384.537z"/>
	<path fill="#001E39" d="M441.528,392.683c-0.594,1.173-1.503,1.759-2.729,1.759s-2.253-0.467-3.084-1.403
		c-0.856-0.975-1.284-2.214-1.284-3.717c0-1.502,0.408-2.721,1.225-3.657c0.805-0.909,1.806-1.363,3.005-1.363
		s2.103,0.48,2.709,1.442v-5.14h2.353v13.562h-1.918L441.528,392.683z M439.097,386.396c-0.659,0-1.209,0.268-1.65,0.801
		c-0.442,0.534-0.663,1.249-0.663,2.146s0.224,1.617,0.673,2.164c0.447,0.547,1.015,0.82,1.7,0.82c0.566,0,1.073-0.224,1.521-0.672
		c0.462-0.461,0.692-1.041,0.692-1.739v-1.246c-0.026-0.685-0.257-1.245-0.692-1.68
		C440.282,386.594,439.756,386.396,439.097,386.396z"/>
	<path fill="#001E39" d="M454.595,384.301c0.605,0,1.149,0.102,1.631,0.306c0.48,0.205,0.886,0.472,1.216,0.801
		c0.658,0.633,1.048,1.431,1.166,2.393l-2.353,0.059c-0.105-0.421-0.3-0.771-0.583-1.048c-0.283-0.276-0.609-0.415-0.979-0.415
		s-0.686,0.057-0.949,0.168c-0.264,0.112-0.494,0.287-0.691,0.524c-0.448,0.554-0.673,1.318-0.673,2.293
		c0,0.976,0.211,1.71,0.633,2.204s0.933,0.741,1.532,0.741s1.034-0.142,1.305-0.425s0.405-0.669,0.405-1.156h2.353
		c0,1.055-0.35,1.931-1.048,2.629c-0.712,0.712-1.707,1.067-2.985,1.067c-1.265,0-2.326-0.461-3.183-1.384
		c-0.909-0.988-1.364-2.221-1.364-3.696c0-1.555,0.455-2.801,1.364-3.736C452.248,384.742,453.315,384.301,454.595,384.301z"/>
	<path fill="#001E39" d="M468.126,387.167c0.165,0.554,0.247,1.061,0.247,1.522c0,0.461-0.026,0.876-0.079,1.245h-6.207
		c0.026,0.777,0.218,1.41,0.573,1.897c0.355,0.488,0.896,0.731,1.621,0.731c0.962,0,1.535-0.421,1.72-1.265h2.353
		c-0.158,0.962-0.6,1.72-1.324,2.273c-0.751,0.58-1.668,0.869-2.748,0.869c-1.266,0-2.326-0.461-3.183-1.384
		c-0.884-0.962-1.325-2.194-1.325-3.696c0-1.542,0.441-2.78,1.325-3.717c0.843-0.896,1.904-1.344,3.183-1.344
		c1.331,0,2.365,0.468,3.104,1.403C467.714,386.126,467.961,386.613,468.126,387.167z M464.301,386.158
		c-0.659,0-1.173,0.215-1.542,0.643c-0.369,0.429-0.586,0.979-0.652,1.651h4.093c0-1.041-0.33-1.74-0.989-2.096
		C464.96,386.225,464.657,386.158,464.301,386.158z"/>
	<path fill="#001E39" d="M470.43,380.604h2.332v13.562h-2.332V380.604z"/>
	<path fill="#001E39" d="M475.708,380.604h2.332v13.562h-2.332V380.604z"/>
	<path fill="#001E39" d="M482.291,391.239c0.026,0.909,0.691,1.364,1.996,1.364c0.501,0,0.913-0.109,1.235-0.326
		c0.323-0.218,0.484-0.472,0.484-0.762c0-0.289-0.099-0.514-0.296-0.672c-0.198-0.158-0.508-0.303-0.93-0.435l-2.095-0.751
		c-1.556-0.541-2.333-1.424-2.333-2.649c0-0.817,0.365-1.473,1.097-1.967s1.714-0.741,2.946-0.741c1.231,0,2.181,0.27,2.847,0.811
		c0.665,0.54,1.011,1.219,1.037,2.036h-2.194c-0.026-0.316-0.178-0.566-0.454-0.752c-0.277-0.184-0.672-0.276-1.187-0.276
		c-0.514,0-0.912,0.103-1.195,0.307c-0.284,0.204-0.426,0.438-0.426,0.701c0,0.462,0.389,0.805,1.167,1.028l2.273,0.85
		c0.751,0.251,1.327,0.57,1.729,0.959c0.401,0.39,0.603,0.894,0.603,1.513c0,0.791-0.375,1.477-1.127,2.056
		c-0.777,0.606-1.806,0.909-3.084,0.909s-2.306-0.279-3.083-0.84c-0.778-0.56-1.174-1.348-1.187-2.362H482.291z"/>
	<path fill="#001E39" d="M490.188,393.819c-0.257-0.23-0.386-0.54-0.386-0.93c0-0.389,0.151-0.722,0.455-0.998
		c0.303-0.276,0.718-0.415,1.245-0.415c0.526,0,0.955,0.204,1.285,0.612c0.329,0.409,0.494,0.91,0.494,1.503
		c0,0.962-0.436,1.839-1.305,2.629c-0.277,0.251-0.587,0.462-0.93,0.633l-1.739-0.87c0.435-0.224,0.82-0.474,1.156-0.751
		c0.336-0.276,0.557-0.6,0.662-0.969C490.758,394.198,490.445,394.05,490.188,393.819z"/>
	<path fill="#001E39" d="M299.094,416.148c-0.606,1.278-1.581,1.917-2.926,1.917c-1.7,0-2.82-0.665-3.36-1.996
		c-0.198-0.462-0.297-1.021-0.297-1.681v-6.129h2.333v5.892c0,0.633,0.151,1.104,0.455,1.413c0.303,0.311,0.675,0.465,1.117,0.465
		c0.441,0,0.813-0.062,1.117-0.188s0.566-0.313,0.791-0.563c0.487-0.566,0.744-1.324,0.771-2.273v-4.745h2.333v9.628h-2.333V416.148
		z"/>
	<path fill="#001E39" d="M305.677,414.962c0.026,0.909,0.692,1.364,1.997,1.364c0.5,0,0.912-0.109,1.235-0.326
		c0.323-0.218,0.484-0.472,0.484-0.762c0-0.289-0.099-0.514-0.296-0.672c-0.198-0.158-0.508-0.303-0.929-0.435l-2.096-0.751
		c-1.555-0.541-2.333-1.424-2.333-2.649c0-0.817,0.366-1.473,1.097-1.967s1.713-0.741,2.945-0.741s2.181,0.27,2.847,0.811
		c0.666,0.54,1.011,1.219,1.038,2.036h-2.194c-0.027-0.316-0.178-0.566-0.455-0.752c-0.277-0.184-0.672-0.276-1.187-0.276
		c-0.514,0-0.913,0.103-1.196,0.307c-0.284,0.204-0.425,0.438-0.425,0.701c0,0.462,0.388,0.805,1.166,1.028l2.273,0.85
		c0.751,0.251,1.328,0.57,1.73,0.959c0.402,0.39,0.603,0.894,0.603,1.513c0,0.791-0.376,1.477-1.127,2.056
		c-0.778,0.606-1.806,0.909-3.084,0.909s-2.307-0.279-3.084-0.84c-0.778-0.56-1.173-1.348-1.186-2.362H305.677z"/>
	<path fill="#001E39" d="M313.98,405.177c0-0.422,0.125-0.755,0.376-0.999c0.25-0.243,0.606-0.365,1.067-0.365
		c0.448,0,0.801,0.122,1.058,0.365c0.257,0.244,0.385,0.577,0.385,0.999s-0.128,0.754-0.385,0.998s-0.61,0.365-1.058,0.365
		c-0.461,0-0.817-0.121-1.067-0.365C314.105,405.931,313.98,405.599,313.98,405.177z M314.257,408.26h2.333v9.628h-2.333V408.26z"/>
	<path fill="#001E39" d="M322.105,409.94c0.632-1.278,1.647-1.917,3.044-1.917c1.186,0,2.079,0.389,2.679,1.166
		c0.6,0.777,0.899,1.806,0.899,3.084v5.614h-2.333v-5.614c0-0.712-0.171-1.249-0.514-1.611c-0.343-0.362-0.824-0.544-1.443-0.544
		s-1.15,0.277-1.591,0.831c-0.442,0.553-0.676,1.384-0.702,2.49v4.448h-2.333v-9.607h2.036L322.105,409.94z"/>
	<path fill="#001E39" d="M332.227,413.954c-0.778-0.659-1.167-1.483-1.167-2.472c0-1.041,0.408-1.885,1.226-2.53
		c0.791-0.619,1.697-0.929,2.718-0.929c1.021,0,1.875,0.19,2.56,0.573c0.079-0.752,0.402-1.357,0.969-1.819
		c0.554-0.461,1.206-0.691,1.957-0.691l-0.119,2.233c-1.133,0-1.72,0.376-1.759,1.127c0.487,0.606,0.731,1.226,0.731,1.858
		s-0.112,1.163-0.336,1.592c-0.225,0.428-0.527,0.787-0.91,1.077c-0.791,0.633-1.753,0.948-2.886,0.948
		c-0.646,0-1.232-0.099-1.759-0.296c-0.527,0.158-0.791,0.475-0.791,0.949c0,0.593,0.501,0.889,1.502,0.889h3.223
		c2.188,0,3.282,0.765,3.282,2.294c0,0.514-0.129,1.018-0.386,1.512s-0.629,0.933-1.117,1.315c-1.081,0.843-2.438,1.265-4.073,1.265
		c-1.582,0-2.866-0.323-3.855-0.969c-0.922-0.619-1.384-1.377-1.384-2.273c0-0.593,0.181-1.064,0.544-1.413
		c0.362-0.35,0.84-0.57,1.433-0.662c-0.778-0.475-1.167-1.062-1.167-1.76c0-0.461,0.145-0.847,0.435-1.156
		C331.389,414.307,331.765,414.086,332.227,413.954z M334.006,418.105c-1.239,0.052-1.858,0.521-1.858,1.403
		c0,0.448,0.26,0.807,0.781,1.077c0.521,0.271,1.137,0.405,1.849,0.405c0.711,0,1.268-0.06,1.67-0.178
		c0.402-0.118,0.741-0.276,1.018-0.475c0.593-0.396,0.89-0.87,0.89-1.423c0-0.237-0.083-0.433-0.247-0.584
		c-0.165-0.151-0.405-0.227-0.722-0.227H334.006z M337.03,411.453c0-0.534-0.148-0.969-0.445-1.305s-0.748-0.504-1.354-0.504
		c-0.606,0-1.068,0.168-1.384,0.504c-0.316,0.336-0.475,0.771-0.475,1.305c0,0.533,0.158,0.972,0.475,1.314
		c0.316,0.343,0.777,0.514,1.384,0.514c0.606,0,1.058-0.171,1.354-0.514S337.03,411.986,337.03,411.453z"/>
	<path fill="#001E39" d="M348.773,410.178c0.58-1.384,1.45-2.075,2.609-2.075c0.224,0,0.507,0.046,0.85,0.138l-0.04,2.333
		c-0.369-0.079-0.731-0.119-1.087-0.119c-1.555,0-2.333,1.075-2.333,3.223v4.211h-2.333v-9.628h2.333V410.178z"/>
	<path fill="#001E39" d="M357.708,408.023c0.646,0,1.252,0.102,1.819,0.306c0.566,0.205,1.054,0.518,1.463,0.939
		c0.909,0.923,1.364,2.201,1.364,3.835c0,1.608-0.455,2.873-1.364,3.796c-0.817,0.844-1.911,1.265-3.282,1.265
		s-2.478-0.421-3.321-1.265c-0.909-0.909-1.364-2.175-1.364-3.796c0-1.647,0.455-2.926,1.364-3.835
		C355.217,408.438,356.324,408.023,357.708,408.023z M360.021,413.084c0-1.015-0.198-1.776-0.593-2.283
		c-0.396-0.508-0.946-0.762-1.651-0.762s-1.282,0.254-1.73,0.762c-0.448,0.507-0.672,1.269-0.672,2.283s0.201,1.776,0.603,2.283
		c0.402,0.508,0.952,0.761,1.65,0.761s1.272-0.253,1.72-0.761C359.797,414.86,360.021,414.099,360.021,413.084z"/>
	<path fill="#001E39" d="M365.24,408.28l1.938,6.859l1.838-6.326h2.115l1.839,6.346l1.957-6.879h2.333l-3.163,9.607h-2.293
		l-1.779-5.753l-1.74,5.753h-2.313l-3.183-9.607H365.24z"/>
	<path fill="#001E39" d="M379.948,414.962c0.026,0.909,0.692,1.364,1.997,1.364c0.5,0,0.912-0.109,1.235-0.326
		c0.323-0.218,0.484-0.472,0.484-0.762c0-0.289-0.099-0.514-0.296-0.672c-0.198-0.158-0.508-0.303-0.929-0.435l-2.096-0.751
		c-1.555-0.541-2.333-1.424-2.333-2.649c0-0.817,0.366-1.473,1.097-1.967s1.713-0.741,2.945-0.741s2.181,0.27,2.847,0.811
		c0.666,0.54,1.011,1.219,1.038,2.036h-2.194c-0.027-0.316-0.178-0.566-0.455-0.752c-0.277-0.184-0.672-0.276-1.187-0.276
		c-0.514,0-0.913,0.103-1.196,0.307c-0.284,0.204-0.425,0.438-0.425,0.701c0,0.462,0.388,0.805,1.166,1.028l2.273,0.85
		c0.751,0.251,1.328,0.57,1.73,0.959c0.402,0.39,0.603,0.894,0.603,1.513c0,0.791-0.376,1.477-1.127,2.056
		c-0.778,0.606-1.806,0.909-3.084,0.909s-2.307-0.279-3.084-0.84c-0.778-0.56-1.173-1.348-1.186-2.362H379.948z"/>
	<path fill="#001E39" d="M395.763,412.273c0.764,0,1.647,0.125,2.649,0.376V411.7c0-0.672-0.135-1.17-0.405-1.493
		c-0.27-0.322-0.711-0.484-1.324-0.484s-1.084,0.122-1.414,0.366c-0.33,0.244-0.494,0.59-0.494,1.038h-2.55
		c0-1.094,0.386-1.885,1.156-2.372c0.771-0.488,1.849-0.731,3.232-0.731c1.977,0,3.255,0.691,3.835,2.075
		c0.197,0.475,0.296,1.035,0.296,1.681v6.108h-2.036l-0.178-1.285c-0.62,1.041-1.568,1.562-2.847,1.562
		c-1.239,0-2.201-0.303-2.886-0.909c-0.632-0.579-0.949-1.314-0.949-2.204s0.349-1.574,1.048-2.056
		C393.595,412.514,394.55,412.273,395.763,412.273z M398.412,414.132c-0.778-0.211-1.502-0.316-2.174-0.316
		c-1.265,0-1.898,0.422-1.898,1.265c0,0.356,0.145,0.663,0.435,0.92c0.29,0.257,0.754,0.386,1.394,0.386s1.167-0.215,1.582-0.643
		C398.165,415.314,398.385,414.777,398.412,414.132z"/>
	<path fill="#001E39" d="M405.707,409.94c0.632-1.278,1.646-1.917,3.044-1.917c1.187,0,2.079,0.389,2.679,1.166
		s0.899,1.806,0.899,3.084v5.614h-2.333v-5.614c0-0.712-0.172-1.249-0.514-1.611c-0.343-0.362-0.824-0.544-1.443-0.544
		s-1.15,0.277-1.592,0.831c-0.441,0.553-0.676,1.384-0.701,2.49v4.448h-2.333v-9.607h2.036L405.707,409.94z"/>
	<path fill="#001E39" d="M421.265,416.405c-0.593,1.173-1.503,1.759-2.729,1.759s-2.253-0.467-3.084-1.403
		c-0.856-0.975-1.284-2.214-1.284-3.717c0-1.502,0.408-2.721,1.225-3.657c0.805-0.909,1.807-1.363,3.006-1.363
		s2.102,0.48,2.708,1.442v-5.14h2.353v13.562h-1.918L421.265,416.405z M418.833,410.118c-0.659,0-1.21,0.268-1.651,0.801
		c-0.441,0.534-0.662,1.249-0.662,2.146s0.225,1.617,0.672,2.164c0.449,0.547,1.016,0.82,1.701,0.82
		c0.566,0,1.074-0.224,1.521-0.672c0.461-0.461,0.692-1.041,0.692-1.739v-1.246c-0.026-0.685-0.257-1.245-0.692-1.68
		C420.02,410.316,419.492,410.118,418.833,410.118z"/>
	<path fill="#001E39" d="M434.332,408.023c0.605,0,1.149,0.102,1.631,0.306c0.48,0.205,0.886,0.472,1.216,0.801
		c0.658,0.633,1.048,1.431,1.166,2.393l-2.353,0.059c-0.105-0.421-0.3-0.771-0.583-1.048c-0.284-0.276-0.61-0.415-0.979-0.415
		c-0.369,0-0.686,0.057-0.949,0.168c-0.264,0.112-0.494,0.287-0.692,0.524c-0.447,0.554-0.672,1.318-0.672,2.293
		c0,0.976,0.211,1.71,0.633,2.204s0.933,0.741,1.532,0.741s1.034-0.142,1.305-0.425s0.405-0.669,0.405-1.156h2.353
		c0,1.055-0.35,1.931-1.048,2.629c-0.711,0.712-1.707,1.067-2.984,1.067c-1.266,0-2.326-0.461-3.184-1.384
		c-0.909-0.988-1.363-2.221-1.363-3.696c0-1.555,0.454-2.801,1.363-3.736C431.986,408.465,433.053,408.023,434.332,408.023z"/>
	<path fill="#001E39" d="M444.196,408.023c0.646,0,1.252,0.102,1.819,0.306c0.566,0.205,1.054,0.518,1.463,0.939
		c0.909,0.923,1.363,2.201,1.363,3.835c0,1.608-0.454,2.873-1.363,3.796c-0.817,0.844-1.911,1.265-3.282,1.265
		s-2.478-0.421-3.321-1.265c-0.909-0.909-1.364-2.175-1.364-3.796c0-1.647,0.455-2.926,1.364-3.835
		C441.705,408.438,442.812,408.023,444.196,408.023z M446.51,413.084c0-1.015-0.198-1.776-0.594-2.283
		c-0.396-0.508-0.945-0.762-1.65-0.762s-1.282,0.254-1.729,0.762c-0.448,0.507-0.673,1.269-0.673,2.283s0.201,1.776,0.604,2.283
		c0.401,0.508,0.952,0.761,1.65,0.761s1.271-0.253,1.72-0.761C446.285,414.86,446.51,414.099,446.51,413.084z"/>
	<path fill="#001E39" d="M450.879,404.326h2.332v13.562h-2.332V404.326z"/>
	<path fill="#001E39" d="M462.542,416.148c-0.606,1.278-1.581,1.917-2.926,1.917c-1.7,0-2.82-0.665-3.36-1.996
		c-0.198-0.462-0.297-1.021-0.297-1.681v-6.129h2.333v5.892c0,0.633,0.151,1.104,0.455,1.413c0.303,0.311,0.675,0.465,1.116,0.465
		s0.813-0.062,1.117-0.188c0.303-0.125,0.566-0.313,0.791-0.563c0.487-0.566,0.744-1.324,0.771-2.273v-4.745h2.333v9.628h-2.333
		V416.148z"/>
	<path fill="#001E39" d="M476.361,410.099c0.619-1.384,1.706-2.075,3.262-2.075c1.146,0,2.036,0.389,2.669,1.166
		c0.605,0.738,0.909,1.767,0.909,3.084v5.614h-2.353v-5.614c0-0.712-0.172-1.249-0.514-1.611c-0.343-0.362-0.824-0.544-1.443-0.544
		c-0.62,0-1.127,0.271-1.522,0.811c-0.396,0.541-0.606,1.357-0.633,2.452v4.507h-2.332v-5.614c0-0.712-0.172-1.249-0.515-1.611
		s-0.823-0.544-1.442-0.544c-0.62,0-1.15,0.277-1.592,0.831c-0.441,0.553-0.676,1.384-0.702,2.49v4.448h-2.332v-9.607h2.036
		l0.257,1.66c0.633-1.278,1.647-1.917,3.044-1.917c0.804,0,1.473,0.185,2.007,0.553
		C475.699,408.945,476.098,409.453,476.361,410.099z"/>
	<path fill="#001E39" d="M488.144,409.94c0.633-1.278,1.647-1.917,3.044-1.917c1.187,0,2.079,0.389,2.679,1.166
		s0.899,1.806,0.899,3.084v5.614h-2.332v-5.614c0-0.712-0.172-1.249-0.515-1.611s-0.823-0.544-1.442-0.544
		c-0.62,0-1.15,0.277-1.592,0.831c-0.441,0.553-0.676,1.384-0.702,2.49v4.448h-2.332v-9.607h2.036L488.144,409.94z"/>
	<path fill="#001E39" d="M498.739,414.962c0.026,0.909,0.691,1.364,1.996,1.364c0.501,0,0.913-0.109,1.235-0.326
		c0.323-0.218,0.484-0.472,0.484-0.762c0-0.289-0.099-0.514-0.296-0.672c-0.198-0.158-0.508-0.303-0.93-0.435l-2.095-0.751
		c-1.556-0.541-2.333-1.424-2.333-2.649c0-0.817,0.365-1.473,1.097-1.967s1.714-0.741,2.946-0.741c1.231,0,2.181,0.27,2.847,0.811
		c0.665,0.54,1.011,1.219,1.037,2.036h-2.194c-0.026-0.316-0.178-0.566-0.454-0.752c-0.277-0.184-0.672-0.276-1.187-0.276
		c-0.514,0-0.912,0.103-1.195,0.307c-0.284,0.204-0.426,0.438-0.426,0.701c0,0.462,0.389,0.805,1.167,1.028l2.273,0.85
		c0.751,0.251,1.327,0.57,1.729,0.959c0.401,0.39,0.603,0.894,0.603,1.513c0,0.791-0.375,1.477-1.127,2.056
		c-0.777,0.606-1.806,0.909-3.084,0.909s-2.306-0.279-3.083-0.84c-0.778-0.56-1.174-1.348-1.187-2.362H498.739z"/>
</g>
<g>
	<path fill="#001E39" d="M591.288,382.393c0.811,0.705,1.216,1.714,1.216,3.024c0,1.312-0.405,2.32-1.216,3.025
		s-1.94,1.058-3.39,1.058h-2.175v4.665h-2.353v-12.83h4.527C589.348,381.335,590.478,381.688,591.288,382.393z M587.898,387.463
		c0.725,0,1.271-0.19,1.641-0.573c0.369-0.382,0.554-0.872,0.554-1.473c0-0.6-0.185-1.094-0.554-1.482s-0.916-0.583-1.641-0.583
		h-2.175v4.111H587.898z"/>
	<path fill="#001E39" d="M600.569,392.426c-0.606,1.278-1.581,1.917-2.926,1.917c-1.7,0-2.82-0.665-3.36-1.996
		c-0.198-0.462-0.297-1.021-0.297-1.681v-6.129h2.333v5.892c0,0.633,0.151,1.104,0.455,1.413c0.303,0.311,0.675,0.465,1.116,0.465
		s0.813-0.062,1.117-0.188c0.303-0.125,0.566-0.313,0.791-0.563c0.487-0.566,0.744-1.324,0.771-2.273v-4.745h2.333v9.628h-2.333
		V392.426z"/>
	<path fill="#001E39" d="M611.265,393.928c-0.869,0.343-1.555,0.514-2.056,0.514s-0.939-0.059-1.314-0.178
		c-0.376-0.118-0.709-0.296-0.998-0.533c-0.606-0.541-0.91-1.285-0.91-2.234v-5.377h-1.344v-1.562h1.344v-2.53h2.333v2.53h2.609
		v1.562h-2.609v5.298c0,0.791,0.376,1.187,1.127,1.187c0.382,0,0.876-0.105,1.482-0.316L611.265,393.928z"/>
	<path fill="#001E39" d="M618.5,391.239c0.026,0.909,0.691,1.364,1.996,1.364c0.501,0,0.913-0.109,1.235-0.326
		c0.323-0.218,0.484-0.472,0.484-0.762c0-0.289-0.099-0.514-0.296-0.672c-0.198-0.158-0.508-0.303-0.93-0.435l-2.095-0.751
		c-1.556-0.541-2.333-1.424-2.333-2.649c0-0.817,0.365-1.473,1.097-1.967s1.714-0.741,2.946-0.741c1.231,0,2.181,0.27,2.847,0.811
		c0.665,0.54,1.011,1.219,1.037,2.036h-2.194c-0.026-0.316-0.178-0.566-0.454-0.752c-0.277-0.184-0.672-0.276-1.187-0.276
		c-0.514,0-0.912,0.103-1.195,0.307c-0.284,0.204-0.426,0.438-0.426,0.701c0,0.462,0.389,0.805,1.167,1.028l2.273,0.85
		c0.751,0.251,1.327,0.57,1.729,0.959c0.401,0.39,0.603,0.894,0.603,1.513c0,0.791-0.375,1.477-1.127,2.056
		c-0.777,0.606-1.806,0.909-3.084,0.909s-2.306-0.279-3.083-0.84c-0.778-0.56-1.174-1.348-1.187-2.362H618.5z"/>
	<path fill="#001E39" d="M632.298,393.928c-0.869,0.343-1.555,0.514-2.056,0.514s-0.939-0.059-1.314-0.178
		c-0.376-0.118-0.709-0.296-0.998-0.533c-0.606-0.541-0.91-1.285-0.91-2.234v-5.377h-1.344v-1.562h1.344v-2.53h2.333v2.53h2.609
		v1.562h-2.609v5.298c0,0.791,0.376,1.187,1.127,1.187c0.382,0,0.876-0.105,1.482-0.316L632.298,393.928z"/>
	<path fill="#001E39" d="M640.344,392.426c-0.606,1.278-1.581,1.917-2.926,1.917c-1.7,0-2.82-0.665-3.36-1.996
		c-0.198-0.462-0.297-1.021-0.297-1.681v-6.129h2.333v5.892c0,0.633,0.151,1.104,0.455,1.413c0.303,0.311,0.675,0.465,1.116,0.465
		s0.813-0.062,1.117-0.188c0.303-0.125,0.566-0.313,0.791-0.563c0.487-0.566,0.744-1.324,0.771-2.273v-4.745h2.333v9.628h-2.333
		V392.426z"/>
	<path fill="#001E39" d="M644.575,384.558h1.423v-1.127c0-0.988,0.29-1.746,0.87-2.273c0.527-0.475,1.212-0.712,2.056-0.712
		c0.54,0,1.206,0.079,1.997,0.237l-0.455,1.799c-0.369-0.132-0.701-0.197-0.998-0.197s-0.557,0.082-0.781,0.247
		c-0.224,0.165-0.336,0.471-0.336,0.919v1.107h1.76v1.562h-1.76v8.046h-2.353v-8.046h-1.423V384.558z"/>
	<path fill="#001E39" d="M651.079,384.558h1.423v-1.127c0-0.988,0.29-1.746,0.87-2.273c0.527-0.475,1.212-0.712,2.056-0.712
		c0.54,0,1.206,0.079,1.997,0.237l-0.455,1.799c-0.369-0.132-0.701-0.197-0.998-0.197s-0.557,0.082-0.781,0.247
		c-0.224,0.165-0.336,0.471-0.336,0.919v1.107h1.76v1.562h-1.76v8.046h-2.353v-8.046h-1.423V384.558z"/>
	<path fill="#001E39" d="M666.063,388.551c0.764,0,1.646,0.125,2.648,0.376v-0.949c0-0.672-0.135-1.17-0.405-1.493
		c-0.271-0.322-0.712-0.484-1.324-0.484c-0.613,0-1.084,0.122-1.414,0.366c-0.329,0.244-0.494,0.59-0.494,1.038h-2.55
		c0-1.094,0.386-1.885,1.156-2.372c0.771-0.488,1.849-0.731,3.232-0.731c1.977,0,3.255,0.691,3.835,2.075
		c0.198,0.475,0.297,1.035,0.297,1.681v6.108h-2.036l-0.178-1.285c-0.62,1.041-1.569,1.562-2.847,1.562
		c-1.239,0-2.201-0.303-2.887-0.909c-0.633-0.579-0.949-1.314-0.949-2.204s0.35-1.574,1.048-2.056S664.851,388.551,666.063,388.551z
		 M668.712,390.409c-0.777-0.211-1.502-0.316-2.175-0.316c-1.265,0-1.897,0.422-1.897,1.265c0,0.356,0.145,0.663,0.435,0.92
		s0.755,0.386,1.395,0.386c0.639,0,1.166-0.215,1.581-0.643C668.465,391.592,668.686,391.055,668.712,390.409z"/>
	<path fill="#001E39" d="M676.007,386.218c0.633-1.278,1.647-1.917,3.044-1.917c1.187,0,2.079,0.389,2.679,1.166
		s0.899,1.806,0.899,3.084v5.614h-2.332v-5.614c0-0.712-0.172-1.249-0.515-1.611s-0.823-0.544-1.442-0.544
		c-0.62,0-1.15,0.277-1.592,0.831c-0.441,0.553-0.676,1.384-0.702,2.49v4.448h-2.332v-9.607h2.036L676.007,386.218z"/>
	<path fill="#001E39" d="M686.483,384.558l2.313,6.919l2.017-6.919h2.372l-3.678,11.347c-0.382,1.147-0.847,1.971-1.394,2.472
		s-1.242,0.751-2.085,0.751c-0.857,0-1.714-0.211-2.57-0.633v-2.056c0.686,0.435,1.377,0.652,2.076,0.652
		c0.461,0,0.84-0.185,1.137-0.554c0.296-0.369,0.536-0.85,0.721-1.443l0.297-0.929l-3.854-9.607H686.483z"/>
	<path fill="#001E39" d="M695.38,384.558l1.938,6.859l1.839-6.326h2.115l1.838,6.346l1.957-6.879h2.333l-3.163,9.607h-2.293
		l-1.779-5.753l-1.739,5.753h-2.313l-3.183-9.607H695.38z"/>
	<path fill="#001E39" d="M711.115,386.119c0.659-1.213,1.621-1.818,2.887-1.818c1.265,0,2.197,0.389,2.797,1.166
		s0.899,1.806,0.899,3.084v5.614h-2.332v-5.614c0-0.712-0.172-1.249-0.515-1.611s-0.823-0.544-1.442-0.544
		c-0.62,0-1.15,0.277-1.592,0.831c-0.441,0.553-0.676,1.384-0.702,2.49v4.448h-2.332v-13.562h2.332V386.119z"/>
	<path fill="#001E39" d="M727.81,387.167c0.165,0.554,0.247,1.061,0.247,1.522c0,0.461-0.026,0.876-0.079,1.245h-6.207
		c0.026,0.777,0.218,1.41,0.573,1.897c0.355,0.488,0.896,0.731,1.621,0.731c0.962,0,1.535-0.421,1.72-1.265h2.353
		c-0.158,0.962-0.6,1.72-1.324,2.273c-0.751,0.58-1.668,0.869-2.748,0.869c-1.266,0-2.326-0.461-3.183-1.384
		c-0.884-0.962-1.325-2.194-1.325-3.696c0-1.542,0.441-2.78,1.325-3.717c0.843-0.896,1.904-1.344,3.183-1.344
		c1.331,0,2.365,0.468,3.104,1.403C727.397,386.126,727.645,386.613,727.81,387.167z M723.984,386.158
		c-0.659,0-1.173,0.215-1.542,0.643c-0.369,0.429-0.586,0.979-0.652,1.651h4.093c0-1.041-0.33-1.74-0.989-2.096
		C724.644,386.225,724.341,386.158,723.984,386.158z"/>
	<path fill="#001E39" d="M732.445,386.455c0.58-1.384,1.45-2.075,2.609-2.075c0.225,0,0.508,0.046,0.851,0.138l-0.04,2.333
		c-0.369-0.079-0.731-0.119-1.087-0.119c-1.556,0-2.333,1.075-2.333,3.223v4.211h-2.332v-9.628h2.332V386.455z"/>
	<path fill="#001E39" d="M745.048,387.167c0.165,0.554,0.247,1.061,0.247,1.522c0,0.461-0.026,0.876-0.079,1.245h-6.207
		c0.026,0.777,0.218,1.41,0.573,1.897c0.355,0.488,0.896,0.731,1.621,0.731c0.962,0,1.535-0.421,1.72-1.265h2.353
		c-0.158,0.962-0.6,1.72-1.324,2.273c-0.751,0.58-1.668,0.869-2.748,0.869c-1.266,0-2.326-0.461-3.183-1.384
		c-0.884-0.962-1.325-2.194-1.325-3.696c0-1.542,0.441-2.78,1.325-3.717c0.843-0.896,1.904-1.344,3.183-1.344
		c1.331,0,2.365,0.468,3.104,1.403C744.636,386.126,744.883,386.613,745.048,387.167z M741.223,386.158
		c-0.659,0-1.173,0.215-1.542,0.643c-0.369,0.429-0.586,0.979-0.652,1.651h4.093c0-1.041-0.33-1.74-0.989-2.096
		C741.882,386.225,741.579,386.158,741.223,386.158z"/>
	<path fill="#001E39" d="M746.867,393.819c-0.257-0.23-0.386-0.54-0.386-0.93c0-0.389,0.151-0.722,0.455-0.998
		c0.303-0.276,0.718-0.415,1.245-0.415c0.526,0,0.955,0.204,1.285,0.612c0.329,0.409,0.494,0.91,0.494,1.503
		c0,0.962-0.436,1.839-1.305,2.629c-0.277,0.251-0.587,0.462-0.93,0.633l-1.739-0.87c0.435-0.224,0.82-0.474,1.156-0.751
		c0.336-0.276,0.557-0.6,0.662-0.969C747.437,394.198,747.124,394.05,746.867,393.819z"/>
	<path fill="#001E39" d="M594.936,416.148c-0.606,1.278-1.581,1.917-2.926,1.917c-1.7,0-2.82-0.665-3.36-1.996
		c-0.198-0.462-0.297-1.021-0.297-1.681v-6.129h2.333v5.892c0,0.633,0.151,1.104,0.455,1.413c0.303,0.311,0.675,0.465,1.116,0.465
		s0.813-0.062,1.117-0.188c0.303-0.125,0.566-0.313,0.791-0.563c0.487-0.566,0.744-1.324,0.771-2.273v-4.745h2.333v9.628h-2.333
		V416.148z"/>
	<path fill="#001E39" d="M601.52,414.962c0.026,0.909,0.691,1.364,1.996,1.364c0.501,0,0.913-0.109,1.235-0.326
		c0.323-0.218,0.484-0.472,0.484-0.762c0-0.289-0.099-0.514-0.296-0.672c-0.198-0.158-0.508-0.303-0.93-0.435l-2.095-0.751
		c-1.556-0.541-2.333-1.424-2.333-2.649c0-0.817,0.365-1.473,1.097-1.967s1.714-0.741,2.946-0.741c1.231,0,2.181,0.27,2.847,0.811
		c0.665,0.54,1.011,1.219,1.037,2.036h-2.194c-0.026-0.316-0.178-0.566-0.454-0.752c-0.277-0.184-0.672-0.276-1.187-0.276
		c-0.514,0-0.912,0.103-1.195,0.307c-0.284,0.204-0.426,0.438-0.426,0.701c0,0.462,0.389,0.805,1.167,1.028l2.273,0.85
		c0.751,0.251,1.327,0.57,1.729,0.959c0.401,0.39,0.603,0.894,0.603,1.513c0,0.791-0.375,1.477-1.127,2.056
		c-0.777,0.606-1.806,0.909-3.084,0.909s-2.306-0.279-3.083-0.84c-0.778-0.56-1.174-1.348-1.187-2.362H601.52z"/>
	<path fill="#001E39" d="M609.822,405.177c0-0.422,0.125-0.755,0.375-0.999c0.25-0.243,0.606-0.365,1.067-0.365
		c0.448,0,0.801,0.122,1.058,0.365c0.258,0.244,0.386,0.577,0.386,0.999s-0.128,0.754-0.386,0.998
		c-0.257,0.244-0.609,0.365-1.058,0.365c-0.461,0-0.817-0.121-1.067-0.365S609.822,405.599,609.822,405.177z M610.099,408.26h2.333
		v9.628h-2.333V408.26z"/>
	<path fill="#001E39" d="M617.947,409.94c0.633-1.278,1.647-1.917,3.044-1.917c1.187,0,2.079,0.389,2.679,1.166
		s0.899,1.806,0.899,3.084v5.614h-2.332v-5.614c0-0.712-0.172-1.249-0.515-1.611s-0.823-0.544-1.442-0.544
		c-0.62,0-1.15,0.277-1.592,0.831c-0.441,0.553-0.676,1.384-0.702,2.49v4.448h-2.332v-9.607h2.036L617.947,409.94z"/>
	<path fill="#001E39" d="M628.068,413.954c-0.778-0.659-1.167-1.483-1.167-2.472c0-1.041,0.409-1.885,1.227-2.53
		c0.79-0.619,1.696-0.929,2.718-0.929s1.875,0.19,2.561,0.573c0.079-0.752,0.401-1.357,0.968-1.819
		c0.554-0.461,1.206-0.691,1.958-0.691l-0.119,2.233c-1.134,0-1.72,0.376-1.76,1.127c0.488,0.606,0.731,1.226,0.731,1.858
		s-0.111,1.163-0.336,1.592c-0.224,0.428-0.527,0.787-0.909,1.077c-0.791,0.633-1.753,0.948-2.886,0.948
		c-0.646,0-1.232-0.099-1.76-0.296c-0.527,0.158-0.791,0.475-0.791,0.949c0,0.593,0.501,0.889,1.503,0.889h3.222
		c2.188,0,3.282,0.765,3.282,2.294c0,0.514-0.129,1.018-0.386,1.512s-0.63,0.933-1.117,1.315c-1.08,0.843-2.438,1.265-4.072,1.265
		c-1.581,0-2.866-0.323-3.854-0.969c-0.923-0.619-1.384-1.377-1.384-2.273c0-0.593,0.181-1.064,0.543-1.413
		c0.362-0.35,0.841-0.57,1.434-0.662c-0.777-0.475-1.166-1.062-1.166-1.76c0-0.461,0.145-0.847,0.435-1.156
		S627.606,414.086,628.068,413.954z M629.848,418.105c-1.239,0.052-1.858,0.521-1.858,1.403c0,0.448,0.26,0.807,0.78,1.077
		s1.137,0.405,1.849,0.405s1.269-0.06,1.671-0.178c0.401-0.118,0.741-0.276,1.018-0.475c0.594-0.396,0.89-0.87,0.89-1.423
		c0-0.237-0.082-0.433-0.247-0.584s-0.405-0.227-0.722-0.227H629.848z M632.872,411.453c0-0.534-0.148-0.969-0.444-1.305
		c-0.297-0.336-0.749-0.504-1.354-0.504c-0.606,0-1.067,0.168-1.384,0.504s-0.475,0.771-0.475,1.305
		c0,0.533,0.158,0.972,0.475,1.314s0.777,0.514,1.384,0.514c0.605,0,1.058-0.171,1.354-0.514
		C632.724,412.425,632.872,411.986,632.872,411.453z"/>
	<path fill="#001E39" d="M645.938,408.023c0.605,0,1.149,0.102,1.631,0.306c0.48,0.205,0.886,0.472,1.216,0.801
		c0.658,0.633,1.048,1.431,1.166,2.393l-2.353,0.059c-0.105-0.421-0.3-0.771-0.583-1.048c-0.283-0.276-0.609-0.415-0.979-0.415
		s-0.686,0.057-0.949,0.168c-0.264,0.112-0.494,0.287-0.691,0.524c-0.448,0.554-0.673,1.318-0.673,2.293
		c0,0.976,0.211,1.71,0.633,2.204s0.933,0.741,1.532,0.741s1.034-0.142,1.305-0.425s0.405-0.669,0.405-1.156h2.353
		c0,1.055-0.35,1.931-1.048,2.629c-0.712,0.712-1.707,1.067-2.985,1.067c-1.265,0-2.326-0.461-3.183-1.384
		c-0.909-0.988-1.364-2.221-1.364-3.696c0-1.555,0.455-2.801,1.364-3.736C643.592,408.465,644.659,408.023,645.938,408.023z"/>
	<path fill="#001E39" d="M655.803,408.023c0.646,0,1.252,0.102,1.819,0.306c0.566,0.205,1.054,0.518,1.463,0.939
		c0.909,0.923,1.363,2.201,1.363,3.835c0,1.608-0.454,2.873-1.363,3.796c-0.817,0.844-1.911,1.265-3.282,1.265
		s-2.478-0.421-3.321-1.265c-0.909-0.909-1.364-2.175-1.364-3.796c0-1.647,0.455-2.926,1.364-3.835
		C653.312,408.438,654.419,408.023,655.803,408.023z M658.116,413.084c0-1.015-0.198-1.776-0.594-2.283
		c-0.396-0.508-0.945-0.762-1.65-0.762s-1.282,0.254-1.729,0.762c-0.448,0.507-0.673,1.269-0.673,2.283s0.201,1.776,0.604,2.283
		c0.401,0.508,0.952,0.761,1.65,0.761s1.271-0.253,1.72-0.761C657.892,414.86,658.116,414.099,658.116,413.084z"/>
	<path fill="#001E39" d="M666.261,408.023c0.646,0,1.252,0.102,1.819,0.306c0.566,0.205,1.054,0.518,1.463,0.939
		c0.909,0.923,1.363,2.201,1.363,3.835c0,1.608-0.454,2.873-1.363,3.796c-0.817,0.844-1.911,1.265-3.282,1.265
		s-2.478-0.421-3.321-1.265c-0.909-0.909-1.364-2.175-1.364-3.796c0-1.647,0.455-2.926,1.364-3.835
		C663.77,408.438,664.877,408.023,666.261,408.023z M668.574,413.084c0-1.015-0.198-1.776-0.594-2.283
		c-0.396-0.508-0.945-0.762-1.65-0.762s-1.282,0.254-1.729,0.762c-0.448,0.507-0.673,1.269-0.673,2.283s0.201,1.776,0.604,2.283
		c0.401,0.508,0.952,0.761,1.65,0.761s1.271-0.253,1.72-0.761C668.35,414.86,668.574,414.099,668.574,413.084z"/>
	<path fill="#001E39" d="M675.275,410.178c0.58-1.384,1.45-2.075,2.609-2.075c0.225,0,0.508,0.046,0.851,0.138l-0.04,2.333
		c-0.369-0.079-0.731-0.119-1.087-0.119c-1.556,0-2.333,1.075-2.333,3.223v4.211h-2.332v-9.628h2.332V410.178z"/>
	<path fill="#001E39" d="M686.702,416.405c-0.594,1.173-1.503,1.759-2.729,1.759s-2.254-0.467-3.084-1.403
		c-0.856-0.975-1.285-2.214-1.285-3.717c0-1.502,0.409-2.721,1.227-3.657c0.804-0.909,1.805-1.363,3.004-1.363
		s2.103,0.48,2.709,1.442v-5.14h2.353v13.562h-1.918L686.702,416.405z M684.271,410.118c-0.659,0-1.209,0.268-1.65,0.801
		c-0.442,0.534-0.663,1.249-0.663,2.146s0.225,1.617,0.673,2.164c0.447,0.547,1.015,0.82,1.7,0.82c0.566,0,1.073-0.224,1.521-0.672
		c0.462-0.461,0.692-1.041,0.692-1.739v-1.246c-0.026-0.685-0.257-1.245-0.692-1.68C685.456,410.316,684.93,410.118,684.271,410.118
		z"/>
	<path fill="#001E39" d="M691.763,405.177c0-0.422,0.125-0.755,0.375-0.999c0.25-0.243,0.606-0.365,1.067-0.365
		c0.448,0,0.801,0.122,1.058,0.365c0.258,0.244,0.386,0.577,0.386,0.999s-0.128,0.754-0.386,0.998
		c-0.257,0.244-0.609,0.365-1.058,0.365c-0.461,0-0.817-0.121-1.067-0.365S691.763,405.599,691.763,405.177z M692.039,408.26h2.333
		v9.628h-2.333V408.26z"/>
	<path fill="#001E39" d="M699.888,409.94c0.633-1.278,1.647-1.917,3.044-1.917c1.187,0,2.079,0.389,2.679,1.166
		s0.899,1.806,0.899,3.084v5.614h-2.332v-5.614c0-0.712-0.172-1.249-0.515-1.611s-0.823-0.544-1.442-0.544
		c-0.62,0-1.15,0.277-1.592,0.831c-0.441,0.553-0.676,1.384-0.702,2.49v4.448h-2.332v-9.607h2.036L699.888,409.94z"/>
	<path fill="#001E39" d="M712.342,412.273c0.764,0,1.646,0.125,2.648,0.376V411.7c0-0.672-0.135-1.17-0.405-1.493
		c-0.271-0.322-0.712-0.484-1.324-0.484c-0.613,0-1.084,0.122-1.414,0.366c-0.329,0.244-0.494,0.59-0.494,1.038h-2.55
		c0-1.094,0.386-1.885,1.156-2.372c0.771-0.488,1.849-0.731,3.232-0.731c1.977,0,3.255,0.691,3.835,2.075
		c0.198,0.475,0.297,1.035,0.297,1.681v6.108h-2.036l-0.178-1.285c-0.62,1.041-1.569,1.562-2.847,1.562
		c-1.239,0-2.201-0.303-2.887-0.909c-0.633-0.579-0.949-1.314-0.949-2.204s0.35-1.574,1.048-2.056S711.129,412.273,712.342,412.273z
		 M714.99,414.132c-0.777-0.211-1.502-0.316-2.175-0.316c-1.265,0-1.897,0.422-1.897,1.265c0,0.356,0.145,0.663,0.435,0.92
		s0.755,0.386,1.395,0.386c0.639,0,1.166-0.215,1.581-0.643C714.743,415.314,714.964,414.777,714.99,414.132z"/>
	<path fill="#001E39" d="M725.408,417.65c-0.869,0.343-1.555,0.514-2.056,0.514s-0.939-0.059-1.314-0.178
		c-0.376-0.118-0.709-0.296-0.998-0.533c-0.606-0.541-0.91-1.285-0.91-2.234v-5.377h-1.344v-1.562h1.344v-2.53h2.333v2.53h2.609
		v1.562h-2.609v5.298c0,0.791,0.376,1.187,1.127,1.187c0.382,0,0.876-0.105,1.482-0.316L725.408,417.65z"/>
	<path fill="#001E39" d="M734.512,410.89c0.165,0.554,0.247,1.061,0.247,1.522c0,0.461-0.026,0.876-0.079,1.245h-6.207
		c0.026,0.777,0.218,1.41,0.573,1.897c0.355,0.488,0.896,0.731,1.621,0.731c0.962,0,1.535-0.421,1.72-1.265h2.353
		c-0.158,0.962-0.6,1.72-1.324,2.273c-0.751,0.58-1.668,0.869-2.748,0.869c-1.266,0-2.326-0.461-3.183-1.384
		c-0.884-0.962-1.325-2.194-1.325-3.696c0-1.542,0.441-2.78,1.325-3.717c0.843-0.896,1.904-1.344,3.183-1.344
		c1.331,0,2.365,0.468,3.104,1.403C734.1,409.849,734.347,410.336,734.512,410.89z M730.687,409.881
		c-0.659,0-1.173,0.215-1.542,0.643c-0.369,0.429-0.586,0.979-0.652,1.651h4.093c0-1.041-0.33-1.74-0.989-2.096
		C731.346,409.947,731.043,409.881,730.687,409.881z"/>
	<path fill="#001E39" d="M738.12,414.962c0.026,0.909,0.691,1.364,1.996,1.364c0.501,0,0.913-0.109,1.235-0.326
		c0.323-0.218,0.484-0.472,0.484-0.762c0-0.289-0.099-0.514-0.296-0.672c-0.198-0.158-0.508-0.303-0.93-0.435l-2.095-0.751
		c-1.556-0.541-2.333-1.424-2.333-2.649c0-0.817,0.365-1.473,1.097-1.967s1.714-0.741,2.946-0.741c1.231,0,2.181,0.27,2.847,0.811
		c0.665,0.54,1.011,1.219,1.037,2.036h-2.194c-0.026-0.316-0.178-0.566-0.454-0.752c-0.277-0.184-0.672-0.276-1.187-0.276
		c-0.514,0-0.912,0.103-1.195,0.307c-0.284,0.204-0.426,0.438-0.426,0.701c0,0.462,0.389,0.805,1.167,1.028l2.273,0.85
		c0.751,0.251,1.327,0.57,1.729,0.959c0.401,0.39,0.603,0.894,0.603,1.513c0,0.791-0.375,1.477-1.127,2.056
		c-0.777,0.606-1.806,0.909-3.084,0.909s-2.306-0.279-3.083-0.84c-0.778-0.56-1.174-1.348-1.187-2.362H738.12z"/>
</g>
</svg>
