<?xml version="1.0" encoding="utf-8"?>
<!-- Generator: Adobe Illustrator 15.1.0, SVG Export Plug-In . SVG Version: 6.00 Build 0)  -->
<!DOCTYPE svg PUBLIC "-//W3C//DTD SVG 1.1//EN" "http://www.w3.org/Graphics/SVG/1.1/DTD/svg11.dtd">
<svg version="1.1" id="Layer_1" xmlns="http://www.w3.org/2000/svg" xmlns:xlink="http://www.w3.org/1999/xlink" x="0px" y="0px"
	 width="569px" height="427.5px" viewBox="82.5 0 569 427.5" enable-background="new 82.5 0 569 427.5" xml:space="preserve">
<path fill="#001E39" fill-opacity="0.2" stroke="#001E39" stroke-width="8" stroke-miterlimit="10" d="M96.601,14.5v399h539.233
	v-399H96.601z M299.167,336.834H114.5V137.5h184.667V336.834z M426.5,256.5H315.167v-43H426.5V256.5z M426.5,196.5H315.167v-43
	H426.5V196.5z M620.5,396.5H441.833v-43H620.5V396.5z M620.5,336.834H441.833V137.5H620.5V336.834z"/>
<rect x="96.601" y="14.5" fill="#001E39" stroke="#001E39" stroke-width="8" stroke-miterlimit="10" width="539.233" height="82"/>
<g>
	<path fill="#001E39" d="M116.165,122.963l-1.26,3.817h-1.621l4.141-12.136h1.873l4.141,12.136h-1.674l-1.296-3.817H116.165z
		 M120.162,121.738l-1.206-3.493c-0.271-0.792-0.45-1.512-0.63-2.214h-0.036c-0.18,0.702-0.36,1.458-0.612,2.196l-1.188,3.511
		H120.162z"/>
	<path fill="#001E39" d="M125.399,118.065l1.71,4.879c0.288,0.81,0.522,1.53,0.702,2.25h0.054c0.198-0.72,0.45-1.44,0.738-2.25
		l1.693-4.879h1.656l-3.421,8.714h-1.513l-3.313-8.714H125.399z"/>
	<path fill="#001E39" d="M139.494,124.691c0,0.756,0.036,1.494,0.126,2.088h-1.422l-0.126-1.098h-0.054
		c-0.486,0.684-1.422,1.296-2.665,1.296c-1.765,0-2.665-1.243-2.665-2.503c0-2.106,1.873-3.259,5.239-3.241v-0.18
		c0-0.702-0.198-2.017-1.98-1.999c-0.828,0-1.674,0.234-2.287,0.648l-0.36-1.062c0.72-0.45,1.783-0.756,2.881-0.756
		c2.665,0,3.313,1.818,3.313,3.547V124.691z M137.964,122.333c-1.729-0.036-3.691,0.27-3.691,1.962c0,1.044,0.684,1.513,1.476,1.513
		c1.152,0,1.891-0.72,2.143-1.458c0.054-0.18,0.072-0.36,0.072-0.504V122.333z"/>
	<path fill="#001E39" d="M143.813,115.616c0,0.541-0.378,0.973-1.008,0.973c-0.576,0-0.955-0.432-0.955-0.973
		c0-0.54,0.396-0.99,0.99-0.99C143.417,114.626,143.813,115.058,143.813,115.616z M142.048,126.78v-8.714h1.584v8.714H142.048z"/>
	<path fill="#001E39" d="M146.26,113.996h1.584v12.784h-1.584V113.996z"/>
	<path fill="#001E39" d="M156.63,124.691c0,0.756,0.036,1.494,0.126,2.088h-1.422l-0.126-1.098h-0.054
		c-0.486,0.684-1.422,1.296-2.665,1.296c-1.765,0-2.665-1.243-2.665-2.503c0-2.106,1.873-3.259,5.239-3.241v-0.18
		c0-0.702-0.198-2.017-1.98-1.999c-0.828,0-1.674,0.234-2.287,0.648l-0.36-1.062c0.72-0.45,1.783-0.756,2.881-0.756
		c2.665,0,3.313,1.818,3.313,3.547V124.691z M155.1,122.333c-1.729-0.036-3.691,0.27-3.691,1.962c0,1.044,0.684,1.513,1.476,1.513
		c1.152,0,1.891-0.72,2.143-1.458c0.054-0.18,0.072-0.36,0.072-0.504V122.333z"/>
	<path fill="#001E39" d="M159.184,113.996h1.566v5.474h0.036c0.558-0.973,1.566-1.584,2.971-1.584c2.179,0,3.691,1.8,3.691,4.429
		c0,3.115-1.98,4.664-3.925,4.664c-1.261,0-2.269-0.486-2.935-1.621h-0.036l-0.09,1.422h-1.351c0.036-0.594,0.072-1.477,0.072-2.25
		V113.996z M160.75,123.287c0,0.198,0.018,0.396,0.072,0.576c0.288,1.099,1.225,1.854,2.377,1.854c1.674,0,2.647-1.35,2.647-3.349
		c0-1.747-0.9-3.241-2.611-3.241c-1.062,0-2.071,0.756-2.395,1.945c-0.054,0.198-0.09,0.414-0.09,0.666V123.287z"/>
	<path fill="#001E39" d="M169.426,113.996h1.584v12.784h-1.584V113.996z"/>
	<path fill="#001E39" d="M174.556,122.71c0.036,2.143,1.386,3.025,2.989,3.025c1.134,0,1.836-0.198,2.413-0.45l0.288,1.135
		c-0.558,0.252-1.53,0.558-2.917,0.558c-2.683,0-4.286-1.783-4.286-4.412s1.548-4.681,4.087-4.681c2.863,0,3.601,2.485,3.601,4.087
		c0,0.324-0.018,0.558-0.054,0.738H174.556z M179.201,121.576c0.018-0.99-0.414-2.557-2.196-2.557c-1.621,0-2.305,1.458-2.431,2.557
		H179.201z"/>
	<path fill="#001E39" d="M188.128,114.644v12.136h-1.584v-12.136H188.128z"/>
	<path fill="#001E39" d="M193.006,115.977v2.089h2.269v1.206h-2.269v4.699c0,1.081,0.306,1.693,1.188,1.693
		c0.432,0,0.685-0.036,0.918-0.108l0.072,1.206c-0.306,0.108-0.792,0.216-1.405,0.216c-0.738,0-1.333-0.252-1.71-0.667
		c-0.432-0.486-0.612-1.26-0.612-2.287v-4.753h-1.35v-1.206h1.35v-1.621L193.006,115.977z"/>
	<path fill="#001E39" d="M197.83,122.71c0.036,2.143,1.386,3.025,2.989,3.025c1.134,0,1.836-0.198,2.413-0.45l0.288,1.135
		c-0.558,0.252-1.53,0.558-2.917,0.558c-2.683,0-4.286-1.783-4.286-4.412s1.548-4.681,4.087-4.681c2.863,0,3.601,2.485,3.601,4.087
		c0,0.324-0.018,0.558-0.054,0.738H197.83z M202.475,121.576c0.018-0.99-0.414-2.557-2.196-2.557c-1.621,0-2.305,1.458-2.431,2.557
		H202.475z"/>
	<path fill="#001E39" d="M205.965,120.424c0-0.918-0.036-1.639-0.072-2.358h1.387l0.072,1.422h0.054
		c0.486-0.829,1.296-1.603,2.755-1.603c1.17,0,2.07,0.72,2.449,1.747h0.036c0.27-0.504,0.63-0.864,0.99-1.135
		c0.522-0.396,1.08-0.612,1.908-0.612c1.17,0,2.881,0.756,2.881,3.781v5.114h-1.548v-4.916c0-1.692-0.63-2.683-1.891-2.683
		c-0.918,0-1.603,0.666-1.891,1.422c-0.072,0.234-0.126,0.504-0.126,0.792v5.384h-1.548v-5.222c0-1.386-0.612-2.376-1.818-2.376
		c-0.973,0-1.711,0.792-1.963,1.584c-0.09,0.216-0.126,0.504-0.126,0.774v5.24h-1.548V120.424z"/>
	<path fill="#001E39" d="M220.761,125.177c0.486,0.288,1.314,0.612,2.107,0.612c1.134,0,1.674-0.558,1.674-1.296
		c0-0.756-0.45-1.152-1.603-1.584c-1.584-0.576-2.323-1.422-2.323-2.467c0-1.404,1.152-2.557,3.007-2.557
		c0.882,0,1.657,0.234,2.125,0.54l-0.378,1.152c-0.342-0.216-0.972-0.522-1.782-0.522c-0.937,0-1.44,0.54-1.44,1.188
		c0,0.72,0.504,1.044,1.638,1.495c1.495,0.558,2.287,1.314,2.287,2.611c0,1.548-1.207,2.629-3.241,2.629
		c-0.954,0-1.836-0.252-2.449-0.612L220.761,125.177z"/>
</g>
<g>
	<path fill="#001E39" d="M452.43,121.45c-0.09-1.692-0.198-3.745-0.198-5.24h-0.036c-0.432,1.405-0.918,2.935-1.53,4.609
		l-2.143,5.888h-1.188l-1.98-5.78c-0.576-1.729-1.045-3.277-1.387-4.718h-0.036c-0.036,1.513-0.126,3.529-0.233,5.366l-0.324,5.204
		h-1.494l0.846-12.136h1.998l2.071,5.87c0.504,1.495,0.899,2.827,1.224,4.087h0.037c0.324-1.224,0.756-2.557,1.296-4.087l2.161-5.87
		h1.998l0.756,12.136h-1.548L452.43,121.45z"/>
	<path fill="#001E39" d="M457.322,118.065l1.891,5.149c0.216,0.576,0.432,1.26,0.576,1.782h0.036
		c0.161-0.522,0.342-1.188,0.558-1.818l1.729-5.113h1.675l-2.377,6.211c-1.134,2.989-1.908,4.501-2.989,5.456
		c-0.791,0.667-1.548,0.937-1.943,1.009l-0.396-1.314c0.396-0.126,0.918-0.378,1.387-0.774c0.432-0.342,0.953-0.954,1.332-1.765
		c0.072-0.162,0.126-0.288,0.126-0.378s-0.036-0.216-0.126-0.414l-3.205-8.03H457.322z"/>
	<path fill="#001E39" d="M468.896,124.871c0.701,0.45,1.71,0.792,2.79,0.792c1.603,0,2.539-0.846,2.539-2.071
		c0-1.116-0.648-1.782-2.286-2.395c-1.981-0.72-3.205-1.765-3.205-3.457c0-1.891,1.566-3.295,3.925-3.295
		c1.224,0,2.143,0.288,2.665,0.594l-0.433,1.279c-0.378-0.234-1.188-0.576-2.286-0.576c-1.656,0-2.287,0.99-2.287,1.818
		c0,1.134,0.738,1.692,2.412,2.341c2.053,0.792,3.08,1.782,3.08,3.565c0,1.873-1.369,3.511-4.232,3.511
		c-1.17,0-2.448-0.36-3.096-0.792L468.896,124.871z"/>
	<path fill="#001E39" d="M478.904,122.71c0.036,2.143,1.387,3.025,2.988,3.025c1.135,0,1.837-0.198,2.413-0.45l0.288,1.135
		c-0.559,0.252-1.53,0.558-2.917,0.558c-2.683,0-4.285-1.783-4.285-4.412s1.549-4.681,4.087-4.681c2.863,0,3.602,2.485,3.602,4.087
		c0,0.324-0.018,0.558-0.055,0.738H478.904z M483.55,121.576c0.018-0.99-0.415-2.557-2.196-2.557c-1.621,0-2.305,1.458-2.432,2.557
		H483.55z"/>
	<path fill="#001E39" d="M487.04,113.996h1.585v12.784h-1.585V113.996z"/>
	<path fill="#001E39" d="M492.17,122.71c0.036,2.143,1.387,3.025,2.989,3.025c1.134,0,1.837-0.198,2.413-0.45l0.287,1.135
		c-0.558,0.252-1.529,0.558-2.916,0.558c-2.684,0-4.285-1.783-4.285-4.412s1.548-4.681,4.087-4.681c2.862,0,3.601,2.485,3.601,4.087
		c0,0.324-0.018,0.558-0.054,0.738H492.17z M496.815,121.576c0.019-0.99-0.414-2.557-2.196-2.557c-1.621,0-2.305,1.458-2.431,2.557
		H496.815z"/>
	<path fill="#001E39" d="M506.518,126.474c-0.414,0.198-1.332,0.504-2.502,0.504c-2.629,0-4.34-1.783-4.34-4.448
		c0-2.683,1.837-4.645,4.682-4.645c0.936,0,1.765,0.234,2.196,0.468l-0.36,1.206c-0.377-0.198-0.972-0.414-1.836-0.414
		c-1.998,0-3.079,1.495-3.079,3.295c0,2.017,1.296,3.259,3.024,3.259c0.9,0,1.495-0.216,1.945-0.414L506.518,126.474z"/>
	<path fill="#001E39" d="M510.512,115.977v2.089h2.27v1.206h-2.27v4.699c0,1.081,0.307,1.693,1.188,1.693
		c0.433,0,0.685-0.036,0.919-0.108l0.071,1.206c-0.306,0.108-0.792,0.216-1.404,0.216c-0.738,0-1.332-0.252-1.71-0.667
		c-0.433-0.486-0.613-1.26-0.613-2.287v-4.753h-1.35v-1.206h1.35v-1.621L510.512,115.977z"/>
	<path fill="#001E39" d="M516.326,115.616c0,0.541-0.379,0.973-1.008,0.973c-0.576,0-0.955-0.432-0.955-0.973
		c0-0.54,0.396-0.99,0.99-0.99C515.93,114.626,516.326,115.058,516.326,115.616z M514.562,126.78v-8.714h1.585v8.714H514.562z"/>
	<path fill="#001E39" d="M526.66,122.351c0,3.223-2.251,4.627-4.34,4.627c-2.341,0-4.178-1.729-4.178-4.483
		c0-2.899,1.928-4.609,4.322-4.609C524.967,117.885,526.66,119.704,526.66,122.351z M519.764,122.44c0,1.909,1.08,3.349,2.629,3.349
		c1.512,0,2.646-1.422,2.646-3.385c0-1.476-0.738-3.331-2.61-3.331C520.574,119.073,519.764,120.802,519.764,122.44z"/>
	<path fill="#001E39" d="M528.655,120.424c0-0.918-0.019-1.639-0.072-2.358h1.405l0.09,1.44h0.035
		c0.433-0.811,1.441-1.621,2.881-1.621c1.207,0,3.079,0.72,3.079,3.709v5.186h-1.585v-5.023c0-1.404-0.521-2.575-2.016-2.575
		c-1.026,0-1.837,0.738-2.125,1.62c-0.072,0.198-0.107,0.468-0.107,0.738v5.24h-1.585V120.424z"/>
	<path fill="#001E39" d="M538.429,125.177c0.486,0.288,1.314,0.612,2.106,0.612c1.135,0,1.675-0.558,1.675-1.296
		c0-0.756-0.45-1.152-1.603-1.584c-1.584-0.576-2.322-1.422-2.322-2.467c0-1.404,1.152-2.557,3.007-2.557
		c0.882,0,1.656,0.234,2.124,0.54l-0.378,1.152c-0.342-0.216-0.972-0.522-1.782-0.522c-0.937,0-1.44,0.54-1.44,1.188
		c0,0.72,0.504,1.044,1.638,1.495c1.495,0.558,2.287,1.314,2.287,2.611c0,1.548-1.206,2.629-3.24,2.629
		c-0.955,0-1.837-0.252-2.449-0.612L538.429,125.177z"/>
</g>
<rect x="112.834" y="42.833" fill="none" width="408.668" height="33.333"/>
<text transform="matrix(1 0 0 1 112.834 64.1328)" fill="#FFFFFF" font-family="'MyriadPro-Bold'" font-size="30">Happy Shopper</text>
<g>
	<path fill="#001E39" d="M505.143,380.402c-0.559,0.287-1.729,0.576-3.205,0.576c-3.421,0-5.978-2.161-5.978-6.158
		c0-3.817,2.575-6.374,6.338-6.374c1.494,0,2.466,0.323,2.881,0.54l-0.396,1.278c-0.576-0.288-1.423-0.504-2.431-0.504
		c-2.845,0-4.735,1.818-4.735,5.005c0,2.989,1.71,4.88,4.646,4.88c0.973,0,1.944-0.198,2.574-0.505L505.143,380.402z"/>
	<path fill="#001E39" d="M507.066,367.996h1.584v5.455h0.036c0.252-0.449,0.647-0.863,1.134-1.134
		c0.469-0.271,1.027-0.433,1.621-0.433c1.17,0,3.043,0.721,3.043,3.709v5.186h-1.585v-5.005c0-1.404-0.522-2.575-2.017-2.575
		c-1.026,0-1.818,0.721-2.125,1.566c-0.09,0.234-0.107,0.469-0.107,0.757v5.257h-1.584V367.996z"/>
	<path fill="#001E39" d="M517.938,376.711c0.036,2.143,1.387,3.024,2.989,3.024c1.134,0,1.837-0.198,2.413-0.45l0.287,1.135
		c-0.558,0.252-1.529,0.559-2.916,0.559c-2.684,0-4.285-1.783-4.285-4.412s1.548-4.682,4.087-4.682c2.862,0,3.601,2.485,3.601,4.088
		c0,0.324-0.018,0.558-0.054,0.738H517.938z M522.583,375.576c0.019-0.99-0.414-2.557-2.196-2.557c-1.621,0-2.305,1.459-2.431,2.557
		H522.583z"/>
	<path fill="#001E39" d="M532.285,380.474c-0.414,0.198-1.332,0.505-2.502,0.505c-2.629,0-4.34-1.783-4.34-4.448
		c0-2.683,1.837-4.646,4.682-4.646c0.936,0,1.765,0.234,2.196,0.469l-0.36,1.206c-0.377-0.198-0.972-0.414-1.836-0.414
		c-1.998,0-3.079,1.495-3.079,3.295c0,2.017,1.296,3.259,3.024,3.259c0.9,0,1.495-0.216,1.945-0.414L532.285,380.474z"/>
	<path fill="#001E39" d="M535.704,376.062h0.036c0.216-0.307,0.504-0.685,0.756-0.99l2.575-3.007h1.891l-3.349,3.583l3.834,5.131
		h-1.943l-2.99-4.177l-0.81,0.9v3.276h-1.566v-12.783h1.566V376.062z"/>
	<path fill="#001E39" d="M550.466,376.351c0,3.223-2.251,4.628-4.339,4.628c-2.341,0-4.178-1.729-4.178-4.484
		c0-2.898,1.927-4.609,4.321-4.609C548.773,371.885,550.466,373.703,550.466,376.351z M543.57,376.44
		c0,1.909,1.08,3.349,2.629,3.349c1.512,0,2.646-1.422,2.646-3.385c0-1.477-0.738-3.331-2.611-3.331
		C544.38,373.073,543.57,374.802,543.57,376.44z"/>
	<path fill="#001E39" d="M559.754,378.385c0,0.918,0.018,1.711,0.072,2.395h-1.405l-0.09-1.422h-0.036
		c-0.396,0.702-1.332,1.621-2.881,1.621c-1.368,0-3.007-0.775-3.007-3.818v-5.095h1.585v4.808c0,1.656,0.521,2.791,1.944,2.791
		c1.062,0,1.8-0.738,2.089-1.459c0.09-0.217,0.144-0.504,0.144-0.811v-5.329h1.585V378.385z"/>
	<path fill="#001E39" d="M564.288,369.977v2.089h2.269v1.206h-2.269v4.699c0,1.08,0.306,1.693,1.188,1.693
		c0.432,0,0.684-0.037,0.918-0.108l0.072,1.206c-0.307,0.107-0.793,0.217-1.404,0.217c-0.738,0-1.333-0.253-1.711-0.667
		c-0.432-0.485-0.612-1.261-0.612-2.286v-4.754h-1.351v-1.206h1.351v-1.62L564.288,369.977z"/>
</g>
<g>
	<path fill="#001E39" d="M346.311,176.963l-1.26,3.817h-1.621l4.141-12.136h1.873l4.141,12.136h-1.674l-1.296-3.817H346.311z
		 M350.308,175.738l-1.206-3.493c-0.271-0.792-0.45-1.512-0.63-2.214h-0.036c-0.18,0.702-0.36,1.458-0.612,2.196l-1.188,3.511
		H350.308z"/>
	<path fill="#001E39" d="M362.603,167.996v10.533c0,0.774,0.036,1.656,0.072,2.25h-1.404l-0.072-1.512h-0.054
		c-0.468,0.972-1.513,1.71-2.935,1.71c-2.106,0-3.745-1.783-3.745-4.43c-0.018-2.899,1.801-4.663,3.907-4.663
		c1.351,0,2.233,0.63,2.629,1.314h0.036v-5.204H362.603z M361.036,175.612c0-0.198-0.018-0.468-0.072-0.666
		c-0.234-0.991-1.098-1.819-2.287-1.819c-1.639,0-2.611,1.44-2.611,3.349c0,1.765,0.882,3.223,2.575,3.223
		c1.062,0,2.035-0.72,2.323-1.89c0.054-0.216,0.072-0.432,0.072-0.685V175.612z"/>
	<path fill="#001E39" d="M372.754,167.996v10.533c0,0.774,0.036,1.656,0.072,2.25h-1.404l-0.072-1.512h-0.054
		c-0.468,0.972-1.513,1.71-2.935,1.71c-2.106,0-3.745-1.783-3.745-4.43c-0.018-2.899,1.801-4.663,3.907-4.663
		c1.351,0,2.233,0.63,2.629,1.314h0.036v-5.204H372.754z M371.188,175.612c0-0.198-0.018-0.468-0.072-0.666
		c-0.234-0.991-1.098-1.819-2.287-1.819c-1.639,0-2.611,1.44-2.611,3.349c0,1.765,0.882,3.223,2.575,3.223
		c1.062,0,2.035-0.72,2.323-1.89c0.054-0.216,0.072-0.432,0.072-0.685V175.612z"/>
	<path fill="#001E39" d="M387.442,176.495l-8.354,4.285v-1.242l7.094-3.529v-0.036l-7.094-3.529v-1.242l8.354,4.267V176.495z"/>
	<path fill="#001E39" d="M398.17,176.495l-8.354,4.285v-1.242l7.094-3.529v-0.036l-7.094-3.529v-1.242l8.354,4.267V176.495z"/>
</g>
<g>
	<path fill="#001E39" d="M329.201,235.504l8.354-4.303v1.242l-7.04,3.529v0.035l7.04,3.529v1.242l-8.354-4.303V235.504z"/>
	<path fill="#001E39" d="M339.929,235.504l8.354-4.303v1.242l-7.04,3.529v0.035l7.04,3.529v1.242l-8.354-4.303V235.504z"/>
	<path fill="#001E39" d="M354.653,228.807c0.792-0.145,1.944-0.252,3.007-0.252c1.674,0,2.772,0.324,3.511,0.99
		c0.594,0.539,0.955,1.368,0.955,2.322c0,1.584-1.008,2.646-2.269,3.079V235c0.918,0.324,1.477,1.188,1.765,2.449
		c0.396,1.691,0.684,2.862,0.937,3.33h-1.621c-0.198-0.359-0.468-1.386-0.792-2.898c-0.36-1.674-1.026-2.305-2.449-2.358h-1.476
		v5.257h-1.566V228.807z M356.22,234.334h1.603c1.674,0,2.736-0.918,2.736-2.305c0-1.566-1.134-2.251-2.791-2.251
		c-0.756,0-1.278,0.054-1.548,0.126V234.334z"/>
	<path fill="#001E39" d="M365.237,236.711c0.036,2.143,1.386,3.024,2.989,3.024c1.134,0,1.836-0.198,2.413-0.45l0.288,1.135
		c-0.558,0.252-1.53,0.559-2.917,0.559c-2.683,0-4.285-1.783-4.285-4.412s1.549-4.682,4.087-4.682c2.863,0,3.601,2.485,3.601,4.088
		c0,0.324-0.018,0.558-0.054,0.738H365.237z M369.883,235.576c0.018-0.99-0.415-2.557-2.197-2.557c-1.621,0-2.305,1.459-2.431,2.557
		H369.883z"/>
	<path fill="#001E39" d="M373.373,234.424c0-0.918-0.036-1.639-0.072-2.358h1.387l0.072,1.423h0.054
		c0.486-0.829,1.296-1.604,2.755-1.604c1.17,0,2.07,0.721,2.449,1.747h0.036c0.271-0.505,0.63-0.864,0.991-1.135
		c0.522-0.396,1.08-0.612,1.908-0.612c1.17,0,2.881,0.757,2.881,3.781v5.113h-1.548v-4.915c0-1.692-0.63-2.683-1.891-2.683
		c-0.918,0-1.603,0.666-1.891,1.422c-0.072,0.234-0.126,0.504-0.126,0.793v5.383h-1.548v-5.221c0-1.387-0.612-2.377-1.818-2.377
		c-0.973,0-1.71,0.792-1.963,1.584c-0.09,0.217-0.126,0.504-0.126,0.774v5.239h-1.548V234.424z"/>
	<path fill="#001E39" d="M396.271,236.351c0,3.223-2.25,4.628-4.339,4.628c-2.34,0-4.177-1.729-4.177-4.484
		c0-2.898,1.927-4.609,4.321-4.609C394.579,231.885,396.271,233.703,396.271,236.351z M389.375,236.44
		c0,1.909,1.081,3.349,2.629,3.349c1.512,0,2.646-1.422,2.646-3.385c0-1.477-0.738-3.331-2.611-3.331
		C390.186,233.073,389.375,234.802,389.375,236.44z"/>
	<path fill="#001E39" d="M398.754,232.065l1.71,4.88c0.288,0.81,0.522,1.529,0.702,2.25h0.055c0.197-0.721,0.449-1.44,0.738-2.25
		l1.692-4.88h1.656l-3.421,8.714h-1.513l-3.313-8.714H398.754z"/>
	<path fill="#001E39" d="M407.502,236.711c0.035,2.143,1.386,3.024,2.988,3.024c1.135,0,1.836-0.198,2.412-0.45l0.289,1.135
		c-0.559,0.252-1.531,0.559-2.917,0.559c-2.683,0-4.286-1.783-4.286-4.412s1.549-4.682,4.088-4.682c2.863,0,3.602,2.485,3.602,4.088
		c0,0.324-0.019,0.558-0.055,0.738H407.502z M412.146,235.576c0.018-0.99-0.414-2.557-2.196-2.557c-1.62,0-2.305,1.459-2.431,2.557
		H412.146z"/>
</g>
</svg>
