<?xml version="1.0" encoding="utf-8"?>
<!-- Generator: Adobe Illustrator 15.1.0, SVG Export Plug-In . SVG Version: 6.00 Build 0)  -->
<!DOCTYPE svg PUBLIC "-//W3C//DTD SVG 1.1//EN" "http://www.w3.org/Graphics/SVG/1.1/DTD/svg11.dtd">
<svg version="1.1" id="Layer_1" xmlns="http://www.w3.org/2000/svg" xmlns:xlink="http://www.w3.org/1999/xlink" x="0px" y="0px"
	 width="800px" height="450px" viewBox="0 0 800 450" enable-background="new 0 0 800 450" xml:space="preserve">
<path fill="#001E39" fill-opacity="0.2" stroke="#001E39" stroke-width="8" stroke-miterlimit="10" d="M50.101,26.5v143.518h143.518
	V26.5H50.101z M167.99,66.651H75.729V37.605h92.262V66.651z"/>
<g>
	<g>
		<path fill="#001E39" d="M96.948,194.621c0,0.864-0.108,1.729-0.18,2.592c-0.252,2.628-0.396,5.472-0.396,7.883
			c0,0.469,0.036,0.937,0.072,1.368c-0.252,0.756-1.296,0.792-2.052,0.792c-0.9,0-1.368-0.108-1.692-0.936
			c0.324-0.612,0.36-5.724,0.36-6.695c0-4.823,0.36-9.647,0.36-14.435c0-1.62,1.188-1.691,2.16-1.691h0.9
			c0.828,0.972,1.764,5.795,2.592,7.739c0.72,1.692,1.224,3.348,2.051,4.967c0-0.72-0.072-1.403-0.072-2.124
			c0-2.915,0.468-5.795,0.468-8.71c0-0.396-0.144-0.792-0.144-1.224c0-0.396,0.108-0.792,0.288-1.188
			c1.044,0.252,3.708-0.18,3.708,1.332c0,0.72-0.144,1.512-0.18,2.268c-0.216,5.579-0.612,11.015-0.72,16.954v1.403
			c0,2.016-0.504,2.483-1.908,2.483c-0.504,0-1.188-0.071-1.548-0.432c-0.252-0.324-3.456-9.683-3.671-10.654L96.948,194.621z"/>
		<path fill="#001E39" d="M114.587,206.896c-0.216,0.108-0.576,0.324-0.864,0.324c-0.036,0-0.072,0-0.108-0.036
			c-0.216,0.036-0.468,0.072-0.684,0.072c-0.324,0-0.612,0-0.864-0.108l-0.864-0.144h0.036c-0.288-0.036-0.468-0.18-0.72-0.324
			c-2.771-1.332-3.131-3.959-3.131-7.631c0-2.951,0.828-8.099,4.643-8.099c0.468,0,0.972,0.036,1.44,0.216h-0.036
			c3.564,1.403,4.104,5.976,4.104,9.322c0,0.828-0.576,5.328-2.987,6.407H114.587z M110.375,199.445
			c0.324,1.728-0.324,4.895,2.268,4.895c1.583,0,1.188-3.743,1.188-5.075c0-1.728-0.108-5.291-1.439-5.291
			c-1.404,0-2.052,3.888-2.052,5.003C110.34,199.121,110.34,199.301,110.375,199.445z"/>
		<path fill="#001E39" d="M122.976,189.438v0.072c0,0.144,0,0.288,0.036,0.432c0.828-0.36,0.864-0.54,1.872-0.54
			c1.836,0,2.592,0.899,3.564,2.304c0.144,0.216,0.216,0.432,0.216,0.684c0,0.36-0.216,0.684-0.504,0.9h0.036
			c-0.324,0.359-0.936,0.863-1.44,0.863c-0.108,0-0.216,0-0.324-0.036h0.036c-0.612-0.18-0.792-0.756-1.116-0.863l0.036,0.036
			c-0.288-0.181-0.612-0.217-0.936-0.217c-1.512,0-1.404,2.664-1.404,3.96c0,2.124,0.108,4.247,0.108,6.443
			c0,1.188-0.144,2.34-0.144,3.527c-0.54,0.216-0.972,0.216-1.476,0.216c-1.26,0-1.692-0.036-1.692-1.151
			c0-1.62,0.144-3.24,0.144-4.859v-6.516c0-1.548-0.288-3.167-0.288-4.644c0-1.224,1.656-1.08,2.448-1.08
			c0.18,0,0.36,0.036,0.54,0.108L122.976,189.438z"/>
		<path fill="#001E39" d="M135.503,190.662c0.9,0.072,1.764,0,2.628,0.216l-0.036,0.36c0.108,0.36,0.18,0.72,0.18,1.116
			c0,1.116-0.648,1.152-1.512,1.152h-1.332c-0.036,0.647-0.036,1.332-0.036,1.979c0,2.699-0.108,8.459,0.684,8.603
			c0.324-0.107,0.324-0.359,0.792-0.359c0.288,0,1.979,1.332,1.979,1.584c0,1.26-1.62,1.943-2.7,1.943
			c-0.576,0-1.295-0.324-1.835-0.576l-0.144-0.036c-1.656-0.936-1.728-3.383-1.728-5.075c0-2.52,0-5.255-0.324-7.919
			c-0.144-0.036-0.324-0.036-0.468-0.036c-0.216,0-0.432,0.036-0.648,0.036c-0.432,0-0.648-1.008-0.648-1.872
			c0-1.584,0.864-1.152,1.583-1.152c0-0.864-0.036-1.656-0.036-2.484c0-1.548,1.008-1.439,1.979-1.439
			c0.324,0,0.648,0.036,1.368,0.432C135.36,188.286,135.432,189.474,135.503,190.662z"/>
		<path fill="#001E39" d="M144.936,184.651c0.072,0.36,0.108,0.9,0.108,1.476c0,1.008-0.072,2.124-0.072,2.808
			c0,0.612,0,1.188,0.036,1.8h0.432c5.507,0,5.184,6.011,5.184,10.006c0,1.152,0,5.111-0.504,5.903h0.036
			c-0.216,0.469-0.936,0.612-1.404,0.612c-1.116,0-1.44-0.54-1.44-1.584c0-0.504,0.072-1.008,0.072-1.512v-6.047
			c0-1.26-0.144-4.355-1.944-4.355c-0.144,0-0.324,0-0.468,0.071c0,1.872-0.072,12.274-0.36,12.743
			c-0.252,0.396-0.612,0.611-1.08,0.611c-0.612,0-1.188-0.216-1.8-0.216c-0.108-2.808-0.216-5.651-0.216-8.459v-2.951
			c0-1.404,0.072-2.844,0.144-4.248c0.072-2.304,0-4.607,0.18-6.911c0.648-0.036,1.26-0.216,1.872-0.216
			c0.324,0,0.612,0.072,0.936,0.18L144.936,184.651z"/>
	</g>
</g>
<path fill="#001E39" fill-opacity="0.2" stroke="#001E39" stroke-width="8" stroke-miterlimit="10" d="M235.527,26.5v143.518
	h143.518V26.5H235.527z M353.417,159.766h-92.262v-29.045h92.262V159.766z"/>
<g>
	<g>
		<path fill="#001E39" d="M288.386,199.913c0.072,0.396,0.108,0.792,0.108,1.188c0,4.212-2.772,6.228-6.083,6.228
			c-2.7,0-5.471-2.304-5.471-5.147c0-1.404,1.008-1.476,2.124-1.476c0.54,0,1.08,0.144,1.584,0.432c0,1.151,0.648,2.699,2.016,2.699
			c1.26,0,2.16-0.972,2.16-2.195c0-2.304-3.312-5.327-4.967-6.695l0.036,0.036c-2.16-1.764-3.167-3.06-3.167-5.939
			c0-3.383,2.375-5.867,5.831-5.867c1.62,0,3.708,0.828,4.428,2.376c0.36,0.792,1.043,1.979,1.043,2.879
			c0,1.08-1.62,1.26-2.447,1.26c-2.304,0-0.576-3.06-3.636-3.06c-0.396,0-0.864,0.396-1.116,0.684h0.036
			c-0.504,0.576-0.828,1.332-0.828,2.088c0,0.18,0.036,0.36,0.072,0.54c0.432,2.339,7.271,5.759,8.279,10.007V199.913z"/>
		<path fill="#001E39" d="M297.998,206.896c-0.216,0.108-0.576,0.324-0.864,0.324c-0.036,0-0.072,0-0.108-0.036
			c-0.216,0.036-0.468,0.072-0.684,0.072c-0.324,0-0.612,0-0.864-0.108l-0.864-0.144h0.036c-0.288-0.036-0.468-0.18-0.72-0.324
			c-2.771-1.332-3.131-3.959-3.131-7.631c0-2.951,0.828-8.099,4.643-8.099c0.468,0,0.972,0.036,1.44,0.216h-0.036
			c3.564,1.403,4.104,5.976,4.104,9.322c0,0.828-0.576,5.328-2.987,6.407H297.998z M293.786,199.445
			c0.324,1.728-0.324,4.895,2.268,4.895c1.583,0,1.188-3.743,1.188-5.075c0-1.728-0.108-5.291-1.439-5.291
			c-1.404,0-2.052,3.888-2.052,5.003C293.75,199.121,293.75,199.301,293.786,199.445z"/>
		<path fill="#001E39" d="M314.341,198.94c0,1.98,0.432,4.68,0.432,6.804c0,1.476-0.504,1.368-1.548,1.368
			c-0.792,0-1.332,0.071-1.656-0.685c-0.792,0.612-1.044,0.576-1.98,0.756h0.036c-0.288,0.072-0.576,0.108-0.9,0.108
			c-1.62,0-3.023-0.792-3.923-2.088v0.036c-0.468-0.612-0.504-1.224-0.792-1.872l0.036,0.036c-0.396-1.044-0.432-5.003-0.432-7.055
			v-2.916c0-1.116,0-2.196,0.144-3.275c0.504-0.216,1.08-0.324,1.62-0.324c1.008,0,1.908,0,1.908,1.368
			c0,3.312-0.432,6.66-0.432,9.935c0,1.332,0.504,2.304,1.979,2.304c0.396,0,0.828-0.145,1.224-0.324l-0.036,0.036
			c0.864-0.504,0.9-2.771,0.9-3.852c0-2.808-0.396-5.651-0.396-8.459c0-0.972,1.224-1.08,2.16-1.08c1.8,0,1.728,0.324,1.728,1.332
			C314.413,193.686,314.341,196.313,314.341,198.94z"/>
		<path fill="#001E39" d="M322.658,190.662c0.899,0.072,1.764,0,2.627,0.216l-0.036,0.36c0.108,0.36,0.18,0.72,0.18,1.116
			c0,1.116-0.648,1.152-1.512,1.152h-1.332c-0.036,0.647-0.036,1.332-0.036,1.979c0,2.699-0.108,8.459,0.684,8.603
			c0.324-0.107,0.324-0.359,0.792-0.359c0.288,0,1.979,1.332,1.979,1.584c0,1.26-1.62,1.943-2.7,1.943
			c-0.576,0-1.295-0.324-1.835-0.576l-0.144-0.036c-1.656-0.936-1.728-3.383-1.728-5.075c0-2.52,0-5.255-0.324-7.919
			c-0.144-0.036-0.324-0.036-0.468-0.036c-0.216,0-0.432,0.036-0.648,0.036c-0.432,0-0.648-1.008-0.648-1.872
			c0-1.584,0.864-1.152,1.583-1.152c0-0.864-0.036-1.656-0.036-2.484c0-1.548,1.008-1.439,1.979-1.439
			c0.324,0,0.648,0.036,1.368,0.432C322.514,188.286,322.585,189.474,322.658,190.662z"/>
		<path fill="#001E39" d="M332.089,184.651c0.072,0.36,0.108,0.9,0.108,1.476c0,1.008-0.072,2.124-0.072,2.808
			c0,0.612,0,1.188,0.036,1.8h0.432c5.507,0,5.184,6.011,5.184,10.006c0,1.152,0,5.111-0.504,5.903h0.036
			c-0.216,0.469-0.936,0.612-1.404,0.612c-1.116,0-1.44-0.54-1.44-1.584c0-0.504,0.072-1.008,0.072-1.512v-6.047
			c0-1.26-0.144-4.355-1.944-4.355c-0.144,0-0.324,0-0.468,0.071c0,1.872-0.072,12.274-0.36,12.743
			c-0.252,0.396-0.612,0.611-1.08,0.611c-0.612,0-1.188-0.216-1.8-0.216c-0.108-2.808-0.216-5.651-0.216-8.459v-2.951
			c0-1.404,0.072-2.844,0.144-4.248c0.072-2.304,0-4.607,0.18-6.911c0.648-0.036,1.26-0.216,1.872-0.216
			c0.324,0,0.612,0.072,0.936,0.18L332.089,184.651z"/>
	</g>
</g>
<path fill="#001E39" fill-opacity="0.2" stroke="#001E39" stroke-width="8" stroke-miterlimit="10" d="M420.954,26.5v143.518
	h143.518V26.5H420.954z M553.366,112.781h-92.262V83.736h92.262V112.781z"/>
<g>
	<g>
		<path fill="#001E39" d="M479.338,203.44c1.908,0,1.332,2.411,1.44,3.707c-1.224,0.108-2.483,0.145-3.743,0.145
			c-0.648,0-5.111-0.072-5.508-0.288c-0.576-1.332-0.611-3.779-0.611-5.291c0-6.048-0.145-12.167-0.145-18.214
			c0.576-0.576,1.296-0.576,2.052-0.576c1.728,0,3.456-0.18,5.147-0.18c0.756,0,1.548,0.108,2.195,0.468
			c0.072,0.828,0.252,1.944,0.252,2.592c0,0.792-0.791,0.792-1.403,0.792c-1.584,0-3.168,0.072-4.716,0.18
			c0,2.304-0.359,4.571-0.359,6.875c0,0.18,0,0.36,0.035,0.54c1.152-0.108,2.305-0.288,3.456-0.288c0.433,0,0.864,0.072,1.26,0.072
			c0.144,0.468,0.576,2.304,0.576,2.771c0,1.116-3.563,0.792-5.184,0.9v0.323c-0.036,0.9,0.181,1.8,0.181,2.7
			c0,0.863,0,1.728,0.18,2.592c1.403,0.216,2.771,0.216,4.139,0.216C478.799,203.477,479.086,203.44,479.338,203.44z"/>
		<path fill="#001E39" d="M492.479,204.124c0,0.252,0.035,0.576,0.035,0.972c0,0.828-0.144,1.765-1.043,1.765
			c-0.396,0-0.793,0.287-1.225,0.287c-0.359,0-0.792-0.216-0.863-0.575c-0.541,0.252-1.152,0.54-1.764,0.54
			c-3.168,0-4.5-3.96-4.5-6.695c0-2.16,1.08-5.579,3.779-5.579c0.684,0,1.439,0.216,2.304,0.684
			c0.181-0.324,0.252-0.684,0.252-1.044c0-0.576-0.216-1.224-0.792-1.476h0.036c-0.036-0.036-0.144-0.072-0.216-0.072
			c-0.432,0-0.576,0.54-0.684,0.864c0,0.504-1.08,0.539-1.549,0.575c-0.432,0-1.547,0-1.547-0.575c0-2.16,2.123-4.32,4.283-4.32
			c3.168,0,3.707,3.851,3.707,6.263c0,1.512-0.215,3.023-0.215,4.787V204.124z M489.383,200.74c0-0.863,0-2.52-0.937-2.879
			c-0.504,0-1.907,0.144-1.907,2.771v0.396c0,0.685,0.107,2.772,1.115,2.772C488.986,203.801,489.383,201.713,489.383,200.74z"/>
		<path fill="#001E39" d="M503.098,202.433c0,0.936-0.289,2.195-0.864,2.987v-0.036c-0.828,1.26-2.34,1.908-3.815,1.908
			c-1.368,0-2.628-0.468-3.672-1.296v0.036c-0.396-0.252-1.224-1.224-1.224-1.692c0.252-0.575,1.728-1.655,2.376-1.655
			c0.504,0,1.584,1.403,2.699,1.403c0.54,0,0.864-0.972,0.864-1.403c0-1.44-1.8-2.952-2.844-3.779
			c-1.764-1.332-2.844-2.124-2.844-4.572c0-2.519,2.196-4.571,4.644-4.571c0.359,0,0.72,0.036,1.08,0.18v-0.036
			c1.08,0.252,3.059,1.26,3.059,2.268c-0.359,0.54-1.799,1.764-2.411,1.764c-0.252,0-0.827-0.828-1.728-0.828
			c-0.721,0-1.044,0.576-1.044,1.224c0,1.188,1.188,2.052,2.016,2.7h-0.036C501.082,198.293,503.098,200.129,503.098,202.433z"/>
		<path fill="#001E39" d="M510.98,190.662c0.9,0.072,1.765,0,2.629,0.216l-0.037,0.36c0.108,0.36,0.181,0.72,0.181,1.116
			c0,1.116-0.647,1.152-1.512,1.152h-1.332c-0.036,0.647-0.036,1.332-0.036,1.979c0,2.699-0.107,8.459,0.684,8.603
			c0.324-0.107,0.324-0.359,0.793-0.359c0.287,0,1.979,1.332,1.979,1.584c0,1.26-1.619,1.943-2.699,1.943
			c-0.576,0-1.295-0.324-1.836-0.576l-0.144-0.036c-1.655-0.936-1.728-3.383-1.728-5.075c0-2.52,0-5.255-0.324-7.919
			c-0.145-0.036-0.324-0.036-0.468-0.036c-0.216,0-0.433,0.036-0.647,0.036c-0.433,0-0.648-1.008-0.648-1.872
			c0-1.584,0.863-1.152,1.584-1.152c0-0.864-0.036-1.656-0.036-2.484c0-1.548,1.008-1.439,1.979-1.439
			c0.324,0,0.648,0.036,1.367,0.432C510.838,188.286,510.909,189.474,510.98,190.662z"/>
	</g>
</g>
<path fill="#001E39" fill-opacity="0.2" stroke="#001E39" stroke-width="8" stroke-miterlimit="10" d="M606.383,26.5v143.518H749.9
	V26.5H606.383z M708.895,112.781h-92.26V83.736h92.26V112.781z"/>
<g>
	<g>
		<path fill="#001E39" d="M664.928,207.004c-0.359-0.576-2.124-10.187-2.304-11.375c-0.647,3.492-1.44,6.983-1.944,10.475
			c-0.107,0.612-0.287,0.828-0.863,0.973l0.035-0.036c-0.323,0.107-0.647,0.107-0.971,0.107c-0.252,0-0.648,0-0.937-0.107
			c-0.684-0.216-3.384-10.655-3.671-12.131c-0.469-2.34-0.793-4.787-1.188-7.163c-0.144-0.972-0.54-2.627-0.54-3.599
			c0-0.288,1.872-0.288,2.16-0.288c0.648,0,1.295,0,1.979,0.072c0.144,1.152,0.072,2.304,0.181,3.42
			c0.071,0.864,0.323,1.728,0.504,2.591l1.008,5.219c0.18,0.937,0.323,1.908,0.396,2.88c0.36-1.476,1.655-10.871,2.124-11.303
			c0.287-0.252,0.791-0.288,1.115-0.288c0.504,0,1.332,0.108,1.729,0.432c0.575,0.468,2.52,11.267,2.592,12.634
			c0.467-2.663,0.504-5.688,0.863-8.495c0.107-0.9,0.936-7.703,1.548-8.027c0.216,0.036,0.396,0.072,0.612,0.072
			c0.072,0,0.18-0.036,0.252-0.036c0.504,0,1.836,0.468,2.34,0.648c-0.324,3.096-0.756,6.263-1.297,9.323
			c-0.215,1.115-2.303,13.318-2.447,13.57c-0.396,0.575-1.332,0.684-1.979,0.684C665.791,207.256,665.287,207.184,664.928,207.004z"
			/>
		<path fill="#001E39" d="M681.92,202.648c0,2.699-2.447,4.607-5.039,4.607c-4.428,0-4.787-6.083-4.787-9.323
			c0-3.347,1.223-7.918,5.326-7.918c4.284,0,4.141,5.183,4.141,8.422c0,1.044-3.492,1.188-6.084,1.188v0.684
			c0,1.008,0.072,3.527,1.512,3.527c1.332,0,1.439-1.835,1.656-2.808C679.545,201.028,681.92,201.425,681.92,202.648z
			 M675.585,196.205c0.36,0.072,0.72,0.072,1.079,0.072c0.685,0,1.297-0.072,1.944-0.18c0-0.648-0.36-2.808-1.26-2.808
			C676.017,193.29,675.693,195.197,675.585,196.205z"/>
		<path fill="#001E39" d="M692.252,202.433c0,0.936-0.287,2.195-0.863,2.987v-0.036c-0.828,1.26-2.34,1.908-3.815,1.908
			c-1.368,0-2.628-0.468-3.672-1.296v0.036c-0.396-0.252-1.224-1.224-1.224-1.692c0.252-0.575,1.729-1.655,2.375-1.655
			c0.504,0,1.584,1.403,2.7,1.403c0.54,0,0.864-0.972,0.864-1.403c0-1.44-1.8-2.952-2.844-3.779
			c-1.764-1.332-2.844-2.124-2.844-4.572c0-2.519,2.195-4.571,4.644-4.571c0.36,0,0.72,0.036,1.079,0.18v-0.036
			c1.08,0.252,3.061,1.26,3.061,2.268c-0.36,0.54-1.801,1.764-2.412,1.764c-0.252,0-0.828-0.828-1.728-0.828
			c-0.72,0-1.044,0.576-1.044,1.224c0,1.188,1.188,2.052,2.016,2.7h-0.036C690.236,198.293,692.252,200.129,692.252,202.433z"/>
		<path fill="#001E39" d="M700.137,190.662c0.899,0.072,1.764,0,2.627,0.216l-0.035,0.36c0.107,0.36,0.18,0.72,0.18,1.116
			c0,1.116-0.648,1.152-1.512,1.152h-1.332c-0.036,0.647-0.036,1.332-0.036,1.979c0,2.699-0.108,8.459,0.685,8.603
			c0.323-0.107,0.323-0.359,0.791-0.359c0.289,0,1.98,1.332,1.98,1.584c0,1.26-1.62,1.943-2.7,1.943
			c-0.575,0-1.296-0.324-1.835-0.576l-0.145-0.036c-1.656-0.936-1.729-3.383-1.729-5.075c0-2.52,0-5.255-0.323-7.919
			c-0.144-0.036-0.324-0.036-0.468-0.036c-0.217,0-0.432,0.036-0.648,0.036c-0.432,0-0.647-1.008-0.647-1.872
			c0-1.584,0.864-1.152,1.583-1.152c0-0.864-0.035-1.656-0.035-2.484c0-1.548,1.008-1.439,1.979-1.439
			c0.324,0,0.647,0.036,1.368,0.432C699.992,188.286,700.064,189.474,700.137,190.662z"/>
	</g>
</g>
<path fill="#001E39" fill-opacity="0.2" stroke="#001E39" stroke-width="8" stroke-miterlimit="10" d="M139.834,240.982V384.5
	h143.518V240.982H139.834z M257.724,373.395h-92.262V252.088h92.262V373.395z"/>
<g>
	<g>
		<path fill="#001E39" d="M148.215,412.621c0,0.864-0.108,1.729-0.18,2.592c-0.252,2.628-0.396,5.472-0.396,7.883
			c0,0.469,0.036,0.937,0.072,1.368c-0.252,0.756-1.296,0.792-2.052,0.792c-0.9,0-1.368-0.108-1.692-0.936
			c0.324-0.612,0.36-5.724,0.36-6.695c0-4.823,0.36-9.646,0.36-14.435c0-1.62,1.188-1.691,2.16-1.691h0.9
			c0.828,0.972,1.764,5.795,2.591,7.739c0.72,1.691,1.224,3.348,2.052,4.967c0-0.72-0.072-1.403-0.072-2.124
			c0-2.915,0.468-5.795,0.468-8.71c0-0.396-0.144-0.793-0.144-1.225c0-0.396,0.108-0.791,0.288-1.188
			c1.044,0.252,3.708-0.18,3.708,1.332c0,0.72-0.144,1.512-0.18,2.268c-0.216,5.579-0.612,11.015-0.72,16.954v1.403
			c0,2.016-0.504,2.483-1.908,2.483c-0.504,0-1.188-0.071-1.548-0.432c-0.252-0.324-3.456-9.683-3.671-10.654L148.215,412.621z"/>
		<path fill="#001E39" d="M165.854,424.896c-0.216,0.108-0.576,0.324-0.864,0.324c-0.036,0-0.072,0-0.108-0.036
			c-0.216,0.036-0.468,0.072-0.684,0.072c-0.324,0-0.612,0-0.864-0.108l-0.864-0.144h0.036c-0.288-0.036-0.468-0.18-0.72-0.324
			c-2.771-1.332-3.131-3.959-3.131-7.631c0-2.951,0.828-8.1,4.643-8.1c0.468,0,0.972,0.037,1.44,0.217h-0.036
			c3.564,1.403,4.104,5.976,4.104,9.322c0,0.828-0.576,5.328-2.987,6.407H165.854z M161.643,417.445
			c0.324,1.728-0.324,4.895,2.268,4.895c1.583,0,1.188-3.743,1.188-5.075c0-1.728-0.108-5.291-1.439-5.291
			c-1.404,0-2.052,3.888-2.052,5.003C161.607,417.121,161.607,417.301,161.643,417.445z"/>
		<path fill="#001E39" d="M174.243,407.438v0.072c0,0.145,0,0.288,0.036,0.432c0.828-0.359,0.864-0.539,1.872-0.539
			c1.836,0,2.592,0.899,3.564,2.304c0.144,0.216,0.216,0.432,0.216,0.684c0,0.36-0.216,0.684-0.504,0.9h0.036
			c-0.324,0.359-0.936,0.863-1.44,0.863c-0.108,0-0.216,0-0.324-0.036h0.036c-0.612-0.18-0.792-0.756-1.116-0.863l0.036,0.036
			c-0.288-0.181-0.612-0.217-0.936-0.217c-1.512,0-1.404,2.664-1.404,3.96c0,2.124,0.108,4.247,0.108,6.443
			c0,1.188-0.144,2.34-0.144,3.527c-0.54,0.216-0.972,0.216-1.476,0.216c-1.26,0-1.692-0.036-1.692-1.151
			c0-1.62,0.144-3.24,0.144-4.859v-6.516c0-1.548-0.288-3.168-0.288-4.644c0-1.224,1.656-1.079,2.448-1.079
			c0.18,0,0.36,0.035,0.54,0.107L174.243,407.438z"/>
		<path fill="#001E39" d="M186.771,408.662c0.9,0.072,1.764,0,2.628,0.216l-0.036,0.36c0.108,0.359,0.18,0.72,0.18,1.115
			c0,1.116-0.648,1.152-1.512,1.152h-1.332c-0.036,0.647-0.036,1.332-0.036,1.979c0,2.699-0.108,8.459,0.684,8.603
			c0.324-0.107,0.324-0.359,0.792-0.359c0.288,0,1.979,1.332,1.979,1.584c0,1.26-1.62,1.943-2.7,1.943
			c-0.576,0-1.295-0.324-1.835-0.576l-0.144-0.036c-1.656-0.936-1.728-3.383-1.728-5.075c0-2.52,0-5.255-0.324-7.919
			c-0.144-0.036-0.324-0.036-0.468-0.036c-0.216,0-0.432,0.036-0.648,0.036c-0.432,0-0.648-1.008-0.648-1.872
			c0-1.584,0.864-1.151,1.583-1.151c0-0.864-0.036-1.655-0.036-2.483c0-1.549,1.008-1.439,1.979-1.439
			c0.324,0,0.648,0.035,1.368,0.432C186.627,406.286,186.699,407.475,186.771,408.662z"/>
		<path fill="#001E39" d="M196.203,402.65c0.072,0.36,0.108,0.9,0.108,1.477c0,1.008-0.072,2.123-0.072,2.807
			c0,0.612,0,1.188,0.036,1.801h0.432c5.507,0,5.184,6.011,5.184,10.006c0,1.152,0,5.111-0.504,5.903h0.036
			c-0.216,0.469-0.936,0.612-1.404,0.612c-1.116,0-1.44-0.54-1.44-1.584c0-0.504,0.072-1.008,0.072-1.512v-6.047
			c0-1.26-0.144-4.355-1.944-4.355c-0.144,0-0.324,0-0.468,0.071c0,1.872-0.072,12.274-0.36,12.743
			c-0.252,0.396-0.612,0.611-1.08,0.611c-0.612,0-1.188-0.216-1.8-0.216c-0.108-2.808-0.216-5.651-0.216-8.459v-2.951
			c0-1.404,0.072-2.844,0.144-4.247c0.072-2.305,0-4.607,0.18-6.912c0.648-0.035,1.26-0.216,1.872-0.216
			c0.324,0,0.612,0.072,0.936,0.181L196.203,402.65z"/>
		<path fill="#001E39" d="M214.922,415.105c0,0.827,0.18,1.871-0.612,1.871c-0.252,0-0.468,0-0.72-0.036
			c-0.144-0.107-5.975-0.359-7.019-0.359c-0.396,0-0.864,0.107-1.152,0.107c-0.108,0-0.216-0.035-0.36-0.071h0.108
			c-0.468-0.216-0.612-0.36-0.612-0.937v-1.764c0-0.504,0.18-0.863,0.72-0.863c0.684,0,1.296,0.071,1.944,0.071
			c0.468,0,2.34-0.035,3.996-0.035c1.368,0,2.592,0.035,2.879,0.144C214.814,413.233,214.922,414.277,214.922,415.105z"/>
		<path fill="#001E39" d="M229.43,417.913c0.072,0.396,0.108,0.792,0.108,1.188c0,4.212-2.772,6.228-6.083,6.228
			c-2.7,0-5.471-2.304-5.471-5.147c0-1.404,1.008-1.476,2.124-1.476c0.54,0,1.08,0.144,1.584,0.432c0,1.151,0.648,2.699,2.016,2.699
			c1.26,0,2.16-0.972,2.16-2.195c0-2.304-3.312-5.327-4.967-6.695l0.036,0.036c-2.16-1.764-3.167-3.06-3.167-5.939
			c0-3.384,2.375-5.867,5.831-5.867c1.62,0,3.708,0.828,4.428,2.376c0.36,0.791,1.043,1.979,1.043,2.879
			c0,1.08-1.62,1.26-2.447,1.26c-2.304,0-0.576-3.059-3.636-3.059c-0.396,0-0.864,0.396-1.116,0.684h0.036
			c-0.504,0.576-0.828,1.332-0.828,2.088c0,0.18,0.036,0.359,0.072,0.539c0.432,2.34,7.271,5.76,8.279,10.008V417.913z"/>
		<path fill="#001E39" d="M239.042,424.896c-0.216,0.108-0.576,0.324-0.864,0.324c-0.036,0-0.072,0-0.108-0.036
			c-0.216,0.036-0.468,0.072-0.684,0.072c-0.324,0-0.612,0-0.864-0.108l-0.864-0.144h0.036c-0.288-0.036-0.468-0.18-0.72-0.324
			c-2.771-1.332-3.131-3.959-3.131-7.631c0-2.951,0.828-8.1,4.643-8.1c0.468,0,0.972,0.037,1.44,0.217h-0.036
			c3.564,1.403,4.104,5.976,4.104,9.322c0,0.828-0.576,5.328-2.987,6.407H239.042z M234.83,417.445
			c0.324,1.728-0.324,4.895,2.268,4.895c1.583,0,1.188-3.743,1.188-5.075c0-1.728-0.108-5.291-1.439-5.291
			c-1.404,0-2.052,3.888-2.052,5.003C234.794,417.121,234.794,417.301,234.83,417.445z"/>
		<path fill="#001E39" d="M255.385,416.94c0,1.98,0.432,4.68,0.432,6.804c0,1.476-0.504,1.368-1.548,1.368
			c-0.792,0-1.332,0.071-1.656-0.685c-0.792,0.612-1.044,0.576-1.98,0.756h0.036c-0.288,0.072-0.576,0.108-0.9,0.108
			c-1.62,0-3.023-0.792-3.923-2.088v0.036c-0.468-0.612-0.504-1.224-0.792-1.872l0.036,0.036c-0.396-1.044-0.432-5.003-0.432-7.055
			v-2.916c0-1.116,0-2.195,0.144-3.275c0.504-0.217,1.08-0.324,1.62-0.324c1.008,0,1.908,0,1.908,1.367
			c0,3.312-0.432,6.66-0.432,9.936c0,1.332,0.504,2.304,1.979,2.304c0.396,0,0.828-0.145,1.224-0.324l-0.036,0.036
			c0.864-0.504,0.9-2.771,0.9-3.852c0-2.808-0.396-5.651-0.396-8.459c0-0.972,1.224-1.08,2.16-1.08c1.8,0,1.728,0.324,1.728,1.332
			C255.458,411.686,255.385,414.313,255.385,416.94z"/>
		<path fill="#001E39" d="M263.702,408.662c0.899,0.072,1.764,0,2.627,0.216l-0.036,0.36c0.108,0.359,0.18,0.72,0.18,1.115
			c0,1.116-0.648,1.152-1.512,1.152h-1.332c-0.036,0.647-0.036,1.332-0.036,1.979c0,2.699-0.108,8.459,0.684,8.603
			c0.324-0.107,0.324-0.359,0.792-0.359c0.288,0,1.979,1.332,1.979,1.584c0,1.26-1.62,1.943-2.7,1.943
			c-0.576,0-1.295-0.324-1.835-0.576l-0.144-0.036c-1.656-0.936-1.728-3.383-1.728-5.075c0-2.52,0-5.255-0.324-7.919
			c-0.144-0.036-0.324-0.036-0.468-0.036c-0.216,0-0.432,0.036-0.648,0.036c-0.432,0-0.648-1.008-0.648-1.872
			c0-1.584,0.864-1.151,1.583-1.151c0-0.864-0.036-1.655-0.036-2.483c0-1.549,1.008-1.439,1.979-1.439
			c0.324,0,0.648,0.035,1.368,0.432C263.558,406.286,263.63,407.475,263.702,408.662z"/>
		<path fill="#001E39" d="M273.134,402.65c0.072,0.36,0.108,0.9,0.108,1.477c0,1.008-0.072,2.123-0.072,2.807
			c0,0.612,0,1.188,0.036,1.801h0.432c5.507,0,5.184,6.011,5.184,10.006c0,1.152,0,5.111-0.504,5.903h0.036
			c-0.216,0.469-0.936,0.612-1.404,0.612c-1.116,0-1.44-0.54-1.44-1.584c0-0.504,0.072-1.008,0.072-1.512v-6.047
			c0-1.26-0.144-4.355-1.944-4.355c-0.144,0-0.324,0-0.468,0.071c0,1.872-0.072,12.274-0.36,12.743
			c-0.252,0.396-0.612,0.611-1.08,0.611c-0.612,0-1.188-0.216-1.8-0.216c-0.108-2.808-0.216-5.651-0.216-8.459v-2.951
			c0-1.404,0.072-2.844,0.144-4.247c0.072-2.305,0-4.607,0.18-6.912c0.648-0.035,1.26-0.216,1.872-0.216
			c0.324,0,0.612,0.072,0.936,0.181L273.134,402.65z"/>
	</g>
</g>
<path fill="#001E39" fill-opacity="0.2" stroke="#001E39" stroke-width="8" stroke-miterlimit="10" d="M329.261,240.982V384.5
	h143.518V240.982H329.261z M460.818,327.264H341.221v-29.045h119.597V327.264z"/>
<g>
	<g>
		<path fill="#001E39" d="M354.364,421.44c1.908,0,1.332,2.411,1.44,3.707c-1.224,0.108-2.484,0.145-3.744,0.145
			c-0.648,0-5.111-0.072-5.507-0.288c-0.576-1.332-0.612-3.779-0.612-5.291c0-6.048-0.144-12.167-0.144-18.214
			c0.576-0.576,1.296-0.576,2.052-0.576c1.728,0,3.456-0.18,5.147-0.18c0.756,0,1.548,0.108,2.196,0.468
			c0.072,0.828,0.252,1.943,0.252,2.592c0,0.791-0.792,0.791-1.404,0.791c-1.584,0-3.168,0.072-4.716,0.181
			c0,2.304-0.36,4.571-0.36,6.875c0,0.18,0,0.36,0.036,0.54c1.152-0.108,2.304-0.288,3.456-0.288c0.432,0,0.864,0.072,1.26,0.072
			c0.144,0.468,0.576,2.304,0.576,2.771c0,1.116-3.564,0.792-5.184,0.9v0.323c-0.036,0.9,0.18,1.8,0.18,2.7
			c0,0.863,0,1.728,0.18,2.592c1.404,0.216,2.772,0.216,4.14,0.216C353.824,421.477,354.112,421.44,354.364,421.44z"/>
		<path fill="#001E39" d="M367.503,422.124c0,0.252,0.036,0.576,0.036,0.972c0,0.828-0.144,1.765-1.043,1.765
			c-0.396,0-0.792,0.287-1.224,0.287c-0.36,0-0.792-0.216-0.864-0.575c-0.54,0.252-1.152,0.54-1.764,0.54
			c-3.168,0-4.5-3.96-4.5-6.695c0-2.16,1.08-5.579,3.779-5.579c0.684,0,1.44,0.216,2.304,0.684c0.18-0.324,0.252-0.684,0.252-1.044
			c0-0.576-0.216-1.224-0.792-1.476h0.036c-0.036-0.036-0.144-0.072-0.216-0.072c-0.432,0-0.576,0.54-0.684,0.864
			c0,0.504-1.08,0.539-1.548,0.575c-0.432,0-1.548,0-1.548-0.575c0-2.16,2.124-4.319,4.284-4.319c3.167,0,3.708,3.851,3.708,6.263
			c0,1.512-0.216,3.023-0.216,4.787V422.124z M364.408,418.74c0-0.863,0-2.52-0.936-2.879c-0.504,0-1.908,0.144-1.908,2.771v0.396
			c0,0.685,0.108,2.772,1.116,2.772C364.012,421.801,364.408,419.713,364.408,418.74z"/>
		<path fill="#001E39" d="M378.123,420.433c0,0.936-0.288,2.195-0.864,2.987v-0.036c-0.828,1.26-2.34,1.908-3.815,1.908
			c-1.368,0-2.628-0.468-3.672-1.296v0.036c-0.396-0.252-1.224-1.224-1.224-1.692c0.252-0.575,1.728-1.655,2.375-1.655
			c0.504,0,1.584,1.403,2.7,1.403c0.54,0,0.864-0.972,0.864-1.403c0-1.44-1.8-2.952-2.844-3.779
			c-1.764-1.332-2.844-2.124-2.844-4.572c0-2.519,2.196-4.571,4.644-4.571c0.36,0,0.72,0.036,1.08,0.18v-0.035
			c1.08,0.252,3.06,1.26,3.06,2.268c-0.36,0.54-1.8,1.764-2.412,1.764c-0.252,0-0.828-0.828-1.728-0.828
			c-0.72,0-1.044,0.576-1.044,1.224c0,1.188,1.188,2.052,2.016,2.7h-0.036C376.107,416.293,378.123,418.129,378.123,420.433z"/>
		<path fill="#001E39" d="M386.006,408.662c0.9,0.072,1.764,0,2.628,0.216l-0.036,0.36c0.108,0.359,0.18,0.72,0.18,1.115
			c0,1.116-0.648,1.152-1.512,1.152h-1.332c-0.036,0.647-0.036,1.332-0.036,1.979c0,2.699-0.108,8.459,0.684,8.603
			c0.324-0.107,0.324-0.359,0.792-0.359c0.288,0,1.979,1.332,1.979,1.584c0,1.26-1.62,1.943-2.7,1.943
			c-0.576,0-1.295-0.324-1.835-0.576l-0.144-0.036c-1.656-0.936-1.728-3.383-1.728-5.075c0-2.52,0-5.255-0.324-7.919
			c-0.144-0.036-0.324-0.036-0.468-0.036c-0.216,0-0.432,0.036-0.648,0.036c-0.432,0-0.648-1.008-0.648-1.872
			c0-1.584,0.864-1.151,1.583-1.151c0-0.864-0.036-1.655-0.036-2.483c0-1.549,1.008-1.439,1.979-1.439
			c0.324,0,0.648,0.035,1.368,0.432C385.863,406.286,385.935,407.475,386.006,408.662z"/>
		<path fill="#001E39" d="M402.35,415.105c0,0.827,0.181,1.871-0.611,1.871c-0.252,0-0.469,0-0.721-0.036
			c-0.143-0.107-5.975-0.359-7.019-0.359c-0.396,0-0.864,0.107-1.152,0.107c-0.108,0-0.216-0.035-0.36-0.071h0.108
			c-0.468-0.216-0.612-0.36-0.612-0.937v-1.764c0-0.504,0.18-0.863,0.72-0.863c0.684,0,1.296,0.071,1.944,0.071
			c0.468,0,2.34-0.035,3.996-0.035c1.368,0,2.592,0.035,2.879,0.144C402.242,413.233,402.35,414.277,402.35,415.105z"/>
		<path fill="#001E39" d="M417.361,425.004c-0.359-0.576-2.123-10.187-2.303-11.375c-0.648,3.492-1.44,6.983-1.944,10.475
			c-0.108,0.612-0.288,0.828-0.864,0.973l0.036-0.036c-0.323,0.107-0.647,0.107-0.972,0.107c-0.252,0-0.648,0-0.936-0.107
			c-0.684-0.216-3.384-10.655-3.672-12.131c-0.468-2.34-0.792-4.787-1.188-7.163c-0.145-0.972-0.541-2.627-0.541-3.6
			c0-0.287,1.873-0.287,2.16-0.287c0.648,0,1.296,0,1.98,0.071c0.144,1.151,0.072,2.304,0.18,3.42
			c0.072,0.864,0.324,1.728,0.504,2.591l1.008,5.22c0.18,0.937,0.324,1.908,0.396,2.88c0.359-1.476,1.655-10.871,2.123-11.303
			c0.288-0.252,0.792-0.287,1.115-0.287c0.505,0,1.332,0.107,1.729,0.432c0.576,0.468,2.52,11.267,2.592,12.634
			c0.468-2.663,0.504-5.688,0.863-8.495c0.108-0.899,0.937-7.703,1.549-8.026c0.215,0.036,0.396,0.071,0.611,0.071
			c0.072,0,0.18-0.035,0.252-0.035c0.504,0,1.836,0.468,2.34,0.647c-0.324,3.096-0.756,6.263-1.296,9.323
			c-0.216,1.115-2.304,13.318-2.448,13.57c-0.396,0.575-1.332,0.684-1.979,0.684C418.226,425.256,417.722,425.184,417.361,425.004z"
			/>
		<path fill="#001E39" d="M434.354,420.648c0,2.699-2.447,4.607-5.039,4.607c-4.428,0-4.787-6.083-4.787-9.323
			c0-3.347,1.223-7.919,5.326-7.919c4.284,0,4.141,5.184,4.141,8.423c0,1.044-3.492,1.188-6.084,1.188v0.684
			c0,1.008,0.072,3.527,1.512,3.527c1.332,0,1.439-1.835,1.656-2.808C431.979,419.028,434.354,419.425,434.354,420.648z
			 M428.019,414.205c0.36,0.072,0.72,0.072,1.079,0.072c0.685,0,1.297-0.072,1.944-0.18c0-0.648-0.36-2.808-1.26-2.808
			C428.45,411.29,428.127,413.197,428.019,414.205z"/>
		<path fill="#001E39" d="M444.686,420.433c0,0.936-0.288,2.195-0.863,2.987v-0.036c-0.828,1.26-2.34,1.908-3.816,1.908
			c-1.367,0-2.627-0.468-3.672-1.296v0.036c-0.395-0.252-1.223-1.224-1.223-1.692c0.252-0.575,1.727-1.655,2.375-1.655
			c0.504,0,1.584,1.403,2.699,1.403c0.541,0,0.865-0.972,0.865-1.403c0-1.44-1.801-2.952-2.844-3.779
			c-1.764-1.332-2.844-2.124-2.844-4.572c0-2.519,2.195-4.571,4.643-4.571c0.36,0,0.721,0.036,1.08,0.18v-0.035
			c1.08,0.252,3.06,1.26,3.06,2.268c-0.36,0.54-1.8,1.764-2.411,1.764c-0.252,0-0.828-0.828-1.729-0.828
			c-0.72,0-1.043,0.576-1.043,1.224c0,1.188,1.188,2.052,2.016,2.7h-0.037C442.67,416.293,444.686,418.129,444.686,420.433z"/>
		<path fill="#001E39" d="M452.57,408.662c0.898,0.072,1.764,0,2.627,0.216l-0.036,0.36c0.108,0.359,0.181,0.72,0.181,1.115
			c0,1.116-0.648,1.152-1.512,1.152h-1.332c-0.037,0.647-0.037,1.332-0.037,1.979c0,2.699-0.107,8.459,0.685,8.603
			c0.323-0.107,0.323-0.359,0.792-0.359c0.288,0,1.979,1.332,1.979,1.584c0,1.26-1.62,1.943-2.7,1.943
			c-0.575,0-1.295-0.324-1.835-0.576l-0.144-0.036c-1.656-0.936-1.729-3.383-1.729-5.075c0-2.52,0-5.255-0.324-7.919
			c-0.144-0.036-0.324-0.036-0.467-0.036c-0.217,0-0.433,0.036-0.648,0.036c-0.432,0-0.648-1.008-0.648-1.872
			c0-1.584,0.864-1.151,1.584-1.151c0-0.864-0.035-1.655-0.035-2.483c0-1.549,1.008-1.439,1.979-1.439
			c0.324,0,0.648,0.035,1.368,0.432C452.426,406.286,452.498,407.475,452.57,408.662z"/>
	</g>
</g>
<path fill="#001E39" fill-opacity="0.2" stroke="#001E39" stroke-width="8" stroke-miterlimit="10" d="M515.424,240.982V384.5
	h143.518V240.982H515.424z M647.836,373.395H526.529V252.088h121.307V373.395z"/>
<g>
	<g>
		<path fill="#001E39" d="M541.157,412.621c0,0.864-0.108,1.729-0.181,2.592c-0.252,2.628-0.395,5.472-0.395,7.883
			c0,0.469,0.035,0.937,0.071,1.368c-0.252,0.756-1.296,0.792-2.052,0.792c-0.9,0-1.367-0.108-1.691-0.936
			c0.324-0.612,0.359-5.724,0.359-6.695c0-4.823,0.36-9.646,0.36-14.435c0-1.62,1.188-1.691,2.159-1.691h0.9
			c0.828,0.972,1.764,5.795,2.592,7.739c0.72,1.691,1.224,3.348,2.051,4.967c0-0.72-0.071-1.403-0.071-2.124
			c0-2.915,0.468-5.795,0.468-8.71c0-0.396-0.145-0.793-0.145-1.225c0-0.396,0.109-0.791,0.289-1.188
			c1.043,0.252,3.707-0.18,3.707,1.332c0,0.72-0.145,1.512-0.18,2.268c-0.217,5.579-0.612,11.015-0.721,16.954v1.403
			c0,2.016-0.504,2.483-1.907,2.483c-0.504,0-1.188-0.071-1.548-0.432c-0.252-0.324-3.455-9.683-3.672-10.654L541.157,412.621z"/>
		<path fill="#001E39" d="M561.928,415.105c0,0.827,0.181,1.871-0.611,1.871c-0.252,0-0.469,0-0.721-0.036
			c-0.143-0.107-5.975-0.359-7.019-0.359c-0.396,0-0.864,0.107-1.151,0.107c-0.108,0-0.217-0.035-0.36-0.071h0.108
			c-0.469-0.216-0.612-0.36-0.612-0.937v-1.764c0-0.504,0.181-0.863,0.72-0.863c0.684,0,1.296,0.071,1.943,0.071
			c0.469,0,2.34-0.035,3.996-0.035c1.367,0,2.592,0.035,2.879,0.144C561.82,413.233,561.928,414.277,561.928,415.105z"/>
		<path fill="#001E39" d="M573.053,421.44c1.907,0,1.332,2.411,1.439,3.707c-1.225,0.108-2.484,0.145-3.744,0.145
			c-0.647,0-5.111-0.072-5.507-0.288c-0.575-1.332-0.612-3.779-0.612-5.291c0-6.048-0.144-12.167-0.144-18.214
			c0.575-0.576,1.296-0.576,2.052-0.576c1.728,0,3.455-0.18,5.147-0.18c0.756,0,1.548,0.108,2.196,0.468
			c0.071,0.828,0.252,1.943,0.252,2.592c0,0.791-0.793,0.791-1.404,0.791c-1.584,0-3.168,0.072-4.716,0.181
			c0,2.304-0.36,4.571-0.36,6.875c0,0.18,0,0.36,0.037,0.54c1.151-0.108,2.303-0.288,3.455-0.288c0.432,0,0.863,0.072,1.26,0.072
			c0.145,0.468,0.576,2.304,0.576,2.771c0,1.116-3.564,0.792-5.184,0.9v0.323c-0.036,0.9,0.18,1.8,0.18,2.7
			c0,0.863,0,1.728,0.18,2.592c1.404,0.216,2.772,0.216,4.141,0.216C572.512,421.477,572.801,421.44,573.053,421.44z"/>
		<path fill="#001E39" d="M587.308,415.105c0,0.827,0.181,1.871-0.612,1.871c-0.252,0-0.468,0-0.72-0.036
			c-0.144-0.107-5.976-0.359-7.019-0.359c-0.396,0-0.864,0.107-1.152,0.107c-0.107,0-0.216-0.035-0.359-0.071h0.107
			c-0.468-0.216-0.611-0.36-0.611-0.937v-1.764c0-0.504,0.18-0.863,0.719-0.863c0.685,0,1.297,0.071,1.944,0.071
			c0.468,0,2.34-0.035,3.995-0.035c1.368,0,2.592,0.035,2.88,0.144C587.199,413.233,587.308,414.277,587.308,415.105z"/>
		<path fill="#001E39" d="M601.815,417.913c0.071,0.396,0.108,0.792,0.108,1.188c0,4.212-2.772,6.228-6.084,6.228
			c-2.699,0-5.471-2.304-5.471-5.147c0-1.404,1.008-1.476,2.123-1.476c0.54,0,1.08,0.144,1.584,0.432
			c0,1.151,0.648,2.699,2.016,2.699c1.26,0,2.16-0.972,2.16-2.195c0-2.304-3.312-5.327-4.968-6.695l0.036,0.036
			c-2.16-1.764-3.168-3.06-3.168-5.939c0-3.384,2.376-5.867,5.832-5.867c1.619,0,3.707,0.828,4.428,2.376
			c0.359,0.791,1.043,1.979,1.043,2.879c0,1.08-1.619,1.26-2.447,1.26c-2.304,0-0.576-3.059-3.636-3.059
			c-0.396,0-0.864,0.396-1.116,0.684h0.036c-0.504,0.576-0.827,1.332-0.827,2.088c0,0.18,0.035,0.359,0.071,0.539
			c0.433,2.34,7.271,5.76,8.279,10.008V417.913z"/>
		<path fill="#001E39" d="M614.559,415.105c0,0.827,0.181,1.871-0.611,1.871c-0.252,0-0.469,0-0.721-0.036
			c-0.143-0.107-5.975-0.359-7.019-0.359c-0.396,0-0.864,0.107-1.151,0.107c-0.108,0-0.217-0.035-0.36-0.071h0.108
			c-0.469-0.216-0.612-0.36-0.612-0.937v-1.764c0-0.504,0.181-0.863,0.72-0.863c0.684,0,1.296,0.071,1.943,0.071
			c0.469,0,2.34-0.035,3.996-0.035c1.367,0,2.592,0.035,2.879,0.144C614.451,413.233,614.559,414.277,614.559,415.105z"/>
		<path fill="#001E39" d="M629.57,425.004c-0.359-0.576-2.123-10.187-2.303-11.375c-0.648,3.492-1.44,6.983-1.944,10.475
			c-0.108,0.612-0.288,0.828-0.864,0.973l0.036-0.036c-0.323,0.107-0.647,0.107-0.972,0.107c-0.252,0-0.648,0-0.936-0.107
			c-0.684-0.216-3.384-10.655-3.672-12.131c-0.468-2.34-0.792-4.787-1.188-7.163c-0.145-0.972-0.541-2.627-0.541-3.6
			c0-0.287,1.873-0.287,2.16-0.287c0.648,0,1.296,0,1.98,0.071c0.144,1.151,0.072,2.304,0.18,3.42
			c0.072,0.864,0.324,1.728,0.504,2.591l1.008,5.22c0.18,0.937,0.324,1.908,0.396,2.88c0.359-1.476,1.655-10.871,2.123-11.303
			c0.288-0.252,0.792-0.287,1.115-0.287c0.505,0,1.332,0.107,1.729,0.432c0.576,0.468,2.52,11.267,2.592,12.634
			c0.468-2.663,0.504-5.688,0.863-8.495c0.108-0.899,0.937-7.703,1.549-8.026c0.215,0.036,0.396,0.071,0.611,0.071
			c0.072,0,0.18-0.035,0.252-0.035c0.504,0,1.836,0.468,2.34,0.647c-0.324,3.096-0.756,6.263-1.296,9.323
			c-0.216,1.115-2.304,13.318-2.448,13.57c-0.396,0.575-1.332,0.684-1.979,0.684C630.435,425.256,629.931,425.184,629.57,425.004z"
			/>
	</g>
</g>
</svg>
