<?xml version="1.0" encoding="utf-8"?>
<!-- Generator: Adobe Illustrator 15.1.0, SVG Export Plug-In . SVG Version: 6.00 Build 0)  -->
<!DOCTYPE svg PUBLIC "-//W3C//DTD SVG 1.1//EN" "http://www.w3.org/Graphics/SVG/1.1/DTD/svg11.dtd">
<svg version="1.1" id="Layer_1" xmlns="http://www.w3.org/2000/svg" xmlns:xlink="http://www.w3.org/1999/xlink" x="0px" y="0px"
	 width="239px" height="157px" viewBox="129.5 27.5 239 157" enable-background="new 129.5 27.5 239 157" xml:space="preserve">
<path d="M210.131,171.475c0,4.213-3.526,7.628-7.875,7.628h-57.18c-4.351,0-7.876-3.415-7.876-7.628V116.1
	c0-4.212,3.525-7.627,7.876-7.627h57.18c4.349,0,7.875,3.416,7.875,7.627V171.475z M198.066,121.577c0-3.638-2.95-6.588-6.588-6.588
	h-42.002c-3.639,0-6.59,2.95-6.59,6.588v36.24c0,3.639,2.949,6.588,6.59,6.588h42.002c3.638,0,6.588-2.949,6.588-6.588V121.577z
	 M286.797,171.475c0,4.213-3.525,7.628-7.875,7.628h-57.18c-4.351,0-7.876-3.415-7.876-7.628V116.1c0-4.212,3.525-7.627,7.876-7.627
	h57.18c4.352,0,7.875,3.416,7.875,7.627V171.475z M274.734,121.577c0-3.638-2.949-6.588-6.588-6.588h-42.005
	c-3.638,0-6.588,2.95-6.588,6.588v36.24c0,3.639,2.95,6.588,6.588,6.588h42.005c3.639,0,6.588-2.949,6.588-6.588V121.577
	L274.734,121.577z M363.463,171.475c0,4.213-3.528,7.628-7.875,7.628h-57.182c-4.35,0-7.875-3.415-7.875-7.628V116.1
	c0-4.212,3.527-7.627,7.875-7.627h57.182c4.35,0,7.875,3.416,7.875,7.627V171.475L363.463,171.475z M351.397,121.577
	c0-3.638-2.949-6.588-6.588-6.588h-42.003c-3.641,0-6.59,2.95-6.59,6.588v36.24c0,3.639,2.949,6.588,6.59,6.588h42.003
	c3.641,0,6.588-2.949,6.588-6.588V121.577z M286.797,94.81c0,4.212-3.525,7.627-7.875,7.627h-57.18
	c-4.351,0-7.876-3.416-7.876-7.627V39.435c0-4.212,3.525-7.627,7.876-7.627h57.18c4.352,0,7.875,3.416,7.875,7.627V94.81z
	 M274.734,42.511c0-3.638-2.949-6.588-6.588-6.588h-42.005c-3.638,0-6.588,2.95-6.588,6.588v36.24c0,3.639,2.95,6.588,6.588,6.588
	h42.005c3.639,0,6.588-2.95,6.588-6.588V42.511L274.734,42.511z M228.911,61.798l-5.006-18.867h2.561l2.87,12.367
	c0.307,1.296,0.574,2.583,0.797,3.859c0.48-2.014,0.763-3.178,0.85-3.487l3.59-12.742h3.012l2.702,9.55
	c0.677,2.369,1.167,4.596,1.466,6.679c0.24-1.193,0.555-2.561,0.941-4.104l2.959-12.123h2.508l-5.172,18.867h-2.407l-3.977-14.374
	c-0.336-1.2-0.533-1.939-0.593-2.212c-0.199,0.866-0.384,1.603-0.552,2.212l-4.003,14.374H228.911z M144.906,137.549l7.246-18.869
	h2.69l7.721,18.866h-2.844l-2.201-5.714h-7.889l-2.071,5.714h-2.652V137.549z M150.35,129.799h6.396l-1.968-5.225
	c-0.6-1.586-1.046-2.89-1.339-3.912c-0.24,1.209-0.579,2.412-1.015,3.602L150.35,129.799z M223.585,131.484l2.354-0.207
	c0.11,0.948,0.37,1.719,0.78,2.326c0.405,0.605,1.039,1.095,1.898,1.467c0.857,0.372,1.822,0.559,2.895,0.559
	c0.953,0,1.793-0.142,2.522-0.425s1.27-0.672,1.627-1.167c0.355-0.492,0.535-1.03,0.535-1.615c0-0.59-0.173-1.106-0.516-1.55
	s-0.91-0.811-1.699-1.114c-0.506-0.197-1.627-0.504-3.357-0.921c-1.735-0.415-2.947-0.809-3.644-1.176
	c-0.9-0.47-1.574-1.056-2.014-1.757c-0.441-0.698-0.662-1.478-0.662-2.35c0-0.95,0.269-1.84,0.811-2.668
	c0.54-0.828,1.327-1.455,2.367-1.887c1.039-0.427,2.191-0.643,3.46-0.643c1.399,0,2.633,0.226,3.701,0.674
	c1.068,0.451,1.889,1.114,2.464,1.987c0.574,0.876,0.883,1.867,0.927,2.974l-2.396,0.18c-0.127-1.19-0.564-2.093-1.305-2.703
	c-0.744-0.609-1.839-0.915-3.288-0.915c-1.51,0-2.611,0.276-3.3,0.831c-0.691,0.552-1.037,1.224-1.037,2.001
	c0,0.677,0.245,1.236,0.734,1.67c0.48,0.439,1.735,0.888,3.763,1.347c2.028,0.461,3.42,0.861,4.176,1.205
	c1.097,0.509,1.908,1.15,2.432,1.922c0.523,0.78,0.785,1.673,0.785,2.684c0,1.005-0.288,1.951-0.862,2.841
	c-0.576,0.888-1.399,1.574-2.477,2.071c-1.078,0.492-2.29,0.739-3.636,0.739c-1.708,0-3.139-0.25-4.291-0.747
	c-1.154-0.499-2.059-1.25-2.714-2.246C223.965,133.879,223.619,132.747,223.585,131.484z M300.832,137.549V118.68h6.499
	c1.467,0,2.585,0.091,3.358,0.269c1.079,0.25,1.998,0.703,2.764,1.351c0.994,0.845,1.738,1.918,2.234,3.224
	c0.492,1.31,0.74,2.805,0.74,4.485c0,1.435-0.166,2.702-0.502,3.809c-0.334,1.106-0.764,2.023-1.287,2.75
	c-0.522,0.725-1.096,1.294-1.718,1.711c-0.624,0.415-1.373,0.732-2.251,0.948c-0.881,0.211-1.892,0.322-3.031,0.322H300.832z
	 M303.328,135.322h4.029c1.241,0,2.221-0.115,2.928-0.348c0.709-0.233,1.27-0.559,1.692-0.979c0.591-0.593,1.052-1.387,1.382-2.388
	c0.33-0.996,0.495-2.21,0.495-3.636c0-1.97-0.324-3.487-0.97-4.55c-0.65-1.056-1.436-1.769-2.361-2.129
	c-0.668-0.257-1.748-0.386-3.23-0.386h-3.965V135.322z"/>
</svg>
