<?xml version="1.0" encoding="utf-8"?>
<!-- Generator: Adobe Illustrator 15.1.0, SVG Export Plug-In . SVG Version: 6.00 Build 0)  -->
<!DOCTYPE svg PUBLIC "-//W3C//DTD SVG 1.1//EN" "http://www.w3.org/Graphics/SVG/1.1/DTD/svg11.dtd">
<svg version="1.1" id="Layer_1" xmlns="http://www.w3.org/2000/svg" xmlns:xlink="http://www.w3.org/1999/xlink" x="0px" y="0px"
	 width="237px" height="119px" viewBox="137.5 56.5 237 119" enable-background="new 137.5 56.5 237 119" xml:space="preserve">
<path d="M262.55,76.02c-2.446-0.333-4.923-0.506-7.366-0.506c-10.79,0-20.45,3.302-28.32,8.083
	c-4.582-4.414-18.969-16.97-30.652-13.018c-6.288,2.126-10.114,8.15-11.372,17.902c-0.799,6.208-2.985,10.209-6.684,12.23
	c-7.498,4.099-20.235-0.286-24.502-2.307c-2.705-1.296-5.95-0.149-7.246,2.551c-1.296,2.707-0.151,5.95,2.551,7.246
	c0.588,0.281,10.683,5.033,21.468,5.033c4.38,0,8.877-0.782,12.897-2.966c6.893-3.749,11.025-10.61,12.288-20.395
	c0.65-5.062,2.141-8.343,4.075-9c3.979-1.332,12.501,4.116,18.348,9.357c-7.685,7.003-12.271,15.082-12.432,20.89
	c-0.175,6.333,6.54,14.599,12.199,20.419c17.124,17.606,49.687,38.16,85.086,38.165c0.003,0,0.008,0,0.013,0
	c1.08,0,2.155-0.02,3.438-0.065c28.1-2.006,38.758-17.045,39.36-30.446C346.782,115.308,318.05,85.056,262.55,76.02z
	 M260.932,86.767c0.046,0.007,0.09,0.017,0.137,0.024c-3.088,1.754-6.105,3.888-9.01,6.228c-3.883-2.15-7.398-3.547-10.507-4.363
	c4.155-1.395,8.708-2.273,13.632-2.273C257.131,86.381,259.11,86.515,260.932,86.767z M216.462,111.42
	c0.103-3.768,5.47-11.688,14.508-17.623c3.168-0.533,8.573-0.365,16.193,3.441c-5.69,5.242-10.747,11.004-14.722,15.977
	c-1.149-1.181-2.227-2.326-3.148-3.365c-5.275-6.723,0.991-12.924-0.823-11.405c-6.283,5.268-8.525,10.073-8.815,11.686
	c0.734,2.234,3.351,5.863,7.447,10.109c-0.895,1.243-1.649,2.318-2.232,3.168C219.698,118.018,216.698,113.537,216.462,111.42z
	 M334.85,138.708c-0.506,11.307-11.453,18.825-29.086,20.085c-0.957,0.034-1.908,0.049-2.86,0.049c-0.003,0-0.007,0-0.007,0
	c-31.332,0-58.493-17.179-73.645-31.14c0.665-1.008,1.406-2.085,2.223-3.235c15.316,13.927,43.5,31.333,74.182,30.25
	c15.807-1.135,25.682-7.548,26.119-17.148c0.125-2.808-0.576-5.208-1.997-8.522c-0.206,4.637-0.821,16.697-24.423,17.16
	c-29.87,1.054-54.527-15.713-68.584-28.764c9.108-11.421,22.375-24.936,34.731-28.61C316.176,99.021,335.539,123.417,334.85,138.708
	z"/>
</svg>
