<?xml version="1.0" encoding="utf-8"?>
<!-- Generator: Adobe Illustrator 15.1.0, SVG Export Plug-In . SVG Version: 6.00 Build 0)  -->
<!DOCTYPE svg PUBLIC "-//W3C//DTD SVG 1.1//EN" "http://www.w3.org/Graphics/SVG/1.1/DTD/svg11.dtd">
<svg version="1.1" id="Layer_1" xmlns="http://www.w3.org/2000/svg" xmlns:xlink="http://www.w3.org/1999/xlink" x="0px" y="0px"
	 width="239px" height="240.5px" viewBox="131.5 0 239 240.5" enable-background="new 131.5 0 239 240.5" xml:space="preserve">
<g>
	<g>
		<polygon points="365.2,235.2 274,235.2 274,211.2 341.2,211.2 341.2,28.8 163.6,28.8 163.6,96 139.6,96 139.6,4.8 365.2,4.8 		"/>
	</g>
	<g>
		<g>
			<rect x="240.4" y="206.4" width="24" height="28.8"/>
		</g>
		<g>
			<path d="M230.8,235.2h-24v-24h24V235.2z M197.2,235.2h-24v-24h24V235.2z"/>
		</g>
		<g>
			<rect x="139.6" y="211.2" width="24" height="24"/>
		</g>
		<g>
			<path d="M163.6,201.6h-24v-24h24V201.6z M163.6,168h-24v-24h24V168z"/>
		</g>
		<g>
			<rect x="139.6" y="105.6" width="24" height="28.8"/>
		</g>
		<g>
			<path d="M230.8,129.6h-24v-24h24V129.6z M197.2,129.6h-24v-24h24V129.6z"/>
		</g>
		<g>
			<rect x="240.4" y="105.6" width="24" height="24"/>
		</g>
		<g>
			<path d="M264.4,196.8h-24v-24h24V196.8z M264.4,163.2h-24v-24h24V163.2z"/>
		</g>
	</g>
	<g>
		<g>
			
				<rect x="319.326" y="15.985" transform="matrix(-0.7347 -0.6784 0.6784 -0.7347 545.7538 294.2166)" width="22.166" height="48.807"/>
		</g>
		<g>
			<polygon points="287.301,87.067 308.162,31.267 315.832,56.165 341.268,61.838 			"/>
		</g>
	</g>
</g>
</svg>
